<?xml version="1.0" standalone="no"?>
<!DOCTYPE svg PUBLIC "-//W3C//DTD SVG 1.1//EN" "http://www.w3.org/Graphics/SVG/1.1/DTD/svg11.dtd" >
<svg xmlns="http://www.w3.org/2000/svg" xmlns:xlink="http://www.w3.org/1999/xlink" version="1.1">
<metadata>
Created by FontForge 20201107 at Sun Apr 13 20:57:37 2014
 By 
Copyright (c) 2014 by MA^ns Grebck. All rights reserved.
</metadata>
<defs>
<font id="MartyricPersonalUseOnly" horiz-adv-x="415" >
  <font-face 
    font-family="Martyric Personal Use Only"
    font-weight="400"
    font-stretch="normal"
    units-per-em="1000"
    panose-1="0 0 0 0 0 0 0 0 0 0"
    ascent="800"
    descent="-200"
    x-height="439"
    cap-height="692"
    bbox="-429 -627 1429 1106"
    underline-thickness="50"
    underline-position="-100"
    unicode-range="U+000D-2212"
  />
<missing-glyph horiz-adv-x="500" 
 />
    <glyph glyph-name=".notdef" horiz-adv-x="500" 
 />
    <glyph glyph-name=".null" horiz-adv-x="0" 
 />
    <glyph glyph-name="nonmarkingreturn" unicode="&#xd;" horiz-adv-x="500" 
 />
    <glyph glyph-name="NULL" horiz-adv-x="0" 
 />
    <glyph glyph-name="NULL" horiz-adv-x="0" 
 />
    <glyph glyph-name="space" unicode=" " horiz-adv-x="263" 
 />
    <glyph glyph-name="exclam" unicode="!" horiz-adv-x="424" 
d="M187 158q-2 4 -6 2q-3 -2 -8 -8.5t-12 -23.5q-4 4 -9 0.5t-10.5 -10t-12 -16t-13.5 -17.5q3 9 5.5 20.5t2.5 22t-3 18t-10 9.5q9 8 19.5 31t21.5 55.5t22 70.5t21 77q23 91 47 201q15 3 27.5 15.5t20.5 29.5q6 -12 14 -14.5t19 11.5t15.5 30t6.5 32q23 3 53 14t57.5 23.5
t47.5 22.5l24 12q-28 -21 -48.5 -47t-34 -53.5t-21 -53.5t-9.5 -46q-31 -28 -35.5 -52.5t13.5 -41.5l-110 -191q15 33 20.5 54t3.5 29t-9 2t-17 -27q-5 -11 -2 -26q-20 -31 -37 -59t-29 -49q-14 -26 -25 -47zM-49 173q20 -10 32 -13t19 -2q8 0 11 4q13 -20 27 -41
q12 -18 26 -39.5t27 -40.5q43 14 86 31t70 34q-8 -9 -5.5 -13.5t10.5 -4.5t17.5 3t14.5 9q-1 -10 6 -14t20 -3t30.5 5t36.5 10q-7 -5 -22 -16t-32 -24.5t-33 -28t-25 -26.5t-9 -20.5t15 -10.5q-27 -5 -60.5 -11t-67.5 -12q8 -15 18 -33.5t21.5 -37.5t22.5 -37.5t20 -33.5
q-26 32 -44 55.5t-30.5 40t-21 26t-15.5 14.5q-35 -7 -63.5 -13t-42.5 -11q-1 10 -10.5 17.5t-20.5 11.5t-21 6t-11 2l5 2t11 6t11 9t5 12q-1 12 -8 14.5t-8 2.5q3 1 29.5 8.5t64.5 19.5q-8 6 -18 12t-16 15q0 7 -1.5 17.5t-8.5 25t-21.5 32.5t-40.5 41z" />
    <glyph glyph-name="quotedbl" unicode="&#x22;" horiz-adv-x="423" 
d="M121 555q19 33 38 60t28.5 47.5t3.5 33t-38 17.5q3 1 32.5 9.5t67.5 21.5t76 27.5t60 26.5q4 -17 13.5 -26.5t23.5 -12.5q-7 -4 -15.5 -10t-18.5 -15l45 15t46.5 16.5t42.5 16.5t33 16q4 -17 13.5 -26.5t23.5 -12.5q-14 -7 -39 -29.5t-51 -51.5t-50 -59.5t-36.5 -53
t-9 -33t30.5 0.5q-35 -51 -67.5 -99t-58 -86.5t-42 -63.5t-19.5 -30q11 23 24.5 51.5t24.5 54.5t18 47.5t7 30.5t-9 3t-31 -34q6 27 4 38.5t-7 13.5q-6 3 -15 -3q0 15 11.5 33t21 34t10 25.5t-21.5 6.5q15 27 30.5 49.5t26.5 41t14.5 32t-5.5 22.5q-29 -29 -57 -63.5
t-44.5 -61.5t-15.5 -40.5t31 -1.5q-35 -51 -67.5 -99t-58 -86.5t-42 -63.5t-19.5 -30q11 23 24.5 51.5t24.5 54.5t18 47.5t7 30.5t-9 3t-31 -34q6 27 4 38.5t-7 13.5q-6 3 -15 -3q0 15 11.5 33t21 34t10 25.5t-21.5 6.5zM254 254l-1 -1q0 1 1 1zM84 254l-1 -1q0 1 1 1z" />
    <glyph glyph-name="numbersign" unicode="#" horiz-adv-x="578" 
d="M271 635q12 -23 25 -41q11 -16 25 -30.5t28 -16.5q-2 -31 2 -56t11 -43q-8 -7 -18.5 -22.5t-24.5 -35.5q22 -4 40 -7t32 -5q30 52 50.5 94.5t24.5 67.5q12 3 23 12q9 8 19 21t16 36q-5 -23 -7.5 -44.5t2.5 -33.5q1 -9 6 -7t10.5 8t10 13t5.5 9q-1 -2 -6 -16t-14 -36.5
l-21 -52.5t-27 -64l138 -6q8 -4 19 -8q19 -8 49 -14q-23 -5 -40.5 -12t-29.5 -14q-14 -8 -25 -17q-11 2 -52.5 1t-100.5 -5q-11 -9 -27 -29t-30 -43q43 7 93 21q12 -10 24 -18q11 -7 24.5 -12.5t29.5 -5.5q-21 -8 -36 -13.5t-25 -9.5q-11 -4 -20 -8q-10 0 -43 -5.5
t-81 -16.5q-8 -21 -7 -35t15 -13q-18 -12 -43.5 -39.5t-46 -63.5t-29 -77.5t7.5 -81.5q-12 23 -25 41q-11 16 -25 30t-28 17q2 31 -2 56t-11 43q17 19 36.5 43t40.5 53l-49 -13q-26 -35 -49 -66.5t-42 -55.5q-22 -28 -41 -53q-12 -3 -23 -12q-10 -8 -19.5 -21.5t-15.5 -35.5
q5 23 7 44.5t-2 33.5q-2 9 -6.5 7t-10 -8t-10 -13t-5.5 -9q2 3 17 44t40 99q-26 -8 -46.5 -16t-35.5 -15q-2 41 13 68.5t34 44.5q22 20 50 33l-24 21q26 2 49.5 2t46.5 1q21 29 39 62q-38 -5 -69.5 -10.5t-52.5 -11.5q49 17 62.5 28.5t9.5 19.5t-26 13l84 90l41 -5
q18 20 36.5 46t30.5 56t14.5 61.5t-9.5 62.5zM345 304q-23 -2 -45.5 -3.5t-45.5 -3.5l-4 -6q-16 -21 -25 -39.5t-10 -28.5q5 0 11 0.5t12 0.5q8 7 18.5 17.5t24.5 27.5q-7 -11 -14.5 -22t-15.5 -22q11 0 21 0.5t21 1.5q14 19 27 38t25 39z" />
    <glyph glyph-name="dollar" unicode="$" horiz-adv-x="776" 
d="M556 262q8 30 12 48q3 16 2 24t-13 -8q-2 11 -8.5 20.5t-18.5 16.5q-21 10 -56 4l-22 -54l-18 -39q40 -14 70 -29t51 -29q24 -16 42 -31q-1 -17 -5 -35q-3 -16 -8 -34.5t-14 -36.5q-31 -5 -60.5 -18t-55 -28.5t-45 -31.5t-30.5 -28q13 15 28 28.5t27 24t19 17t6 8.5
q-2 1 -15 -7t-32.5 -23t-43 -36.5t-44.5 -46.5q-5 -15 -8.5 -27.5t-6.5 -20.5l-6 -18q-9 -5 -17 -16q-7 -10 -14 -27t-12 -46q4 29 5 57t-1 43q-2 11 -5.5 8.5t-7.5 -11t-7 -17.5t-4 -11q0 6 14 68l-10 -2t-9 -4q9 15 15.5 27t7.5 18t-5 5t-23 -11q-3 4 -12 10.5t-26 6.5
t-43.5 -11t-63.5 -43q-10 2 -18 5.5t-15 5.5t-13.5 1.5t-13.5 -6.5q-5 0 -11.5 2.5t-13.5 4.5q-8 3 -16 7q40 40 89 78q42 32 98 65.5t122 54.5q-39 -15 -64 -27.5t-38.5 -22t-18 -15t-2.5 -6.5q1 0 10.5 5.5t27 15t42 21t54.5 23.5q2 9 4.5 18.5t5.5 19.5q5 2 15 20t21 44
q-35 6 -68 9.5t-59.5 4.5t-43.5 1h-20l-46 -15q5 6 9 12q3 5 5.5 11t0.5 11q9 7 19 19t15.5 22.5t3.5 16.5t-16 1q35 21 44.5 31t7.5 15q-3 4 -18 4l13 42q21 17 42 32q18 13 40 26t42 21q17 -5 28 -2t18 9q8 7 13 18q7 4 18 8q9 4 21 9t28 10q17 48 24.5 104.5t-4.5 110.5
q1 -4 6.5 -20.5t13.5 -36t18 -36.5t20 -20q-1 -23 -0.5 -42.5t2.5 -37.5q32 8 67 13t78 7q7 -12 17 -16t19 -4q11 0 22 5zM449 202q-17 7 -31 11q-11 -27 -20 -57q29 7 60.5 11.5t65.5 4.5q-23 19 -49.5 32t-51.5 22l-5 -12q8 -2 15.5 -5.5t15.5 -6.5zM386 340
q-23 -10 -44.5 -20t-38.5 -19q19 -2 35.5 -4.5t33.5 -5.5q4 13 7.5 25t6.5 24zM316 247q1 -3 9.5 -5t26.5 -7l3 9q-18 4 -29 4.5t-10 -1.5zM467 761v3v-3zM379 -27l-3 -4z" />
    <glyph glyph-name="percent" unicode="%" horiz-adv-x="574" 
d="M77 301q-17 8 -28 17.5t-19 20.5q5 5 5 11.5t-8 8.5q0 3 -0.5 8t-8.5 4q-6 35 8.5 73.5t34.5 71.5q23 39 55 76q3 -1 6 -1q6 0 7 4q9 -2 12.5 5t-0.5 16q33 27 70.5 40t70.5 13t59 -13.5t37 -39.5q11 -27 8 -62q18 -9 38 -13.5t39 -2.5t37 14t33 36q9 -31 26 -49
q13 -15 36 -20t55 20q-9 -15 -34.5 -44t-52.5 -59.5t-48.5 -57.5t-24.5 -38q-10 -4 -28 -15.5t-41.5 -27.5t-50.5 -34.5t-54 -35.5q-28 -18 -47 -35.5t-21.5 -25.5t14.5 -4t61 30q-24 -18 -54.5 -40.5t-63.5 -48t-67.5 -51.5t-66.5 -51q-76 -58 -156 -121q0 9 -4 17
q-3 7 -8.5 12t-15.5 6q19 21 34.5 44.5t20.5 37.5q3 9 -1.5 9t-11.5 -3.5t-14.5 -9t-8.5 -6.5l17.5 17.5t46.5 46t67.5 64.5t80.5 74q4 -5 28.5 9t57.5 41t69 62t63 72t39 71t-1 59q-11 -30 -28.5 -58.5t-38.5 -52.5t-43.5 -42t-43.5 -26q20 14 35 26q13 11 23 20t7 12
q-2 1 -12.5 -7t-26 -20.5t-36 -26t-42.5 -23t-45.5 -12t-45.5 7.5zM256 -117q-27 11 -41 32q4 5 4 11t-7 8q0 2 -0.5 6.5t-6.5 3.5q-6 30 7 64t30 63q20 33 49 66h5q5 0 5 3q8 -2 11 4t0 14q29 23 61.5 35t62 12t52 -11.5t32.5 -34.5q13 -33 4 -72.5t-31.5 -76.5
t-52.5 -66.5t-58 -40.5q2 1 12 8.5t20.5 16t18.5 16t5 9.5t-21 -13.5t-44 -32.5t-57 -27.5t-60 3.5zM237 460q-2 0 0.5 7t6 17.5t4.5 22t-4.5 18.5t-20.5 7t-43 -11q-18 -6 -31 -19.5t-21.5 -28t-13 -27.5t-5.5 -19q-2 -6 0 -16t9.5 -18t21.5 -10t37 8q20 9 32.5 20t18.5 29
q7 1 11 8t-2 12zM396 21q-3 0 2.5 13.5t6.5 27.5t-10.5 21t-48.5 -8q-15 -5 -26.5 -17t-19.5 -24.5t-12 -24t-4 -16.5q-2 -5 0 -14t8.5 -16t18.5 -8.5t32 7.5q18 8 29 17.5t17 24.5q5 1 8.5 6.5t-1.5 10.5z" />
    <glyph glyph-name="ampersand" unicode="&#x26;" horiz-adv-x="766" 
d="M531 390q5 -1 9 -1h8t9 1q-4 -7 -8 -13q-3 -5 -6.5 -11.5t-5.5 -10.5q-7 -15 -7 -21.5t4 -7t9.5 5.5t10.5 17l16 -9l-27 -60q22 -1 48.5 -1.5t55 -1.5t58 -3t56.5 -5q-21 0 -43 -7.5t-41 -17t-32.5 -19t-17.5 -13.5q-7 12 -15 12t-18 -5t-23 -12t-30 -8q4 6 -2.5 15
t-18.5 14l-84 -192q4 38 -4 37q-3 0 -9.5 -9.5t-16.5 -32.5t-24.5 -62t-34.5 -99l-35 -35l3 5.5t6 13.5t6 16.5t5 16.5q2 9 2 15.5t-4.5 3.5t-15 -18.5t-28.5 -50.5t-45 -92.5t-65 -144.5q27 77 55 149.5t48 126.5t27 83.5t-9 20.5l-2 -2q-15 -16 -38 -31t-48 -25
t-50.5 -13.5t-46.5 3.5q21 3 17.5 16t-16.5 26.5t-29 22t-19 3.5q-15 28 -16.5 57t6 57.5t20.5 54.5t27.5 46.5t27.5 35t20 19.5q2 -10 19.5 -2.5t45.5 36.5q-23 12 -39 7q-15 28 -15 57.5t9.5 58t25.5 54.5t33 47t31.5 35.5t21.5 19.5q-10 -13 -15 -21t0 -6t22 15.5
t50 44.5q16 16 52.5 33t90.5 29q-5 -7 8.5 -8t30.5 2t31.5 8.5t11.5 11.5q29 3 52 5.5t58 1.5q-20 -34 -35 -61q-13 -23 -22.5 -42.5t-7.5 -20.5q1 -2 10.5 11.5t20.5 29.5q13 18 30 43zM353 297q34 -12 80 -12q15 40 23 71.5t4 48.5q17 -7 18 9t-15 44q2 -4 8 -13t14.5 -19
t17.5 -19t18 -13l1 -1q2 12 2 22.5t-2 14.5q-5 6 -7.5 -2.5t-3.5 -12.5q-1 2 -3 10t-8 17q17 8 17.5 14.5t-6.5 9.5t-17.5 2t-15.5 -8q-11 6 -23 6q-34 2 -66 -10.5t-54.5 -32t-32.5 -43t0 -44.5q-7 -4 0.5 -13.5t19 -18t22 -12t9.5 4.5zM388 178q-7 3 -18 2t-16 -8
q-12 7 -23 7q-34 2 -67 -14.5t-57.5 -41t-35.5 -52t-1 -48.5q-8 -23 6.5 -31.5t41.5 -1t61.5 31.5t66.5 67l31 65q-1 0 -1 1l2 1zM462 461q0 -1 0.5 -1.5t0.5 -1.5q-1 1 -1 2v1z" />
    <glyph glyph-name="quotesingle" unicode="'" horiz-adv-x="135" 
d="M74 555q19 33 38 60t28.5 47.5t3.5 33t-38 17.5q3 1 32.5 9.5t67.5 21.5t76 27.5t60 26.5q4 -17 13.5 -26.5t23.5 -12.5q-15 -7 -39.5 -29.5t-50.5 -51.5t-50 -59.5t-36.5 -53t-9 -33t30.5 0.5q-35 -51 -67.5 -99t-58 -86.5t-42 -63.5t-19.5 -30q11 23 24.5 51.5
t24.5 54.5t18 47.5t7 30.5t-9 3t-31 -34q6 27 4 38.5t-7 13.5q-6 3 -15 -3q0 15 11.5 33t21 34t10 25.5t-21.5 6.5zM37 254l-1 -1q0 1 1 1z" />
    <glyph glyph-name="parenleft" unicode="(" horiz-adv-x="383" 
d="M87 -168q-94 32 -126 112q6 4 9.5 12t2.5 16t-6.5 12.5t-17.5 1.5q-9 77 10 151t57 140.5t90 124t110 102.5t116.5 75t109.5 41q-3 -1 -17.5 -8.5t-35 -18.5t-43 -24t-41 -25t-29 -21.5t-6.5 -14.5t29 9.5t64 36.5t88 46t100.5 38.5t102.5 14.5t94 -27l-258 -279
q-20 2 -44 1t-54 -7q-41 -8 -72.5 -27.5t-57 -45t-47 -55t-40.5 -56.5q-23 8 -31.5 4.5t-10.5 -10.5q-2 -8 4 -21q-6 -7 -10 -14q-3 -6 -3 -13.5t8 -15.5q-14 -42 -14 -77q0 -15 3 -30t10.5 -28t20.5 -22.5t33 -13.5z" />
    <glyph glyph-name="parenright" unicode=")" horiz-adv-x="474" 
d="M-236 -65q19 -4 44 -2t58 10q59 15 104 47.5t76 72.5t50 84t26 83t3 69t-17 42q27 -16 34 -42.5t5 -52t-7.5 -44t-2.5 -18.5q6 0 13.5 12t12 31t4.5 41.5t-9.5 42.5t-30.5 35t-58 20l258 279q4 -2 7.5 -4.5t7.5 -5.5q58 -44 78.5 -96.5t15 -108.5t-32 -113t-62.5 -110
q-85 -124 -231 -252q-7 4 -12 5t-9.5 -0.5t-6.5 -6.5q-18 8 -29.5 -6t-7.5 -34q-54 -31 -106 -49.5t-100.5 -25.5t-92 -3.5t-80.5 16.5z" />
    <glyph glyph-name="asterisk" unicode="*" horiz-adv-x="459" 
d="M75 355q-14 4 -32 6q-15 2 -35 1t-44 -6q14 10 23.5 19t16.5 17q8 9 14 16l158 82l2 2q-44 38 -84.5 71t-66.5 48q35 -17 49 -18t16 5q3 7 -6 21l97 4q11 -16 21.5 -31t19.5 -29q19 30 18.5 48.5t-40.5 25.5q3 1 32.5 9.5t67.5 21.5t76 27.5t60 26.5q4 -17 13.5 -26.5
t23.5 -12.5q-13 -7 -36 -26.5t-49 -45.5t-51 -55t-42 -53q33 15 74.5 44t92.5 77l99 -37q-19 -14 -19 -24q0 -9 18 -15t72 -3q-25 -3 -61.5 -12t-79 -22t-89 -28.5t-91.5 -31.5l85 -101q2 -6 5 -14q2 -7 6 -16t11 -19q-14 10 -27 16t-24 9q-12 4 -23 4q-4 6 -23 25.5
t-47 46.5q-18 -31 -42.5 -69.5t-47.5 -73.5q-26 -40 -54 -82q17 34 30 69t16.5 59.5t-4.5 34t-32 -6.5q9 20 15 35.5t11 27.5q-38 -15 -62.5 -25.5t-30.5 -15.5z" />
    <glyph glyph-name="plus" unicode="+" horiz-adv-x="463" 
d="M416 243q-7 2 -41 1t-80 -5q-25 -36 -47 -68.5t-39 -58.5q-20 -30 -37 -56q12 24 19.5 47.5t6.5 36.5t-11 9.5t-33 -33.5q5 20 3.5 27.5t-5.5 9.5t-11 -2q0 5 5 14t12 19.5t15.5 21.5t16.5 22q-42 -5 -76.5 -11.5t-52.5 -14.5q26 14 33.5 23t5.5 15q-3 7 -14 11l46 73
q26 -5 48.5 -10.5t40.5 -10.5q10 15 18.5 27.5t10 22t-4.5 16t-24 9.5q35 9 67 20q27 9 54.5 19.5t43.5 19.5q3 -12 10 -18.5t16 -8.5q-8 -5 -21 -16.5t-28 -26.5t-29.5 -32.5t-26.5 -33.5l124 -6q4 -3 10 -6q9 -6 27 -11q-13 -4 -22 -9.5t-16 -11.5q-8 -7 -14 -14z" />
    <glyph glyph-name="comma" unicode="," horiz-adv-x="313" 
d="M-3 8q19 33 38 60t28.5 47.5t3.5 33t-38 17.5q3 1 32.5 9.5t67.5 21.5t76 27.5t60 26.5q4 -17 13.5 -26.5t23.5 -12.5q-15 -7 -39.5 -29.5t-50.5 -51.5t-50 -59.5t-36.5 -53t-9 -33t30.5 0.5q-35 -51 -67.5 -99t-58 -86t-42 -63.5t-19.5 -29.5q11 23 24.5 51t24.5 54.5
t18 47.5t7 30t-9 3t-31 -34q6 27 4 38.5t-7 13.5q-6 3 -15 -3q0 15 11.5 33t21 34t10 25.5t-21.5 6.5zM-40 -292q0 -1 -1 -2q1 1 1 2z" />
    <glyph glyph-name="hyphen" unicode="-" horiz-adv-x="404" 
d="M352 205q-5 2 -25.5 1t-49.5 -4t-63.5 -8.5t-67 -13t-61 -16.5t-45.5 -19q27 20 34.5 34t5.5 22q-3 10 -14 16l46 108q34 -8 62 -19t48 -18t31 -7t11 13l103 -12q5 -5 10 -9t11.5 -8.5t15.5 -8.5q-13 -5 -22.5 -13.5t-16.5 -16.5q-8 -10 -13 -21z" />
    <glyph glyph-name="period" unicode="." horiz-adv-x="313" 
d="M98 198q9 24 3 36t-8 14l183 -98l-215 -257q-9 11 -18 18q-8 6 -17.5 8.5t-20.5 -4.5q4 25 10.5 52.5t8 46t-4.5 22.5t-26 -16q24 34 37.5 52l21 28t10.5 15.5t6.5 14t9.5 24t20 44.5zM93 248l-1 1z" />
    <glyph glyph-name="slash" unicode="/" horiz-adv-x="445" 
d="M450 684q10 -39 21 -72q9 -28 19 -53t20 -33q-15 -32 -24 -60.5t-12 -50.5q-9 -5 -25.5 -18.5t-38 -32.5t-46 -40.5t-49.5 -41.5q-26 -21 -43 -40.5t-18.5 -28t15 -2t57.5 36.5q-22 -20 -49.5 -46t-57.5 -55t-61 -59.5t-60 -58.5q-69 -67 -141 -138q-2 9 -6 16
q-4 6 -10 11t-16 4q16 23 29 48.5t16 39.5q2 11 -3 9.5t-13 -6.5q-9 -6 -20 -18q26 33 56 70q26 32 60 72.5t72 83.5q25 29 55 61t58.5 61.5t52 55.5t36 43.5t11.5 24.5t-22 -1q28 30 50.5 49.5t39.5 41t29 50.5t18 77z" />
    <glyph glyph-name="zero" unicode="0" horiz-adv-x="878" 
d="M12 427q32 17 64 31.5t67 24.5q2 0 4 9.5t4 21t3.5 22.5t3.5 15q10 15 31 24t37 16q41 17 83 29t85 23q44 11 87.5 18.5t88.5 11.5q16 2 37.5 4t44 1.5t42.5 -5.5t32 -18q2 -2 0 -13.5t-3 -15.5l-3 -45q0 -2 2 -2q37 -11 71 -27t57 -48v-1q-8 2 -17.5 -1.5t-18.5 -9.5
t-17.5 -13t-12.5 -12q14 -8 22.5 -22t12.5 -31t3.5 -34t-5.5 -31q-8 20 -23.5 31t-34 16t-39.5 6.5t-39 2.5q-20 2 -43 1t-43 6q-8 3 -11 12t-3.5 20t1 22t2.5 17q-85 -6 -168.5 -25.5t-163.5 -47.5q-3 -2 -3 -3q1 -5 3.5 -16t5 -23t3 -22.5t-3.5 -13.5q-11 -8 -27 -10
t-30 -4q-18 -2 -36.5 -5t-36.5 -6q-32 -6 -60 -18q-7 -3 -13.5 -6t-13.5 -8q-3 -3 -8 -8.5t-8 -7.5q5 16 11.5 31t12.5 30q1 3 6 12t10 19t8.5 18t2.5 10q-11 16 -27 31t-36 17zM706 484q2 26 2 52t2 52q1 14 1.5 27t2.5 26q1 6 -2.5 10t-9.5 6.5t-12.5 3.5t-11.5 2
q-56 8 -115 0t-114 -19q-60 -12 -118.5 -28t-114.5 -41q-11 -5 -22 -10.5t-20 -13.5q-10 -8 -12 -23t-4 -26q-4 -31 -4 -61.5v-61.5q9 0 24 10t24 14q17 8 35 14t35 12q71 22 146 39q36 8 72 14.5t73 10.5q34 3 72.5 4.5t70.5 -13.5zM623 543l-7.5 -7.5t-8.5 -5.5
q-7 -2 -13 5q-8 -6 -14 -7q-14 -3 -20 9v1q-4 -4 -8 -7.5t-10 -5.5q-7 -3 -12 5q-3 6 -1.5 11t4 10.5t4 10.5t0.5 10q-8 -3 -11.5 -8.5t-5 -12t-2.5 -13.5t-4 -13q-3 -8 -12 -4q-3 1 -3 5q0 2 0.5 4t0.5 4q-7 -2 -9.5 -2t-7.5 -5t-11 -9t-14 -4q-5 1 -8 4t-5 7
q-8 -8 -19 -15.5t-22 -5.5q-7 1 -12 8q-5 -5 -10.5 -10t-12.5 -7q-14 -5 -16 10q-2 12 4 20t10 18q1 2 -1 2.5t-3 -1.5q-4 -9 -9 -20.5t-11.5 -21t-16 -16t-22.5 -5.5q-14 1 -16.5 10.5t2.5 21.5t14.5 21.5t19.5 10.5q6 0 8 -5q4 -6 1 -13q-3 -11 -12.5 -19t-20.5 -10
q1 -6 5 -6.5t8 1.5t8 5t6 5q11 10 16 21.5t10 23.5q2 3 -4 12t-4 15q4 13 16 11q5 0 7 -6q2 -5 1.5 -11t-1.5 -11q10 1 14 -0.5t-2 -12.5q-4 -8 -8.5 -16t-5.5 -17q0 -4 4 -4q10 -1 16 8.5t11.5 22t10.5 24t12 15.5q3 1 7 -1q3 -3 1 -6q-2 -5 -4.5 -9.5t-0.5 -10.5t5.5 -12
t2.5 -13h1q5 6 8.5 13.5l7 15t8 14t12.5 9.5q17 7 23 -9q4 -7 2.5 -12t-0.5 -13q4 1 7 4q7 6 8 16.5t4 18.5q1 3 4.5 3.5t6.5 -0.5q4 -2 3 -6v-1q5 5 11 8q10 4 14 -6q2 -6 0.5 -11t-4 -10t-4.5 -10t-1 -11q13 10 19 25.5t20 24.5q10 6 24 0q2 4 8.5 4.5t4.5 -6.5
q-2 -9 -7 -18.5t-5 -18.5q0 -6 4 -2q9 9 14 22t9.5 26.5t11 25t19.5 19.5q7 3 11 -4q6 -11 2 -22.5t-11 -19.5q-3 -4 -9 -9t-11.5 -11t-9 -12t-1.5 -12q2 -8 10 -6q7 2 10 8.5t7 11.5q3 3 6 1q4 0 4 -4l-2 -6q-8 -18 -25 -25q-12 -6 -20 7q-2 2 -2 5zM831 511
q-23 22 -51.5 35.5t-59.5 21.5q-1 -26 -1.5 -52.5t-2.5 -52.5l-1 1v-3q-12 -1 -29.5 -2t-34.5 -4t-32 -9.5t-23 -18.5q-3 -3 2 -4q25 -10 55.5 -8t56.5 0q27 -2 54 -9q14 -4 24 -11t22 -13q0 29 -9.5 49.5t-37.5 31.5q16 14 32 27t36 21zM144 472q-28 -7 -54 -17.5
t-52 -24.5q16 -10 28 -22.5t22 -27.5q1 -2 -1.5 -8t-6.5 -13t-7.5 -13.5t-4.5 -8.5l-10 -22t-9 -22q23 12 48 18t50.5 9.5l51 7t49.5 11.5q-8 9 -21.5 12t-29 3.5t-30.5 -1l-25 -2.5v60.5t2 60.5zM362 208q0 4 -4 10h26q13 -6 24 -24t16 -31q0 12 1.5 28t-6.5 27h35
q-5 -5 -5 -11.5v-13.5v-114v-15t5 -13h-96q5 6 6 16t0.5 21t-1.5 21t-1 18v81zM313 218q18 0 26 -9.5t10.5 -23.5t1.5 -30t-1 -28v-36q0 -23 -12.5 -32t-32.5 -8q-18 0 -26.5 9.5t-11 23.5t-1.5 30t1 28q0 9 -0.5 18t0.5 18q0 23 12.5 31.5t33.5 8.5zM263 573q6 0 9 -1
q17 -2 19 -21q3 -20 -10.5 -38.5t-30.5 -29.5q-9 -6 -13.5 -15t-8.5 -18t-9.5 -17.5t-15.5 -13.5q-11 -7 -25 -4t-12 18q0 10 7 17t17 9q2 1 6.5 -0.5t2.5 -6.5q-6 -4 -11 -4q-5 -2 -7 -7.5t1 -10.5q2 -2 8 -4q9 -1 15 5.5t10.5 15.5t6.5 19t4 16q-14 -12 -28 -16
q-13 -2 -21 5q-8 5 -8 17q0 13 6 24q14 29 41 46q10 6 24 11q5 2 10 5.5t10 4.5q4 0 4 -5zM361 329q-2 7 -5 18t-4 22.5t1 21.5t10 15q5 4 15 4.5t13 -7.5t-0.5 -10.5t-8.5 -1.5t-8.5 4t0.5 7q-8 -4 -8 -13.5t3 -20.5t7.5 -21t6.5 -16q6 -17 8.5 -40.5t-9.5 -39.5
q-5 -7 -16 -9t-23.5 -2t-24.5 1.5t-19 1.5q5 7 6.5 17.5t1 22t-1.5 22.5t-1 19v58v14.5t-5 13.5h35q-6 -6 -5.5 -15.5t0.5 -17.5v-65q0 -8 -0.5 -23t4.5 -22q4 -5 9 -5.5t9.5 2t8 7t4.5 8.5q3 12 1 25t-4 25zM556 351q-2 -4 -6.5 -14t-9 -21t-6 -21t4.5 -13q-2 6 3 6.5
t10 -2t6 -6.5t-8 -8q-11 -5 -16 4t-4 17q0 7 3 15t4 14.5t-2 10.5t-14 3v-73q8 0 20 -1t20 5q-2 -6 -3.5 -12t-3.5 -12h-64q5 5 5 11.5v13.5v114v14.5t-5 13.5h59q11 -12 11.5 -28t-4.5 -31zM473 405q0 -6 3.5 -13.5t6 -14.5t2 -13.5t-7.5 -12.5q-6 -5 -15 -4.5t-10 10.5
q0 5 3 7.5t7 2.5t7 -2.5t2 -6.5q6 1 6 6t-3.5 10t-8.5 9.5t-8 5.5q-7 2 -15.5 0.5t-11.5 -8.5q-6 -12 -2 -20.5t12 -15t17.5 -12.5t14.5 -13q7 -9 10.5 -22t2 -24.5t-9 -20.5t-22.5 -10q-13 -1 -25.5 -0.5t-24.5 0.5q4 1 2.5 8t-4 16t-4 18t2.5 14q5 6 15.5 7t12.5 -10
q0 -5 -3.5 -7.5t-7 -2.5t-6.5 2t-3 7q-6 -2 -6 -6.5t3.5 -10t8.5 -9.5t8 -5q6 -2 15.5 -1.5t14.5 5.5q10 10 8 19t-9.5 17t-17 14.5t-14.5 11.5q-8 7 -13.5 19.5t-5.5 24.5t6 22t20 13q12 2 25 1.5t25 -0.5zM134 -12l-19 -104h-20q-3 17 -5.5 34.5t-4.5 34.5
q-2 -17 -5 -34.5t-6 -34.5h-20l-18 104h21q2 -19 4 -38.5t5 -38.5q2 20 5 39l6 38h18l11 -77q3 40 9 77h19zM235 -12l-19 -104h-20q-3 17 -5.5 34.5t-4.5 34.5q-2 -17 -5 -34.5t-6 -34.5h-20l-18 104h21q2 -19 4 -38.5t5 -38.5q2 20 5 39l6 38h18l11 -77q3 40 9 77h19z
M336 -12l-19 -104h-20q-3 17 -5.5 34.5t-4.5 34.5q-2 -17 -5 -34.5t-6 -34.5h-20l-18 104h21q2 -19 4 -38.5t5 -38.5q2 20 5 39l6 38h18l11 -77q3 40 9 77h19zM515 -67q7 -3 10 -9t4.5 -13t2.5 -14.5t4 -12.5h-24q-3 5 -4 12.5t-3 14t-6 10.5t-12 3v-40h-24v103q13 2 30 3
t28 -7q15 -11 11.5 -27t-17.5 -23zM707 -116h-24q-9 18 -17 36.5t-17 35.5q2 -18 2 -36v-36h-22v104h26l32 -70q-2 17 -2 35v35h22v-104zM459 51q5 7 6.5 17.5t1 22t-1.5 22.5t-1 19v58v14.5t-5 13.5h35q-5 -5 -6.5 -14.5t-1 -20t1.5 -20.5t1 -16v-76h48q11 0 26.5 -1.5
t25.5 5.5q-2 -4 -3.5 -14t-6.5 -10h-120zM450 -116h-24l-7 24h-24l-5 -24h-25l28 104h30zM802 -112q-19 -7 -36.5 -4t-29.5 13.5t-15.5 27.5t6.5 37q6 14 19.5 20.5t28.5 6.5h5t8.5 -1t7.5 -2t3 -2l-4 -19q-12 6 -22.5 4t-17 -9t-9 -17t1.5 -22q6 -21 28 -19q5 1 4 10t-1 13
h-12v19h35v-56zM541 135q-11 20 -19 43q-4 11 -6 22t-11 18h37q-6 -13 0.5 -30.5t11.5 -28.5q6 14 11 29t0 30h37q-10 -6 -12 -18t-5 -22q-3 -9 -11 -22.5t-8 -22.5q0 -5 -0.5 -12t-0.5 -14t1 -13.5t5 -10.5h-35q8 8 6.5 24.5t-1.5 27.5zM325 178q0 7 -4.5 12.5t-10 7
t-11 -1t-6.5 -10.5q-1 -6 -0.5 -13t0.5 -13q0 -17 -1 -34.5t1 -34.5q0 -7 4.5 -12.5t9.5 -7t10 1t7 10.5q2 6 1.5 13t-0.5 13v69zM424 66q-1 29 -9 59.5t-27 53.5v-107q0 -7 5.5 -11t12 -5t12 1.5t6.5 8.5zM245 559q-13 -3 -24.5 -11t-20.5 -18q-3 -3 -7.5 -11.5t-7.5 -18
t-1.5 -16.5t10.5 -7q14 0 23 9.5t14.5 22.5t8.5 27t5 23zM549 -12h24v-104h-24v104zM242 491q7 2 14 9t11.5 16t6.5 18.5t0 16.5q-3 10 -15 10q-6 -17 -9.5 -35t-7.5 -35zM521 357q10 0 21.5 1t12.5 15q1 15 -11.5 16t-22.5 1v-33zM599 575q0 2 -1 3q0 6 -6 4
q-8 -4 -12.5 -11t-6.5 -15q-2 -5 0.5 -12.5t10.5 -1.5q6 5 10 15t5 18zM458 535q3 -9 11 -4q7 3 10.5 10.5t2.5 15.5q-1 5 -4.5 8t-10.5 -2q-9 -7 -11 -22zM328 -103q0 7 4.5 10.5t9.5 3.5t9.5 -3.5t4.5 -10.5t-4.5 -10.5t-9.5 -3.5t-9.5 3.5t-4.5 10.5zM587 -103
q0 7 4.5 10.5t9.5 3.5t9.5 -3.5t4.5 -10.5t-4.5 -10.5t-9.5 -3.5t-9.5 3.5t-4.5 10.5zM493 -58q9 0 12.5 5t3 10.5t-5.5 10t-13 3.5q-5 -1 -4 -12.5t1 -16.5h6zM417 -74q-2 11 -4.5 21.5t-5.5 21.5l-9 -43h19zM411 542q-3 -4 -7 -10.5t-3 -11.5q2 -6 8 -5t7 7q1 9 -5 20z
M300 508q5 -1 13 7t9 13q2 3 -1 5t-6 0q-5 -5 -8.5 -11.5t-6.5 -13.5zM665 627q-17 -19 -23 -40q8 9 15 18.5t9 21.5h-1zM359 562q0 3 1 6t-1 6q-2 0 -3 -3q-1 -4 2 -9h1z" />
    <glyph glyph-name="one" unicode="1" horiz-adv-x="878" 
d="M12 427q32 17 64 31.5t67 24.5q2 0 4 9.5t4 21t3.5 22.5t3.5 15q10 15 31 24t37 16q41 17 83 29t85 23q44 11 87.5 18.5t88.5 11.5q16 2 37.5 4t44 1.5t42.5 -5.5t32 -18q2 -2 0 -13.5t-3 -15.5l-3 -45q0 -2 2 -2q37 -11 71 -27t57 -48v-1q-8 2 -17.5 -1.5t-18.5 -9.5
t-17.5 -13t-12.5 -12q14 -8 22.5 -22t12.5 -31t3.5 -34t-5.5 -31q-8 20 -23.5 31t-34 16t-39.5 6.5t-39 2.5q-20 2 -43 1t-43 6q-8 3 -11 12t-3.5 20t1 22t2.5 17q-85 -6 -168.5 -25.5t-163.5 -47.5q-3 -2 -3 -3q1 -5 3.5 -16t5 -23t3 -22.5t-3.5 -13.5q-11 -8 -27 -10
t-30 -4q-18 -2 -36.5 -5t-36.5 -6q-32 -6 -60 -18q-7 -3 -13.5 -6t-13.5 -8q-3 -3 -8 -8.5t-8 -7.5q5 16 11.5 31t12.5 30q1 3 6 12t10 19t8.5 18t2.5 10q-11 16 -27 31t-36 17zM706 484q2 26 2 52t2 52q1 14 1.5 27t2.5 26q1 6 -2.5 10t-9.5 6.5t-12.5 3.5t-11.5 2
q-56 8 -115 0t-114 -19q-60 -12 -118.5 -28t-114.5 -41q-11 -5 -22 -10.5t-20 -13.5q-10 -8 -12 -23t-4 -26q-4 -31 -4 -61.5v-61.5q9 0 24 10t24 14q17 8 35 14t35 12q71 22 146 39q36 8 72 14.5t73 10.5q34 3 72.5 4.5t70.5 -13.5zM623 543l-7.5 -7.5t-8.5 -5.5
q-7 -2 -13 5q-8 -6 -14 -7q-14 -3 -20 9v1q-4 -4 -8 -7.5t-10 -5.5q-7 -3 -12 5q-3 6 -1.5 11t4 10.5t4 10.5t0.5 10q-8 -3 -11.5 -8.5t-5 -12t-2.5 -13.5t-4 -13q-3 -8 -12 -4q-3 1 -3 5q0 2 0.5 4t0.5 4q-7 -2 -9.5 -2t-7.5 -5t-11 -9t-14 -4q-5 1 -8 4t-5 7
q-8 -8 -19 -15.5t-22 -5.5q-7 1 -12 8q-5 -5 -10.5 -10t-12.5 -7q-14 -5 -16 10q-2 12 4 20t10 18q1 2 -1 2.5t-3 -1.5q-4 -9 -9 -20.5t-11.5 -21t-16 -16t-22.5 -5.5q-14 1 -16.5 10.5t2.5 21.5t14.5 21.5t19.5 10.5q6 0 8 -5q4 -6 1 -13q-3 -11 -12.5 -19t-20.5 -10
q1 -6 5 -6.5t8 1.5t8 5t6 5q11 10 16 21.5t10 23.5q2 3 -4 12t-4 15q4 13 16 11q5 0 7 -6q2 -5 1.5 -11t-1.5 -11q10 1 14 -0.5t-2 -12.5q-4 -8 -8.5 -16t-5.5 -17q0 -4 4 -4q10 -1 16 8.5t11.5 22t10.5 24t12 15.5q3 1 7 -1q3 -3 1 -6q-2 -5 -4.5 -9.5t-0.5 -10.5t5.5 -12
t2.5 -13h1q5 6 8.5 13.5l7 15t8 14t12.5 9.5q17 7 23 -9q4 -7 2.5 -12t-0.5 -13q4 1 7 4q7 6 8 16.5t4 18.5q1 3 4.5 3.5t6.5 -0.5q4 -2 3 -6v-1q5 5 11 8q10 4 14 -6q2 -6 0.5 -11t-4 -10t-4.5 -10t-1 -11q13 10 19 25.5t20 24.5q10 6 24 0q2 4 8.5 4.5t4.5 -6.5
q-2 -9 -7 -18.5t-5 -18.5q0 -6 4 -2q9 9 14 22t9.5 26.5t11 25t19.5 19.5q7 3 11 -4q6 -11 2 -22.5t-11 -19.5q-3 -4 -9 -9t-11.5 -11t-9 -12t-1.5 -12q2 -8 10 -6q7 2 10 8.5t7 11.5q3 3 6 1q4 0 4 -4l-2 -6q-8 -18 -25 -25q-12 -6 -20 7q-2 2 -2 5zM831 511
q-23 22 -51.5 35.5t-59.5 21.5q-1 -26 -1.5 -52.5t-2.5 -52.5l-1 1v-3q-12 -1 -29.5 -2t-34.5 -4t-32 -9.5t-23 -18.5q-3 -3 2 -4q25 -10 55.5 -8t56.5 0q27 -2 54 -9q14 -4 24 -11t22 -13q0 29 -9.5 49.5t-37.5 31.5q16 14 32 27t36 21zM144 472q-28 -7 -54 -17.5
t-52 -24.5q16 -10 28 -22.5t22 -27.5q1 -2 -1.5 -8t-6.5 -13t-7.5 -13.5t-4.5 -8.5l-10 -22t-9 -22q23 12 48 18t50.5 9.5l51 7t49.5 11.5q-8 9 -21.5 12t-29 3.5t-30.5 -1l-25 -2.5v60.5t2 60.5zM362 208q0 4 -4 10h26q13 -6 24 -24t16 -31q0 12 1.5 28t-6.5 27h35
q-5 -5 -5 -11.5v-13.5v-114v-15t5 -13h-96q5 6 6 16t0.5 21t-1.5 21t-1 18v81zM313 218q18 0 26 -9.5t10.5 -23.5t1.5 -30t-1 -28v-36q0 -23 -12.5 -32t-32.5 -8q-18 0 -26.5 9.5t-11 23.5t-1.5 30t1 28q0 9 -0.5 18t0.5 18q0 23 12.5 31.5t33.5 8.5zM263 573q6 0 9 -1
q17 -2 19 -21q3 -20 -10.5 -38.5t-30.5 -29.5q-9 -6 -13.5 -15t-8.5 -18t-9.5 -17.5t-15.5 -13.5q-11 -7 -25 -4t-12 18q0 10 7 17t17 9q2 1 6.5 -0.5t2.5 -6.5q-6 -4 -11 -4q-5 -2 -7 -7.5t1 -10.5q2 -2 8 -4q9 -1 15 5.5t10.5 15.5t6.5 19t4 16q-14 -12 -28 -16
q-13 -2 -21 5q-8 5 -8 17q0 13 6 24q14 29 41 46q10 6 24 11q5 2 10 5.5t10 4.5q4 0 4 -5zM361 329q-2 7 -5 18t-4 22.5t1 21.5t10 15q5 4 15 4.5t13 -7.5t-0.5 -10.5t-8.5 -1.5t-8.5 4t0.5 7q-8 -4 -8 -13.5t3 -20.5t7.5 -21t6.5 -16q6 -17 8.5 -40.5t-9.5 -39.5
q-5 -7 -16 -9t-23.5 -2t-24.5 1.5t-19 1.5q5 7 6.5 17.5t1 22t-1.5 22.5t-1 19v58v14.5t-5 13.5h35q-6 -6 -5.5 -15.5t0.5 -17.5v-65q0 -8 -0.5 -23t4.5 -22q4 -5 9 -5.5t9.5 2t8 7t4.5 8.5q3 12 1 25t-4 25zM556 351q-2 -4 -6.5 -14t-9 -21t-6 -21t4.5 -13q-2 6 3 6.5
t10 -2t6 -6.5t-8 -8q-11 -5 -16 4t-4 17q0 7 3 15t4 14.5t-2 10.5t-14 3v-73q8 0 20 -1t20 5q-2 -6 -3.5 -12t-3.5 -12h-64q5 5 5 11.5v13.5v114v14.5t-5 13.5h59q11 -12 11.5 -28t-4.5 -31zM473 405q0 -6 3.5 -13.5t6 -14.5t2 -13.5t-7.5 -12.5q-6 -5 -15 -4.5t-10 10.5
q0 5 3 7.5t7 2.5t7 -2.5t2 -6.5q6 1 6 6t-3.5 10t-8.5 9.5t-8 5.5q-7 2 -15.5 0.5t-11.5 -8.5q-6 -12 -2 -20.5t12 -15t17.5 -12.5t14.5 -13q7 -9 10.5 -22t2 -24.5t-9 -20.5t-22.5 -10q-13 -1 -25.5 -0.5t-24.5 0.5q4 1 2.5 8t-4 16t-4 18t2.5 14q5 6 15.5 7t12.5 -10
q0 -5 -3.5 -7.5t-7 -2.5t-6.5 2t-3 7q-6 -2 -6 -6.5t3.5 -10t8.5 -9.5t8 -5q6 -2 15.5 -1.5t14.5 5.5q10 10 8 19t-9.5 17t-17 14.5t-14.5 11.5q-8 7 -13.5 19.5t-5.5 24.5t6 22t20 13q12 2 25 1.5t25 -0.5zM134 -12l-19 -104h-20q-3 17 -5.5 34.5t-4.5 34.5
q-2 -17 -5 -34.5t-6 -34.5h-20l-18 104h21q2 -19 4 -38.5t5 -38.5q2 20 5 39l6 38h18l11 -77q3 40 9 77h19zM235 -12l-19 -104h-20q-3 17 -5.5 34.5t-4.5 34.5q-2 -17 -5 -34.5t-6 -34.5h-20l-18 104h21q2 -19 4 -38.5t5 -38.5q2 20 5 39l6 38h18l11 -77q3 40 9 77h19z
M336 -12l-19 -104h-20q-3 17 -5.5 34.5t-4.5 34.5q-2 -17 -5 -34.5t-6 -34.5h-20l-18 104h21q2 -19 4 -38.5t5 -38.5q2 20 5 39l6 38h18l11 -77q3 40 9 77h19zM515 -67q7 -3 10 -9t4.5 -13t2.5 -14.5t4 -12.5h-24q-3 5 -4 12.5t-3 14t-6 10.5t-12 3v-40h-24v103q13 2 30 3
t28 -7q15 -11 11.5 -27t-17.5 -23zM707 -116h-24q-9 18 -17 36.5t-17 35.5q2 -18 2 -36v-36h-22v104h26l32 -70q-2 17 -2 35v35h22v-104zM459 51q5 7 6.5 17.5t1 22t-1.5 22.5t-1 19v58v14.5t-5 13.5h35q-5 -5 -6.5 -14.5t-1 -20t1.5 -20.5t1 -16v-76h48q11 0 26.5 -1.5
t25.5 5.5q-2 -4 -3.5 -14t-6.5 -10h-120zM450 -116h-24l-7 24h-24l-5 -24h-25l28 104h30zM802 -112q-19 -7 -36.5 -4t-29.5 13.5t-15.5 27.5t6.5 37q6 14 19.5 20.5t28.5 6.5h5t8.5 -1t7.5 -2t3 -2l-4 -19q-12 6 -22.5 4t-17 -9t-9 -17t1.5 -22q6 -21 28 -19q5 1 4 10t-1 13
h-12v19h35v-56zM541 135q-11 20 -19 43q-4 11 -6 22t-11 18h37q-6 -13 0.5 -30.5t11.5 -28.5q6 14 11 29t0 30h37q-10 -6 -12 -18t-5 -22q-3 -9 -11 -22.5t-8 -22.5q0 -5 -0.5 -12t-0.5 -14t1 -13.5t5 -10.5h-35q8 8 6.5 24.5t-1.5 27.5zM325 178q0 7 -4.5 12.5t-10 7
t-11 -1t-6.5 -10.5q-1 -6 -0.5 -13t0.5 -13q0 -17 -1 -34.5t1 -34.5q0 -7 4.5 -12.5t9.5 -7t10 1t7 10.5q2 6 1.5 13t-0.5 13v69zM424 66q-1 29 -9 59.5t-27 53.5v-107q0 -7 5.5 -11t12 -5t12 1.5t6.5 8.5zM245 559q-13 -3 -24.5 -11t-20.5 -18q-3 -3 -7.5 -11.5t-7.5 -18
t-1.5 -16.5t10.5 -7q14 0 23 9.5t14.5 22.5t8.5 27t5 23zM549 -12h24v-104h-24v104zM242 491q7 2 14 9t11.5 16t6.5 18.5t0 16.5q-3 10 -15 10q-6 -17 -9.5 -35t-7.5 -35zM521 357q10 0 21.5 1t12.5 15q1 15 -11.5 16t-22.5 1v-33zM599 575q0 2 -1 3q0 6 -6 4
q-8 -4 -12.5 -11t-6.5 -15q-2 -5 0.5 -12.5t10.5 -1.5q6 5 10 15t5 18zM458 535q3 -9 11 -4q7 3 10.5 10.5t2.5 15.5q-1 5 -4.5 8t-10.5 -2q-9 -7 -11 -22zM328 -103q0 7 4.5 10.5t9.5 3.5t9.5 -3.5t4.5 -10.5t-4.5 -10.5t-9.5 -3.5t-9.5 3.5t-4.5 10.5zM587 -103
q0 7 4.5 10.5t9.5 3.5t9.5 -3.5t4.5 -10.5t-4.5 -10.5t-9.5 -3.5t-9.5 3.5t-4.5 10.5zM493 -58q9 0 12.5 5t3 10.5t-5.5 10t-13 3.5q-5 -1 -4 -12.5t1 -16.5h6zM417 -74q-2 11 -4.5 21.5t-5.5 21.5l-9 -43h19zM411 542q-3 -4 -7 -10.5t-3 -11.5q2 -6 8 -5t7 7q1 9 -5 20z
M300 508q5 -1 13 7t9 13q2 3 -1 5t-6 0q-5 -5 -8.5 -11.5t-6.5 -13.5zM665 627q-17 -19 -23 -40q8 9 15 18.5t9 21.5h-1zM359 562q0 3 1 6t-1 6q-2 0 -3 -3q-1 -4 2 -9h1z" />
    <glyph glyph-name="two" unicode="2" horiz-adv-x="878" 
d="M12 427q32 17 64 31.5t67 24.5q2 0 4 9.5t4 21t3.5 22.5t3.5 15q10 15 31 24t37 16q41 17 83 29t85 23q44 11 87.5 18.5t88.5 11.5q16 2 37.5 4t44 1.5t42.5 -5.5t32 -18q2 -2 0 -13.5t-3 -15.5l-3 -45q0 -2 2 -2q37 -11 71 -27t57 -48v-1q-8 2 -17.5 -1.5t-18.5 -9.5
t-17.5 -13t-12.5 -12q14 -8 22.5 -22t12.5 -31t3.5 -34t-5.5 -31q-8 20 -23.5 31t-34 16t-39.5 6.5t-39 2.5q-20 2 -43 1t-43 6q-8 3 -11 12t-3.5 20t1 22t2.5 17q-85 -6 -168.5 -25.5t-163.5 -47.5q-3 -2 -3 -3q1 -5 3.5 -16t5 -23t3 -22.5t-3.5 -13.5q-11 -8 -27 -10
t-30 -4q-18 -2 -36.5 -5t-36.5 -6q-32 -6 -60 -18q-7 -3 -13.5 -6t-13.5 -8q-3 -3 -8 -8.5t-8 -7.5q5 16 11.5 31t12.5 30q1 3 6 12t10 19t8.5 18t2.5 10q-11 16 -27 31t-36 17zM706 484q2 26 2 52t2 52q1 14 1.5 27t2.5 26q1 6 -2.5 10t-9.5 6.5t-12.5 3.5t-11.5 2
q-56 8 -115 0t-114 -19q-60 -12 -118.5 -28t-114.5 -41q-11 -5 -22 -10.5t-20 -13.5q-10 -8 -12 -23t-4 -26q-4 -31 -4 -61.5v-61.5q9 0 24 10t24 14q17 8 35 14t35 12q71 22 146 39q36 8 72 14.5t73 10.5q34 3 72.5 4.5t70.5 -13.5zM623 543l-7.5 -7.5t-8.5 -5.5
q-7 -2 -13 5q-8 -6 -14 -7q-14 -3 -20 9v1q-4 -4 -8 -7.5t-10 -5.5q-7 -3 -12 5q-3 6 -1.5 11t4 10.5t4 10.5t0.5 10q-8 -3 -11.5 -8.5t-5 -12t-2.5 -13.5t-4 -13q-3 -8 -12 -4q-3 1 -3 5q0 2 0.5 4t0.5 4q-7 -2 -9.5 -2t-7.5 -5t-11 -9t-14 -4q-5 1 -8 4t-5 7
q-8 -8 -19 -15.5t-22 -5.5q-7 1 -12 8q-5 -5 -10.5 -10t-12.5 -7q-14 -5 -16 10q-2 12 4 20t10 18q1 2 -1 2.5t-3 -1.5q-4 -9 -9 -20.5t-11.5 -21t-16 -16t-22.5 -5.5q-14 1 -16.5 10.5t2.5 21.5t14.5 21.5t19.5 10.5q6 0 8 -5q4 -6 1 -13q-3 -11 -12.5 -19t-20.5 -10
q1 -6 5 -6.5t8 1.5t8 5t6 5q11 10 16 21.5t10 23.5q2 3 -4 12t-4 15q4 13 16 11q5 0 7 -6q2 -5 1.5 -11t-1.5 -11q10 1 14 -0.5t-2 -12.5q-4 -8 -8.5 -16t-5.5 -17q0 -4 4 -4q10 -1 16 8.5t11.5 22t10.5 24t12 15.5q3 1 7 -1q3 -3 1 -6q-2 -5 -4.5 -9.5t-0.5 -10.5t5.5 -12
t2.5 -13h1q5 6 8.5 13.5l7 15t8 14t12.5 9.5q17 7 23 -9q4 -7 2.5 -12t-0.5 -13q4 1 7 4q7 6 8 16.5t4 18.5q1 3 4.5 3.5t6.5 -0.5q4 -2 3 -6v-1q5 5 11 8q10 4 14 -6q2 -6 0.5 -11t-4 -10t-4.5 -10t-1 -11q13 10 19 25.5t20 24.5q10 6 24 0q2 4 8.5 4.5t4.5 -6.5
q-2 -9 -7 -18.5t-5 -18.5q0 -6 4 -2q9 9 14 22t9.5 26.5t11 25t19.5 19.5q7 3 11 -4q6 -11 2 -22.5t-11 -19.5q-3 -4 -9 -9t-11.5 -11t-9 -12t-1.5 -12q2 -8 10 -6q7 2 10 8.5t7 11.5q3 3 6 1q4 0 4 -4l-2 -6q-8 -18 -25 -25q-12 -6 -20 7q-2 2 -2 5zM831 511
q-23 22 -51.5 35.5t-59.5 21.5q-1 -26 -1.5 -52.5t-2.5 -52.5l-1 1v-3q-12 -1 -29.5 -2t-34.5 -4t-32 -9.5t-23 -18.5q-3 -3 2 -4q25 -10 55.5 -8t56.5 0q27 -2 54 -9q14 -4 24 -11t22 -13q0 29 -9.5 49.5t-37.5 31.5q16 14 32 27t36 21zM144 472q-28 -7 -54 -17.5
t-52 -24.5q16 -10 28 -22.5t22 -27.5q1 -2 -1.5 -8t-6.5 -13t-7.5 -13.5t-4.5 -8.5l-10 -22t-9 -22q23 12 48 18t50.5 9.5l51 7t49.5 11.5q-8 9 -21.5 12t-29 3.5t-30.5 -1l-25 -2.5v60.5t2 60.5zM362 208q0 4 -4 10h26q13 -6 24 -24t16 -31q0 12 1.5 28t-6.5 27h35
q-5 -5 -5 -11.5v-13.5v-114v-15t5 -13h-96q5 6 6 16t0.5 21t-1.5 21t-1 18v81zM313 218q18 0 26 -9.5t10.5 -23.5t1.5 -30t-1 -28v-36q0 -23 -12.5 -32t-32.5 -8q-18 0 -26.5 9.5t-11 23.5t-1.5 30t1 28q0 9 -0.5 18t0.5 18q0 23 12.5 31.5t33.5 8.5zM263 573q6 0 9 -1
q17 -2 19 -21q3 -20 -10.5 -38.5t-30.5 -29.5q-9 -6 -13.5 -15t-8.5 -18t-9.5 -17.5t-15.5 -13.5q-11 -7 -25 -4t-12 18q0 10 7 17t17 9q2 1 6.5 -0.5t2.5 -6.5q-6 -4 -11 -4q-5 -2 -7 -7.5t1 -10.5q2 -2 8 -4q9 -1 15 5.5t10.5 15.5t6.5 19t4 16q-14 -12 -28 -16
q-13 -2 -21 5q-8 5 -8 17q0 13 6 24q14 29 41 46q10 6 24 11q5 2 10 5.5t10 4.5q4 0 4 -5zM361 329q-2 7 -5 18t-4 22.5t1 21.5t10 15q5 4 15 4.5t13 -7.5t-0.5 -10.5t-8.5 -1.5t-8.5 4t0.5 7q-8 -4 -8 -13.5t3 -20.5t7.5 -21t6.5 -16q6 -17 8.5 -40.5t-9.5 -39.5
q-5 -7 -16 -9t-23.5 -2t-24.5 1.5t-19 1.5q5 7 6.5 17.5t1 22t-1.5 22.5t-1 19v58v14.5t-5 13.5h35q-6 -6 -5.5 -15.5t0.5 -17.5v-65q0 -8 -0.5 -23t4.5 -22q4 -5 9 -5.5t9.5 2t8 7t4.5 8.5q3 12 1 25t-4 25zM556 351q-2 -4 -6.5 -14t-9 -21t-6 -21t4.5 -13q-2 6 3 6.5
t10 -2t6 -6.5t-8 -8q-11 -5 -16 4t-4 17q0 7 3 15t4 14.5t-2 10.5t-14 3v-73q8 0 20 -1t20 5q-2 -6 -3.5 -12t-3.5 -12h-64q5 5 5 11.5v13.5v114v14.5t-5 13.5h59q11 -12 11.5 -28t-4.5 -31zM473 405q0 -6 3.5 -13.5t6 -14.5t2 -13.5t-7.5 -12.5q-6 -5 -15 -4.5t-10 10.5
q0 5 3 7.5t7 2.5t7 -2.5t2 -6.5q6 1 6 6t-3.5 10t-8.5 9.5t-8 5.5q-7 2 -15.5 0.5t-11.5 -8.5q-6 -12 -2 -20.5t12 -15t17.5 -12.5t14.5 -13q7 -9 10.5 -22t2 -24.5t-9 -20.5t-22.5 -10q-13 -1 -25.5 -0.5t-24.5 0.5q4 1 2.5 8t-4 16t-4 18t2.5 14q5 6 15.5 7t12.5 -10
q0 -5 -3.5 -7.5t-7 -2.5t-6.5 2t-3 7q-6 -2 -6 -6.5t3.5 -10t8.5 -9.5t8 -5q6 -2 15.5 -1.5t14.5 5.5q10 10 8 19t-9.5 17t-17 14.5t-14.5 11.5q-8 7 -13.5 19.5t-5.5 24.5t6 22t20 13q12 2 25 1.5t25 -0.5zM134 -12l-19 -104h-20q-3 17 -5.5 34.5t-4.5 34.5
q-2 -17 -5 -34.5t-6 -34.5h-20l-18 104h21q2 -19 4 -38.5t5 -38.5q2 20 5 39l6 38h18l11 -77q3 40 9 77h19zM235 -12l-19 -104h-20q-3 17 -5.5 34.5t-4.5 34.5q-2 -17 -5 -34.5t-6 -34.5h-20l-18 104h21q2 -19 4 -38.5t5 -38.5q2 20 5 39l6 38h18l11 -77q3 40 9 77h19z
M336 -12l-19 -104h-20q-3 17 -5.5 34.5t-4.5 34.5q-2 -17 -5 -34.5t-6 -34.5h-20l-18 104h21q2 -19 4 -38.5t5 -38.5q2 20 5 39l6 38h18l11 -77q3 40 9 77h19zM515 -67q7 -3 10 -9t4.5 -13t2.5 -14.5t4 -12.5h-24q-3 5 -4 12.5t-3 14t-6 10.5t-12 3v-40h-24v103q13 2 30 3
t28 -7q15 -11 11.5 -27t-17.5 -23zM707 -116h-24q-9 18 -17 36.5t-17 35.5q2 -18 2 -36v-36h-22v104h26l32 -70q-2 17 -2 35v35h22v-104zM459 51q5 7 6.5 17.5t1 22t-1.5 22.5t-1 19v58v14.5t-5 13.5h35q-5 -5 -6.5 -14.5t-1 -20t1.5 -20.5t1 -16v-76h48q11 0 26.5 -1.5
t25.5 5.5q-2 -4 -3.5 -14t-6.5 -10h-120zM450 -116h-24l-7 24h-24l-5 -24h-25l28 104h30zM802 -112q-19 -7 -36.5 -4t-29.5 13.5t-15.5 27.5t6.5 37q6 14 19.5 20.5t28.5 6.5h5t8.5 -1t7.5 -2t3 -2l-4 -19q-12 6 -22.5 4t-17 -9t-9 -17t1.5 -22q6 -21 28 -19q5 1 4 10t-1 13
h-12v19h35v-56zM541 135q-11 20 -19 43q-4 11 -6 22t-11 18h37q-6 -13 0.5 -30.5t11.5 -28.5q6 14 11 29t0 30h37q-10 -6 -12 -18t-5 -22q-3 -9 -11 -22.5t-8 -22.5q0 -5 -0.5 -12t-0.5 -14t1 -13.5t5 -10.5h-35q8 8 6.5 24.5t-1.5 27.5zM325 178q0 7 -4.5 12.5t-10 7
t-11 -1t-6.5 -10.5q-1 -6 -0.5 -13t0.5 -13q0 -17 -1 -34.5t1 -34.5q0 -7 4.5 -12.5t9.5 -7t10 1t7 10.5q2 6 1.5 13t-0.5 13v69zM424 66q-1 29 -9 59.5t-27 53.5v-107q0 -7 5.5 -11t12 -5t12 1.5t6.5 8.5zM245 559q-13 -3 -24.5 -11t-20.5 -18q-3 -3 -7.5 -11.5t-7.5 -18
t-1.5 -16.5t10.5 -7q14 0 23 9.5t14.5 22.5t8.5 27t5 23zM549 -12h24v-104h-24v104zM242 491q7 2 14 9t11.5 16t6.5 18.5t0 16.5q-3 10 -15 10q-6 -17 -9.5 -35t-7.5 -35zM521 357q10 0 21.5 1t12.5 15q1 15 -11.5 16t-22.5 1v-33zM599 575q0 2 -1 3q0 6 -6 4
q-8 -4 -12.5 -11t-6.5 -15q-2 -5 0.5 -12.5t10.5 -1.5q6 5 10 15t5 18zM458 535q3 -9 11 -4q7 3 10.5 10.5t2.5 15.5q-1 5 -4.5 8t-10.5 -2q-9 -7 -11 -22zM328 -103q0 7 4.5 10.5t9.5 3.5t9.5 -3.5t4.5 -10.5t-4.5 -10.5t-9.5 -3.5t-9.5 3.5t-4.5 10.5zM587 -103
q0 7 4.5 10.5t9.5 3.5t9.5 -3.5t4.5 -10.5t-4.5 -10.5t-9.5 -3.5t-9.5 3.5t-4.5 10.5zM493 -58q9 0 12.5 5t3 10.5t-5.5 10t-13 3.5q-5 -1 -4 -12.5t1 -16.5h6zM417 -74q-2 11 -4.5 21.5t-5.5 21.5l-9 -43h19zM411 542q-3 -4 -7 -10.5t-3 -11.5q2 -6 8 -5t7 7q1 9 -5 20z
M300 508q5 -1 13 7t9 13q2 3 -1 5t-6 0q-5 -5 -8.5 -11.5t-6.5 -13.5zM665 627q-17 -19 -23 -40q8 9 15 18.5t9 21.5h-1zM359 562q0 3 1 6t-1 6q-2 0 -3 -3q-1 -4 2 -9h1z" />
    <glyph glyph-name="three" unicode="3" horiz-adv-x="878" 
d="M12 427q32 17 64 31.5t67 24.5q2 0 4 9.5t4 21t3.5 22.5t3.5 15q10 15 31 24t37 16q41 17 83 29t85 23q44 11 87.5 18.5t88.5 11.5q16 2 37.5 4t44 1.5t42.5 -5.5t32 -18q2 -2 0 -13.5t-3 -15.5l-3 -45q0 -2 2 -2q37 -11 71 -27t57 -48v-1q-8 2 -17.5 -1.5t-18.5 -9.5
t-17.5 -13t-12.5 -12q14 -8 22.5 -22t12.5 -31t3.5 -34t-5.5 -31q-8 20 -23.5 31t-34 16t-39.5 6.5t-39 2.5q-20 2 -43 1t-43 6q-8 3 -11 12t-3.5 20t1 22t2.5 17q-85 -6 -168.5 -25.5t-163.5 -47.5q-3 -2 -3 -3q1 -5 3.5 -16t5 -23t3 -22.5t-3.5 -13.5q-11 -8 -27 -10
t-30 -4q-18 -2 -36.5 -5t-36.5 -6q-32 -6 -60 -18q-7 -3 -13.5 -6t-13.5 -8q-3 -3 -8 -8.5t-8 -7.5q5 16 11.5 31t12.5 30q1 3 6 12t10 19t8.5 18t2.5 10q-11 16 -27 31t-36 17zM706 484q2 26 2 52t2 52q1 14 1.5 27t2.5 26q1 6 -2.5 10t-9.5 6.5t-12.5 3.5t-11.5 2
q-56 8 -115 0t-114 -19q-60 -12 -118.5 -28t-114.5 -41q-11 -5 -22 -10.5t-20 -13.5q-10 -8 -12 -23t-4 -26q-4 -31 -4 -61.5v-61.5q9 0 24 10t24 14q17 8 35 14t35 12q71 22 146 39q36 8 72 14.5t73 10.5q34 3 72.5 4.5t70.5 -13.5zM623 543l-7.5 -7.5t-8.5 -5.5
q-7 -2 -13 5q-8 -6 -14 -7q-14 -3 -20 9v1q-4 -4 -8 -7.5t-10 -5.5q-7 -3 -12 5q-3 6 -1.5 11t4 10.5t4 10.5t0.5 10q-8 -3 -11.5 -8.5t-5 -12t-2.5 -13.5t-4 -13q-3 -8 -12 -4q-3 1 -3 5q0 2 0.5 4t0.5 4q-7 -2 -9.5 -2t-7.5 -5t-11 -9t-14 -4q-5 1 -8 4t-5 7
q-8 -8 -19 -15.5t-22 -5.5q-7 1 -12 8q-5 -5 -10.5 -10t-12.5 -7q-14 -5 -16 10q-2 12 4 20t10 18q1 2 -1 2.5t-3 -1.5q-4 -9 -9 -20.5t-11.5 -21t-16 -16t-22.5 -5.5q-14 1 -16.5 10.5t2.5 21.5t14.5 21.5t19.5 10.5q6 0 8 -5q4 -6 1 -13q-3 -11 -12.5 -19t-20.5 -10
q1 -6 5 -6.5t8 1.5t8 5t6 5q11 10 16 21.5t10 23.5q2 3 -4 12t-4 15q4 13 16 11q5 0 7 -6q2 -5 1.5 -11t-1.5 -11q10 1 14 -0.5t-2 -12.5q-4 -8 -8.5 -16t-5.5 -17q0 -4 4 -4q10 -1 16 8.5t11.5 22t10.5 24t12 15.5q3 1 7 -1q3 -3 1 -6q-2 -5 -4.5 -9.5t-0.5 -10.5t5.5 -12
t2.5 -13h1q5 6 8.5 13.5l7 15t8 14t12.5 9.5q17 7 23 -9q4 -7 2.5 -12t-0.5 -13q4 1 7 4q7 6 8 16.5t4 18.5q1 3 4.5 3.5t6.5 -0.5q4 -2 3 -6v-1q5 5 11 8q10 4 14 -6q2 -6 0.5 -11t-4 -10t-4.5 -10t-1 -11q13 10 19 25.5t20 24.5q10 6 24 0q2 4 8.5 4.5t4.5 -6.5
q-2 -9 -7 -18.5t-5 -18.5q0 -6 4 -2q9 9 14 22t9.5 26.5t11 25t19.5 19.5q7 3 11 -4q6 -11 2 -22.5t-11 -19.5q-3 -4 -9 -9t-11.5 -11t-9 -12t-1.5 -12q2 -8 10 -6q7 2 10 8.5t7 11.5q3 3 6 1q4 0 4 -4l-2 -6q-8 -18 -25 -25q-12 -6 -20 7q-2 2 -2 5zM831 511
q-23 22 -51.5 35.5t-59.5 21.5q-1 -26 -1.5 -52.5t-2.5 -52.5l-1 1v-3q-12 -1 -29.5 -2t-34.5 -4t-32 -9.5t-23 -18.5q-3 -3 2 -4q25 -10 55.5 -8t56.5 0q27 -2 54 -9q14 -4 24 -11t22 -13q0 29 -9.5 49.5t-37.5 31.5q16 14 32 27t36 21zM144 472q-28 -7 -54 -17.5
t-52 -24.5q16 -10 28 -22.5t22 -27.5q1 -2 -1.5 -8t-6.5 -13t-7.5 -13.5t-4.5 -8.5l-10 -22t-9 -22q23 12 48 18t50.5 9.5l51 7t49.5 11.5q-8 9 -21.5 12t-29 3.5t-30.5 -1l-25 -2.5v60.5t2 60.5zM362 208q0 4 -4 10h26q13 -6 24 -24t16 -31q0 12 1.5 28t-6.5 27h35
q-5 -5 -5 -11.5v-13.5v-114v-15t5 -13h-96q5 6 6 16t0.5 21t-1.5 21t-1 18v81zM313 218q18 0 26 -9.5t10.5 -23.5t1.5 -30t-1 -28v-36q0 -23 -12.5 -32t-32.5 -8q-18 0 -26.5 9.5t-11 23.5t-1.5 30t1 28q0 9 -0.5 18t0.5 18q0 23 12.5 31.5t33.5 8.5zM263 573q6 0 9 -1
q17 -2 19 -21q3 -20 -10.5 -38.5t-30.5 -29.5q-9 -6 -13.5 -15t-8.5 -18t-9.5 -17.5t-15.5 -13.5q-11 -7 -25 -4t-12 18q0 10 7 17t17 9q2 1 6.5 -0.5t2.5 -6.5q-6 -4 -11 -4q-5 -2 -7 -7.5t1 -10.5q2 -2 8 -4q9 -1 15 5.5t10.5 15.5t6.5 19t4 16q-14 -12 -28 -16
q-13 -2 -21 5q-8 5 -8 17q0 13 6 24q14 29 41 46q10 6 24 11q5 2 10 5.5t10 4.5q4 0 4 -5zM361 329q-2 7 -5 18t-4 22.5t1 21.5t10 15q5 4 15 4.5t13 -7.5t-0.5 -10.5t-8.5 -1.5t-8.5 4t0.5 7q-8 -4 -8 -13.5t3 -20.5t7.5 -21t6.5 -16q6 -17 8.5 -40.5t-9.5 -39.5
q-5 -7 -16 -9t-23.5 -2t-24.5 1.5t-19 1.5q5 7 6.5 17.5t1 22t-1.5 22.5t-1 19v58v14.5t-5 13.5h35q-6 -6 -5.5 -15.5t0.5 -17.5v-65q0 -8 -0.5 -23t4.5 -22q4 -5 9 -5.5t9.5 2t8 7t4.5 8.5q3 12 1 25t-4 25zM556 351q-2 -4 -6.5 -14t-9 -21t-6 -21t4.5 -13q-2 6 3 6.5
t10 -2t6 -6.5t-8 -8q-11 -5 -16 4t-4 17q0 7 3 15t4 14.5t-2 10.5t-14 3v-73q8 0 20 -1t20 5q-2 -6 -3.5 -12t-3.5 -12h-64q5 5 5 11.5v13.5v114v14.5t-5 13.5h59q11 -12 11.5 -28t-4.5 -31zM473 405q0 -6 3.5 -13.5t6 -14.5t2 -13.5t-7.5 -12.5q-6 -5 -15 -4.5t-10 10.5
q0 5 3 7.5t7 2.5t7 -2.5t2 -6.5q6 1 6 6t-3.5 10t-8.5 9.5t-8 5.5q-7 2 -15.5 0.5t-11.5 -8.5q-6 -12 -2 -20.5t12 -15t17.5 -12.5t14.5 -13q7 -9 10.5 -22t2 -24.5t-9 -20.5t-22.5 -10q-13 -1 -25.5 -0.5t-24.5 0.5q4 1 2.5 8t-4 16t-4 18t2.5 14q5 6 15.5 7t12.5 -10
q0 -5 -3.5 -7.5t-7 -2.5t-6.5 2t-3 7q-6 -2 -6 -6.5t3.5 -10t8.5 -9.5t8 -5q6 -2 15.5 -1.5t14.5 5.5q10 10 8 19t-9.5 17t-17 14.5t-14.5 11.5q-8 7 -13.5 19.5t-5.5 24.5t6 22t20 13q12 2 25 1.5t25 -0.5zM134 -12l-19 -104h-20q-3 17 -5.5 34.5t-4.5 34.5
q-2 -17 -5 -34.5t-6 -34.5h-20l-18 104h21q2 -19 4 -38.5t5 -38.5q2 20 5 39l6 38h18l11 -77q3 40 9 77h19zM235 -12l-19 -104h-20q-3 17 -5.5 34.5t-4.5 34.5q-2 -17 -5 -34.5t-6 -34.5h-20l-18 104h21q2 -19 4 -38.5t5 -38.5q2 20 5 39l6 38h18l11 -77q3 40 9 77h19z
M336 -12l-19 -104h-20q-3 17 -5.5 34.5t-4.5 34.5q-2 -17 -5 -34.5t-6 -34.5h-20l-18 104h21q2 -19 4 -38.5t5 -38.5q2 20 5 39l6 38h18l11 -77q3 40 9 77h19zM515 -67q7 -3 10 -9t4.5 -13t2.5 -14.5t4 -12.5h-24q-3 5 -4 12.5t-3 14t-6 10.5t-12 3v-40h-24v103q13 2 30 3
t28 -7q15 -11 11.5 -27t-17.5 -23zM707 -116h-24q-9 18 -17 36.5t-17 35.5q2 -18 2 -36v-36h-22v104h26l32 -70q-2 17 -2 35v35h22v-104zM459 51q5 7 6.5 17.5t1 22t-1.5 22.5t-1 19v58v14.5t-5 13.5h35q-5 -5 -6.5 -14.5t-1 -20t1.5 -20.5t1 -16v-76h48q11 0 26.5 -1.5
t25.5 5.5q-2 -4 -3.5 -14t-6.5 -10h-120zM450 -116h-24l-7 24h-24l-5 -24h-25l28 104h30zM802 -112q-19 -7 -36.5 -4t-29.5 13.5t-15.5 27.5t6.5 37q6 14 19.5 20.5t28.5 6.5h5t8.5 -1t7.5 -2t3 -2l-4 -19q-12 6 -22.5 4t-17 -9t-9 -17t1.5 -22q6 -21 28 -19q5 1 4 10t-1 13
h-12v19h35v-56zM541 135q-11 20 -19 43q-4 11 -6 22t-11 18h37q-6 -13 0.5 -30.5t11.5 -28.5q6 14 11 29t0 30h37q-10 -6 -12 -18t-5 -22q-3 -9 -11 -22.5t-8 -22.5q0 -5 -0.5 -12t-0.5 -14t1 -13.5t5 -10.5h-35q8 8 6.5 24.5t-1.5 27.5zM325 178q0 7 -4.5 12.5t-10 7
t-11 -1t-6.5 -10.5q-1 -6 -0.5 -13t0.5 -13q0 -17 -1 -34.5t1 -34.5q0 -7 4.5 -12.5t9.5 -7t10 1t7 10.5q2 6 1.5 13t-0.5 13v69zM424 66q-1 29 -9 59.5t-27 53.5v-107q0 -7 5.5 -11t12 -5t12 1.5t6.5 8.5zM245 559q-13 -3 -24.5 -11t-20.5 -18q-3 -3 -7.5 -11.5t-7.5 -18
t-1.5 -16.5t10.5 -7q14 0 23 9.5t14.5 22.5t8.5 27t5 23zM549 -12h24v-104h-24v104zM242 491q7 2 14 9t11.5 16t6.5 18.5t0 16.5q-3 10 -15 10q-6 -17 -9.5 -35t-7.5 -35zM521 357q10 0 21.5 1t12.5 15q1 15 -11.5 16t-22.5 1v-33zM599 575q0 2 -1 3q0 6 -6 4
q-8 -4 -12.5 -11t-6.5 -15q-2 -5 0.5 -12.5t10.5 -1.5q6 5 10 15t5 18zM458 535q3 -9 11 -4q7 3 10.5 10.5t2.5 15.5q-1 5 -4.5 8t-10.5 -2q-9 -7 -11 -22zM328 -103q0 7 4.5 10.5t9.5 3.5t9.5 -3.5t4.5 -10.5t-4.5 -10.5t-9.5 -3.5t-9.5 3.5t-4.5 10.5zM587 -103
q0 7 4.5 10.5t9.5 3.5t9.5 -3.5t4.5 -10.5t-4.5 -10.5t-9.5 -3.5t-9.5 3.5t-4.5 10.5zM493 -58q9 0 12.5 5t3 10.5t-5.5 10t-13 3.5q-5 -1 -4 -12.5t1 -16.5h6zM417 -74q-2 11 -4.5 21.5t-5.5 21.5l-9 -43h19zM411 542q-3 -4 -7 -10.5t-3 -11.5q2 -6 8 -5t7 7q1 9 -5 20z
M300 508q5 -1 13 7t9 13q2 3 -1 5t-6 0q-5 -5 -8.5 -11.5t-6.5 -13.5zM665 627q-17 -19 -23 -40q8 9 15 18.5t9 21.5h-1zM359 562q0 3 1 6t-1 6q-2 0 -3 -3q-1 -4 2 -9h1z" />
    <glyph glyph-name="four" unicode="4" horiz-adv-x="878" 
d="M12 427q32 17 64 31.5t67 24.5q2 0 4 9.5t4 21t3.5 22.5t3.5 15q10 15 31 24t37 16q41 17 83 29t85 23q44 11 87.5 18.5t88.5 11.5q16 2 37.5 4t44 1.5t42.5 -5.5t32 -18q2 -2 0 -13.5t-3 -15.5l-3 -45q0 -2 2 -2q37 -11 71 -27t57 -48v-1q-8 2 -17.5 -1.5t-18.5 -9.5
t-17.5 -13t-12.5 -12q14 -8 22.5 -22t12.5 -31t3.5 -34t-5.5 -31q-8 20 -23.5 31t-34 16t-39.5 6.5t-39 2.5q-20 2 -43 1t-43 6q-8 3 -11 12t-3.5 20t1 22t2.5 17q-85 -6 -168.5 -25.5t-163.5 -47.5q-3 -2 -3 -3q1 -5 3.5 -16t5 -23t3 -22.5t-3.5 -13.5q-11 -8 -27 -10
t-30 -4q-18 -2 -36.5 -5t-36.5 -6q-32 -6 -60 -18q-7 -3 -13.5 -6t-13.5 -8q-3 -3 -8 -8.5t-8 -7.5q5 16 11.5 31t12.5 30q1 3 6 12t10 19t8.5 18t2.5 10q-11 16 -27 31t-36 17zM706 484q2 26 2 52t2 52q1 14 1.5 27t2.5 26q1 6 -2.5 10t-9.5 6.5t-12.5 3.5t-11.5 2
q-56 8 -115 0t-114 -19q-60 -12 -118.5 -28t-114.5 -41q-11 -5 -22 -10.5t-20 -13.5q-10 -8 -12 -23t-4 -26q-4 -31 -4 -61.5v-61.5q9 0 24 10t24 14q17 8 35 14t35 12q71 22 146 39q36 8 72 14.5t73 10.5q34 3 72.5 4.5t70.5 -13.5zM623 543l-7.5 -7.5t-8.5 -5.5
q-7 -2 -13 5q-8 -6 -14 -7q-14 -3 -20 9v1q-4 -4 -8 -7.5t-10 -5.5q-7 -3 -12 5q-3 6 -1.5 11t4 10.5t4 10.5t0.5 10q-8 -3 -11.5 -8.5t-5 -12t-2.5 -13.5t-4 -13q-3 -8 -12 -4q-3 1 -3 5q0 2 0.5 4t0.5 4q-7 -2 -9.5 -2t-7.5 -5t-11 -9t-14 -4q-5 1 -8 4t-5 7
q-8 -8 -19 -15.5t-22 -5.5q-7 1 -12 8q-5 -5 -10.5 -10t-12.5 -7q-14 -5 -16 10q-2 12 4 20t10 18q1 2 -1 2.5t-3 -1.5q-4 -9 -9 -20.5t-11.5 -21t-16 -16t-22.5 -5.5q-14 1 -16.5 10.5t2.5 21.5t14.5 21.5t19.5 10.5q6 0 8 -5q4 -6 1 -13q-3 -11 -12.5 -19t-20.5 -10
q1 -6 5 -6.5t8 1.5t8 5t6 5q11 10 16 21.5t10 23.5q2 3 -4 12t-4 15q4 13 16 11q5 0 7 -6q2 -5 1.5 -11t-1.5 -11q10 1 14 -0.5t-2 -12.5q-4 -8 -8.5 -16t-5.5 -17q0 -4 4 -4q10 -1 16 8.5t11.5 22t10.5 24t12 15.5q3 1 7 -1q3 -3 1 -6q-2 -5 -4.5 -9.5t-0.5 -10.5t5.5 -12
t2.5 -13h1q5 6 8.5 13.5l7 15t8 14t12.5 9.5q17 7 23 -9q4 -7 2.5 -12t-0.5 -13q4 1 7 4q7 6 8 16.5t4 18.5q1 3 4.5 3.5t6.5 -0.5q4 -2 3 -6v-1q5 5 11 8q10 4 14 -6q2 -6 0.5 -11t-4 -10t-4.5 -10t-1 -11q13 10 19 25.5t20 24.5q10 6 24 0q2 4 8.5 4.5t4.5 -6.5
q-2 -9 -7 -18.5t-5 -18.5q0 -6 4 -2q9 9 14 22t9.5 26.5t11 25t19.5 19.5q7 3 11 -4q6 -11 2 -22.5t-11 -19.5q-3 -4 -9 -9t-11.5 -11t-9 -12t-1.5 -12q2 -8 10 -6q7 2 10 8.5t7 11.5q3 3 6 1q4 0 4 -4l-2 -6q-8 -18 -25 -25q-12 -6 -20 7q-2 2 -2 5zM831 511
q-23 22 -51.5 35.5t-59.5 21.5q-1 -26 -1.5 -52.5t-2.5 -52.5l-1 1v-3q-12 -1 -29.5 -2t-34.5 -4t-32 -9.5t-23 -18.5q-3 -3 2 -4q25 -10 55.5 -8t56.5 0q27 -2 54 -9q14 -4 24 -11t22 -13q0 29 -9.5 49.5t-37.5 31.5q16 14 32 27t36 21zM144 472q-28 -7 -54 -17.5
t-52 -24.5q16 -10 28 -22.5t22 -27.5q1 -2 -1.5 -8t-6.5 -13t-7.5 -13.5t-4.5 -8.5l-10 -22t-9 -22q23 12 48 18t50.5 9.5l51 7t49.5 11.5q-8 9 -21.5 12t-29 3.5t-30.5 -1l-25 -2.5v60.5t2 60.5zM362 208q0 4 -4 10h26q13 -6 24 -24t16 -31q0 12 1.5 28t-6.5 27h35
q-5 -5 -5 -11.5v-13.5v-114v-15t5 -13h-96q5 6 6 16t0.5 21t-1.5 21t-1 18v81zM313 218q18 0 26 -9.5t10.5 -23.5t1.5 -30t-1 -28v-36q0 -23 -12.5 -32t-32.5 -8q-18 0 -26.5 9.5t-11 23.5t-1.5 30t1 28q0 9 -0.5 18t0.5 18q0 23 12.5 31.5t33.5 8.5zM263 573q6 0 9 -1
q17 -2 19 -21q3 -20 -10.5 -38.5t-30.5 -29.5q-9 -6 -13.5 -15t-8.5 -18t-9.5 -17.5t-15.5 -13.5q-11 -7 -25 -4t-12 18q0 10 7 17t17 9q2 1 6.5 -0.5t2.5 -6.5q-6 -4 -11 -4q-5 -2 -7 -7.5t1 -10.5q2 -2 8 -4q9 -1 15 5.5t10.5 15.5t6.5 19t4 16q-14 -12 -28 -16
q-13 -2 -21 5q-8 5 -8 17q0 13 6 24q14 29 41 46q10 6 24 11q5 2 10 5.5t10 4.5q4 0 4 -5zM361 329q-2 7 -5 18t-4 22.5t1 21.5t10 15q5 4 15 4.5t13 -7.5t-0.5 -10.5t-8.5 -1.5t-8.5 4t0.5 7q-8 -4 -8 -13.5t3 -20.5t7.5 -21t6.5 -16q6 -17 8.5 -40.5t-9.5 -39.5
q-5 -7 -16 -9t-23.5 -2t-24.5 1.5t-19 1.5q5 7 6.5 17.5t1 22t-1.5 22.5t-1 19v58v14.5t-5 13.5h35q-6 -6 -5.5 -15.5t0.5 -17.5v-65q0 -8 -0.5 -23t4.5 -22q4 -5 9 -5.5t9.5 2t8 7t4.5 8.5q3 12 1 25t-4 25zM556 351q-2 -4 -6.5 -14t-9 -21t-6 -21t4.5 -13q-2 6 3 6.5
t10 -2t6 -6.5t-8 -8q-11 -5 -16 4t-4 17q0 7 3 15t4 14.5t-2 10.5t-14 3v-73q8 0 20 -1t20 5q-2 -6 -3.5 -12t-3.5 -12h-64q5 5 5 11.5v13.5v114v14.5t-5 13.5h59q11 -12 11.5 -28t-4.5 -31zM473 405q0 -6 3.5 -13.5t6 -14.5t2 -13.5t-7.5 -12.5q-6 -5 -15 -4.5t-10 10.5
q0 5 3 7.5t7 2.5t7 -2.5t2 -6.5q6 1 6 6t-3.5 10t-8.5 9.5t-8 5.5q-7 2 -15.5 0.5t-11.5 -8.5q-6 -12 -2 -20.5t12 -15t17.5 -12.5t14.5 -13q7 -9 10.5 -22t2 -24.5t-9 -20.5t-22.5 -10q-13 -1 -25.5 -0.5t-24.5 0.5q4 1 2.5 8t-4 16t-4 18t2.5 14q5 6 15.5 7t12.5 -10
q0 -5 -3.5 -7.5t-7 -2.5t-6.5 2t-3 7q-6 -2 -6 -6.5t3.5 -10t8.5 -9.5t8 -5q6 -2 15.5 -1.5t14.5 5.5q10 10 8 19t-9.5 17t-17 14.5t-14.5 11.5q-8 7 -13.5 19.5t-5.5 24.5t6 22t20 13q12 2 25 1.5t25 -0.5zM134 -12l-19 -104h-20q-3 17 -5.5 34.5t-4.5 34.5
q-2 -17 -5 -34.5t-6 -34.5h-20l-18 104h21q2 -19 4 -38.5t5 -38.5q2 20 5 39l6 38h18l11 -77q3 40 9 77h19zM235 -12l-19 -104h-20q-3 17 -5.5 34.5t-4.5 34.5q-2 -17 -5 -34.5t-6 -34.5h-20l-18 104h21q2 -19 4 -38.5t5 -38.5q2 20 5 39l6 38h18l11 -77q3 40 9 77h19z
M336 -12l-19 -104h-20q-3 17 -5.5 34.5t-4.5 34.5q-2 -17 -5 -34.5t-6 -34.5h-20l-18 104h21q2 -19 4 -38.5t5 -38.5q2 20 5 39l6 38h18l11 -77q3 40 9 77h19zM515 -67q7 -3 10 -9t4.5 -13t2.5 -14.5t4 -12.5h-24q-3 5 -4 12.5t-3 14t-6 10.5t-12 3v-40h-24v103q13 2 30 3
t28 -7q15 -11 11.5 -27t-17.5 -23zM707 -116h-24q-9 18 -17 36.5t-17 35.5q2 -18 2 -36v-36h-22v104h26l32 -70q-2 17 -2 35v35h22v-104zM459 51q5 7 6.5 17.5t1 22t-1.5 22.5t-1 19v58v14.5t-5 13.5h35q-5 -5 -6.5 -14.5t-1 -20t1.5 -20.5t1 -16v-76h48q11 0 26.5 -1.5
t25.5 5.5q-2 -4 -3.5 -14t-6.5 -10h-120zM450 -116h-24l-7 24h-24l-5 -24h-25l28 104h30zM802 -112q-19 -7 -36.5 -4t-29.5 13.5t-15.5 27.5t6.5 37q6 14 19.5 20.5t28.5 6.5h5t8.5 -1t7.5 -2t3 -2l-4 -19q-12 6 -22.5 4t-17 -9t-9 -17t1.5 -22q6 -21 28 -19q5 1 4 10t-1 13
h-12v19h35v-56zM541 135q-11 20 -19 43q-4 11 -6 22t-11 18h37q-6 -13 0.5 -30.5t11.5 -28.5q6 14 11 29t0 30h37q-10 -6 -12 -18t-5 -22q-3 -9 -11 -22.5t-8 -22.5q0 -5 -0.5 -12t-0.5 -14t1 -13.5t5 -10.5h-35q8 8 6.5 24.5t-1.5 27.5zM325 178q0 7 -4.5 12.5t-10 7
t-11 -1t-6.5 -10.5q-1 -6 -0.5 -13t0.5 -13q0 -17 -1 -34.5t1 -34.5q0 -7 4.5 -12.5t9.5 -7t10 1t7 10.5q2 6 1.5 13t-0.5 13v69zM424 66q-1 29 -9 59.5t-27 53.5v-107q0 -7 5.5 -11t12 -5t12 1.5t6.5 8.5zM245 559q-13 -3 -24.5 -11t-20.5 -18q-3 -3 -7.5 -11.5t-7.5 -18
t-1.5 -16.5t10.5 -7q14 0 23 9.5t14.5 22.5t8.5 27t5 23zM549 -12h24v-104h-24v104zM242 491q7 2 14 9t11.5 16t6.5 18.5t0 16.5q-3 10 -15 10q-6 -17 -9.5 -35t-7.5 -35zM521 357q10 0 21.5 1t12.5 15q1 15 -11.5 16t-22.5 1v-33zM599 575q0 2 -1 3q0 6 -6 4
q-8 -4 -12.5 -11t-6.5 -15q-2 -5 0.5 -12.5t10.5 -1.5q6 5 10 15t5 18zM458 535q3 -9 11 -4q7 3 10.5 10.5t2.5 15.5q-1 5 -4.5 8t-10.5 -2q-9 -7 -11 -22zM328 -103q0 7 4.5 10.5t9.5 3.5t9.5 -3.5t4.5 -10.5t-4.5 -10.5t-9.5 -3.5t-9.5 3.5t-4.5 10.5zM587 -103
q0 7 4.5 10.5t9.5 3.5t9.5 -3.5t4.5 -10.5t-4.5 -10.5t-9.5 -3.5t-9.5 3.5t-4.5 10.5zM493 -58q9 0 12.5 5t3 10.5t-5.5 10t-13 3.5q-5 -1 -4 -12.5t1 -16.5h6zM417 -74q-2 11 -4.5 21.5t-5.5 21.5l-9 -43h19zM411 542q-3 -4 -7 -10.5t-3 -11.5q2 -6 8 -5t7 7q1 9 -5 20z
M300 508q5 -1 13 7t9 13q2 3 -1 5t-6 0q-5 -5 -8.5 -11.5t-6.5 -13.5zM665 627q-17 -19 -23 -40q8 9 15 18.5t9 21.5h-1zM359 562q0 3 1 6t-1 6q-2 0 -3 -3q-1 -4 2 -9h1z" />
    <glyph glyph-name="five" unicode="5" horiz-adv-x="878" 
d="M12 427q32 17 64 31.5t67 24.5q2 0 4 9.5t4 21t3.5 22.5t3.5 15q10 15 31 24t37 16q41 17 83 29t85 23q44 11 87.5 18.5t88.5 11.5q16 2 37.5 4t44 1.5t42.5 -5.5t32 -18q2 -2 0 -13.5t-3 -15.5l-3 -45q0 -2 2 -2q37 -11 71 -27t57 -48v-1q-8 2 -17.5 -1.5t-18.5 -9.5
t-17.5 -13t-12.5 -12q14 -8 22.5 -22t12.5 -31t3.5 -34t-5.5 -31q-8 20 -23.5 31t-34 16t-39.5 6.5t-39 2.5q-20 2 -43 1t-43 6q-8 3 -11 12t-3.5 20t1 22t2.5 17q-85 -6 -168.5 -25.5t-163.5 -47.5q-3 -2 -3 -3q1 -5 3.5 -16t5 -23t3 -22.5t-3.5 -13.5q-11 -8 -27 -10
t-30 -4q-18 -2 -36.5 -5t-36.5 -6q-32 -6 -60 -18q-7 -3 -13.5 -6t-13.5 -8q-3 -3 -8 -8.5t-8 -7.5q5 16 11.5 31t12.5 30q1 3 6 12t10 19t8.5 18t2.5 10q-11 16 -27 31t-36 17zM706 484q2 26 2 52t2 52q1 14 1.5 27t2.5 26q1 6 -2.5 10t-9.5 6.5t-12.5 3.5t-11.5 2
q-56 8 -115 0t-114 -19q-60 -12 -118.5 -28t-114.5 -41q-11 -5 -22 -10.5t-20 -13.5q-10 -8 -12 -23t-4 -26q-4 -31 -4 -61.5v-61.5q9 0 24 10t24 14q17 8 35 14t35 12q71 22 146 39q36 8 72 14.5t73 10.5q34 3 72.5 4.5t70.5 -13.5zM623 543l-7.5 -7.5t-8.5 -5.5
q-7 -2 -13 5q-8 -6 -14 -7q-14 -3 -20 9v1q-4 -4 -8 -7.5t-10 -5.5q-7 -3 -12 5q-3 6 -1.5 11t4 10.5t4 10.5t0.5 10q-8 -3 -11.5 -8.5t-5 -12t-2.5 -13.5t-4 -13q-3 -8 -12 -4q-3 1 -3 5q0 2 0.5 4t0.5 4q-7 -2 -9.5 -2t-7.5 -5t-11 -9t-14 -4q-5 1 -8 4t-5 7
q-8 -8 -19 -15.5t-22 -5.5q-7 1 -12 8q-5 -5 -10.5 -10t-12.5 -7q-14 -5 -16 10q-2 12 4 20t10 18q1 2 -1 2.5t-3 -1.5q-4 -9 -9 -20.5t-11.5 -21t-16 -16t-22.5 -5.5q-14 1 -16.5 10.5t2.5 21.5t14.5 21.5t19.5 10.5q6 0 8 -5q4 -6 1 -13q-3 -11 -12.5 -19t-20.5 -10
q1 -6 5 -6.5t8 1.5t8 5t6 5q11 10 16 21.5t10 23.5q2 3 -4 12t-4 15q4 13 16 11q5 0 7 -6q2 -5 1.5 -11t-1.5 -11q10 1 14 -0.5t-2 -12.5q-4 -8 -8.5 -16t-5.5 -17q0 -4 4 -4q10 -1 16 8.5t11.5 22t10.5 24t12 15.5q3 1 7 -1q3 -3 1 -6q-2 -5 -4.5 -9.5t-0.5 -10.5t5.5 -12
t2.5 -13h1q5 6 8.5 13.5l7 15t8 14t12.5 9.5q17 7 23 -9q4 -7 2.5 -12t-0.5 -13q4 1 7 4q7 6 8 16.5t4 18.5q1 3 4.5 3.5t6.5 -0.5q4 -2 3 -6v-1q5 5 11 8q10 4 14 -6q2 -6 0.5 -11t-4 -10t-4.5 -10t-1 -11q13 10 19 25.5t20 24.5q10 6 24 0q2 4 8.5 4.5t4.5 -6.5
q-2 -9 -7 -18.5t-5 -18.5q0 -6 4 -2q9 9 14 22t9.5 26.5t11 25t19.5 19.5q7 3 11 -4q6 -11 2 -22.5t-11 -19.5q-3 -4 -9 -9t-11.5 -11t-9 -12t-1.5 -12q2 -8 10 -6q7 2 10 8.5t7 11.5q3 3 6 1q4 0 4 -4l-2 -6q-8 -18 -25 -25q-12 -6 -20 7q-2 2 -2 5zM831 511
q-23 22 -51.5 35.5t-59.5 21.5q-1 -26 -1.5 -52.5t-2.5 -52.5l-1 1v-3q-12 -1 -29.5 -2t-34.5 -4t-32 -9.5t-23 -18.5q-3 -3 2 -4q25 -10 55.5 -8t56.5 0q27 -2 54 -9q14 -4 24 -11t22 -13q0 29 -9.5 49.5t-37.5 31.5q16 14 32 27t36 21zM144 472q-28 -7 -54 -17.5
t-52 -24.5q16 -10 28 -22.5t22 -27.5q1 -2 -1.5 -8t-6.5 -13t-7.5 -13.5t-4.5 -8.5l-10 -22t-9 -22q23 12 48 18t50.5 9.5l51 7t49.5 11.5q-8 9 -21.5 12t-29 3.5t-30.5 -1l-25 -2.5v60.5t2 60.5zM362 208q0 4 -4 10h26q13 -6 24 -24t16 -31q0 12 1.5 28t-6.5 27h35
q-5 -5 -5 -11.5v-13.5v-114v-15t5 -13h-96q5 6 6 16t0.5 21t-1.5 21t-1 18v81zM313 218q18 0 26 -9.5t10.5 -23.5t1.5 -30t-1 -28v-36q0 -23 -12.5 -32t-32.5 -8q-18 0 -26.5 9.5t-11 23.5t-1.5 30t1 28q0 9 -0.5 18t0.5 18q0 23 12.5 31.5t33.5 8.5zM263 573q6 0 9 -1
q17 -2 19 -21q3 -20 -10.5 -38.5t-30.5 -29.5q-9 -6 -13.5 -15t-8.5 -18t-9.5 -17.5t-15.5 -13.5q-11 -7 -25 -4t-12 18q0 10 7 17t17 9q2 1 6.5 -0.5t2.5 -6.5q-6 -4 -11 -4q-5 -2 -7 -7.5t1 -10.5q2 -2 8 -4q9 -1 15 5.5t10.5 15.5t6.5 19t4 16q-14 -12 -28 -16
q-13 -2 -21 5q-8 5 -8 17q0 13 6 24q14 29 41 46q10 6 24 11q5 2 10 5.5t10 4.5q4 0 4 -5zM361 329q-2 7 -5 18t-4 22.5t1 21.5t10 15q5 4 15 4.5t13 -7.5t-0.5 -10.5t-8.5 -1.5t-8.5 4t0.5 7q-8 -4 -8 -13.5t3 -20.5t7.5 -21t6.5 -16q6 -17 8.5 -40.5t-9.5 -39.5
q-5 -7 -16 -9t-23.5 -2t-24.5 1.5t-19 1.5q5 7 6.5 17.5t1 22t-1.5 22.5t-1 19v58v14.5t-5 13.5h35q-6 -6 -5.5 -15.5t0.5 -17.5v-65q0 -8 -0.5 -23t4.5 -22q4 -5 9 -5.5t9.5 2t8 7t4.5 8.5q3 12 1 25t-4 25zM556 351q-2 -4 -6.5 -14t-9 -21t-6 -21t4.5 -13q-2 6 3 6.5
t10 -2t6 -6.5t-8 -8q-11 -5 -16 4t-4 17q0 7 3 15t4 14.5t-2 10.5t-14 3v-73q8 0 20 -1t20 5q-2 -6 -3.5 -12t-3.5 -12h-64q5 5 5 11.5v13.5v114v14.5t-5 13.5h59q11 -12 11.5 -28t-4.5 -31zM473 405q0 -6 3.5 -13.5t6 -14.5t2 -13.5t-7.5 -12.5q-6 -5 -15 -4.5t-10 10.5
q0 5 3 7.5t7 2.5t7 -2.5t2 -6.5q6 1 6 6t-3.5 10t-8.5 9.5t-8 5.5q-7 2 -15.5 0.5t-11.5 -8.5q-6 -12 -2 -20.5t12 -15t17.5 -12.5t14.5 -13q7 -9 10.5 -22t2 -24.5t-9 -20.5t-22.5 -10q-13 -1 -25.5 -0.5t-24.5 0.5q4 1 2.5 8t-4 16t-4 18t2.5 14q5 6 15.5 7t12.5 -10
q0 -5 -3.5 -7.5t-7 -2.5t-6.5 2t-3 7q-6 -2 -6 -6.5t3.5 -10t8.5 -9.5t8 -5q6 -2 15.5 -1.5t14.5 5.5q10 10 8 19t-9.5 17t-17 14.5t-14.5 11.5q-8 7 -13.5 19.5t-5.5 24.5t6 22t20 13q12 2 25 1.5t25 -0.5zM134 -12l-19 -104h-20q-3 17 -5.5 34.5t-4.5 34.5
q-2 -17 -5 -34.5t-6 -34.5h-20l-18 104h21q2 -19 4 -38.5t5 -38.5q2 20 5 39l6 38h18l11 -77q3 40 9 77h19zM235 -12l-19 -104h-20q-3 17 -5.5 34.5t-4.5 34.5q-2 -17 -5 -34.5t-6 -34.5h-20l-18 104h21q2 -19 4 -38.5t5 -38.5q2 20 5 39l6 38h18l11 -77q3 40 9 77h19z
M336 -12l-19 -104h-20q-3 17 -5.5 34.5t-4.5 34.5q-2 -17 -5 -34.5t-6 -34.5h-20l-18 104h21q2 -19 4 -38.5t5 -38.5q2 20 5 39l6 38h18l11 -77q3 40 9 77h19zM515 -67q7 -3 10 -9t4.5 -13t2.5 -14.5t4 -12.5h-24q-3 5 -4 12.5t-3 14t-6 10.5t-12 3v-40h-24v103q13 2 30 3
t28 -7q15 -11 11.5 -27t-17.5 -23zM707 -116h-24q-9 18 -17 36.5t-17 35.5q2 -18 2 -36v-36h-22v104h26l32 -70q-2 17 -2 35v35h22v-104zM459 51q5 7 6.5 17.5t1 22t-1.5 22.5t-1 19v58v14.5t-5 13.5h35q-5 -5 -6.5 -14.5t-1 -20t1.5 -20.5t1 -16v-76h48q11 0 26.5 -1.5
t25.5 5.5q-2 -4 -3.5 -14t-6.5 -10h-120zM450 -116h-24l-7 24h-24l-5 -24h-25l28 104h30zM802 -112q-19 -7 -36.5 -4t-29.5 13.5t-15.5 27.5t6.5 37q6 14 19.5 20.5t28.5 6.5h5t8.5 -1t7.5 -2t3 -2l-4 -19q-12 6 -22.5 4t-17 -9t-9 -17t1.5 -22q6 -21 28 -19q5 1 4 10t-1 13
h-12v19h35v-56zM541 135q-11 20 -19 43q-4 11 -6 22t-11 18h37q-6 -13 0.5 -30.5t11.5 -28.5q6 14 11 29t0 30h37q-10 -6 -12 -18t-5 -22q-3 -9 -11 -22.5t-8 -22.5q0 -5 -0.5 -12t-0.5 -14t1 -13.5t5 -10.5h-35q8 8 6.5 24.5t-1.5 27.5zM325 178q0 7 -4.5 12.5t-10 7
t-11 -1t-6.5 -10.5q-1 -6 -0.5 -13t0.5 -13q0 -17 -1 -34.5t1 -34.5q0 -7 4.5 -12.5t9.5 -7t10 1t7 10.5q2 6 1.5 13t-0.5 13v69zM424 66q-1 29 -9 59.5t-27 53.5v-107q0 -7 5.5 -11t12 -5t12 1.5t6.5 8.5zM245 559q-13 -3 -24.5 -11t-20.5 -18q-3 -3 -7.5 -11.5t-7.5 -18
t-1.5 -16.5t10.5 -7q14 0 23 9.5t14.5 22.5t8.5 27t5 23zM549 -12h24v-104h-24v104zM242 491q7 2 14 9t11.5 16t6.5 18.5t0 16.5q-3 10 -15 10q-6 -17 -9.5 -35t-7.5 -35zM521 357q10 0 21.5 1t12.5 15q1 15 -11.5 16t-22.5 1v-33zM599 575q0 2 -1 3q0 6 -6 4
q-8 -4 -12.5 -11t-6.5 -15q-2 -5 0.5 -12.5t10.5 -1.5q6 5 10 15t5 18zM458 535q3 -9 11 -4q7 3 10.5 10.5t2.5 15.5q-1 5 -4.5 8t-10.5 -2q-9 -7 -11 -22zM328 -103q0 7 4.5 10.5t9.5 3.5t9.5 -3.5t4.5 -10.5t-4.5 -10.5t-9.5 -3.5t-9.5 3.5t-4.5 10.5zM587 -103
q0 7 4.5 10.5t9.5 3.5t9.5 -3.5t4.5 -10.5t-4.5 -10.5t-9.5 -3.5t-9.5 3.5t-4.5 10.5zM493 -58q9 0 12.5 5t3 10.5t-5.5 10t-13 3.5q-5 -1 -4 -12.5t1 -16.5h6zM417 -74q-2 11 -4.5 21.5t-5.5 21.5l-9 -43h19zM411 542q-3 -4 -7 -10.5t-3 -11.5q2 -6 8 -5t7 7q1 9 -5 20z
M300 508q5 -1 13 7t9 13q2 3 -1 5t-6 0q-5 -5 -8.5 -11.5t-6.5 -13.5zM665 627q-17 -19 -23 -40q8 9 15 18.5t9 21.5h-1zM359 562q0 3 1 6t-1 6q-2 0 -3 -3q-1 -4 2 -9h1z" />
    <glyph glyph-name="six" unicode="6" horiz-adv-x="878" 
d="M12 427q32 17 64 31.5t67 24.5q2 0 4 9.5t4 21t3.5 22.5t3.5 15q10 15 31 24t37 16q41 17 83 29t85 23q44 11 87.5 18.5t88.5 11.5q16 2 37.5 4t44 1.5t42.5 -5.5t32 -18q2 -2 0 -13.5t-3 -15.5l-3 -45q0 -2 2 -2q37 -11 71 -27t57 -48v-1q-8 2 -17.5 -1.5t-18.5 -9.5
t-17.5 -13t-12.5 -12q14 -8 22.5 -22t12.5 -31t3.5 -34t-5.5 -31q-8 20 -23.5 31t-34 16t-39.5 6.5t-39 2.5q-20 2 -43 1t-43 6q-8 3 -11 12t-3.5 20t1 22t2.5 17q-85 -6 -168.5 -25.5t-163.5 -47.5q-3 -2 -3 -3q1 -5 3.5 -16t5 -23t3 -22.5t-3.5 -13.5q-11 -8 -27 -10
t-30 -4q-18 -2 -36.5 -5t-36.5 -6q-32 -6 -60 -18q-7 -3 -13.5 -6t-13.5 -8q-3 -3 -8 -8.5t-8 -7.5q5 16 11.5 31t12.5 30q1 3 6 12t10 19t8.5 18t2.5 10q-11 16 -27 31t-36 17zM706 484q2 26 2 52t2 52q1 14 1.5 27t2.5 26q1 6 -2.5 10t-9.5 6.5t-12.5 3.5t-11.5 2
q-56 8 -115 0t-114 -19q-60 -12 -118.5 -28t-114.5 -41q-11 -5 -22 -10.5t-20 -13.5q-10 -8 -12 -23t-4 -26q-4 -31 -4 -61.5v-61.5q9 0 24 10t24 14q17 8 35 14t35 12q71 22 146 39q36 8 72 14.5t73 10.5q34 3 72.5 4.5t70.5 -13.5zM623 543l-7.5 -7.5t-8.5 -5.5
q-7 -2 -13 5q-8 -6 -14 -7q-14 -3 -20 9v1q-4 -4 -8 -7.5t-10 -5.5q-7 -3 -12 5q-3 6 -1.5 11t4 10.5t4 10.5t0.5 10q-8 -3 -11.5 -8.5t-5 -12t-2.5 -13.5t-4 -13q-3 -8 -12 -4q-3 1 -3 5q0 2 0.5 4t0.5 4q-7 -2 -9.5 -2t-7.5 -5t-11 -9t-14 -4q-5 1 -8 4t-5 7
q-8 -8 -19 -15.5t-22 -5.5q-7 1 -12 8q-5 -5 -10.5 -10t-12.5 -7q-14 -5 -16 10q-2 12 4 20t10 18q1 2 -1 2.5t-3 -1.5q-4 -9 -9 -20.5t-11.5 -21t-16 -16t-22.5 -5.5q-14 1 -16.5 10.5t2.5 21.5t14.5 21.5t19.5 10.5q6 0 8 -5q4 -6 1 -13q-3 -11 -12.5 -19t-20.5 -10
q1 -6 5 -6.5t8 1.5t8 5t6 5q11 10 16 21.5t10 23.5q2 3 -4 12t-4 15q4 13 16 11q5 0 7 -6q2 -5 1.5 -11t-1.5 -11q10 1 14 -0.5t-2 -12.5q-4 -8 -8.5 -16t-5.5 -17q0 -4 4 -4q10 -1 16 8.5t11.5 22t10.5 24t12 15.5q3 1 7 -1q3 -3 1 -6q-2 -5 -4.5 -9.5t-0.5 -10.5t5.5 -12
t2.5 -13h1q5 6 8.5 13.5l7 15t8 14t12.5 9.5q17 7 23 -9q4 -7 2.5 -12t-0.5 -13q4 1 7 4q7 6 8 16.5t4 18.5q1 3 4.5 3.5t6.5 -0.5q4 -2 3 -6v-1q5 5 11 8q10 4 14 -6q2 -6 0.5 -11t-4 -10t-4.5 -10t-1 -11q13 10 19 25.5t20 24.5q10 6 24 0q2 4 8.5 4.5t4.5 -6.5
q-2 -9 -7 -18.5t-5 -18.5q0 -6 4 -2q9 9 14 22t9.5 26.5t11 25t19.5 19.5q7 3 11 -4q6 -11 2 -22.5t-11 -19.5q-3 -4 -9 -9t-11.5 -11t-9 -12t-1.5 -12q2 -8 10 -6q7 2 10 8.5t7 11.5q3 3 6 1q4 0 4 -4l-2 -6q-8 -18 -25 -25q-12 -6 -20 7q-2 2 -2 5zM831 511
q-23 22 -51.5 35.5t-59.5 21.5q-1 -26 -1.5 -52.5t-2.5 -52.5l-1 1v-3q-12 -1 -29.5 -2t-34.5 -4t-32 -9.5t-23 -18.5q-3 -3 2 -4q25 -10 55.5 -8t56.5 0q27 -2 54 -9q14 -4 24 -11t22 -13q0 29 -9.5 49.5t-37.5 31.5q16 14 32 27t36 21zM144 472q-28 -7 -54 -17.5
t-52 -24.5q16 -10 28 -22.5t22 -27.5q1 -2 -1.5 -8t-6.5 -13t-7.5 -13.5t-4.5 -8.5l-10 -22t-9 -22q23 12 48 18t50.5 9.5l51 7t49.5 11.5q-8 9 -21.5 12t-29 3.5t-30.5 -1l-25 -2.5v60.5t2 60.5zM362 208q0 4 -4 10h26q13 -6 24 -24t16 -31q0 12 1.5 28t-6.5 27h35
q-5 -5 -5 -11.5v-13.5v-114v-15t5 -13h-96q5 6 6 16t0.5 21t-1.5 21t-1 18v81zM313 218q18 0 26 -9.5t10.5 -23.5t1.5 -30t-1 -28v-36q0 -23 -12.5 -32t-32.5 -8q-18 0 -26.5 9.5t-11 23.5t-1.5 30t1 28q0 9 -0.5 18t0.5 18q0 23 12.5 31.5t33.5 8.5zM263 573q6 0 9 -1
q17 -2 19 -21q3 -20 -10.5 -38.5t-30.5 -29.5q-9 -6 -13.5 -15t-8.5 -18t-9.5 -17.5t-15.5 -13.5q-11 -7 -25 -4t-12 18q0 10 7 17t17 9q2 1 6.5 -0.5t2.5 -6.5q-6 -4 -11 -4q-5 -2 -7 -7.5t1 -10.5q2 -2 8 -4q9 -1 15 5.5t10.5 15.5t6.5 19t4 16q-14 -12 -28 -16
q-13 -2 -21 5q-8 5 -8 17q0 13 6 24q14 29 41 46q10 6 24 11q5 2 10 5.5t10 4.5q4 0 4 -5zM361 329q-2 7 -5 18t-4 22.5t1 21.5t10 15q5 4 15 4.5t13 -7.5t-0.5 -10.5t-8.5 -1.5t-8.5 4t0.5 7q-8 -4 -8 -13.5t3 -20.5t7.5 -21t6.5 -16q6 -17 8.5 -40.5t-9.5 -39.5
q-5 -7 -16 -9t-23.5 -2t-24.5 1.5t-19 1.5q5 7 6.5 17.5t1 22t-1.5 22.5t-1 19v58v14.5t-5 13.5h35q-6 -6 -5.5 -15.5t0.5 -17.5v-65q0 -8 -0.5 -23t4.5 -22q4 -5 9 -5.5t9.5 2t8 7t4.5 8.5q3 12 1 25t-4 25zM556 351q-2 -4 -6.5 -14t-9 -21t-6 -21t4.5 -13q-2 6 3 6.5
t10 -2t6 -6.5t-8 -8q-11 -5 -16 4t-4 17q0 7 3 15t4 14.5t-2 10.5t-14 3v-73q8 0 20 -1t20 5q-2 -6 -3.5 -12t-3.5 -12h-64q5 5 5 11.5v13.5v114v14.5t-5 13.5h59q11 -12 11.5 -28t-4.5 -31zM473 405q0 -6 3.5 -13.5t6 -14.5t2 -13.5t-7.5 -12.5q-6 -5 -15 -4.5t-10 10.5
q0 5 3 7.5t7 2.5t7 -2.5t2 -6.5q6 1 6 6t-3.5 10t-8.5 9.5t-8 5.5q-7 2 -15.5 0.5t-11.5 -8.5q-6 -12 -2 -20.5t12 -15t17.5 -12.5t14.5 -13q7 -9 10.5 -22t2 -24.5t-9 -20.5t-22.5 -10q-13 -1 -25.5 -0.5t-24.5 0.5q4 1 2.5 8t-4 16t-4 18t2.5 14q5 6 15.5 7t12.5 -10
q0 -5 -3.5 -7.5t-7 -2.5t-6.5 2t-3 7q-6 -2 -6 -6.5t3.5 -10t8.5 -9.5t8 -5q6 -2 15.5 -1.5t14.5 5.5q10 10 8 19t-9.5 17t-17 14.5t-14.5 11.5q-8 7 -13.5 19.5t-5.5 24.5t6 22t20 13q12 2 25 1.5t25 -0.5zM134 -12l-19 -104h-20q-3 17 -5.5 34.5t-4.5 34.5
q-2 -17 -5 -34.5t-6 -34.5h-20l-18 104h21q2 -19 4 -38.5t5 -38.5q2 20 5 39l6 38h18l11 -77q3 40 9 77h19zM235 -12l-19 -104h-20q-3 17 -5.5 34.5t-4.5 34.5q-2 -17 -5 -34.5t-6 -34.5h-20l-18 104h21q2 -19 4 -38.5t5 -38.5q2 20 5 39l6 38h18l11 -77q3 40 9 77h19z
M336 -12l-19 -104h-20q-3 17 -5.5 34.5t-4.5 34.5q-2 -17 -5 -34.5t-6 -34.5h-20l-18 104h21q2 -19 4 -38.5t5 -38.5q2 20 5 39l6 38h18l11 -77q3 40 9 77h19zM515 -67q7 -3 10 -9t4.5 -13t2.5 -14.5t4 -12.5h-24q-3 5 -4 12.5t-3 14t-6 10.5t-12 3v-40h-24v103q13 2 30 3
t28 -7q15 -11 11.5 -27t-17.5 -23zM707 -116h-24q-9 18 -17 36.5t-17 35.5q2 -18 2 -36v-36h-22v104h26l32 -70q-2 17 -2 35v35h22v-104zM459 51q5 7 6.5 17.5t1 22t-1.5 22.5t-1 19v58v14.5t-5 13.5h35q-5 -5 -6.5 -14.5t-1 -20t1.5 -20.5t1 -16v-76h48q11 0 26.5 -1.5
t25.5 5.5q-2 -4 -3.5 -14t-6.5 -10h-120zM450 -116h-24l-7 24h-24l-5 -24h-25l28 104h30zM802 -112q-19 -7 -36.5 -4t-29.5 13.5t-15.5 27.5t6.5 37q6 14 19.5 20.5t28.5 6.5h5t8.5 -1t7.5 -2t3 -2l-4 -19q-12 6 -22.5 4t-17 -9t-9 -17t1.5 -22q6 -21 28 -19q5 1 4 10t-1 13
h-12v19h35v-56zM541 135q-11 20 -19 43q-4 11 -6 22t-11 18h37q-6 -13 0.5 -30.5t11.5 -28.5q6 14 11 29t0 30h37q-10 -6 -12 -18t-5 -22q-3 -9 -11 -22.5t-8 -22.5q0 -5 -0.5 -12t-0.5 -14t1 -13.5t5 -10.5h-35q8 8 6.5 24.5t-1.5 27.5zM325 178q0 7 -4.5 12.5t-10 7
t-11 -1t-6.5 -10.5q-1 -6 -0.5 -13t0.5 -13q0 -17 -1 -34.5t1 -34.5q0 -7 4.5 -12.5t9.5 -7t10 1t7 10.5q2 6 1.5 13t-0.5 13v69zM424 66q-1 29 -9 59.5t-27 53.5v-107q0 -7 5.5 -11t12 -5t12 1.5t6.5 8.5zM245 559q-13 -3 -24.5 -11t-20.5 -18q-3 -3 -7.5 -11.5t-7.5 -18
t-1.5 -16.5t10.5 -7q14 0 23 9.5t14.5 22.5t8.5 27t5 23zM549 -12h24v-104h-24v104zM242 491q7 2 14 9t11.5 16t6.5 18.5t0 16.5q-3 10 -15 10q-6 -17 -9.5 -35t-7.5 -35zM521 357q10 0 21.5 1t12.5 15q1 15 -11.5 16t-22.5 1v-33zM599 575q0 2 -1 3q0 6 -6 4
q-8 -4 -12.5 -11t-6.5 -15q-2 -5 0.5 -12.5t10.5 -1.5q6 5 10 15t5 18zM458 535q3 -9 11 -4q7 3 10.5 10.5t2.5 15.5q-1 5 -4.5 8t-10.5 -2q-9 -7 -11 -22zM328 -103q0 7 4.5 10.5t9.5 3.5t9.5 -3.5t4.5 -10.5t-4.5 -10.5t-9.5 -3.5t-9.5 3.5t-4.5 10.5zM587 -103
q0 7 4.5 10.5t9.5 3.5t9.5 -3.5t4.5 -10.5t-4.5 -10.5t-9.5 -3.5t-9.5 3.5t-4.5 10.5zM493 -58q9 0 12.5 5t3 10.5t-5.5 10t-13 3.5q-5 -1 -4 -12.5t1 -16.5h6zM417 -74q-2 11 -4.5 21.5t-5.5 21.5l-9 -43h19zM411 542q-3 -4 -7 -10.5t-3 -11.5q2 -6 8 -5t7 7q1 9 -5 20z
M300 508q5 -1 13 7t9 13q2 3 -1 5t-6 0q-5 -5 -8.5 -11.5t-6.5 -13.5zM665 627q-17 -19 -23 -40q8 9 15 18.5t9 21.5h-1zM359 562q0 3 1 6t-1 6q-2 0 -3 -3q-1 -4 2 -9h1z" />
    <glyph glyph-name="seven" unicode="7" horiz-adv-x="878" 
d="M12 427q32 17 64 31.5t67 24.5q2 0 4 9.5t4 21t3.5 22.5t3.5 15q10 15 31 24t37 16q41 17 83 29t85 23q44 11 87.5 18.5t88.5 11.5q16 2 37.5 4t44 1.5t42.5 -5.5t32 -18q2 -2 0 -13.5t-3 -15.5l-3 -45q0 -2 2 -2q37 -11 71 -27t57 -48v-1q-8 2 -17.5 -1.5t-18.5 -9.5
t-17.5 -13t-12.5 -12q14 -8 22.5 -22t12.5 -31t3.5 -34t-5.5 -31q-8 20 -23.5 31t-34 16t-39.5 6.5t-39 2.5q-20 2 -43 1t-43 6q-8 3 -11 12t-3.5 20t1 22t2.5 17q-85 -6 -168.5 -25.5t-163.5 -47.5q-3 -2 -3 -3q1 -5 3.5 -16t5 -23t3 -22.5t-3.5 -13.5q-11 -8 -27 -10
t-30 -4q-18 -2 -36.5 -5t-36.5 -6q-32 -6 -60 -18q-7 -3 -13.5 -6t-13.5 -8q-3 -3 -8 -8.5t-8 -7.5q5 16 11.5 31t12.5 30q1 3 6 12t10 19t8.5 18t2.5 10q-11 16 -27 31t-36 17zM706 484q2 26 2 52t2 52q1 14 1.5 27t2.5 26q1 6 -2.5 10t-9.5 6.5t-12.5 3.5t-11.5 2
q-56 8 -115 0t-114 -19q-60 -12 -118.5 -28t-114.5 -41q-11 -5 -22 -10.5t-20 -13.5q-10 -8 -12 -23t-4 -26q-4 -31 -4 -61.5v-61.5q9 0 24 10t24 14q17 8 35 14t35 12q71 22 146 39q36 8 72 14.5t73 10.5q34 3 72.5 4.5t70.5 -13.5zM623 543l-7.5 -7.5t-8.5 -5.5
q-7 -2 -13 5q-8 -6 -14 -7q-14 -3 -20 9v1q-4 -4 -8 -7.5t-10 -5.5q-7 -3 -12 5q-3 6 -1.5 11t4 10.5t4 10.5t0.5 10q-8 -3 -11.5 -8.5t-5 -12t-2.5 -13.5t-4 -13q-3 -8 -12 -4q-3 1 -3 5q0 2 0.5 4t0.5 4q-7 -2 -9.5 -2t-7.5 -5t-11 -9t-14 -4q-5 1 -8 4t-5 7
q-8 -8 -19 -15.5t-22 -5.5q-7 1 -12 8q-5 -5 -10.5 -10t-12.5 -7q-14 -5 -16 10q-2 12 4 20t10 18q1 2 -1 2.5t-3 -1.5q-4 -9 -9 -20.5t-11.5 -21t-16 -16t-22.5 -5.5q-14 1 -16.5 10.5t2.5 21.5t14.5 21.5t19.5 10.5q6 0 8 -5q4 -6 1 -13q-3 -11 -12.5 -19t-20.5 -10
q1 -6 5 -6.5t8 1.5t8 5t6 5q11 10 16 21.5t10 23.5q2 3 -4 12t-4 15q4 13 16 11q5 0 7 -6q2 -5 1.5 -11t-1.5 -11q10 1 14 -0.5t-2 -12.5q-4 -8 -8.5 -16t-5.5 -17q0 -4 4 -4q10 -1 16 8.5t11.5 22t10.5 24t12 15.5q3 1 7 -1q3 -3 1 -6q-2 -5 -4.5 -9.5t-0.5 -10.5t5.5 -12
t2.5 -13h1q5 6 8.5 13.5l7 15t8 14t12.5 9.5q17 7 23 -9q4 -7 2.5 -12t-0.5 -13q4 1 7 4q7 6 8 16.5t4 18.5q1 3 4.5 3.5t6.5 -0.5q4 -2 3 -6v-1q5 5 11 8q10 4 14 -6q2 -6 0.5 -11t-4 -10t-4.5 -10t-1 -11q13 10 19 25.5t20 24.5q10 6 24 0q2 4 8.5 4.5t4.5 -6.5
q-2 -9 -7 -18.5t-5 -18.5q0 -6 4 -2q9 9 14 22t9.5 26.5t11 25t19.5 19.5q7 3 11 -4q6 -11 2 -22.5t-11 -19.5q-3 -4 -9 -9t-11.5 -11t-9 -12t-1.5 -12q2 -8 10 -6q7 2 10 8.5t7 11.5q3 3 6 1q4 0 4 -4l-2 -6q-8 -18 -25 -25q-12 -6 -20 7q-2 2 -2 5zM831 511
q-23 22 -51.5 35.5t-59.5 21.5q-1 -26 -1.5 -52.5t-2.5 -52.5l-1 1v-3q-12 -1 -29.5 -2t-34.5 -4t-32 -9.5t-23 -18.5q-3 -3 2 -4q25 -10 55.5 -8t56.5 0q27 -2 54 -9q14 -4 24 -11t22 -13q0 29 -9.5 49.5t-37.5 31.5q16 14 32 27t36 21zM144 472q-28 -7 -54 -17.5
t-52 -24.5q16 -10 28 -22.5t22 -27.5q1 -2 -1.5 -8t-6.5 -13t-7.5 -13.5t-4.5 -8.5l-10 -22t-9 -22q23 12 48 18t50.5 9.5l51 7t49.5 11.5q-8 9 -21.5 12t-29 3.5t-30.5 -1l-25 -2.5v60.5t2 60.5zM362 208q0 4 -4 10h26q13 -6 24 -24t16 -31q0 12 1.5 28t-6.5 27h35
q-5 -5 -5 -11.5v-13.5v-114v-15t5 -13h-96q5 6 6 16t0.5 21t-1.5 21t-1 18v81zM313 218q18 0 26 -9.5t10.5 -23.5t1.5 -30t-1 -28v-36q0 -23 -12.5 -32t-32.5 -8q-18 0 -26.5 9.5t-11 23.5t-1.5 30t1 28q0 9 -0.5 18t0.5 18q0 23 12.5 31.5t33.5 8.5zM263 573q6 0 9 -1
q17 -2 19 -21q3 -20 -10.5 -38.5t-30.5 -29.5q-9 -6 -13.5 -15t-8.5 -18t-9.5 -17.5t-15.5 -13.5q-11 -7 -25 -4t-12 18q0 10 7 17t17 9q2 1 6.5 -0.5t2.5 -6.5q-6 -4 -11 -4q-5 -2 -7 -7.5t1 -10.5q2 -2 8 -4q9 -1 15 5.5t10.5 15.5t6.5 19t4 16q-14 -12 -28 -16
q-13 -2 -21 5q-8 5 -8 17q0 13 6 24q14 29 41 46q10 6 24 11q5 2 10 5.5t10 4.5q4 0 4 -5zM361 329q-2 7 -5 18t-4 22.5t1 21.5t10 15q5 4 15 4.5t13 -7.5t-0.5 -10.5t-8.5 -1.5t-8.5 4t0.5 7q-8 -4 -8 -13.5t3 -20.5t7.5 -21t6.5 -16q6 -17 8.5 -40.5t-9.5 -39.5
q-5 -7 -16 -9t-23.5 -2t-24.5 1.5t-19 1.5q5 7 6.5 17.5t1 22t-1.5 22.5t-1 19v58v14.5t-5 13.5h35q-6 -6 -5.5 -15.5t0.5 -17.5v-65q0 -8 -0.5 -23t4.5 -22q4 -5 9 -5.5t9.5 2t8 7t4.5 8.5q3 12 1 25t-4 25zM556 351q-2 -4 -6.5 -14t-9 -21t-6 -21t4.5 -13q-2 6 3 6.5
t10 -2t6 -6.5t-8 -8q-11 -5 -16 4t-4 17q0 7 3 15t4 14.5t-2 10.5t-14 3v-73q8 0 20 -1t20 5q-2 -6 -3.5 -12t-3.5 -12h-64q5 5 5 11.5v13.5v114v14.5t-5 13.5h59q11 -12 11.5 -28t-4.5 -31zM473 405q0 -6 3.5 -13.5t6 -14.5t2 -13.5t-7.5 -12.5q-6 -5 -15 -4.5t-10 10.5
q0 5 3 7.5t7 2.5t7 -2.5t2 -6.5q6 1 6 6t-3.5 10t-8.5 9.5t-8 5.5q-7 2 -15.5 0.5t-11.5 -8.5q-6 -12 -2 -20.5t12 -15t17.5 -12.5t14.5 -13q7 -9 10.5 -22t2 -24.5t-9 -20.5t-22.5 -10q-13 -1 -25.5 -0.5t-24.5 0.5q4 1 2.5 8t-4 16t-4 18t2.5 14q5 6 15.5 7t12.5 -10
q0 -5 -3.5 -7.5t-7 -2.5t-6.5 2t-3 7q-6 -2 -6 -6.5t3.5 -10t8.5 -9.5t8 -5q6 -2 15.5 -1.5t14.5 5.5q10 10 8 19t-9.5 17t-17 14.5t-14.5 11.5q-8 7 -13.5 19.5t-5.5 24.5t6 22t20 13q12 2 25 1.5t25 -0.5zM134 -12l-19 -104h-20q-3 17 -5.5 34.5t-4.5 34.5
q-2 -17 -5 -34.5t-6 -34.5h-20l-18 104h21q2 -19 4 -38.5t5 -38.5q2 20 5 39l6 38h18l11 -77q3 40 9 77h19zM235 -12l-19 -104h-20q-3 17 -5.5 34.5t-4.5 34.5q-2 -17 -5 -34.5t-6 -34.5h-20l-18 104h21q2 -19 4 -38.5t5 -38.5q2 20 5 39l6 38h18l11 -77q3 40 9 77h19z
M336 -12l-19 -104h-20q-3 17 -5.5 34.5t-4.5 34.5q-2 -17 -5 -34.5t-6 -34.5h-20l-18 104h21q2 -19 4 -38.5t5 -38.5q2 20 5 39l6 38h18l11 -77q3 40 9 77h19zM515 -67q7 -3 10 -9t4.5 -13t2.5 -14.5t4 -12.5h-24q-3 5 -4 12.5t-3 14t-6 10.5t-12 3v-40h-24v103q13 2 30 3
t28 -7q15 -11 11.5 -27t-17.5 -23zM707 -116h-24q-9 18 -17 36.5t-17 35.5q2 -18 2 -36v-36h-22v104h26l32 -70q-2 17 -2 35v35h22v-104zM459 51q5 7 6.5 17.5t1 22t-1.5 22.5t-1 19v58v14.5t-5 13.5h35q-5 -5 -6.5 -14.5t-1 -20t1.5 -20.5t1 -16v-76h48q11 0 26.5 -1.5
t25.5 5.5q-2 -4 -3.5 -14t-6.5 -10h-120zM450 -116h-24l-7 24h-24l-5 -24h-25l28 104h30zM802 -112q-19 -7 -36.5 -4t-29.5 13.5t-15.5 27.5t6.5 37q6 14 19.5 20.5t28.5 6.5h5t8.5 -1t7.5 -2t3 -2l-4 -19q-12 6 -22.5 4t-17 -9t-9 -17t1.5 -22q6 -21 28 -19q5 1 4 10t-1 13
h-12v19h35v-56zM541 135q-11 20 -19 43q-4 11 -6 22t-11 18h37q-6 -13 0.5 -30.5t11.5 -28.5q6 14 11 29t0 30h37q-10 -6 -12 -18t-5 -22q-3 -9 -11 -22.5t-8 -22.5q0 -5 -0.5 -12t-0.5 -14t1 -13.5t5 -10.5h-35q8 8 6.5 24.5t-1.5 27.5zM325 178q0 7 -4.5 12.5t-10 7
t-11 -1t-6.5 -10.5q-1 -6 -0.5 -13t0.5 -13q0 -17 -1 -34.5t1 -34.5q0 -7 4.5 -12.5t9.5 -7t10 1t7 10.5q2 6 1.5 13t-0.5 13v69zM424 66q-1 29 -9 59.5t-27 53.5v-107q0 -7 5.5 -11t12 -5t12 1.5t6.5 8.5zM245 559q-13 -3 -24.5 -11t-20.5 -18q-3 -3 -7.5 -11.5t-7.5 -18
t-1.5 -16.5t10.5 -7q14 0 23 9.5t14.5 22.5t8.5 27t5 23zM549 -12h24v-104h-24v104zM242 491q7 2 14 9t11.5 16t6.5 18.5t0 16.5q-3 10 -15 10q-6 -17 -9.5 -35t-7.5 -35zM521 357q10 0 21.5 1t12.5 15q1 15 -11.5 16t-22.5 1v-33zM599 575q0 2 -1 3q0 6 -6 4
q-8 -4 -12.5 -11t-6.5 -15q-2 -5 0.5 -12.5t10.5 -1.5q6 5 10 15t5 18zM458 535q3 -9 11 -4q7 3 10.5 10.5t2.5 15.5q-1 5 -4.5 8t-10.5 -2q-9 -7 -11 -22zM328 -103q0 7 4.5 10.5t9.5 3.5t9.5 -3.5t4.5 -10.5t-4.5 -10.5t-9.5 -3.5t-9.5 3.5t-4.5 10.5zM587 -103
q0 7 4.5 10.5t9.5 3.5t9.5 -3.5t4.5 -10.5t-4.5 -10.5t-9.5 -3.5t-9.5 3.5t-4.5 10.5zM493 -58q9 0 12.5 5t3 10.5t-5.5 10t-13 3.5q-5 -1 -4 -12.5t1 -16.5h6zM417 -74q-2 11 -4.5 21.5t-5.5 21.5l-9 -43h19zM411 542q-3 -4 -7 -10.5t-3 -11.5q2 -6 8 -5t7 7q1 9 -5 20z
M300 508q5 -1 13 7t9 13q2 3 -1 5t-6 0q-5 -5 -8.5 -11.5t-6.5 -13.5zM665 627q-17 -19 -23 -40q8 9 15 18.5t9 21.5h-1zM359 562q0 3 1 6t-1 6q-2 0 -3 -3q-1 -4 2 -9h1z" />
    <glyph glyph-name="eight" unicode="8" horiz-adv-x="878" 
d="M12 427q32 17 64 31.5t67 24.5q2 0 4 9.5t4 21t3.5 22.5t3.5 15q10 15 31 24t37 16q41 17 83 29t85 23q44 11 87.5 18.5t88.5 11.5q16 2 37.5 4t44 1.5t42.5 -5.5t32 -18q2 -2 0 -13.5t-3 -15.5l-3 -45q0 -2 2 -2q37 -11 71 -27t57 -48v-1q-8 2 -17.5 -1.5t-18.5 -9.5
t-17.5 -13t-12.5 -12q14 -8 22.5 -22t12.5 -31t3.5 -34t-5.5 -31q-8 20 -23.5 31t-34 16t-39.5 6.5t-39 2.5q-20 2 -43 1t-43 6q-8 3 -11 12t-3.5 20t1 22t2.5 17q-85 -6 -168.5 -25.5t-163.5 -47.5q-3 -2 -3 -3q1 -5 3.5 -16t5 -23t3 -22.5t-3.5 -13.5q-11 -8 -27 -10
t-30 -4q-18 -2 -36.5 -5t-36.5 -6q-32 -6 -60 -18q-7 -3 -13.5 -6t-13.5 -8q-3 -3 -8 -8.5t-8 -7.5q5 16 11.5 31t12.5 30q1 3 6 12t10 19t8.5 18t2.5 10q-11 16 -27 31t-36 17zM706 484q2 26 2 52t2 52q1 14 1.5 27t2.5 26q1 6 -2.5 10t-9.5 6.5t-12.5 3.5t-11.5 2
q-56 8 -115 0t-114 -19q-60 -12 -118.5 -28t-114.5 -41q-11 -5 -22 -10.5t-20 -13.5q-10 -8 -12 -23t-4 -26q-4 -31 -4 -61.5v-61.5q9 0 24 10t24 14q17 8 35 14t35 12q71 22 146 39q36 8 72 14.5t73 10.5q34 3 72.5 4.5t70.5 -13.5zM623 543l-7.5 -7.5t-8.5 -5.5
q-7 -2 -13 5q-8 -6 -14 -7q-14 -3 -20 9v1q-4 -4 -8 -7.5t-10 -5.5q-7 -3 -12 5q-3 6 -1.5 11t4 10.5t4 10.5t0.5 10q-8 -3 -11.5 -8.5t-5 -12t-2.5 -13.5t-4 -13q-3 -8 -12 -4q-3 1 -3 5q0 2 0.5 4t0.5 4q-7 -2 -9.5 -2t-7.5 -5t-11 -9t-14 -4q-5 1 -8 4t-5 7
q-8 -8 -19 -15.5t-22 -5.5q-7 1 -12 8q-5 -5 -10.5 -10t-12.5 -7q-14 -5 -16 10q-2 12 4 20t10 18q1 2 -1 2.5t-3 -1.5q-4 -9 -9 -20.5t-11.5 -21t-16 -16t-22.5 -5.5q-14 1 -16.5 10.5t2.5 21.5t14.5 21.5t19.5 10.5q6 0 8 -5q4 -6 1 -13q-3 -11 -12.5 -19t-20.5 -10
q1 -6 5 -6.5t8 1.5t8 5t6 5q11 10 16 21.5t10 23.5q2 3 -4 12t-4 15q4 13 16 11q5 0 7 -6q2 -5 1.5 -11t-1.5 -11q10 1 14 -0.5t-2 -12.5q-4 -8 -8.5 -16t-5.5 -17q0 -4 4 -4q10 -1 16 8.5t11.5 22t10.5 24t12 15.5q3 1 7 -1q3 -3 1 -6q-2 -5 -4.5 -9.5t-0.5 -10.5t5.5 -12
t2.5 -13h1q5 6 8.5 13.5l7 15t8 14t12.5 9.5q17 7 23 -9q4 -7 2.5 -12t-0.5 -13q4 1 7 4q7 6 8 16.5t4 18.5q1 3 4.5 3.5t6.5 -0.5q4 -2 3 -6v-1q5 5 11 8q10 4 14 -6q2 -6 0.5 -11t-4 -10t-4.5 -10t-1 -11q13 10 19 25.5t20 24.5q10 6 24 0q2 4 8.5 4.5t4.5 -6.5
q-2 -9 -7 -18.5t-5 -18.5q0 -6 4 -2q9 9 14 22t9.5 26.5t11 25t19.5 19.5q7 3 11 -4q6 -11 2 -22.5t-11 -19.5q-3 -4 -9 -9t-11.5 -11t-9 -12t-1.5 -12q2 -8 10 -6q7 2 10 8.5t7 11.5q3 3 6 1q4 0 4 -4l-2 -6q-8 -18 -25 -25q-12 -6 -20 7q-2 2 -2 5zM831 511
q-23 22 -51.5 35.5t-59.5 21.5q-1 -26 -1.5 -52.5t-2.5 -52.5l-1 1v-3q-12 -1 -29.5 -2t-34.5 -4t-32 -9.5t-23 -18.5q-3 -3 2 -4q25 -10 55.5 -8t56.5 0q27 -2 54 -9q14 -4 24 -11t22 -13q0 29 -9.5 49.5t-37.5 31.5q16 14 32 27t36 21zM144 472q-28 -7 -54 -17.5
t-52 -24.5q16 -10 28 -22.5t22 -27.5q1 -2 -1.5 -8t-6.5 -13t-7.5 -13.5t-4.5 -8.5l-10 -22t-9 -22q23 12 48 18t50.5 9.5l51 7t49.5 11.5q-8 9 -21.5 12t-29 3.5t-30.5 -1l-25 -2.5v60.5t2 60.5zM362 208q0 4 -4 10h26q13 -6 24 -24t16 -31q0 12 1.5 28t-6.5 27h35
q-5 -5 -5 -11.5v-13.5v-114v-15t5 -13h-96q5 6 6 16t0.5 21t-1.5 21t-1 18v81zM313 218q18 0 26 -9.5t10.5 -23.5t1.5 -30t-1 -28v-36q0 -23 -12.5 -32t-32.5 -8q-18 0 -26.5 9.5t-11 23.5t-1.5 30t1 28q0 9 -0.5 18t0.5 18q0 23 12.5 31.5t33.5 8.5zM263 573q6 0 9 -1
q17 -2 19 -21q3 -20 -10.5 -38.5t-30.5 -29.5q-9 -6 -13.5 -15t-8.5 -18t-9.5 -17.5t-15.5 -13.5q-11 -7 -25 -4t-12 18q0 10 7 17t17 9q2 1 6.5 -0.5t2.5 -6.5q-6 -4 -11 -4q-5 -2 -7 -7.5t1 -10.5q2 -2 8 -4q9 -1 15 5.5t10.5 15.5t6.5 19t4 16q-14 -12 -28 -16
q-13 -2 -21 5q-8 5 -8 17q0 13 6 24q14 29 41 46q10 6 24 11q5 2 10 5.5t10 4.5q4 0 4 -5zM361 329q-2 7 -5 18t-4 22.5t1 21.5t10 15q5 4 15 4.5t13 -7.5t-0.5 -10.5t-8.5 -1.5t-8.5 4t0.5 7q-8 -4 -8 -13.5t3 -20.5t7.5 -21t6.5 -16q6 -17 8.5 -40.5t-9.5 -39.5
q-5 -7 -16 -9t-23.5 -2t-24.5 1.5t-19 1.5q5 7 6.5 17.5t1 22t-1.5 22.5t-1 19v58v14.5t-5 13.5h35q-6 -6 -5.5 -15.5t0.5 -17.5v-65q0 -8 -0.5 -23t4.5 -22q4 -5 9 -5.5t9.5 2t8 7t4.5 8.5q3 12 1 25t-4 25zM556 351q-2 -4 -6.5 -14t-9 -21t-6 -21t4.5 -13q-2 6 3 6.5
t10 -2t6 -6.5t-8 -8q-11 -5 -16 4t-4 17q0 7 3 15t4 14.5t-2 10.5t-14 3v-73q8 0 20 -1t20 5q-2 -6 -3.5 -12t-3.5 -12h-64q5 5 5 11.5v13.5v114v14.5t-5 13.5h59q11 -12 11.5 -28t-4.5 -31zM473 405q0 -6 3.5 -13.5t6 -14.5t2 -13.5t-7.5 -12.5q-6 -5 -15 -4.5t-10 10.5
q0 5 3 7.5t7 2.5t7 -2.5t2 -6.5q6 1 6 6t-3.5 10t-8.5 9.5t-8 5.5q-7 2 -15.5 0.5t-11.5 -8.5q-6 -12 -2 -20.5t12 -15t17.5 -12.5t14.5 -13q7 -9 10.5 -22t2 -24.5t-9 -20.5t-22.5 -10q-13 -1 -25.5 -0.5t-24.5 0.5q4 1 2.5 8t-4 16t-4 18t2.5 14q5 6 15.5 7t12.5 -10
q0 -5 -3.5 -7.5t-7 -2.5t-6.5 2t-3 7q-6 -2 -6 -6.5t3.5 -10t8.5 -9.5t8 -5q6 -2 15.5 -1.5t14.5 5.5q10 10 8 19t-9.5 17t-17 14.5t-14.5 11.5q-8 7 -13.5 19.5t-5.5 24.5t6 22t20 13q12 2 25 1.5t25 -0.5zM134 -12l-19 -104h-20q-3 17 -5.5 34.5t-4.5 34.5
q-2 -17 -5 -34.5t-6 -34.5h-20l-18 104h21q2 -19 4 -38.5t5 -38.5q2 20 5 39l6 38h18l11 -77q3 40 9 77h19zM235 -12l-19 -104h-20q-3 17 -5.5 34.5t-4.5 34.5q-2 -17 -5 -34.5t-6 -34.5h-20l-18 104h21q2 -19 4 -38.5t5 -38.5q2 20 5 39l6 38h18l11 -77q3 40 9 77h19z
M336 -12l-19 -104h-20q-3 17 -5.5 34.5t-4.5 34.5q-2 -17 -5 -34.5t-6 -34.5h-20l-18 104h21q2 -19 4 -38.5t5 -38.5q2 20 5 39l6 38h18l11 -77q3 40 9 77h19zM515 -67q7 -3 10 -9t4.5 -13t2.5 -14.5t4 -12.5h-24q-3 5 -4 12.5t-3 14t-6 10.5t-12 3v-40h-24v103q13 2 30 3
t28 -7q15 -11 11.5 -27t-17.5 -23zM707 -116h-24q-9 18 -17 36.5t-17 35.5q2 -18 2 -36v-36h-22v104h26l32 -70q-2 17 -2 35v35h22v-104zM459 51q5 7 6.5 17.5t1 22t-1.5 22.5t-1 19v58v14.5t-5 13.5h35q-5 -5 -6.5 -14.5t-1 -20t1.5 -20.5t1 -16v-76h48q11 0 26.5 -1.5
t25.5 5.5q-2 -4 -3.5 -14t-6.5 -10h-120zM450 -116h-24l-7 24h-24l-5 -24h-25l28 104h30zM802 -112q-19 -7 -36.5 -4t-29.5 13.5t-15.5 27.5t6.5 37q6 14 19.5 20.5t28.5 6.5h5t8.5 -1t7.5 -2t3 -2l-4 -19q-12 6 -22.5 4t-17 -9t-9 -17t1.5 -22q6 -21 28 -19q5 1 4 10t-1 13
h-12v19h35v-56zM541 135q-11 20 -19 43q-4 11 -6 22t-11 18h37q-6 -13 0.5 -30.5t11.5 -28.5q6 14 11 29t0 30h37q-10 -6 -12 -18t-5 -22q-3 -9 -11 -22.5t-8 -22.5q0 -5 -0.5 -12t-0.5 -14t1 -13.5t5 -10.5h-35q8 8 6.5 24.5t-1.5 27.5zM325 178q0 7 -4.5 12.5t-10 7
t-11 -1t-6.5 -10.5q-1 -6 -0.5 -13t0.5 -13q0 -17 -1 -34.5t1 -34.5q0 -7 4.5 -12.5t9.5 -7t10 1t7 10.5q2 6 1.5 13t-0.5 13v69zM424 66q-1 29 -9 59.5t-27 53.5v-107q0 -7 5.5 -11t12 -5t12 1.5t6.5 8.5zM245 559q-13 -3 -24.5 -11t-20.5 -18q-3 -3 -7.5 -11.5t-7.5 -18
t-1.5 -16.5t10.5 -7q14 0 23 9.5t14.5 22.5t8.5 27t5 23zM549 -12h24v-104h-24v104zM242 491q7 2 14 9t11.5 16t6.5 18.5t0 16.5q-3 10 -15 10q-6 -17 -9.5 -35t-7.5 -35zM521 357q10 0 21.5 1t12.5 15q1 15 -11.5 16t-22.5 1v-33zM599 575q0 2 -1 3q0 6 -6 4
q-8 -4 -12.5 -11t-6.5 -15q-2 -5 0.5 -12.5t10.5 -1.5q6 5 10 15t5 18zM458 535q3 -9 11 -4q7 3 10.5 10.5t2.5 15.5q-1 5 -4.5 8t-10.5 -2q-9 -7 -11 -22zM328 -103q0 7 4.5 10.5t9.5 3.5t9.5 -3.5t4.5 -10.5t-4.5 -10.5t-9.5 -3.5t-9.5 3.5t-4.5 10.5zM587 -103
q0 7 4.5 10.5t9.5 3.5t9.5 -3.5t4.5 -10.5t-4.5 -10.5t-9.5 -3.5t-9.5 3.5t-4.5 10.5zM493 -58q9 0 12.5 5t3 10.5t-5.5 10t-13 3.5q-5 -1 -4 -12.5t1 -16.5h6zM417 -74q-2 11 -4.5 21.5t-5.5 21.5l-9 -43h19zM411 542q-3 -4 -7 -10.5t-3 -11.5q2 -6 8 -5t7 7q1 9 -5 20z
M300 508q5 -1 13 7t9 13q2 3 -1 5t-6 0q-5 -5 -8.5 -11.5t-6.5 -13.5zM665 627q-17 -19 -23 -40q8 9 15 18.5t9 21.5h-1zM359 562q0 3 1 6t-1 6q-2 0 -3 -3q-1 -4 2 -9h1z" />
    <glyph glyph-name="nine" unicode="9" horiz-adv-x="878" 
d="M12 427q32 17 64 31.5t67 24.5q2 0 4 9.5t4 21t3.5 22.5t3.5 15q10 15 31 24t37 16q41 17 83 29t85 23q44 11 87.5 18.5t88.5 11.5q16 2 37.5 4t44 1.5t42.5 -5.5t32 -18q2 -2 0 -13.5t-3 -15.5l-3 -45q0 -2 2 -2q37 -11 71 -27t57 -48v-1q-8 2 -17.5 -1.5t-18.5 -9.5
t-17.5 -13t-12.5 -12q14 -8 22.5 -22t12.5 -31t3.5 -34t-5.5 -31q-8 20 -23.5 31t-34 16t-39.5 6.5t-39 2.5q-20 2 -43 1t-43 6q-8 3 -11 12t-3.5 20t1 22t2.5 17q-85 -6 -168.5 -25.5t-163.5 -47.5q-3 -2 -3 -3q1 -5 3.5 -16t5 -23t3 -22.5t-3.5 -13.5q-11 -8 -27 -10
t-30 -4q-18 -2 -36.5 -5t-36.5 -6q-32 -6 -60 -18q-7 -3 -13.5 -6t-13.5 -8q-3 -3 -8 -8.5t-8 -7.5q5 16 11.5 31t12.5 30q1 3 6 12t10 19t8.5 18t2.5 10q-11 16 -27 31t-36 17zM706 484q2 26 2 52t2 52q1 14 1.5 27t2.5 26q1 6 -2.5 10t-9.5 6.5t-12.5 3.5t-11.5 2
q-56 8 -115 0t-114 -19q-60 -12 -118.5 -28t-114.5 -41q-11 -5 -22 -10.5t-20 -13.5q-10 -8 -12 -23t-4 -26q-4 -31 -4 -61.5v-61.5q9 0 24 10t24 14q17 8 35 14t35 12q71 22 146 39q36 8 72 14.5t73 10.5q34 3 72.5 4.5t70.5 -13.5zM623 543l-7.5 -7.5t-8.5 -5.5
q-7 -2 -13 5q-8 -6 -14 -7q-14 -3 -20 9v1q-4 -4 -8 -7.5t-10 -5.5q-7 -3 -12 5q-3 6 -1.5 11t4 10.5t4 10.5t0.5 10q-8 -3 -11.5 -8.5t-5 -12t-2.5 -13.5t-4 -13q-3 -8 -12 -4q-3 1 -3 5q0 2 0.5 4t0.5 4q-7 -2 -9.5 -2t-7.5 -5t-11 -9t-14 -4q-5 1 -8 4t-5 7
q-8 -8 -19 -15.5t-22 -5.5q-7 1 -12 8q-5 -5 -10.5 -10t-12.5 -7q-14 -5 -16 10q-2 12 4 20t10 18q1 2 -1 2.5t-3 -1.5q-4 -9 -9 -20.5t-11.5 -21t-16 -16t-22.5 -5.5q-14 1 -16.5 10.5t2.5 21.5t14.5 21.5t19.5 10.5q6 0 8 -5q4 -6 1 -13q-3 -11 -12.5 -19t-20.5 -10
q1 -6 5 -6.5t8 1.5t8 5t6 5q11 10 16 21.5t10 23.5q2 3 -4 12t-4 15q4 13 16 11q5 0 7 -6q2 -5 1.5 -11t-1.5 -11q10 1 14 -0.5t-2 -12.5q-4 -8 -8.5 -16t-5.5 -17q0 -4 4 -4q10 -1 16 8.5t11.5 22t10.5 24t12 15.5q3 1 7 -1q3 -3 1 -6q-2 -5 -4.5 -9.5t-0.5 -10.5t5.5 -12
t2.5 -13h1q5 6 8.5 13.5l7 15t8 14t12.5 9.5q17 7 23 -9q4 -7 2.5 -12t-0.5 -13q4 1 7 4q7 6 8 16.5t4 18.5q1 3 4.5 3.5t6.5 -0.5q4 -2 3 -6v-1q5 5 11 8q10 4 14 -6q2 -6 0.5 -11t-4 -10t-4.5 -10t-1 -11q13 10 19 25.5t20 24.5q10 6 24 0q2 4 8.5 4.5t4.5 -6.5
q-2 -9 -7 -18.5t-5 -18.5q0 -6 4 -2q9 9 14 22t9.5 26.5t11 25t19.5 19.5q7 3 11 -4q6 -11 2 -22.5t-11 -19.5q-3 -4 -9 -9t-11.5 -11t-9 -12t-1.5 -12q2 -8 10 -6q7 2 10 8.5t7 11.5q3 3 6 1q4 0 4 -4l-2 -6q-8 -18 -25 -25q-12 -6 -20 7q-2 2 -2 5zM831 511
q-23 22 -51.5 35.5t-59.5 21.5q-1 -26 -1.5 -52.5t-2.5 -52.5l-1 1v-3q-12 -1 -29.5 -2t-34.5 -4t-32 -9.5t-23 -18.5q-3 -3 2 -4q25 -10 55.5 -8t56.5 0q27 -2 54 -9q14 -4 24 -11t22 -13q0 29 -9.5 49.5t-37.5 31.5q16 14 32 27t36 21zM144 472q-28 -7 -54 -17.5
t-52 -24.5q16 -10 28 -22.5t22 -27.5q1 -2 -1.5 -8t-6.5 -13t-7.5 -13.5t-4.5 -8.5l-10 -22t-9 -22q23 12 48 18t50.5 9.5l51 7t49.5 11.5q-8 9 -21.5 12t-29 3.5t-30.5 -1l-25 -2.5v60.5t2 60.5zM362 208q0 4 -4 10h26q13 -6 24 -24t16 -31q0 12 1.5 28t-6.5 27h35
q-5 -5 -5 -11.5v-13.5v-114v-15t5 -13h-96q5 6 6 16t0.5 21t-1.5 21t-1 18v81zM313 218q18 0 26 -9.5t10.5 -23.5t1.5 -30t-1 -28v-36q0 -23 -12.5 -32t-32.5 -8q-18 0 -26.5 9.5t-11 23.5t-1.5 30t1 28q0 9 -0.5 18t0.5 18q0 23 12.5 31.5t33.5 8.5zM263 573q6 0 9 -1
q17 -2 19 -21q3 -20 -10.5 -38.5t-30.5 -29.5q-9 -6 -13.5 -15t-8.5 -18t-9.5 -17.5t-15.5 -13.5q-11 -7 -25 -4t-12 18q0 10 7 17t17 9q2 1 6.5 -0.5t2.5 -6.5q-6 -4 -11 -4q-5 -2 -7 -7.5t1 -10.5q2 -2 8 -4q9 -1 15 5.5t10.5 15.5t6.5 19t4 16q-14 -12 -28 -16
q-13 -2 -21 5q-8 5 -8 17q0 13 6 24q14 29 41 46q10 6 24 11q5 2 10 5.5t10 4.5q4 0 4 -5zM361 329q-2 7 -5 18t-4 22.5t1 21.5t10 15q5 4 15 4.5t13 -7.5t-0.5 -10.5t-8.5 -1.5t-8.5 4t0.5 7q-8 -4 -8 -13.5t3 -20.5t7.5 -21t6.5 -16q6 -17 8.5 -40.5t-9.5 -39.5
q-5 -7 -16 -9t-23.5 -2t-24.5 1.5t-19 1.5q5 7 6.5 17.5t1 22t-1.5 22.5t-1 19v58v14.5t-5 13.5h35q-6 -6 -5.5 -15.5t0.5 -17.5v-65q0 -8 -0.5 -23t4.5 -22q4 -5 9 -5.5t9.5 2t8 7t4.5 8.5q3 12 1 25t-4 25zM556 351q-2 -4 -6.5 -14t-9 -21t-6 -21t4.5 -13q-2 6 3 6.5
t10 -2t6 -6.5t-8 -8q-11 -5 -16 4t-4 17q0 7 3 15t4 14.5t-2 10.5t-14 3v-73q8 0 20 -1t20 5q-2 -6 -3.5 -12t-3.5 -12h-64q5 5 5 11.5v13.5v114v14.5t-5 13.5h59q11 -12 11.5 -28t-4.5 -31zM473 405q0 -6 3.5 -13.5t6 -14.5t2 -13.5t-7.5 -12.5q-6 -5 -15 -4.5t-10 10.5
q0 5 3 7.5t7 2.5t7 -2.5t2 -6.5q6 1 6 6t-3.5 10t-8.5 9.5t-8 5.5q-7 2 -15.5 0.5t-11.5 -8.5q-6 -12 -2 -20.5t12 -15t17.5 -12.5t14.5 -13q7 -9 10.5 -22t2 -24.5t-9 -20.5t-22.5 -10q-13 -1 -25.5 -0.5t-24.5 0.5q4 1 2.5 8t-4 16t-4 18t2.5 14q5 6 15.5 7t12.5 -10
q0 -5 -3.5 -7.5t-7 -2.5t-6.5 2t-3 7q-6 -2 -6 -6.5t3.5 -10t8.5 -9.5t8 -5q6 -2 15.5 -1.5t14.5 5.5q10 10 8 19t-9.5 17t-17 14.5t-14.5 11.5q-8 7 -13.5 19.5t-5.5 24.5t6 22t20 13q12 2 25 1.5t25 -0.5zM134 -12l-19 -104h-20q-3 17 -5.5 34.5t-4.5 34.5
q-2 -17 -5 -34.5t-6 -34.5h-20l-18 104h21q2 -19 4 -38.5t5 -38.5q2 20 5 39l6 38h18l11 -77q3 40 9 77h19zM235 -12l-19 -104h-20q-3 17 -5.5 34.5t-4.5 34.5q-2 -17 -5 -34.5t-6 -34.5h-20l-18 104h21q2 -19 4 -38.5t5 -38.5q2 20 5 39l6 38h18l11 -77q3 40 9 77h19z
M336 -12l-19 -104h-20q-3 17 -5.5 34.5t-4.5 34.5q-2 -17 -5 -34.5t-6 -34.5h-20l-18 104h21q2 -19 4 -38.5t5 -38.5q2 20 5 39l6 38h18l11 -77q3 40 9 77h19zM515 -67q7 -3 10 -9t4.5 -13t2.5 -14.5t4 -12.5h-24q-3 5 -4 12.5t-3 14t-6 10.5t-12 3v-40h-24v103q13 2 30 3
t28 -7q15 -11 11.5 -27t-17.5 -23zM707 -116h-24q-9 18 -17 36.5t-17 35.5q2 -18 2 -36v-36h-22v104h26l32 -70q-2 17 -2 35v35h22v-104zM459 51q5 7 6.5 17.5t1 22t-1.5 22.5t-1 19v58v14.5t-5 13.5h35q-5 -5 -6.5 -14.5t-1 -20t1.5 -20.5t1 -16v-76h48q11 0 26.5 -1.5
t25.5 5.5q-2 -4 -3.5 -14t-6.5 -10h-120zM450 -116h-24l-7 24h-24l-5 -24h-25l28 104h30zM802 -112q-19 -7 -36.5 -4t-29.5 13.5t-15.5 27.5t6.5 37q6 14 19.5 20.5t28.5 6.5h5t8.5 -1t7.5 -2t3 -2l-4 -19q-12 6 -22.5 4t-17 -9t-9 -17t1.5 -22q6 -21 28 -19q5 1 4 10t-1 13
h-12v19h35v-56zM541 135q-11 20 -19 43q-4 11 -6 22t-11 18h37q-6 -13 0.5 -30.5t11.5 -28.5q6 14 11 29t0 30h37q-10 -6 -12 -18t-5 -22q-3 -9 -11 -22.5t-8 -22.5q0 -5 -0.5 -12t-0.5 -14t1 -13.5t5 -10.5h-35q8 8 6.5 24.5t-1.5 27.5zM325 178q0 7 -4.5 12.5t-10 7
t-11 -1t-6.5 -10.5q-1 -6 -0.5 -13t0.5 -13q0 -17 -1 -34.5t1 -34.5q0 -7 4.5 -12.5t9.5 -7t10 1t7 10.5q2 6 1.5 13t-0.5 13v69zM424 66q-1 29 -9 59.5t-27 53.5v-107q0 -7 5.5 -11t12 -5t12 1.5t6.5 8.5zM245 559q-13 -3 -24.5 -11t-20.5 -18q-3 -3 -7.5 -11.5t-7.5 -18
t-1.5 -16.5t10.5 -7q14 0 23 9.5t14.5 22.5t8.5 27t5 23zM549 -12h24v-104h-24v104zM242 491q7 2 14 9t11.5 16t6.5 18.5t0 16.5q-3 10 -15 10q-6 -17 -9.5 -35t-7.5 -35zM521 357q10 0 21.5 1t12.5 15q1 15 -11.5 16t-22.5 1v-33zM599 575q0 2 -1 3q0 6 -6 4
q-8 -4 -12.5 -11t-6.5 -15q-2 -5 0.5 -12.5t10.5 -1.5q6 5 10 15t5 18zM458 535q3 -9 11 -4q7 3 10.5 10.5t2.5 15.5q-1 5 -4.5 8t-10.5 -2q-9 -7 -11 -22zM328 -103q0 7 4.5 10.5t9.5 3.5t9.5 -3.5t4.5 -10.5t-4.5 -10.5t-9.5 -3.5t-9.5 3.5t-4.5 10.5zM587 -103
q0 7 4.5 10.5t9.5 3.5t9.5 -3.5t4.5 -10.5t-4.5 -10.5t-9.5 -3.5t-9.5 3.5t-4.5 10.5zM493 -58q9 0 12.5 5t3 10.5t-5.5 10t-13 3.5q-5 -1 -4 -12.5t1 -16.5h6zM417 -74q-2 11 -4.5 21.5t-5.5 21.5l-9 -43h19zM411 542q-3 -4 -7 -10.5t-3 -11.5q2 -6 8 -5t7 7q1 9 -5 20z
M300 508q5 -1 13 7t9 13q2 3 -1 5t-6 0q-5 -5 -8.5 -11.5t-6.5 -13.5zM665 627q-17 -19 -23 -40q8 9 15 18.5t9 21.5h-1zM359 562q0 3 1 6t-1 6q-2 0 -3 -3q-1 -4 2 -9h1z" />
    <glyph glyph-name="colon" unicode=":" horiz-adv-x="313" 
d="M214 559q9 24 3 36t-8 14l183 -98l-215 -257q-1 1 -6 7t-12.5 11.5t-17.5 8t-20 -4.5q4 25 10.5 52.5t8 46t-4.5 22.5t-26 -16q24 34 37.5 52l21 28t10.5 15.5t6.5 14t9.5 24t20 44.5zM60 170q6 17 2.5 25t-5.5 10l130 -70l-153 -183q-7 8 -13 13t-12.5 6.5t-14.5 -3.5
q3 18 7.5 37.5t6 32.5t-3 16t-19.5 -11q17 24 27 37t15 20t7 11t4.5 10t7 17t14.5 32zM209 609l-1 1z" />
    <glyph glyph-name="semicolon" unicode=";" horiz-adv-x="313" 
d="M234 559q9 24 3 36t-8 14l183 -98l-215 -257q-9 11 -18 18q-8 6 -17.5 8.5t-20.5 -4.5q4 25 10.5 52.5t8 46t-4.5 22.5t-26 -16q24 34 37.5 52l21 28t10.5 15.5t6.5 14t9.5 24t20 44.5zM7 114q36 11 69 22q28 9 56.5 19.5t45.5 20.5q2 -13 9.5 -19.5t17.5 -8.5
q-10 -5 -28 -21.5t-37.5 -37.5t-36.5 -43t-26 -38.5t-7 -24t22 0.5q-27 -39 -51.5 -75t-43.5 -65q-22 -33 -41 -63q8 17 17.5 37.5t17.5 39.5t13.5 34.5t5.5 22.5t-6.5 2.5t-22.5 -24.5q5 20 3.5 27.5t-5.5 9.5t-11 -2q0 11 8.5 24.5t15.5 24.5t7.5 18t-15.5 5
q13 24 27 43.5t21 34t2.5 24t-27.5 12.5zM229 609l-1 1z" />
    <glyph glyph-name="less" unicode="&#x3c;" horiz-adv-x="603" 
d="M60 264q41 3 84 20.5t84 43.5t80 58t73 63t61 58.5t45 45.5q14 20 12.5 32t-3.5 16l150 -143l-313 -212q33 -16 69.5 -33.5t81.5 -40.5q-23 9 -27.5 5.5t1.5 -14t18.5 -25.5t23.5 -29q-11 2 -19.5 -0.5t-13.5 -7.5q-6 -5 -11 -14l-216 96l9 40q-14 -2 -28 -5
q-12 -2 -25.5 -6t-25.5 -8q2 3 4 9l-114 51v0z" />
    <glyph glyph-name="equal" unicode="=" horiz-adv-x="404" 
d="M457 298q-7 2 -36 1.5t-70 -3.5t-89 -8.5t-94.5 -12.5t-86.5 -16t-64 -19q38 20 48.5 33.5t7.5 21.5q-4 10 -20 15l65 104q48 -8 87.5 -18.5t67.5 -17t43.5 -7t16.5 12.5l145 -11q7 -5 15 -9q7 -4 16.5 -8.5t21.5 -7.5q-18 -5 -31.5 -13.5t-23.5 -16.5q-11 -10 -19 -20z
M364 157q-8 0 -35.5 -7t-66.5 -20t-85 -29.5t-89.5 -34.5t-80 -36t-57.5 -33q-1 47 11 79t26 52q17 24 39 38l-19 24q49 4 92 3.5t85 1.5t86.5 10.5t95.5 29.5q8 -11 18 -20q8 -8 19.5 -14.5t23.5 -7.5q-33 -18 -48 -27z" />
    <glyph glyph-name="greater" unicode="&#x3e;" horiz-adv-x="615" 
d="M452 213q-3 -5 -3 -9q-9 4 -20.5 8t-21.5 6q-11 3 -23 5l-21 -40l-288 -96q1 9 -1 14t-7.5 7.5t-19.5 0.5q21 14 40 29t29.5 28.5t8.5 25t-21 17.5q31 12 63 19t63 11t59 5.5t51 2.5l-101 241l188 114q2 1 -2 -8t-9 -22t-10 -28t-5 -25q7 -27 17.5 -68.5t32.5 -81.5
t58.5 -70.5t95.5 -34.5z" />
    <glyph glyph-name="question" unicode="?" horiz-adv-x="533" 
d="M161 155q10 8 21 32t22 58l10 94q32 -8 78 -5.5t91 14.5q-7 -7 -0.5 -7t19.5 4.5t29.5 12t30.5 15.5t23 14.5t6 10.5q36 27 49 58t5 56.5t-35.5 41.5t-73.5 13q-16 0 -37 -8q0 9 -12.5 10.5t-24.5 -2.5t-18 -12t7 -19q-20 -13 -32 -24t-13 -12q0 1 3 6t5 9.5t1.5 6.5
t-7.5 -2q-8 -5 -18 -19t-21 -29q-12 -18 -25 -38l101 357l-8 -56q-3 -21 -4.5 -38t0.5 -15q4 2 12.5 27t17.5 55q11 35 22 79q24 1 41.5 0.5t32.5 -2t29.5 -3.5t31.5 -4q-11 -8 1.5 -15.5t31.5 -11t37 -2t20 10.5q57 -16 86.5 -38t32.5 -42q9 -40 15.5 -58t11 -20t7 8
t3.5 27q3 -7 6.5 -25.5t2.5 -46t-9 -61.5t-26.5 -70.5t-51 -75t-82.5 -74.5q-8 3 -25 -0.5t-38.5 -11t-43 -18.5t-37 -21.5t-21.5 -20t3 -14.5q-29 1 -68 7t-77 7q-14 -23 -25.5 -43t-19.5 -35q-10 -18 -17 -32q-2 4 -6 2q-3 -2 -8 -8.5t-12 -23.5q-4 4 -9 0.5t-10.5 -10
t-12 -16t-13.5 -17.5q3 9 5.5 20.5t2.5 22t-3 18t-10 9.5zM1 173q19 -9 31 -12.5t18.5 -3.5t9.5 2l3 2l80 -120q43 14 86 31t70 34q-8 -9 -5.5 -13.5t10.5 -4.5t17.5 3t14.5 9q-1 -10 6 -14t20 -3t30.5 5t36.5 10q-8 -5 -22.5 -16t-31.5 -24.5t-33 -28t-25 -26.5t-9 -20.5
t15 -10.5q-27 -5 -60.5 -11t-67.5 -12q8 -15 18 -33.5t21.5 -37.5t22.5 -37.5t20 -33.5q-26 32 -44 55.5t-30.5 40t-21 26t-15.5 14.5q-35 -7 -63.5 -13t-42.5 -11q-1 10 -10.5 17.5t-21 11.5t-21 6t-10.5 2l5 2t11 6t11 9t5 12q-1 12 -8 14.5t-9 2.5q4 1 30.5 8.5
t64.5 19.5q-8 6 -18 12t-16 15q0 7 -1.5 17.5t-8.5 25t-21.5 32.5t-40.5 41z" />
    <glyph glyph-name="at" unicode="@" horiz-adv-x="812" 
d="M213 -143q-37 11 -63 28.5t-45 39.5q7 12 5 27t-20 17v4q-18 -22 -39 -47t-40 -48l-44 -52q-2 11 -14 6q-5 -2 -13 -8t-19.5 -18t-27 -30t-36.5 -45q2 9 19 34.5t45 64t65 86t78 99.5q-5 26 -4.5 52.5t4.5 54.5l-16 -7l17 10q5 32 14.5 65t22 64.5t26 60.5t27.5 55
q32 60 69 115q7 -1 12 0t9 3t4 7q10 -1 16 3t9 10.5t2 14.5t-5 16q64 66 139 103.5t145.5 46.5t128.5 -12.5t88 -74.5q28 -50 32 -112t-11 -128t-44.5 -131t-68 -122t-82.5 -101t-87 -67q2 2 13.5 12.5t27 25t32 31t29.5 31.5t19.5 26t1.5 14t-24.5 -17t-50 -50t-70 -64.5
t-84.5 -60t-94 -37t-98 4.5zM657 348q8 3 12.5 26.5t-1 53.5t-23.5 59.5t-53 44.5t-89.5 8.5t-134.5 -48.5q-43 -23 -76.5 -57t-59 -74t-43.5 -81.5t-29 -78.5l61 10q47 57 89 109t74 91q38 46 70 85q9 -8 20 -12q9 -4 21.5 -6.5t28.5 0.5q-20 -14 -39 -33q19 3 40 7t32 6
q-5 -16 -2.5 -25t10 -10.5t18.5 4t23 18.5q-10 30 -23.5 50t-30.5 27q28 -5 45.5 -20t28.5 -34.5t16 -41t7.5 -39t3.5 -29t4 -10.5zM399 197q-15 7 -37.5 6.5t-42.5 -11.5q-21 -23 -44 -49t-44.5 -51.5t-41 -48l-32.5 -37.5q12 -22 33 -40t51.5 -24.5t72.5 2.5t96 41
q3 49 -7 62t-28 -13q-8 8 -24 9t-32 -2q-18 -4 -40 -11q48 35 75 75t45 92zM607 442q-7 -22 -17 -55.5t-21 -71t-21 -77t-18 -74.5t-12.5 -62t-3.5 -41q29 29 49 60.5t33 71.5q10 6 20 16.5t14.5 23t2.5 24t-15 19.5q6 48 2.5 90.5t-13.5 75.5zM335 230q26 5 47 8.5t31 5.5
q9 34 17 73t18 86q-19 -23 -37 -47.5t-33 -47.5t-26 -43.5t-17 -34.5zM511 58q-13 9 -29 -6.5t-32 -41.5q17 12 32 23.5t29 24.5zM177 157q-8 -2 -15.5 -3.5t-15.5 -3.5q-6 -27 -9 -43zM510 -60q0 1 1 1z" />
    <glyph glyph-name="A" unicode="A" horiz-adv-x="783" 
d="M185 183l361 435q6 -2 13 0q6 2 14.5 7.5t18.5 19.5q-1 -17 5.5 -19.5t17 3t22 15.5t19.5 18q26 -7 47 -12.5t47 -16.5l-0.5 -4.5t-0.5 -9t2.5 -8t8.5 -1.5q8 2 17 16.5t16.5 31t13 30t6.5 12.5q0 -4 -3 -18.5t-6 -31.5t-4 -32t3 -20q5 -7 10.5 -8.5t10.5 -0.5t11 4
q-39 -190 -71 -342q-14 -65 -27 -128t-23.5 -114l-17.5 -85t-8 -41q-10 7 -25.5 6.5t-31 -8t-29 -21.5t-20.5 -34q1 6 1 19t-4 26.5t-11 23.5t-19 8q-13 -2 -22 -13t-15 -24q-7 -15 -13 -34q-22 -8 -42 -14q-17 -6 -36.5 -11.5t-33.5 -9.5q0 10 -11 13t-28 0.5t-37 -8
t-39 -11.5t-33.5 -12t-19.5 -8q7 3 35 20t61.5 51t64.5 86.5t44 127.5q9 -6 22.5 17t29.5 64l-186 -42q-35 -49 -66 -92.5t-53.5 -76.5t-34.5 -53t-10 -20q3 0 12 8.5t22 22.5t28.5 32.5t31.5 38.5q37 45 83 103q-63 -94 -118 -176q-24 -35 -48 -71t-46 -68.5t-40 -59.5
t-30 -44q-15 1 -36.5 -10t-44.5 -28.5t-46 -39.5t-43 -42t-34 -35.5t-19 -21.5q6 8 23.5 33t34.5 52.5t28.5 50.5t5.5 26q-6 4 -18.5 -6.5t-28 -27t-31 -36t-27.5 -32.5q-14 11 -41.5 7.5t-54.5 -11.5q-32 -11 -68 -27l306 357q8 -2 17.5 3t16.5 13t10.5 17t-0.5 17
q11 6 15 13.5t4 15.5t-3 17l82 99q-36 -9 -58 -16t-24 -9q-2 -3 2.5 -4.5t10.5 -1.5t13 1t10 1l-183 -43q32 31 60 60q24 24 48.5 49.5t37.5 39.5q24 1 41.5 9t28.5 18q13 11 22 25zM591 514q-33 -46 -70 -97q-32 -44 -72.5 -100t-83.5 -116l139 14q17 50 32.5 102.5
t27.5 96.5q14 51 27 100zM-204 -541q1 1 1 1.5t1 1.5q-1 -1 -1 -1.5t-1 -1.5l-1 -1zM216 -231q0 1 1 1t2 1q-1 -1 -2 -1t-1 -1zM26 15l-1 -1h-2zM582 -174v-2v2z" />
    <glyph glyph-name="B" unicode="B" horiz-adv-x="677" 
d="M77 526q24 11 65 25.5t91 30t105 30t107.5 27t98.5 20t78 9.5q4 -9 11.5 -10t16 1.5t15.5 8t10 10.5q19 3 44 4t50.5 -0.5t48.5 -5t39 -8.5q4 -11 7.5 -31.5t2.5 -49t-8 -63.5t-23 -73q-15 -34 -43 -65.5t-57 -56.5q-33 -29 -71 -55q44 42 77 77q14 15 26.5 29.5t21 27
t12 21.5t-1.5 12q-5 4 -17 -15.5t-40 -50.5t-76.5 -67t-126.5 -66l-46 -18q25 -4 48.5 -17.5t45.5 -42.5q-4 -5 -3.5 -12t4.5 -13t10 -9.5t14 -2.5q7 -17 8 -38t-9 -44q-15 -36 -61 -69t-110.5 -61t-142.5 -49.5t-158 -34.5q3 10 -25.5 7t-74.5 -10.5t-103.5 -14.5
t-112.5 -4q3 1 25 5t56.5 11t78.5 17t92.5 21.5t97.5 24.5t93 28q10 -3 30.5 1.5t40 12t30.5 16t1 12.5q23 14 34.5 26.5t14.5 28.5q6 29 -12 51.5t-45.5 39t-57 27t-46.5 15.5q-2 0 -6 -2l-178 -265q-14 20 -29 32q-14 11 -30.5 16t-35.5 -6q-11 -7 -22 -17t-20 -20
t-15.5 -18t-8.5 -11q2 4 14 25t30.5 54t41 73.5t45.5 83t44 83t37 73t24.5 53.5t5.5 24q-5 5 -17.5 -10.5t-27.5 -39.5t-30.5 -52t-25.5 -47l181 359q-29 5 -67 4t-90 -12zM303 222q28 8 65.5 19t77 26t77.5 32.5t66.5 37.5t44 41.5t9.5 44.5q12 10 14.5 20.5t-0.5 17.5
t-10 9.5t-14 -4.5q-29 -2 -55 -5t-52.5 -10t-56 -20t-66.5 -35q-19 -24 -38.5 -49.5t-35.5 -46.5t-25 -35.5t-7 -15.5q3 -4 14.5 6t23.5 24q14 16 31 37zM50 170l-10 -20zM-88 -145q0 -1 -1 -2z" />
    <glyph glyph-name="C" unicode="C" horiz-adv-x="786" 
d="M987 657q-40 -66 -71 -120q-13 -23 -25.5 -45t-21.5 -39.5t-13.5 -29t-2.5 -12.5q1 -1 10 10t22.5 28t28.5 37.5t28.5 39t23.5 32.5t13 18l-316 -541q8 31 12 57q4 23 6 44t-3 29q-4 7 -8 4t-7 -9.5t-5 -14t-2 -9.5q-1 2 -4.5 18t-17.5 35q34 17 36 29.5t-11.5 18.5
t-34 3.5t-31.5 -15.5q-11 5 -22 8.5t-25 3.5q-44 3 -87 -7.5t-81.5 -30t-69.5 -46t-50 -56t-25 -60t7 -57.5q-9 -6 -5 -16.5t15 -22t26.5 -23t30 -18t24 -6.5t8.5 10q41 -14 91 -19.5t99.5 -2t94 17.5t74.5 39q-35 -42 -83.5 -72t-103.5 -48q-42 -14 -90.5 -17.5t-97.5 -2
t-95 4.5t-82 2q-8 18 -21 41t-28 44t-30.5 36.5t-27.5 18.5q-29 55 -31.5 109t12 104t40.5 94.5t54.5 80t55 60t40.5 34.5q-20 -25 -29.5 -41t0 -12.5t43 30.5t98.5 88q32 32 105.5 65t181.5 57q-7 -9 3.5 -13t30 -3.5t43 4.5t43.5 10t32.5 14t8.5 16q29 3 53.5 6t49.5 5.5
t52 3t62 -0.5zM979 576q0 1 1 2z" />
    <glyph glyph-name="D" unicode="D" horiz-adv-x="728" 
d="M202 347q-4 6 -14 -1t-23.5 -21t-28.5 -33t-28 -37t-23 -32t-13 -18l215 368l50 -48l29 116q50 -17 100 -43q43 -23 91 -57t88 -83q-7 -5 -6.5 -21t5.5 -37t14 -43.5t18.5 -40t18.5 -27.5t15 -5q8 -30 9 -66t-10 -78q-18 -63 -70 -120.5t-126 -106t-163.5 -86
t-180.5 -60.5q2 12 -12.5 12.5t-40.5 -5t-61.5 -14.5t-76.5 -17.5t-85 -14t-86 -2.5q4 1 33.5 7.5t76 18t105 28.5t119.5 38l-79 8l28 67l-57 -35l-255 71q27 -7 58 -2t66 27t75 62.5t85 105.5q77 111 112 162t28 63zM217 31q3 -3 11 5t19.5 22t23.5 30.5t22.5 32t18 26.5
t9.5 14l-131 -325q34 13 66.5 26.5t62.5 28.5q11 -6 35 2.5t46 22t34.5 28t1.5 22.5q26 24 43.5 49t21.5 51q6 40 -7.5 75t-37.5 63.5t-53.5 51t-55.5 37.5q-23 -43 -47.5 -88t-43.5 -83t-30.5 -63t-8.5 -28zM72 205q-1 -1 -1 -2t-1 -1zM321 161l1 1z" />
    <glyph glyph-name="E" unicode="E" horiz-adv-x="768" 
d="M81 171q8 1 18 1h19.5t25.5 1q8 7 20.5 26t36.5 64q25 49 48 90q-32 -8 -57.5 -13t-40.5 -7q9 11 7 20.5t-10.5 15.5t-23 9t-31.5 0q29 15 52 29t37 27t17 23t-9 16q13 7 -2 14t-42 12t-58 7t-51 -1q43 11 65 21.5t31 18.5q11 10 10 19q42 2 72 7q13 2 24 5.5t18.5 8.5
t9 11t-4.5 14q41 7 91.5 15t106 16.5t113.5 17t112 16.5q-3 -13 12 -17.5t28 6.5q6 -2 16 -1t19.5 4.5t17 9.5t10.5 13q40 5 73 9.5t58 7.5q28 4 52 7l-188 -425l4 16t4.5 27.5t-0.5 33t-10 31.5t-24 22.5t-43 7.5q-44 -2 -88.5 -9t-84.5 -15.5t-73 -15.5t-54 -10
q22 8 58.5 17.5t70.5 18t58 16t21 10.5q-2 2 -23.5 -2.5t-56 -12.5t-78 -19t-88.5 -22q1 -11 5 -28t15 -30.5t30 -20.5t50 2q-20 -22 -44 -52.5t-50 -66.5l26 3q24 3 32 7.5t8 9.5t-8 11l184 37l-3.5 -2.5t-6.5 -6.5t-4 -9.5t3 -11.5t13 -8.5t21.5 -3t29.5 -1t38 -2.5
q-17 -4 -29 -11.5t-21 -18t-17 -24t-18 -28.5q-31 1 -68.5 -0.5t-78 -5.5t-82 -9.5t-80.5 -11.5q-29 -42 -57 -82.5t-52 -76.5q61 17 90.5 27t40 15t8.5 6.5t-3 1.5q3 1 29 7t65.5 16.5t87 24t94.5 28.5q0 -12 15 -15t33 -1q21 2 48 8l8 -10q3 -5 7 -9.5t7 -8.5
q-29 -5 -52.5 -21t-37.5 -35.5t-17.5 -38.5t8.5 -28q-20 -2 -31 -8t-16 -14q-6 -9 -8 -19q-12 -4 -31 -8q-33 -7 -107 -22q8 7 11 12t-3 7t-23 0.5t-50 -7.5q-13 -2 -38 -7t-54.5 -10.5t-60.5 -12t-56.5 -12.5t-41.5 -10t-16 -6t21 1t53.5 8.5t70.5 11t71 9.5
q-60 -13 -123.5 -28t-117.5 -29q-62 -16 -123 -32q5 19 3.5 37t-5.5 33q-4 17 -12 33l139 245q-23 5 -53.5 9.5t-62.5 2.5q19 7 31.5 12.5t22.5 14t20.5 20.5t27.5 31zM783 289v-1v1z" />
    <glyph glyph-name="F" unicode="F" horiz-adv-x="715" 
d="M6 102q9 1 20 4q10 2 23 5t30 7q39 89 59 143t18.5 79t-23.5 25t-67 -19q14 26 20 49q5 20 3 39t-19 29q13 4 37 14.5t47.5 22.5t39.5 22t13 14q-3 3 -15.5 1.5t-28 -5t-30.5 -8t-22 -6.5q6 2 16 7t19 11.5t13.5 14.5t0.5 17q74 16 108.5 27t45.5 18t7 10.5t-6 4.5
l223 60q-7 -10 -10 -18q-2 -7 -1.5 -12.5t9.5 -5.5q8 -1 17.5 4t17.5 11q9 7 17 16l334 84l-184 -505q15 67 7 102.5t-23 46.5q12 18 8 30t-16.5 16.5t-28.5 0t-27 -19.5q-10 2 -29 1.5t-43 -3t-51.5 -6.5t-54.5 -8q-63 -11 -138 -25l84 -45q-26 -44 -45 -79
q-8 -15 -16 -29.5t-14 -26.5t-9.5 -19.5t-2.5 -8.5q1 -3 13.5 13t27.5 37t29 41t18 26l-79 -130q42 10 76 17t52 12q19 -12 42.5 -10t64.5 7q-2 -11 1.5 -26.5t8.5 -29.5q5 -17 13 -34l-42 -8q-18 -4 -38.5 -9t-37.5 -10q-7 10 -18.5 13.5t-23.5 1t-21.5 -10t-13.5 -17.5
q-15 2 -51 -3t-85 -14l-148 -241q-13 -2 -25 -15.5t-21 -29.5q-11 -18 -21 -42l-30 -8q4 11 6 22q2 9 1 17t-6 11q-6 2 -13.5 -2t-15.5 -11q-9 -8 -18 -19h-12q-13 0 -41 -3q7 12 19.5 35.5t26 52.5t27 59.5t24.5 56.5t17.5 44.5t5.5 22.5q0 2 -5.5 -7t-14.5 -24t-19.5 -34
t-21 -37.5t-20 -34.5t-14.5 -25q21 47 39.5 88t35.5 78l-72 -13q23 17 33 35.5t13 34.5q4 18 1 36zM106 516q0 1 1 1q2 0 4 1q-1 -1 -3 -1q-1 0 -2 -1zM428 308q0 -1 -0.5 -1t-0.5 -1q0 1 0.5 1t0.5 1l1 1z" />
    <glyph glyph-name="G" unicode="G" horiz-adv-x="762" 
d="M693 249q5 -8 9 -15q4 -6 8 -12.5t8 -11.5q-11 -5 -29 -24t-38 -44t-38 -52.5t-29 -49.5t-13 -35.5t12 -9.5q-38 -58 -77.5 -118t-72.5 -109q-39 -57 -76 -111q-15 -8 -33 -23q-16 -13 -37.5 -33.5t-46.5 -52.5q20 40 25.5 59.5t1.5 25t-15.5 0t-25.5 -16t-27.5 -22.5
t-22.5 -19q51 88 98.5 164t82.5 137q-21 -1 -51.5 -1t-65.5 4.5t-71.5 14.5t-67.5 29q4 12 -3 24.5t-19 21.5t-24.5 13.5t-18.5 2.5q-15 16 -24.5 54t-7.5 81q4 85 40 157.5t93 132.5t130.5 107t152.5 81q2 1 -6 -4.5t-21.5 -15t-29 -21t-27.5 -22t-17.5 -18.5t1.5 -9
q9 -2 24.5 9.5t45.5 32t78 46t121.5 50t176 46t241.5 33.5l-231 -404l-43 -17q16 33 16 57t-11 34t-31.5 3t-45.5 -36q-10 6 -31 9t-48 1.5t-57.5 -6.5t-60.5 -14q-36 -10 -63 -22.5t-43 -25t-20 -22.5t7 -15q-31 -17 -62 -42t-54.5 -53.5t-36 -57.5t-7.5 -54
q5 -29 21 -47.5t39 -29.5q-10 -6 0.5 -13.5t34 -11.5t57 -3t69.5 12q16 33 19.5 53.5t-10.5 25.5q9 16 13 31.5t0.5 28.5t-16.5 21t-37 8z" />
    <glyph glyph-name="H" unicode="H" horiz-adv-x="786" 
d="M497 658q-5 -36 11 -50q6 -6 17.5 -8t30 4t44.5 21t62 42q-29 -37 -74.5 -101.5t-99.5 -142.5q9 20 15.5 38.5t3 20t-21.5 -22t-58 -87.5l-73 -115q39 1 71 3t50 7q18 -13 40.5 -11t61.5 7q24 46 45.5 86.5t36.5 71.5t22.5 49.5t5.5 20.5q-3 2 -13 -10t-24 -31.5
t-30 -43.5t-30 -45.5t-24 -37.5t-13 -20l206 399l166 -52q-4 -20 -2 -36q2 -14 10 -24.5t28 -9.5q-15 -22 -33.5 -49.5t-37.5 -56.5t-37 -57.5t-32 -51.5t-21.5 -37.5t-5.5 -16.5q4 -4 16 4.5t26 19.5q16 13 34 32l-413 -541q1 24 -3 40q-5 14 -16 20t-35 -8q-14 -9 -28 -22
t-25.5 -25.5t-19.5 -23t-11 -13.5q2 4 20.5 36.5t46.5 83t63 114t70 128.5l-32 -9q-7 10 -18.5 13.5t-23.5 1t-21.5 -10t-13.5 -18.5q-16 2 -53.5 -3t-90.5 -14q-34 -54 -63 -101t-51 -82q-26 -41 -46 -75q-12 1 -29 -5q-14 -5 -34 -18.5t-44 -42.5q5 25 5.5 47t-0.5 38
q-1 18 -4 34l62 167l-30 -5q4 44 -35 39q11 23 17.5 49t10.5 48q4 26 7 50q13 0 29 -1q14 -1 32 -1.5t41 -0.5l59 126q-14 -54 -19 -80q-2 -11 -2.5 -18t2 -4.5t9 15.5t18.5 42q8 21 17 49t18 58t16.5 58t13.5 49q15 -8 28.5 0.5t24.5 22.5q12 16 24 39zM553 303q0 -1 -1 -2
zM319 -206q-1 -1 -1 -2z" />
    <glyph glyph-name="I" unicode="I" horiz-adv-x="407" 
d="M552 561q-35 -26 -61 -48q-11 -9 -21.5 -19t-18 -18t-11.5 -14t-2 -9q3 -6 15 -4t25 6.5t24.5 10t13.5 6.5l-372 -551q-5 8 -12 7q-6 -1 -16 -9.5t-25 -34.5q8 45 -5.5 35t-59.5 -76q-12 -2 -25.5 -6t-24.5 -8q-13 -4 -27 -10q37 58 63 105q11 20 21 39t16.5 34.5
t8.5 25.5t-2 12q-7 1 -15.5 -5.5t-16.5 -18t-16 -24.5t-13 -23q10 20 29 59t42.5 87t49 100.5t47.5 98.5t38 81.5t22 50.5q-8 -39 -6.5 -46.5t8.5 3.5t17 34t19 46q9 22 16.5 52.5t7 59.5t-12 52t-39.5 30l25 20zM-12 -50l7 14l-7 -14l-3 -6z" />
    <glyph glyph-name="J" unicode="J" horiz-adv-x="709" 
d="M258 618q71 4 141 11q60 6 125 15.5t116 23.5t64.5 22.5t9.5 13.5t-27 6l227 90q-8 -8 -13 -19q-5 -9 -7 -21.5t2 -27.5q6 -22 23.5 -24.5t45.5 -4.5q-3 -10 -4 -24t12 -22q-12 -18 -21 -40t-13.5 -44.5t-4 -44t6.5 -37.5q-30 2 -69.5 0.5t-84.5 -6.5q-21 -77 -54 -144.5
t-70.5 -124t-74.5 -101t-66 -76.5t-46 -50.5t-13 -22.5q6 -6 17 1t30.5 28t49.5 56.5t74 88.5q-74 -116 -144 -190t-133.5 -114t-120.5 -50.5t-105 0.5t-86 39.5t-65 67.5q16 3 19 16t-2.5 26.5t-15 22.5t-16.5 3q-1 28 8 64t29 75t51.5 79t75.5 75q2 -11 5 -18t23 -1
q6 4 13.5 6.5t14.5 4.5l16 4q-13 -11 -22 -27q-8 -14 -12 -33t4 -43q11 -39 36.5 -58t57.5 -24t65.5 0t61 14.5t43.5 19t13 13.5q-5 6 -22 -1t-41 -15t-51 -12t-51 8q43 -5 84.5 11t79.5 46t72 70t63.5 84t53 87t41.5 79q-48 -9 -94.5 -20t-84.5 -23q-11 14 -22 16.5
t-19 -2.5t-12 -16.5t-2 -26.5q-18 -2 -46 -10t-54 -16q-31 -10 -64 -22q-19 19 -44 34q-21 12 -50.5 21.5t-65.5 4.5q24 16 50.5 42.5t47.5 56t33 59t8 51.5z" />
    <glyph glyph-name="K" unicode="K" horiz-adv-x="729" 
d="M498 626q-8 -19 -12 -37q-4 -15 -6.5 -29.5t2.5 -21.5q4 -7 12 -5.5t16 5.5q9 4 19 13l-244 -371l204 161q10 -1 22 2q11 2 24 7.5t28 16.5q57 45 82 66.5t28.5 27t-8 -0.5t-28 -16t-31.5 -20t-17 -12l336 310l36 -69q-10 2 -15 -1t-5.5 -11t9.5 -25t23 -36.5t24 -36.5
q13 -20 27 -40q-22 -21 -48 -39q-22 -17 -51 -34t-61 -29q-4 11 -19.5 10t-36 -10t-41.5 -23t-36 -28.5t-21 -26.5t5 -17q-15 -4 -37 -14t-48 -24t-54 -30.5t-55 -32.5q-63 -39 -134 -85q23 -63 51.5 -117t59.5 -105q21 -34 41.5 -56.5t34.5 -31.5t19.5 -3t-4.5 30
q24 -24 49 -37.5t50.5 -18.5t49.5 -4t46 6q51 11 101 41l19 -30q-71 -34 -125 -61q-23 -12 -44 -24t-37 -22t-24 -17.5t-4 -10.5q8 -8 32 -0.5t50 19.5q31 14 68 34q-39 -27 -87 -57q-42 -26 -100 -59.5t-130 -68.5q-69 65 -106 111.5t-54.5 73t-21.5 32t-7 -11.5
q-23 38 -41 80.5t-31.5 84t-23 79.5t-15.5 67l-115 -241q2 14 0 24q-2 8 -7 14t-16 1q4 25 -2.5 29.5t-19 -9t-29 -42.5t-33.5 -70q0 20 -3 35t-7 25q-4 11 -10 20q12 31 21 57q8 22 12 41.5t-1 23.5q-5 3 -10 1t-10 -6.5t-9 -9t-5 -6.5q3 5 16 32t33 67.5t44 92t48 105.5
q5 -9 15.5 2.5t18.5 29t9 32t-12 11.5q16 41 29 79t22.5 70.5t15.5 58t10 40.5q-4 -25 -2.5 -35t6.5 -8.5t12 13.5t13 31q6 18 8.5 42.5t0 48.5t-11 43.5t-24.5 27.5l12 30z" />
    <glyph glyph-name="L" unicode="L" horiz-adv-x="607" 
d="M511 685q-5 -41 12 -57q7 -7 19.5 -9t33 4t49.5 22.5t68 47.5q-32 -42 -81.5 -114t-108.5 -160q6 15 11.5 30t7.5 25t-0.5 11.5t-12 -9.5t-28 -38.5t-47.5 -75.5q-43 -70 -82 -138.5t-72 -130.5t-59.5 -114.5t-44.5 -89.5q18 -1 48 5.5t83 26.5q33 13 47 19.5t14.5 8.5
t-8.5 0.5t-21 -4t-23.5 -6t-16.5 -4.5q7 3 40.5 17.5t81.5 35t103.5 45t106.5 47.5q0 -8 10 -12.5t23 -7.5q14 -4 33 -5l-19 -95q-21 -8 -32 -16q-9 -7 -9 -15t24 -13q-60 -5 -107 -14t-76 -18t-37 -16.5t10 -9.5l-462 -125q-15 -13 -25 -26q5 28 6 52.5t0 42.5q-1 21 -4 39
l115 321l97 210q-16 -60 -21 -90q-2 -13 -2.5 -20.5t2.5 -4.5t10 18t20 47q9 22 18.5 54t19.5 66t19 66.5t15 56.5q16 -9 31.5 0.5t26.5 24.5q13 18 25 43zM297 -66l2 1q-1 0 -2 -1z" />
    <glyph glyph-name="M" unicode="M" horiz-adv-x="1039" 
d="M223 357q-1 3 -11.5 -5t-26 -23t-34 -33.5t-36 -37t-31.5 -33.5t-21 -23l414 473l44 -18q19 -8 41 -16t42 -16q19 -7 34 3t26 25.5t17 31t7 19.5l-104 -537l331 531q7 -10 15 -17q7 -6 15 -11t17 -5q8 0 17 7t17.5 15.5t14 16.5t7.5 10q-1 -4 -4.5 -16.5t-7.5 -29.5
t-8.5 -35.5t-7 -34t-2.5 -25t4 -8.5q4 0 16 20.5t28.5 51t35 67.5l35.5 71t30 61.5t19 38.5q-5 -11 -15.5 -37t-23 -58t-25 -66t-22 -62.5t-13 -47.5t1.5 -19q8 -2 19.5 10t22.5 28q12 18 25 42l70 -3l-177 -445q-11 -3 -20 -8q-8 -5 -15.5 -12t-11.5 -17q-4 -11 -1.5 -16.5
t7.5 -8.5q5 -4 14 -5l-117 -311l-77 -13q-1 8 -3 15q-2 5 -5.5 10t-11.5 5t-18.5 -5.5t-19.5 -11.5q-11 -8 -22 -17l-170 -43l147 311q-20 -54 -33 -94q-6 -17 -10.5 -33t-6.5 -28t-2 -18.5t5 -3.5q4 2 13 22t21 50.5t25.5 69t27.5 77.5q32 92 70 209l-284 -392h-54
q-22 0 -42.5 -1t-30.5 -2q-11 -2 -25.5 -17t-28.5 -34q-16 -22 -33 -49q23 51 39 91q7 17 12.5 34t9 31t3.5 23t-4 11q-9 4 -17 -5t-19 -27.5t-26.5 -45t-37.5 -59.5q14 36 10 53.5t-14 23.5q-11 7 -30 4l80 334l-294 -438q1 7 -1 10q-2 2 -7.5 1t-17.5 -11
q-13 -11 -15.5 -19.5t-0.5 -14.5q2 -7 9 -13q-12 -13 -21 -26q-8 -11 -14.5 -25.5t-8.5 -28.5q-1 -7 7 -11t20.5 -6.5t29.5 -2.5h34q40 1 93 7l-555 -101q185 198 329 356q61 67 120 131.5t104.5 116t72.5 83.5t26 35zM63 202q-2 -2 -3 -3.5t-2 -2.5q-1 -2 -2 -2zM1159 882
q-1 -1 -1 -2q-1 -1 -1 -2t-1 -3q1 2 1 3t1 2q0 1 1 2zM1019 715q0 -1 -1 -1z" />
    <glyph glyph-name="N" unicode="N" horiz-adv-x="759" 
d="M923 605q-6 -10 -5 -17t7.5 -9t16.5 0.5t21 11.5q-8 -10 -30 -42t-52.5 -77.5t-67.5 -100t-74 -110.5q-88 -131 -194 -291q-13 4 -23 1q-8 -2 -14 -10t-3 -25q-3 -7 -11.5 -21t-19.5 -31.5t-24.5 -38t-26.5 -40.5q-32 -48 -69 -103q17 30 23 51q5 18 -1 31t-35 8
q-6 -1 -12 -7t-10.5 -12.5t-7.5 -12.5t-3 -7q0 1 3 18.5t7.5 46t10 64t11 72.5t10.5 72t8.5 62.5t4 44.5t-1.5 17q-5 0 -10.5 -21.5t-11 -49.5t-10 -55t-5.5 -38l30 276q-72 -122 -129 -225q-25 -44 -49 -88.5t-43.5 -83t-33 -68.5t-17.5 -45q-15 -2 -23.5 -9t-10.5 -16
t1.5 -19t12.5 -19q5 -20 16.5 -40t22.5 -36q13 -18 29 -35l-329 179q19 -6 42 -17t44 -21.5t35.5 -17.5t15.5 -4t-17 14.5t-42.5 25t-49.5 26t-38 18.5l314 502q-6 -10 -21 -36.5t-34 -60t-38.5 -70t-34.5 -67t-23.5 -51t-3.5 -22.5q4 -1 19 20.5t37.5 57.5t49.5 82t55 95
q65 114 146 260q46 19 89 42q36 20 74 46t61 56q-24 -43 -27 -59.5t9.5 -13t38.5 24t60 51.5q-27 -31 -47 -73t-35.5 -90t-26 -99t-17.5 -99q-17 -114 -21 -237q102 169 176 306q31 58 59.5 115.5t47.5 105t26 80t-5 41.5q55 -9 90 -15t55 -10q24 -4 35 -8q-3 -12 -1 -23
q2 -9 7 -17t18 -10zM110 290l-5 -7q1 1 1.5 2.5t1.5 2.5z" />
    <glyph glyph-name="O" unicode="O" horiz-adv-x="845" 
d="M823 616q58 -44 78.5 -96.5t15 -108.5t-32 -113t-62.5 -110q-85 -124 -231 -252q-7 4 -12 5t-9.5 -0.5t-6.5 -6.5q-18 8 -29.5 -6t-7.5 -34q-87 -51 -169 -68.5t-150 -8t-117 42.5t-69 84q6 4 9.5 12t2.5 16t-6.5 12.5t-17.5 1.5q-9 77 10 151t57 140.5t90 124t110 102.5
t116.5 75t109.5 41q-3 -1 -17.5 -8.5t-35 -18.5t-43 -24t-41 -25t-29 -21.5t-6.5 -14.5t30.5 10t67 38t91.5 47.5t104.5 38t105 10.5t94.5 -36zM618 165q7 0 15.5 16.5t12.5 40.5t-1 50t-25.5 46t-61 28t-106.5 -5q-41 -8 -72.5 -27.5t-57 -45t-47 -55t-40.5 -56.5
q-23 8 -31.5 4.5t-10.5 -10.5q-2 -8 4 -21q-6 -7 -10 -14q-3 -6 -3 -13.5t8 -15.5q-19 -62 -11 -104q3 -18 13 -34t29 -25.5t49 -10.5t75 11q59 15 104 47.5t76 72.5t50 84t26 83t3 69t-17 42q27 -16 34 -42.5t5 -52t-7.5 -44t-2.5 -18.5z" />
    <glyph glyph-name="P" unicode="P" horiz-adv-x="786" 
d="M727 603q64 -68 88.5 -132.5t15.5 -124t-49 -113.5t-104 -101q-8 2 -17 2.5t-16.5 -3.5t-11.5 -12t-2 -23q-8 1 -13.5 -3.5t-8.5 -9.5q-4 -6 -6 -15q-45 -25 -94 -48q-42 -20 -95 -41.5t-107 -35.5q39 16 72.5 29.5t58 24.5t37.5 19.5t11 14.5t-26.5 -4.5t-65 -28.5
t-92.5 -39t-108 -37l-129 -238q8 31 12 56q3 21 2 38.5t-13 17.5q-12 -1 -21 -8.5t-16 -15.5q-8 -11 -13 -23q-5 4 -14 8q-8 3 -19.5 6t-29.5 3q8 39 19.5 83.5t25.5 89.5t29 90t29 86q33 96 71 192q-24 -77 -42 -139q-8 -26 -14.5 -51.5t-11.5 -46t-7.5 -33.5t-0.5 -14
q4 -3 15 24.5t26 73t32 102t32.5 110t27.5 97t18 64.5q11 41 10 69.5t-6 46.5q-6 21 -16 35l173 -114q0 18 -1 36.5t-3 38.5q6 7 9 13.5t-1 11.5q-5 9 -15 10q-11 50 -41 89.5t-87 56.5q52 -14 78.5 -19t31.5 -3t-7 9.5t-37 18t-59 23t-71 24.5q132 -23 229.5 -57.5
t162.5 -67.5q76 -39 129 -80q-2 -11 2 -19q3 -7 13 -11.5t31 -1.5zM618 287q-3 25 -18 44.5t-38 33.5t-50 24t-54 17l-231 -424q37 14 80.5 34t88 43.5t86 50t73 55.5t49 60t14.5 62z" />
    <glyph glyph-name="Q" unicode="Q" horiz-adv-x="858" 
d="M815 616q33 -25 53 -52.5t31 -57.5q-6 -6 -10 -13.5t-4.5 -15t2.5 -14t12 -10.5l-2.5 -7.5t-1 -9.5t3 -9t10.5 -4q-3 -48 -21 -96.5t-46 -95.5t-61.5 -89.5t-66.5 -78.5t-62 -63.5t-47 -43.5l174 -124q-2 1 -13.5 7t-25 11.5t-24 7.5t-11.5 -4q0 -2 3 -8t8 -12.5
t10.5 -13t11.5 -9.5q-10 2 -17.5 -8.5t-12.5 -24.5q-6 -16 -10 -36q-52 36 -93 64q-18 12 -35 23t-30.5 19t-22 12.5t-9.5 2.5q-2 -3 9.5 -14t25.5 -23l38 -32l-111 75q-81 -39 -160.5 -49t-144.5 6t-109.5 56.5t-54.5 103.5q-11 63 7.5 131.5t56 135t90 128t110.5 110.5
t117 83t110 45q-3 -2 -18 -9.5t-35.5 -18t-42.5 -23.5t-39.5 -24.5t-28 -21t-6.5 -14.5q3 -4 18.5 4t41 22.5t58.5 33t70.5 36t78 30.5t80 17.5t77 -3t69.5 -32.5zM610 165q6 0 15 17t12.5 41t-1.5 50.5t-25.5 46t-60.5 27.5t-106 -6q-53 -11 -97.5 -46t-78.5 -75.5t-56 -78
t-29 -54.5q-5 -12 -7.5 -30.5t0.5 -39t12.5 -39.5t29.5 -31t52 -14.5t79 10.5l9 3l-170 115l26 37l35 -30l-10 47l138 155q-8 -19 -15 -37t-4 -40t20.5 -49t59.5 -64q18 -17 33 -31.5t27 -27.5q16 16 31 37q9 3 18.5 9.5t16 14.5t7.5 17.5t-6 18.5q15 33 23.5 65.5t10 60
t-3.5 48t-15 30.5q27 -16 34 -42.5t5 -52t-7 -44t-2 -18.5zM493 620l-1 -1z" />
    <glyph glyph-name="R" unicode="R" horiz-adv-x="804" 
d="M165 503l-49 -151q3 -10 2 -25q-2 -7 -5.5 -10.5t-6.5 -5.5q-4 -2 -8 -2l6 -14q2 -5 3 -11t-1 -9q-5 -6 -15 -8q-5 -2 -12 -2l9 -9q3 -4 5.5 -7t0.5 -5q-2 -4 -16 0q-23 -66 -48.5 -138t-50 -141t-48 -131.5t-41.5 -109.5q7 12 18 29.5t21 33.5t18 27t10 10q5 -2 3.5 -12
t-5.5 -21q-4 -13 -11 -30q3 2 7 3q6 2 16 0q4 -1 10.5 -2t13.5 -3.5t14 -8t12 -14.5q10 22 24 51t29.5 60t31.5 60.5t29.5 53t24 38t15.5 14.5q4 0 -2 -18.5t-18.5 -47.5t-29 -64t-32 -67t-28 -57.5t-17.5 -35.5l213 391q4 -57 17 -108t31 -94.5t39 -80t43 -66.5
q50 -70 112 -120l45 32q-11 13 -18 25q-6 11 -9.5 21.5t2.5 18.5q4 5 19.5 -4t35.5 -25t41.5 -35t37.5 -34q-12 13 -27 29.5t-32 38.5q-26 38 -36 57t-9 24t11.5 -0.5t24.5 -17.5t30 -27t29 -28q-1 9 13 21.5t38.5 30t58.5 39t72 48.5q-32 1 -73.5 17.5t-80 37t-68.5 39.5
t-39 25q7 -5 26.5 -20t38.5 -31t30.5 -29.5t3.5 -16.5q-9 -3 -32 12.5t-54 44t-65 67.5t-64 83q107 13 185 46t129.5 75t80 87t36.5 83q-15 6 -13 19.5t13 22.5q-9 2 -16.5 10.5t-11 20t-2 25t9.5 24.5q-13 48 -47 86.5t-79.5 65.5t-97 42t-97.5 15q-42 0 -58.5 11t-19 25
t3.5 28t9 19l-178 -250l-126 128q1 -3 5 -13t5.5 -30.5t-1.5 -51t-14 -73.5zM629 361q8 -42 -8.5 -74.5t-48.5 -56.5q0 -4 -1.5 -9.5t-8.5 -10.5q-6 -4 -14 -4.5t-16 -0.5q-30 -14 -64 -23.5t-67 -14t-62.5 -4t-50.5 6.5l85 157l-9 9t-7 13q-2 5 4 15t15.5 21t20 22t17.5 17
l-52 53q40 -2 84 -8t82.5 -19t66 -34.5t34.5 -54.5zM663 -366l-10 10zM41 -283l3 6zM477 797l-3 -4q0 1 2 3zM562 -20q0 -1 1 -1q1 -1 2 -1l-2 1q-1 0 -1 1z" />
    <glyph glyph-name="S" unicode="S" horiz-adv-x="776" 
d="M716 267q14 46 20 76q3 13 4 23t-0.5 15t-6.5 2.5t-14 -14.5q-4 17 -14 32.5t-30 26.5q-20 10 -48 10t-60 -6.5t-67 -19t-68.5 -27t-64.5 -29.5t-55 -28q114 -10 201 -40t147 -62q70 -38 122 -83q-2 -27 -7 -56q-5 -25 -13.5 -55t-22.5 -59q-51 -8 -100 -29.5
t-90.5 -47.5t-73 -53t-47.5 -46q21 25 45.5 47.5t45 40.5t33 29t10.5 14q-3 2 -28.5 -13.5t-62 -45t-78.5 -70.5t-77 -90q-8 0 -23 3t-31.5 5t-32.5 1t-27 -8q14 24 24.5 43t12.5 29t-8 8.5t-37 -18.5q-5 6 -19.5 16.5t-41.5 10.5t-68.5 -18t-101.5 -69q-16 4 -29 9.5
t-24 8.5t-21.5 2t-22.5 -10q-7 1 -18 4.5t-22 7.5q-12 4 -26 10q65 65 143 125q33 25 73 52t84.5 52.5t93.5 48t102 39.5q-63 -24 -103 -44t-61.5 -35t-28.5 -24t-4 -10q2 -1 22.5 11.5t57.5 31.5t88 41.5t113.5 42.5t134 33.5t149.5 14.5q-34 27 -72 47t-75 34t-71 22.5
t-59.5 13t-40 4.5t-13.5 -2q1 -4 13.5 -7t36.5 -9t60.5 -17.5t86.5 -32.5q-61 25 -132 38t-135.5 19t-113 6.5t-64.5 0.5l-78 -25q9 10 15 20q5 8 9 17.5t1 17.5q14 12 29.5 31t24.5 36t6 26.5t-25 0.5q56 34 71.5 50.5t11.5 23.5q-4 8 -29 6l20 67q33 26 67 51
q29 21 64.5 42t68.5 34q26 -9 44 -4t29 15q13 11 21 29q55 26 126 49q61 20 147 37.5t195 24.5q11 -20 27 -25.5t31 -5.5q17 0 35 7zM530 176l15 -6z" />
    <glyph glyph-name="T" unicode="T" horiz-adv-x="509" 
d="M473 497q-47 -4 -95.5 -8.5t-99.5 -10.5q-50 -6 -78.5 -11t-41.5 -8.5t-12 -6.5t9.5 -5t22.5 -3t28 -1q-92 -15 -168.5 -28.5t-122.5 -23.5q39 20 63 37t36.5 30.5t15.5 24.5t0 20q-7 19 -41 32l104 118q25 1 44 5q17 4 30 12t13 25q21 -4 49.5 -8.5t59.5 -9t60 -8
t51 -4.5q39 -3 53 -2t11 3t-17 5.5t-31 7t-32.5 6t-19.5 3.5l203 2l301 -25q13 -9 30 -18q14 -8 34 -16.5t45 -14.5q-36 -10 -64.5 -27t-48.5 -34q-24 -20 -41 -42q-33 -1 -73 -2q-35 -1 -81 -3t-102 -5l-371 -787q1 2 6 22t9.5 43.5t6 42t-4.5 17.5q-12 -2 -31 -22
t-38.5 -45t-34.5 -46.5t-18 -25.5q1 3 2.5 13t0 21.5t-9 20.5t-25.5 9q16 79 42 162t52 152q30 80 62 157q-19 -58 -32 -104q-6 -20 -11.5 -39t-9 -34.5t-5 -25.5t0.5 -11q6 -5 17 20t24 63t25.5 81t20.5 75q11 41 6.5 62.5t-13.5 30.5q-11 11 -28 11zM91 -298v-2v2z" />
    <glyph glyph-name="U" unicode="U" horiz-adv-x="787" 
d="M357 545q-3 7 -22 3.5t-43 -10.5t-46 -15t-30 -11l305 136q-24 -38 -49.5 -90.5t-51.5 -114t-51 -128.5t-48.5 -132t-45 -125.5t-39.5 -108.5q56 37 105.5 89t91 109.5t73 115.5t52 106.5t28.5 82.5t1 44q20 -3 39.5 -0.5t29.5 9t6.5 17.5t-28.5 26q37 -15 78 -11.5
t82 18t82 36.5t78 45q-8 -12 -22.5 -42t-33.5 -70.5t-40.5 -88.5l-43 -96t-40.5 -93t-33.5 -79.5t-22 -55.5t-5.5 -21t11.5 15t22.5 39t27.5 52t27 53t21.5 42t10 20l-162 -385q-9 5 -22 -2.5t-26 -17.5q-15 -12 -31 -28q6 25 7 43q1 16 -2.5 29t-14.5 11q-11 -1 -25.5 -38
t-30.5 -92.5t-31.5 -121t-29.5 -124.5q4 30 7 51t2 36t-7 24.5t-20 15.5q15 18 25.5 32.5t14.5 23.5t-0.5 11t-19.5 -5q2 20 -7 23.5t-21 -0.5q-14 -4 -34 -16l117 344l-296 -303q-24 3 -48 3q-21 0 -45 -3t-47 -11q8 16 -4 18.5t-30 -1.5q-21 -4 -51 -16q3 24 7 45
q3 18 5 37t4 32q23 6 31 16.5t8 21.5q0 12 -7 26q24 64 45 126q9 26 17.5 54t16.5 55t13.5 51.5t8.5 44.5q3 25 -5 40.5t-21.5 24.5t-31 12.5t-33 4t-26.5 -0.5t-13 -1q5 2 32 12t65 24t81 30.5t78.5 32t58.5 28t22 17.5zM216 512q-1 -1 -2 -1h-1z" />
    <glyph glyph-name="V" unicode="V" horiz-adv-x="714" 
d="M903 596q3 -10 15 -6.5t27.5 14.5t33 27t32.5 31t25 26t12 13q0 -1 1 -8.5t5 -17t13 -18t26 -10.5q-26 -21 -59 -50t-68.5 -62t-72.5 -68.5t-71 -69.5q-81 -79 -165 -167q-20 -3 -35 -9q-14 -6 -24.5 -16.5t-10.5 -29.5q-16 -14 -38 -37.5t-47.5 -52.5t-52.5 -61t-52 -63
q-60 -73 -126 -157q-34 8 -62 6q-24 -2 -46 -14.5t-28 -46.5q-5 13 -11 15t-13 -3t-14 -16.5t-14 -24.5q-16 -32 -33 -81l-5 685q0 -13 1.5 -44t4 -71t5.5 -83t7 -79t8 -59t9 -23t6.5 36.5t0.5 93.5t-3.5 126t-5.5 133.5t-5.5 116.5t-3.5 75q19 5 50.5 14.5t61 19t51 18.5
t20.5 13q0 3 -9.5 2.5t-24.5 -3.5t-34 -7.5t-38 -9.5q32 12 72.5 26.5t85 29.5t90 29t87.5 24q-43 -23 -69 -45.5t-39.5 -43t-17.5 -39t-4 -33.5q-11 0 -18.5 -8t-10.5 -18.5t-1.5 -22t10.5 -18.5q-6 -7 -8.5 -16.5t-1 -18.5t7 -15.5t14.5 -7.5q-5 -18 -9 -43t-8 -53.5
t-7.5 -58.5t-6.5 -58q-7 -67 -13 -140l278 403q-31 -55 -53 -98q-9 -18 -17.5 -36t-14.5 -31.5t-8 -22t2 -8.5t20 21.5t40 57t53.5 81t59.5 93.5q70 112 158 254q1 -20 8 -36q6 -14 19.5 -25.5t38.5 -13.5q24 -2 41 11.5t26.5 32t11.5 38t-4 28.5q16 0 42 15.5t56 39t61 51
t56 51t41.5 40l18.5 18.5q-5 -5 -32 -36.5t-65 -76t-80.5 -96t-77.5 -98t-57 -80.5t-18 -44z" />
    <glyph glyph-name="W" unicode="W" horiz-adv-x="1015" 
d="M543 821q-3 -2 -16 -9.5t-31 -18.5t-38.5 -24t-37.5 -25.5t-28.5 -23t-11.5 -15.5q0 -8 12.5 -6.5t27.5 7.5t29 12.5t17 8.5q-1 -1 -18 -26.5t-41 -86.5t-51 -162.5t-46 -254.5q15 28 40 73t54 96t59 104.5t55 99.5t42 80.5t20 47.5q10 -4 25.5 -2.5t31.5 5t29 7.5t18 7
q7 -23 16 -21t17.5 17t15.5 39t11 45q1 -25 4.5 -40t9 -22t12 -8t12.5 2q15 6 32 31l-83 -437q9 63 14 112q2 21 4 41t2.5 36t0 25.5t-3.5 9.5t-7 -16t-8.5 -42.5t-9 -60.5t-8.5 -69q-10 -83 -21 -187q81 114 152 215q30 43 61 87t59 84.5t51 74t38 54.5
q-33 -53 -49.5 -82.5t-21 -39.5t1.5 -4.5t18 21.5t28 39.5t33 48.5q25 38 45 75.5t34 66.5q16 34 28 66q12 -25 28 -42q14 -14 33 -22t43 3q-4 -19 2.5 -25t19.5 -3t29.5 11.5t31.5 18.5t26.5 18.5t15.5 11.5q-2 -1 -12 -11t-23.5 -24t-28.5 -31t-26 -32t-16 -27t1 -17
q8 -7 27 -4.5t39.5 9t37 13t19.5 8.5l-584 -626q10 11 34 37.5t53.5 59.5t60 68.5t55 65t38 48.5t9.5 20q-4 0 -25.5 -21.5t-53.5 -57.5t-72.5 -82.5t-81.5 -94.5q-97 -114 -218 -259q-14 13 -31 17q-14 4 -33 0.5t-40 -23.5q-9 10 -23.5 1.5t-28.5 -22.5q-17 -17 -35 -40
l91 542q-47 -55 -83 -102q-15 -20 -29.5 -40.5t-25 -38.5t-15 -32t-1.5 -21q-9 -5 -17.5 -11.5t-14 -14t-6 -16t7.5 -15.5q-11 -14 -28 -43t-34 -59q-20 -35 -42 -75q-36 4 -69 -4q-29 -7 -59.5 -27t-51.5 -63q13 50 13.5 63.5t-7 4.5t-21.5 -33t-29 -48q12 34 25 87.5
t24.5 118.5t21 136.5t15.5 142t7 135.5t-4.5 116t-19 84t-35.5 39zM828 97l7 8q-2 -3 -5 -6zM543 821l1 1z" />
    <glyph glyph-name="X" unicode="X" horiz-adv-x="669" 
d="M905 498q-13 -6 -33.5 -16.5t-40 -22t-34.5 -22t-16 -16.5q0 -8 3.5 -12.5t6.5 -8.5l-380 -286q11 -97 27.5 -200t39.5 -195q-27 47 -42.5 62.5t-22.5 14.5q-9 -1 -11 -18q-11 38 -24 82q-11 38 -25.5 85.5t-30.5 101.5l-348 -262q14 11 44 35t66 53t73.5 60t66.5 56.5
t45.5 41.5t11.5 16q-7 0 -27 -12.5t-48 -32.5t-62.5 -46.5t-69.5 -54.5t-69 -55.5t-61 -50.5q0 10 -5.5 15t-13 8t-15 4t-11.5 3q-6 1 -11.5 0.5t-10.5 -1.5t-11 -3q20 17 34 31q12 12 20.5 22.5t4.5 12.5q-3 1 -20.5 -10.5t-40.5 -28t-48 -34t-43 -29.5q46 40 104.5 92.5
t123 111t133 121t134.5 123.5q-17 55 -30 99t-20 69q6 15 6.5 30t-1.5 33t-7 40.5t-11 52.5q19 2 35.5 17t29.5 36t23.5 45t18 45.5t11.5 36.5t5 18q0 -2 -1 -22.5t-1.5 -50.5t0.5 -66t3.5 -68t8 -55.5t15.5 -30.5q-15 -18 -15 -27.5t7.5 -12.5t19.5 0t21 9q0 -12 1 -35.5
t3 -55.5q13 2 21 8q5 3 7 8.5t3 11.5q1 7 1 15q6 -1 13 1q5 2 12 5.5t13 11.5q7 7 9.5 13.5t3.5 11.5q60 56 103 96.5t60 57.5q49 50 73.5 83t35.5 54q12 24 11 39z" />
    <glyph glyph-name="Y" unicode="Y" horiz-adv-x="617" 
d="M-137 -544q31 51 49 92q8 18 13.5 35t7 31t-2 23.5t-15.5 11.5q18 10 25 18t7 15t-4.5 13t-10.5 12q15 16 31 37t32.5 44t32.5 46.5t30 46.5q33 53 66 109q28 6 46 17q16 9 24 23t-5 35l-82 374q1 -5 8.5 -28.5t17.5 -56.5t22 -69.5t23.5 -67.5t21 -51t14.5 -19
q4 1 -2 30.5t-18.5 74.5t-29 99.5t-31.5 106t-27.5 93t-16.5 60.5q18 7 52 23.5t67.5 33.5t58 31t23.5 18q-2 2 -11.5 0t-24 -7t-32 -12.5t-34.5 -14.5q29 16 67 35t79.5 39.5t84.5 39.5t83 35q-39 -26 -61.5 -49.5t-33 -43t-12 -36t1.5 -28.5q-10 -3 -16.5 -10.5t-8.5 -17
t1.5 -18.5t13.5 -14q-11 -13 -5 -30t25 -17q-4 -32 -7 -77.5t-6 -87.5q-4 -49 -6 -102l214 384q-23 -51 -38 -91q-7 -17 -12.5 -33t-9 -28.5t-4 -20t3.5 -6.5q4 0 12 13t19.5 34t24.5 47t27 53q31 63 69 144q33 0 66 5q28 5 59 16t54 32q-23 -50 -30.5 -81.5t12.5 -50.5
q6 -7 18.5 -1.5t28 17.5t31.5 27.5t30 30t23 25t11 12.5q0 -2 2.5 -8t8.5 -13t16 -12t26 -4q-46 -45 -99.5 -100.5t-99.5 -105.5q-55 -58 -108 -118q-17 -8 -29 -18q-11 -9 -19 -21t-4 -28q-14 -15 -33.5 -37.5t-42 -49.5t-46.5 -56t-47 -57q-55 -66 -114 -140zM107 439v2
v-2z" />
    <glyph glyph-name="Z" unicode="Z" horiz-adv-x="856" 
d="M-119 -54q109 93 237 179q54 36 117.5 74.5t133 75t144.5 69t153 56.5q-22 7 -60 15t-86.5 9t-105.5 -8.5t-118 -37.5q-36 -17 -68 -36t-58 -39q18 33 22.5 46t0 12.5t-16 -12.5t-26.5 -30q-35 -41 -92 -115l209 399q0 -1 7 -6.5t24 -4.5t45.5 15t73.5 53q133 31 224 43
t148 14q67 3 108 -5q-11 -15 -7 -22q3 -6 20.5 -5t62.5 19q28 -2 48 -4.5t32 -5.5q14 -4 23 -8l-12 -88q-20 -7 -26 -16q-5 -8 1.5 -19t41.5 -25q-49 -6 -79 -14t-45.5 -17t-19.5 -18.5t-2 -18t7 -15.5t9 -11q-14 -10 -21 -18t-9 -15q-3 -8 -2 -15q-109 -37 -218 -82
q-47 -19 -98 -41.5t-102.5 -48t-101.5 -53t-94 -57.5q70 47 120 77t82 48t48.5 26.5t19.5 13.5q3 4 -33.5 -12.5t-97.5 -50.5t-138.5 -85t-155.5 -115q126 47 221 59.5t160 9.5t99.5 -13t37.5 -7q4 3 1.5 9.5t-18 13.5t-48 12t-88.5 4q48 4 89.5 0.5t76.5 -11.5t63 -20
t51 -25q52 -31 87 -74q-23 -5 -35 -16q-11 -9 -12 -24t20 -37q-49 14 -88.5 6t-79.5 -30q-25 19 -36 23t-13 -2t2.5 -19t11 -28t13 -28.5t8.5 -19.5q-31 20 -79 33.5t-103 22t-111 12t-101.5 3t-75.5 -4.5t-33 -11q-2 -4 14 -4.5t41 -1t56 -0.5t59 -1.5t50.5 -6t30.5 -12.5
q-12 3 -43.5 4t-73.5 0.5t-91 -2t-96 -4t-89 -5t-70 -5.5q0 24 -12.5 47.5t-26.5 41.5q-17 21 -38 41z" />
    <glyph glyph-name="bracketleft" unicode="[" horiz-adv-x="445" 
d="M33 -189q1 2 1 4q0 5 1 9q-3 4 -13.5 13t-25.5 1q5 28 7 56.5t0 42.5q-2 10 -5.5 8.5t-8 -7.5t-8.5 -14t-5 -12q1 5 8 30t18 63t26 86t32 99q12 37 27.5 78t30 79.5t26 71.5t16.5 54t1 26.5t-20 -9.5q13 39 26 65.5t20.5 53t7.5 57t-13 77.5q0 -1 5.5 -7.5t14 -17
t19 -23.5t21.5 -25q37 -11 67 -24t51.5 -20.5t33.5 -7t12 16.5l120 -15q5 -6 12 -12q5 -5 13 -10.5t18 -9.5q-15 -7 -26 -17.5t-19 -21.5q-9 -12 -16 -27q-6 3 -26 2t-49 -5t-64 -11t-70 -16q-7 -13 -16.5 -32t-20.5 -41.5t-23 -47.5t-25 -49q-15 -30 -23 -54t-6 -33
t14.5 3.5t38.5 56.5q-18 -39 -41.5 -93t-47.5 -111t-46.5 -110.5t-38.5 -92.5l130 77q-4 -15 -1 -21.5t16 -6t37.5 7.5t64.5 18l54 -137q-39 20 -87.5 27.5t-96 4.5t-87.5 -15.5t-61 -31.5zM-24 -88q-1 0 -1 -2z" />
    <glyph glyph-name="backslash" unicode="\" horiz-adv-x="445" 
d="M-44 666q39 -8 73 -12q29 -4 56.5 -5t38.5 5q23 -28 45 -48t41 -32q0 -10 5.5 -31t13.5 -48t17 -58.5t17 -62.5q8 -33 18.5 -56.5t17.5 -28.5t8 12.5t-9 67.5q9 -29 21 -64.5t25.5 -75t27.5 -80.5t28 -79q32 -90 66 -186q-9 2 -17 1q-7 -1 -14 -4.5t-11 -12.5
q-14 24 -31.5 46.5t-28.5 31.5q-9 6 -10.5 1t0.5 -14q2 -11 8 -26q-19 37 -40 80q-18 37 -40 85t-45 101q-16 36 -32 76.5t-31 78.5t-28.5 70t-24 51t-17.5 21t-9 -20q-15 38 -23.5 66.5t-20.5 53t-33 47.5t-62 49z" />
    <glyph glyph-name="bracketright" unicode="]" horiz-adv-x="445" 
d="M401 744q-1 -2 -1 -4t-0.5 -4.5t-0.5 -4.5q3 -4 13.5 -13t25.5 -1q-5 -28 -7 -56.5t0 -42.5q1 -10 5 -8.5t8.5 7.5t8 14t5.5 12q-2 -5 -8.5 -30t-18 -63t-26 -86t-31.5 -99q-12 -37 -27.5 -78t-30 -79.5t-26 -71.5t-16.5 -54t-1 -27t20 10q-14 -39 -26.5 -65.5t-20 -53
t-7.5 -57.5t13 -77q-1 1 -6.5 7.5t-13.5 17t-18.5 23.5t-21.5 25q-37 11 -67 24t-51.5 20.5t-33.5 7t-12 -16.5l-120 15l-12 12q-14 12 -31 20q14 6 25.5 17t19.5 22q9 12 16 27q6 -3 26 -2t49 5t64 11t70 16q7 13 16.5 32t20.5 41.5t23 47.5t25 49q15 30 23 54t6 33
t-14.5 -3.5t-38.5 -56.5q18 39 41.5 93t47.5 111t46.5 110.5t38.5 92.5l-130 -77q4 15 1 21.5t-16 5.5t-37.5 -7.5t-64.5 -17.5l-54 137q39 -20 87.5 -27.5t95.5 -4.5t87.5 15t61.5 32zM459 645q0 -2 -1 -2z" />
    <glyph glyph-name="asciicircum" unicode="^" horiz-adv-x="478" 
d="M220 384q-40 8 -74 14l-58 10t-43 6q7 18 -5 30q8 -1 26 2.5t38.5 10t40 14t32 15t14 14t-14.5 9.5q23 13 47.5 22.5t44 18t30.5 16.5t5 17q4 -1 19 3.5t30 13t23.5 19.5t0.5 23q9 -4 22 -15q11 -9 27.5 -24.5t39.5 -40.5q-18 -5 -21.5 -21t2 -33t16 -30.5t20.5 -11.5
q-12 -11 -14 -30q-9 -1 -28.5 -8t-40.5 -15t-38 -15.5t-20 -8.5q9 10 10.5 19t-3.5 22t-15.5 32t-24.5 50q-20 -15 -31.5 -33.5t2.5 -25.5q-18 -11 -34.5 -18t-26.5 -14.5t-11 -16t13 -20.5z" />
    <glyph glyph-name="underscore" unicode="_" horiz-adv-x="404" 
d="M255 -80q-8 2 -39.5 1t-76.5 -3t-98 -6t-104 -9.5t-95 -12t-70 -13.5q41 14 52.5 24t8.5 16q-4 7 -22 11l72 76q53 -6 96 -13.5t74 -12.5t48 -5t17 9l160 -8q7 -3 16 -7q16 -6 42 -11q-20 -4 -34.5 -9.5t-25.5 -11.5q-12 -7 -21 -15z" />
    <glyph glyph-name="grave" unicode="`" horiz-adv-x="419" 
d="M222 751q-21 -17 -22 -28t11 -20t32.5 -19t42.5 -23q-15 -7 -12 -13.5t13.5 -13t23.5 -14t17 -16.5q-8 -1 -12 -5q-3 -4 -1.5 -12t13.5 -23q-23 9 -30.5 9.5t-5 -5.5t13.5 -16.5t25.5 -23t31.5 -25.5t31 -23q-3 1 -21 10.5t-46 24t-63.5 33t-73.5 37.5q22 4 21.5 12
t-15.5 18t-39.5 20t-50.5 18t-49 12.5t-34 3.5q18 17 14 40q18 1 49.5 7.5t61.5 14.5q35 9 74 20zM396 479l-2 1q1 -1 2 -1z" />
    <glyph glyph-name="a" unicode="a" horiz-adv-x="394" 
d="M288 463q9 -8 20 -12q9 -4 21.5 -6.5t28.5 0.5q-20 -14 -39 -33q19 3 40 7t32 6q-5 -17 -2 -25.5t11 -9.5t19.5 5.5t23.5 20.5q-7 -22 -17.5 -57t-22 -75.5t-22.5 -82.5t-19 -78t-12 -63.5t-1 -37.5q-9 10 -20 5t-23 -19t-23.5 -33.5t-21 -39t-16.5 -36.5t-10 -25
q16 95 7 128t-33 -1q-8 8 -24 9t-32 -2q-18 -4 -40 -11q48 35 75 75t45 92q-15 7 -37.5 6.5t-42.5 -11.5q-27 -30 -58 -66t-58 -67t-45.5 -52.5t-20.5 -23.5q0 1 1.5 10.5t0.5 17t-6.5 8t-18.5 -15.5q-14 -17 -38.5 -47t-48.5 -59q-28 -34 -60 -71q-2 11 -14 6q-5 -2 -13 -8
t-19.5 -18t-27 -30t-36.5 -45q2 11 31 52.5t74 100.5t101.5 130.5t113.5 142.5q-25 -5 -58 -15t-71 -27q29 17 47.5 32.5t30.5 27.5q13 13 22 25q10 1 21 3q10 2 23 4t29 4q47 57 89 109t74 91q38 46 70 85zM169 197q26 5 47 8.5t31 5.5q9 34 17 73t18 86q-19 -23 -37 -47.5
t-33 -47.5t-26 -43.5t-17 -34.5z" />
    <glyph glyph-name="b" unicode="b" horiz-adv-x="454" 
d="M474 663q-1 -3 0 -7q1 -3 4 -7t11 -8q-15 -6 -31 -14.5t-38.5 -34t-53.5 -76t-77 -141.5q-6 5 -13 3t-14 -9t-13.5 -17t-10.5 -21q28 13 49 21.5t35 13.5q17 5 28 8q31 6 58 3q23 -2 45 -13t32 -38q3 -8 5.5 -23t0.5 -35t-10.5 -44t-27.5 -50q12 27 17 44t6 26.5
t-0.5 12.5t-2.5 0q-6 -9 -13 -30t-21 -48t-40.5 -58t-71.5 -60q-16 -11 -25 -18t6 -9q-18 -10 -50.5 -24t-71.5 -29t-80.5 -28.5t-77.5 -22.5q4 8 11.5 23.5t17 36t20 44t21.5 47.5q-30 -13 -43 -21q-8 -4 -12 -9q-12 2 -25 -1q-11 -2 -24.5 -8.5t-25.5 -21.5
q-7 -8 -14.5 -19t-14 -20.5t-11 -17t-5.5 -8.5l13 66q52 72 84.5 121t50.5 79t24 44t4 18q-4 9 -45 -28l211 351l48 84q-3 -9 -7.5 -23.5t-8 -29t-4 -26.5t5.5 -15q4 -2 11 2.5t15.5 11t16 13.5t12.5 10q18 0 37 2.5t36 7t29.5 10t17.5 10.5zM231 310q-11 -16 -23 -39.5
t-24.5 -49.5t-24 -51t-20.5 -44q-5 -24 -3 -37q1 -13 5.5 -13t10.5 5.5t12 14t9 13.5q4 -5 24 3t46.5 24.5t56 38.5t52 45.5t34 45.5t3.5 38q0 9 -6 17t-13.5 12.5t-14.5 3.5t-10 -9q-21 2 -50 -3.5t-64 -14.5zM158 214q1 1 1 2z" />
    <glyph glyph-name="c" unicode="c" horiz-adv-x="450" 
d="M564 399q-5 -12 -21 -37.5t-37.5 -57.5t-45 -66.5t-44 -63.5t-35 -49t-16.5 -23q1 2 10.5 18.5t21.5 38t22.5 43.5t13.5 34q4 15 -0.5 17t-12.5 -2t-16.5 -11t-13.5 -11q-7 22 -25 20t-32 -16q-12 -2 -35 -7t-50.5 -13t-56.5 -18.5t-52 -23.5t-37.5 -28t-13.5 -31
q1 -24 22.5 -40t57 -26.5t80.5 -17t93 -10.5q-66 -10 -111.5 -10.5t-76 4t-48.5 13t-28.5 16.5t-15.5 13t-9 3q-8 -3 2 -12t24 -19q17 -11 41 -25q-33 6 -59 20q-22 12 -40 34t-18 57q0 34 17 65t42.5 57.5t56.5 47.5t59 36t49 22.5t28 6.5q10 -2 18.5 -0.5t13 5.5t4.5 8.5
t-7 8.5q21 4 53 11.5t69.5 13t78.5 8t80 -2.5z" />
    <glyph glyph-name="d" unicode="d" horiz-adv-x="414" 
d="M209 462q-4 -12 -4 -30q13 -8 41 -27t58 -42t56 -48t35 -46q-6 -6 -5 -16t6 -19q4 -11 13 -23q4 -32 -5 -61q-8 -25 -29.5 -52t-67.5 -44q0 15 -14 12t-37 -29q-32 -11 -67 -22.5t-71 -21.5l-14 -32q-2 3 -4 7q-2 3 -4.5 7.5t-6.5 9.5q-60 -17 -116 -30t-103 -19
q47 16 100.5 31t106.5 32q-15 17 -39 33.5t-61 27.5q18 0 38.5 21t37.5 48t25.5 51.5t2.5 30.5q-5 4 -17.5 -10.5t-26.5 -34.5q-17 -23 -36 -54q26 58 59 119q28 52 66 113.5t83 117.5zM307 174q-9 38 -30 57t-42 28l-107 -243q42 15 77.5 31.5t60 35.5t36 41.5t5.5 49.5z
" />
    <glyph glyph-name="e" unicode="e" horiz-adv-x="480" 
d="M292 77q26 -17 38 -33.5t15 -30.5q-6 -8 -7.5 -16.5t-1.5 -15.5t1 -12t1 -8q-8 3 -28.5 -1t-44.5 -10t-45.5 -12.5t-31.5 -10.5q-13 18 -40 44t-56 52q-13 6 -29.5 17t-32 23t-27.5 22t-16 15t-3 16.5t7 27t17.5 33t29.5 34.5q35 33 49.5 53.5t-4.5 17.5q35 32 82 54.5
t89 42.5h19t18 2.5t13 8t4 15.5q11 -7 22 -13q9 -6 19 -12.5t18 -13.5q8 -8 14.5 -10t11.5 -1q6 1 12 4h9q5 -1 10.5 -2t13.5 -6q29 6 47.5 1t29.5 -14t16 -18.5t8 -12.5q-7 -4 -18.5 -18t-16.5 -30.5t1.5 -31t34.5 -19.5q-36 0 -83 -1.5t-97.5 -5.5t-102.5 -12t-98 -22
q30 14 59 27q25 11 51.5 22t46.5 17q40 12 51.5 22t0.5 18q5 1 14.5 9.5t18.5 19t15 22t6 18.5q-18 -7 -36.5 -17t-36 -19.5t-33 -18.5t-27.5 -15q-15 1 -24 -7t-4 -19q-41 -21 -73 -47.5t-53.5 -54t-33.5 -53t-13 -45.5q33 -20 50 -21t15 12q5 -4 27 -0.5t46.5 10.5
t44 15.5t21.5 14.5z" />
    <glyph glyph-name="f" unicode="f" horiz-adv-x="197" 
d="M66 383q-5 18 -20.5 35.5t-32.5 22.5q25 3 45.5 7t34 8.5t18 9t-1.5 6.5q28 2 60 4.5t61 4.5q23 32 43.5 53t35.5 28q6 -2 10.5 1t6.5 8.5t1 13t-5 13.5q15 7 33 12q16 5 37 9t46 6q2 -3 7.5 -6t11.5 -4t12.5 0t10.5 6q11 1 22.5 1.5t21.5 -1.5q14 -3 30 -13
q-2 -9 2 -15.5t10 -11.5t13.5 -8.5t12.5 -5.5q-41 11 -78.5 10t-65.5 -7t-43.5 -14t-12.5 -11q1 -1 12.5 3t28 9t35 7.5t35.5 -1.5q-54 -7 -95.5 -29t-63.5 -51q12 1 42.5 2.5t72.5 3t92.5 2.5t103.5 1.5t104 -0.5t95 -3q-26 -3 -52 -4.5t-47 -4.5t-34.5 -7.5t-13.5 -11.5
q-25 0 -40.5 -2.5t-24.5 -5.5q-11 -4 -17 -8h-37q-19 0 -48 -1t-67 -4q-3 3 -16 3t-28 -2.5t-28 -7.5t-15 -13q-21 -1 -42 -3t-42 -5q-24 -44 -53 -99t-54 -103l-58 -114q9 50 -2 49q-5 0 -13.5 -11.5t-24 -40.5t-38 -78.5t-54.5 -125.5l-47 -41q1 1 4.5 8l8.5 17t9.5 21
t7.5 20q3 11 3.5 19.5t-6 5t-21 -23t-41.5 -63t-67.5 -115.5t-97.5 -181q28 65 57.5 127.5t55.5 118t47 101.5t33 78t13 47t-13 9q19 30 44 72t53.5 89.5t59 97.5t59.5 95q-27 -5 -48.5 -10t-34.5 -8q-3 8 -8 10t-10 0zM599 565h-2q-1 0 -5 2q4 -2 7 -2z" />
    <glyph glyph-name="g" unicode="g" horiz-adv-x="388" 
d="M-14 90q10 0 15.5 4.5t7.5 12t2 16t-1 16.5q9 19 19 40t20.5 41.5t23 39.5t27.5 34q-2 -16 18 -2.5t52 45.5q16 16 37 28t40.5 19.5t35 10t20.5 -0.5q-1 -12 3.5 -25.5t21.5 -13.5q9 -13 16.5 -31t13.5 -30q-17 6 -44 -1.5t-57.5 -27.5t-61 -52.5t-53.5 -76.5
q-11 5 -18.5 -3t-5.5 -22q-6 -11 -13.5 -26t-15 -32t-15 -35t-13.5 -34q22 17 46 37.5t41 34.5q4 4 12 14t15.5 22t13.5 23t8 18q6 0 14.5 8t15.5 18.5t10.5 21t0.5 15.5h2q4 1 22 6t41 12t45.5 15t35.5 15q4 -19 23 -22q-12 -12 -35 -42t-52 -65q-14 -17 -20.5 -29
t-7 -19.5t2.5 -12t8 -6.5q-12 -15 -26.5 -36t-31 -45.5t-33.5 -51t-33 -51.5q-38 -59 -79 -124q-15 -6 -29 -12q-12 -5 -25 -11.5t-21 -13.5q5 7 14.5 22t20.5 33.5t22 38t19 36t11.5 27.5t0.5 12t-10 -4t-14.5 -11.5t-14.5 -14t-10 -10.5q2 3 11.5 18t23 36.5t29.5 46.5
t30 49q5 10 11 18.5t11 16.5q-26 -8 -51.5 -18t-47.5 -19t-37 -16t-18 -8l27 22q-7 12 -18 31t-22 37q-13 21 -27 44zM25 -45l1 1z" />
    <glyph glyph-name="h" unicode="h" horiz-adv-x="449" 
d="M209 612q25 -10 26.5 10.5t-20.5 55.5q4 -6 13 -17.5t20.5 -24t24.5 -23.5t25 -16q7 -3 16.5 -4t17.5 -1q10 0 20 1l-12 -18q-5 -8 -10.5 -15.5t-7.5 -12.5q-10 -19 -10 -28t5.5 -9t14 7.5t15.5 21.5l24 -12q-35 -51 -62 -95q-12 -19 -23.5 -38t-20.5 -36.5t-15.5 -31.5
t-7.5 -22q-20 -5 -42 -29t-41 -53q33 27 66.5 52.5t62.5 43.5q2 -6 17 -2t33 13t33.5 19.5t18.5 15.5q11 -11 11.5 -40t-1.5 -65q-11 -6 -16 -16t-5.5 -19t3 -15.5t9.5 -4.5q-1 -8 -0.5 -24t2 -33.5t4 -31t6.5 -15.5q6 -2 16.5 -0.5t23 7.5t24 15.5t19.5 23.5q6 -2 13 0.5
t13 7.5q7 4 14 12q-39 -51 -77 -91q-17 -17 -34.5 -32.5t-35.5 -27t-35 -17t-32 -2.5q-14 3 -22 16t-12 27.5t-6 27t-4 14.5q-3 2 -4 -3.5t-1 -14.5t1.5 -18t3.5 -14q-15 24 -13.5 57.5t8 65.5t12 57t-1.5 31q-13 3 -35 -8q-2 7 -14.5 0.5t-30.5 -20t-39 -32.5t-40 -37
l-2 -6q-1 -1 -3 -2t-3.5 -1.5t-3.5 -2.5l-24 -24q-19 -20 -46.5 -62t-66.5 -119q30 70 39.5 103.5t6.5 43.5t-15.5 4t-26.5 -15q-2 4 17.5 39.5t48.5 88.5t62.5 116t60.5 123t42.5 108.5t8.5 72.5zM215 678q-2 2 -4 6zM270 29l-2 2z" />
    <glyph glyph-name="i" unicode="i" horiz-adv-x="202" 
d="M544 629q4 -6 13.5 -11t18.5 -9q11 -4 23 -8q-1 -13 0 -24q1 -10 2 -18.5t5 -10.5q-19 -12 -23 -21q-2 -4 -1 -7.5t7 -6.5t18.5 -4.5t32.5 -1.5q-37 -7 -82.5 -17.5t-94 -23t-96.5 -26t-90 -25.5q25 -24 49.5 -47.5t44.5 -42t33.5 -31t15.5 -14.5q-3 2 -15 11.5t-30 24
t-41.5 32.5t-48.5 37q-22 -24 -44.5 -62.5t-43.5 -82.5t-39.5 -89t-32.5 -82.5t-23 -63t-10 -29.5q0 2 1 13t0 23t-5 21.5t-14 7.5q7 20 9 34t-4.5 8.5t-23 -37t-44.5 -103.5q-29 -72 -56.5 -137.5t-49.5 -116.5q-26 -59 -49 -111q21 63 47 131t45 126.5t27 98t-7 45.5
q7 8 16.5 18t15 20t4.5 20t-16 18q7 10 20 35.5t29 58.5t33 69t32 68t26 56t15 33q-1 -1 -2 -1h-1q11 10 0 11q-9 1 -41.5 -7.5t-105.5 -33.5q26 12 40 22.5t8 14.5t-36 0t-92 -21q43 16 75.5 27.5t55.5 20.5t37.5 14.5t22.5 9.5q7 3 7.5 6t-2 5.5t-6.5 4t-5 1.5q4 1 22.5 7
t46.5 15q-28 19 -49 32.5t-32 17.5q4 10 2 18.5t-6 14.5t-9 9.5t-6 4.5q2 -1 9 -3t16.5 -3.5t20 -1t18.5 3.5q-2 -5 0 -12.5t6.5 -13.5t11 -8.5t13.5 3.5q4 -7 15.5 -19.5t28.5 -29.5q34 11 70 23.5t65.5 23.5t47.5 19.5t16 11.5q-3 5 -23.5 3t-43.5 -7q-27 -6 -61 -15
q70 23 126 41q24 8 47.5 15.5t43 13.5t33 10.5t17.5 5.5zM183 387q3 -16 15 -15.5t20 11.5q30 1 59 8l-23 17zM154 378q2 0 4.5 1t5.5 2zM422 279l-2 1q1 -1 2 -1z" />
    <glyph glyph-name="j" unicode="j" horiz-adv-x="175" 
d="M17 615q27 -6 43.5 -7t25.5 1q11 2 15 5q19 -16 39 -33q17 -14 37 -31t39 -31q56 19 110.5 40t88.5 39q-10 -9 -6 -12.5t14 -2.5t22.5 5t19.5 10q-1 -9 9 -11.5t26.5 0t39 8.5t46.5 14q-9 -6 -28 -16t-39.5 -22.5t-40.5 -25t-31 -22.5t-10.5 -16.5t20.5 -5.5l-178 -42
q10 -12 27 -28t35.5 -33.5t38 -35t35.5 -31.5q-44 29 -72.5 49.5t-47.5 33t-31 18.5t-22 6q-1 -17 2.5 -29.5t14.5 -14.5q-13 -12 -31 -41.5t-38.5 -71t-42 -90t-42.5 -97.5q-49 -115 -102 -254q-15 -3 -31 -20t-32.5 -44.5t-34 -63.5t-34.5 -76q0 7 2.5 16.5t4 17.5
t1.5 13.5t-5 3.5q12 28 23.5 54t18.5 43.5t7 25t-10.5 -1t-34 -35.5t-63.5 -78q4 5 14.5 22t22.5 39.5t24.5 48t22 49t13.5 41t0 24.5q8 11 29 50.5t47.5 91.5t56 109.5t54 106t40.5 80t16 32.5l2 -2.5t6 0t10.5 11.5t16.5 32q5 -5 12.5 -0.5t15.5 15.5q-34 -8 -60.5 -15.5
t-40.5 -12.5q-2 8 -13 10.5t-24.5 2t-26 -2.5t-18.5 -3q3 1 9.5 4t12.5 6.5t10.5 8.5t4.5 10q-2 10 -12.5 11.5t-11.5 1.5q5 1 39.5 11.5t83.5 26.5q-12 4 -25.5 8t-22.5 11q-1 6 -4 15t-13.5 21t-31.5 26t-57 30zM33 423q1 0 2 1q-1 -1 -2 -1h-1h1z" />
    <glyph glyph-name="k" unicode="k" horiz-adv-x="384" 
d="M526 482q1 -6 -3 -21t-8 -31t-5.5 -28t4.5 -11q-13 -21 -41.5 -48t-63.5 -54q-1 9 -17.5 4t-35 -15t-32.5 -21.5t-10 -14.5q-8 -7 -18.5 -14.5t-19.5 -15.5q-11 -9 -22 -17q-1 -7 7 -23.5t20 -37t24.5 -41t21.5 -36.5q-11 -11 -13.5 -18.5t0.5 -12t8 -6t9 0.5l5 -5
q-5 -7 -3.5 -11.5t6 -6.5t10 -2t8.5 3q23 -21 50 -35.5t56 -19.5q-13 0 -29 -8t-33.5 -20.5t-35.5 -28t-35 -28.5q-6 4 -16.5 6t-21 0.5t-20 -6.5t-14.5 -14q-23 25 -37.5 45t-23.5 38t-14 36t-9 41q2 -2 8 -14t12.5 -25.5t13 -24t10.5 -8.5q2 1 -6 19.5t-20.5 46
t-26.5 59.5t-23 61q-14 -20 -29.5 -41t-31.5 -42t-30.5 -40t-26.5 -34q-5 10 -12.5 7.5t-15 -13t-14 -26.5t-7.5 -33q-8 15 -19.5 8t-23 -21t-20.5 -28.5t-11 -15.5q32 64 45 99.5t16 52.5q4 20 -2 24q36 62 62 113q11 22 21 43.5t16.5 40.5t8 33t-3.5 20q6 -2 18.5 13.5
t22 37.5t11 46.5t-14.5 41.5q1 2 1.5 5.5t1.5 6.5q1 4 1 7q22 -21 42 -39q17 -15 34.5 -27.5t26.5 -11.5q-2 -3 -2 -9t2.5 -12t7 -10t10.5 -3q-23 -48 -45.5 -84t-30.5 -56q16 10 44 29t62 43.5t72 54t74.5 60t68.5 62t55 61.5z" />
    <glyph glyph-name="l" unicode="l" horiz-adv-x="269" 
d="M-43 -82q5 6 3.5 13t-6.5 13.5t-13 11.5t-15 8q17 9 25 16t9.5 12.5t-1.5 9.5t-7 7q41 64 67.5 108.5t41.5 73t20.5 43t5.5 20.5q-1 13 -29 -13l127 204l46 81q-3 -9 -9 -24t-11 -30t-7 -27.5t4 -15.5q4 -2 17 6.5t33 32.5t47 65t60 103q-55 -123 -69.5 -192.5
t-3.5 -92.5q-15 -1 -27 -8t-19.5 -17t-9.5 -19.5t2 -15.5q-14 -21 -32 -57.5t-34.5 -71.5t-28.5 -60.5t-14 -26.5q-17 -2 -25 -11t-12 -18q6 -1 17 -1t22 6q13 7 21 15.5t12 16.5q4 9 6 17q39 11 82 22q37 9 84 19t96 17q-17 -9 -26.5 -15.5t-13 -11t-2.5 -7t4 -4.5
q-17 -4 -27.5 -10.5t-16.5 -13.5q-7 -8 -10 -16q-11 -2 -26 -6q-13 -4 -32 -11t-45 -18q-2 4 -8 4.5t-13 -1.5t-13.5 -5.5t-7.5 -6.5q-37 -13 -78.5 -33t-76.5 -39q-41 -22 -83 -46z" />
    <glyph glyph-name="m" unicode="m" horiz-adv-x="513" 
d="M197 -5q-11 11 -18 0.5t-11.5 -28t-7.5 -34.5t-4 -18q5 71 -3 106t-19 49q-13 16 -31 13q9 35 17 70q7 29 13.5 62.5t10.5 59.5q-21 -29 -41 -62t-39.5 -67.5t-37 -68.5t-32.5 -65q-36 -74 -67 -148q-15 -3 -31 -17.5t-32.5 -38.5t-34 -55t-34.5 -66q0 6 2.5 14t4 15
t1.5 11.5t-5 3.5q12 24 23.5 46t18.5 37.5t7 22t-10 0t-32 -28.5t-60 -64q10 13 27.5 41t33.5 58t26 55.5t4 33.5l280 377l2 -2t6 0t10.5 10t16.5 28q4 -4 8 -1q3 12 4.5 26.5t-0.5 28.5t-8 26t-18 19v5.5t-1 6.5q-1 4 -2 7q25 -12 47 -21q19 -8 36 -12.5t25 -0.5
q-1 -3 1 -9t5.5 -10.5t8.5 -6.5t10 1q-3 -45 -10.5 -85t-14.5 -69.5t-11.5 -47t0.5 -18.5q1 0 6.5 15t12.5 34t14 36t12 21q-10 -35 -20 -71q-8 -31 -18.5 -67.5t-19.5 -68.5l210 283q3 14 5 25t3 19q14 -43 26 -42t24 33q-1 -25 6.5 -27t27.5 8q10 5 30 11t40 11
q24 6 51 13q-32 -22 -57.5 -45.5t-48 -57t-44 -82t-44.5 -119.5q-9 -2 -14.5 -7.5t-4.5 -10.5t9.5 -7.5t28.5 1.5q-8 -25 -16.5 -54t-17.5 -58q-27 0 -53 -4q-23 -4 -47.5 -13.5t-43.5 -28.5q14 22 25.5 47t16.5 44t3 28t-15 1q19 48 41.5 109t41.5 117l-63 -127zM-261 -262
l3 3l3 3z" />
    <glyph glyph-name="n" unicode="n" horiz-adv-x="398" 
d="M211 12l-5 -6q2 40 1 75q-1 30 -4 59.5t-11 44.5q11 22 20 51t14 56q-31 -47 -62 -102t-58 -106.5t-46.5 -95.5t-26.5 -68q-3 49 -20.5 51.5t-36.5 -25.5q8 29 -1 33.5t-35 -0.5q1 6 -5 12t-13.5 11t-14.5 8.5t-8 4.5q24 12 43.5 32t41 51.5t48.5 77t67 109.5
q12 0 18 5.5t6 11.5t-8 10t-24 0q17 27 35 59t37 64q31 -8 64 -10q28 -2 60.5 2t61.5 21q-22 -22 -43.5 -38.5t-37.5 -31.5l3 -256q30 61 60.5 129t58 130.5t51.5 112.5t41 75q29 18 33 27t-2 13q-7 4 -26 4q17 23 38 48q18 21 41.5 45t50.5 47q35 -2 49 3t16 12q3 8 -5 18
q50 17 100 26q43 8 92.5 9t93.5 -14q-67 -22 -130 -61t-117.5 -85.5t-98.5 -94.5t-73.5 -86.5t-43 -63.5t-6.5 -25q-11 -19 -33.5 -53t-50 -79.5t-58 -100t-55.5 -114.5q-8 9 -32.5 -0.5t-57.5 -38.5z" />
    <glyph glyph-name="o" unicode="o" 
d="M447 278q-12 -67 -49 -130t-96 -108q-2 7 -13.5 1t-27 -16.5t-33.5 -22t-33 -15.5l16 -9l-4 -20q-30 4 -56 4q-22 0 -42.5 -4t-27.5 -16q-26 14 -43.5 34t-23.5 46q-10 44 1.5 85t29 73t33 52t13.5 23q-3 4 -16.5 -10.5t-30 -39.5t-32.5 -56t-23 -60q10 57 34.5 107.5
t62 92t87.5 72t112 45.5q-7 -13 -1.5 -12.5t27 8t61 18.5t100.5 19q-33 -12 -50 -23t-23.5 -20t-6 -16t3.5 -11q-9 0 -16.5 -4t-13.5 -9q-7 -5 -13 -12q20 -8 37 -14q14 -6 27 -11.5t18 -8.5q-10 -17 -2.5 -23.5t14.5 -8.5zM164 13q19 15 44 45t49.5 65.5t44.5 72t30 63.5
q14 12 17.5 26.5t0.5 24.5t-11 13t-17 -8q-20 12 -50 -2.5t-59 -45t-51 -72t-27 -84.5q-20 -6 -19.5 -19.5t17.5 -17.5q-8 -4 -7 -10t16 -7q5 -12 11 -26t11 -18z" />
    <glyph glyph-name="p" unicode="p" horiz-adv-x="426" 
d="M148 545q11 -18 23 -34q11 -14 23.5 -27.5t26.5 -18.5q6 -3 15 -4t17 -1q10 0 19 1q-7 -9 -12 -17q-5 -7 -10 -13.5t-7 -11.5q-9 -18 -9 -26t5 -8t13.5 7t14.5 20l23 -11l-10 -18q25 -2 50.5 -9t47 -18.5t36.5 -27t20 -34.5q-16 20 -28 28.5t-14 3.5q-1 -2 5.5 -8.5
t15 -18.5t16 -30.5t8.5 -44.5q2 -41 -22 -81t-70 -63q-1 14 -13.5 11t-33.5 -27q-60 -20 -128 -40.5t-131 -34.5q-25 -52 -62 -146l-48 -41q1 1 4.5 7.5t8 16t9 19.5t6.5 19q3 11 3.5 18.5t-5 4t-19 -22t-37.5 -60t-61 -110t-90 -171.5q25 61 51.5 120t50 111.5t43 96t30 73
t10 43.5t-15.5 7q-1 3 9.5 22.5t28 50t39.5 70t45 82t44.5 85.5t37 81t23 67.5t2.5 46.5q12 -5 16.5 -3t3 10t-6.5 23t-11 36zM102 41q3 31 -1 40q-2 4 -5.5 3.5t-10 -8.5t-16.5 -25t-23 -46q55 18 109 37.5t96.5 42t68.5 48.5t25 57q-1 24 -13.5 40.5t-30.5 26.5t-38.5 15
t-36.5 6z" />
    <glyph glyph-name="q" unicode="q" horiz-adv-x="436" 
d="M221 363q38 14 83 27t95 18q8 17 3.5 28t-32.5 16q3 1 27 8t55.5 17t63.5 22t50 23q3 -15 11 -22.5t19 -10.5q-8 -9 -20.5 -25t-27.5 -37t-32 -45.5t-36 -49.5t-27 -42.5t-9.5 -29t3 -18t11.5 -9.5q-15 -22 -35 -53t-41.5 -67t-44.5 -75t-45 -76q-51 -87 -106 -183
q-20 -8 -38 -17q-16 -8 -33.5 -17.5t-28.5 -19.5q7 11 19 31t25.5 44.5t27 50t23 46.5t13.5 35t0 16q-5 2 -14.5 -3.5t-18.5 -12.5q-11 -8 -23 -19q8 14 18 31q8 14 19 33.5t24 41.5q-41 -11 -79.5 -7.5t-68.5 17t-48.5 34.5t-19.5 45q-1 31 15.5 58.5t35 49t32.5 37t7 21.5
q38 33 80 56t68 33zM165 49q15 0 28.5 1t24.5 3l46 84q16 29 31.5 55.5t28.5 48.5q-5 6 -12 5t-14 -9q-32 6 -72.5 -6t-77.5 -32.5t-62 -44t-25 -41.5q0 -19 23.5 -30.5t57.5 -24.5q-42 7 -54.5 7t-5.5 -4t30 -8t53 -4z" />
    <glyph glyph-name="r" unicode="r" horiz-adv-x="450" 
d="M33 -35q-5 10 -13 7.5t-15.5 -13.5t-14 -27.5t-7.5 -33.5q-8 15 -20 8t-23.5 -21.5t-21 -29t-11.5 -15.5q32 66 45.5 102t16.5 53q4 20 -2 25q11 17 22 37q10 17 21.5 39t23.5 45q-41 2 -80.5 6.5t-79.5 10.5q36 -1 80 1t92 7q17 38 26.5 68.5t1.5 41.5q6 -2 18.5 14
t22.5 38.5t11.5 47.5t-14.5 42q1 2 1.5 6t1.5 7q1 4 1 7q6 -7 14 -14q6 -6 14.5 -13.5t17.5 -15.5l24 62q39 9 88.5 6.5t95 -13t79.5 -28t43 -40.5q-22 18 -39 25.5t-20 3.5q-1 -2 8 -8t21 -17t22.5 -27.5t12.5 -40.5q1 -19 -8.5 -39.5t-28 -40t-45 -36t-58.5 -27.5
q0 13 -18 11t-47 -25l-20 -5q5 -11 16 -27.5t23 -30t23 -20.5t16 2q2 -3 9 -15.5t21 -23.5t36.5 -14.5t54.5 10.5q5 -5 8 -7t11 -7q-16 -7 -43.5 -25t-56 -38t-52.5 -38.5t-33 -25.5q-43 38 -63.5 71.5t-34.5 55.5q12 14 2 15.5t-22 -12.5q-2 1 -6 11t-7.5 25t-5.5 34t1 38
q-15 -20 -32.5 -42.5t-36 -45t-36 -43.5t-31.5 -38zM385 282q-2 16 -17.5 27.5t-39 19t-52 10t-56.5 1.5q2 -8 7 -13.5t13 -3.5q-23 -48 -45.5 -85t-31.5 -57q46 8 87 18t71.5 23t47.5 28t16 32z" />
    <glyph glyph-name="s" unicode="s" horiz-adv-x="464" 
d="M443 229q-2 2 -5 6q-6 7 -8 17q6 21 -6.5 31t-32.5 8q1 6 -1.5 11t-6.5 8t-9 2t-8 -8q-24 -2 -54 -10.5t-60.5 -20t-59 -25.5t-50.5 -28q40 3 84 -1t87.5 -15.5t83.5 -30t72 -43.5q-3 -11 0.5 -21.5t16.5 -17.5q-17 -10 -28 -29.5t-13 -34.5q-6 3 -34 -5t-61.5 -20.5
t-64 -26t-41.5 -21.5q-3 3 -6.5 4t-6 -1.5t-2.5 -8.5t5 -17q-8 -5 -19 -11t-22 -17q-3 6 -23.5 12t-58 2t-92.5 -23t-128 -63q52 36 71.5 56.5t22 30t-5 9.5t-9.5 -6q-7 8 -17 7t-31 -14q31 31 63.5 53t68 40t76 33t88.5 32q-21 -11 -38 -21t-28 -18t-14.5 -12t3.5 -1
q12 4 35 17.5t54.5 28.5t71 29.5t85.5 21.5q-8 7 -29 13.5t-47.5 12t-55.5 9.5t-53.5 5t-40.5 -1.5t-16 -8.5q-10 1 -24 0t-29 -4t-29.5 -7t-26.5 -7q8 21 5.5 49.5t-6.5 51.5q8 7 9.5 17.5t-3.5 15.5q62 63 138.5 108.5t154.5 70.5q-17 -8 -42 -21.5t-48 -26.5t-38.5 -23.5
t-13.5 -13.5t17.5 5.5t42 23t64 32t84.5 31.5q13 4 32.5 7t37 6.5t28.5 7.5t8 10q20 5 37 8.5t31 5.5q16 3 29 5z" />
    <glyph glyph-name="t" unicode="t" horiz-adv-x="220" 
d="M108 441q-2 8 3.5 21t11.5 25q7 14 17 30h66q20 54 31 96t6 64q23 -9 23.5 13t-21.5 60q13 -20 26 -38q11 -15 24.5 -29t26.5 -20q6 -4 13.5 -5t15.5 -1q9 0 18 1q-6 -9 -11 -18q-5 -8 -9 -15.5t-6 -12.5q-9 -19 -9 -28t5 -9t12.5 7.5t13.5 21.5l21 -12l-32 -72
q47 1 94.5 2t86 2t65 2t31.5 2q-2 -4 30 -6t85 -4.5t120 -4.5t134 -5.5t127.5 -9.5t100.5 -14q-109 2 -207.5 5.5t-175.5 4t-128 -3.5t-64 -18q-18 23 -49 22.5t-79 -26.5q-9 10 -26.5 7.5t-39 -10t-45 -15.5t-43.5 -9q-7 5 -16.5 10t-26.5 9l-116 -262q5 50 -5 48
q-4 -1 -12 -13t-21.5 -41.5t-32.5 -80t-45 -128.5l-45 -46q1 1 4 8.5t7.5 17.5t8.5 21.5t6 20.5q3 12 2.5 20t-6.5 4.5t-19.5 -24t-37 -66t-58.5 -120t-84 -187.5q23 67 47.5 131.5t46.5 121.5t40 105t27.5 80.5t9.5 47.5t-14 8q-2 3 12.5 34t37 78t50 104.5t51.5 114.5
q-17 -3 -35.5 -7t-38.5 -9z" />
    <glyph glyph-name="u" unicode="u" 
d="M102 333q10 -1 27 1q14 2 37.5 7t58.5 18q-24 -29 -38 -49.5t-20 -34t-5 -20.5t7 -9q-5 -9 -11 -24t-13 -34t-14 -39.5t-14 -39.5q20 16 42 33.5t39.5 34t28.5 30.5t10 22q10 1 28.5 21t37 44t34 46t20.5 29q3 3 2 3q13 2 20 8.5t10 14.5q4 9 4 20q10 -6 21 -5
q10 0 23 6.5t27 24.5q6 8 9.5 9.5t5.5 0.5t3 -5l33 -2q-42 -78 -64.5 -125t-32 -72.5t-9 -32.5t5 -5.5t11 8l8.5 8.5l-100 -193l-36 -76q2 8 6.5 22t8 28t4 25.5t-4.5 14.5q-4 1 -15 -7.5t-27.5 -32t-38.5 -62.5t-47 -97q41 115 49 179t-3 85q14 1 24 8.5t16 17t7.5 18.5
t-2.5 14q6 11 12.5 25.5t14.5 31.5l-292 -306q0 10 -3 17q-3 6 -9 9t-19 -2q5 13 1.5 22.5t-9.5 16.5q-7 8 -17 13q8 13 10 22q2 8 -2.5 11t-21.5 -4q12 16 32.5 45t40.5 62.5t34.5 66.5t14 56t-21 32.5t-69.5 -4.5z" />
    <glyph glyph-name="v" unicode="v" horiz-adv-x="325" 
d="M199 674q-8 -135 3 -205t29 -88q-14 -6 -22.5 -17t-12 -22.5t-2.5 -21.5t7 -14q-6 -25 -10.5 -64.5t-7.5 -77.5q42 55 84.5 116t79.5 115t65.5 95t43.5 58q20 24 50 44.5t62 37t62 28t51 15.5q-4 -12 6.5 -12.5t31 3t49.5 8t61.5 3.5t67 -11.5t67.5 -36.5
q-38 3 -83.5 -4.5t-92 -21t-90.5 -31t-78 -34.5t-55 -32.5t-21 -23.5q1 -3 16 6.5t39 23t53.5 27t59.5 16.5q-68 -33 -126 -71t-99.5 -71t-62 -56t-13.5 -24q-13 -14 -37.5 -37.5t-56 -54t-67.5 -68.5t-72 -81q-1 -11 -1.5 -17.5t-1.5 -6.5q-14 -6 -18.5 -15.5t-5.5 -18.5
q-1 -11 2 -21q-13 3 -25 -1q-11 -4 -22 -15t-20 -34q-5 -11 -8.5 -14t-5.5 -2q-3 1 -5 5l-35 -8q20 96 29.5 153t11.5 86t-0.5 36t-7.5 3t-9.5 -12.5t-5.5 -10.5l47 235l15 92q1 -9 0.5 -25.5t0.5 -32.5t3.5 -28t8.5 -13q4 -1 13 12t19.5 42.5t21.5 77.5t20 117z" />
    <glyph glyph-name="w" unicode="w" horiz-adv-x="562" 
d="M211 684q-4 -67 -4 -106.5t3.5 -61.5t10.5 -31.5t17 -16.5q-12 -9 -20.5 -34t-13 -52t-5 -49.5t5.5 -26.5q-5 -23 -9 -58t-7 -70q35 54 63 103.5t48.5 88t31.5 63t13 27.5v1q3 0 25.5 6.5t52 19.5t59.5 32t48 45q-11 -29 -24 -53t-21.5 -44t-8.5 -35.5t15 -26.5
q-9 -59 -28.5 -121.5t-33.5 -125.5q39 57 78 118t72.5 115t59.5 95t40 59q19 24 47.5 46.5t59.5 41t60.5 31t49.5 17.5q-3 -12 7.5 -12t31 5t49 11t61.5 7t68 -7.5t69 -32.5q-38 1 -83.5 -9t-91 -26.5t-88.5 -36.5t-76 -39t-52.5 -35.5t-19.5 -24.5q1 -3 15.5 7.5t37.5 25.5
t52 29.5t58 19.5q-66 -36 -121.5 -77.5t-94.5 -76.5t-58.5 -59t-12.5 -25q-12 -15 -37.5 -40t-57.5 -58.5t-68.5 -74t-70.5 -86.5q-2 -26 -1 -49.5t7 -46.5q-7 4 -13 9t-11.5 6t-9 -4t-6.5 -20q-6 28 -28 31.5t-43 -12.5q-2 5 -7 3t-9.5 -6.5t-8.5 -10t-5 -6.5q5 22 10 44.5
t11 55.5t12 80t14 118q12 6 19.5 16t11 20.5t3 20.5t-4.5 15q-13 -16 -28.5 -38t-32 -47.5t-33 -52.5t-31.5 -53q-36 -61 -72 -128l-1 2q1 -1 1 -2q-13 3 -25 -1q-11 -4 -22 -15t-20 -34q-5 -11 -8 -14t-5 -2q-3 1 -5 5l-36 -8q12 49 19.5 86.5t11.5 64.5t4 45t-1 30
q-4 26 -16 28l29 147l27 143q1 -18 13.5 -23t21.5 2q3 3 10.5 11.5t17 31.5t19.5 65t19 111z" />
    <glyph glyph-name="x" unicode="x" horiz-adv-x="370" 
d="M195 118q-5 3 -20 -13.5t-37.5 -42.5t-50.5 -57t-58 -57q0 7 -4 10t-9.5 3t-10.5 -2.5t-7 -5.5q-2 11 -9 42t-15 65q-10 40 -21 86q4 0 8 1q6 1 11 5q7 -17 17.5 -26t20 -9.5t16.5 8t6 26.5q24 1 62 33.5t80 78.5q-29 70 -60.5 131.5t-66.5 104.5q18 -16 38 -40.5t37 -47
t29.5 -38.5t14.5 -14q2 1 -11 24t-34 58t-47.5 77t-52.5 81.5t-48.5 71t-36.5 45.5q16 -6 41 -21t48 -31q27 -18 57 -41q3 -18 7 -32q4 -12 11 -22.5t19 -12.5q-3 -9 1.5 -18t12.5 -15t17.5 -8.5t16.5 -0.5q12 -38 26 -88.5t29 -107.5q23 29 44.5 55.5t37.5 47.5
q18 25 34 47q10 -24 34 -31q10 -3 24 -3t32 6t41 18.5t52 33.5q0 -3 -13 -15t-24.5 -26.5t-15 -28.5t13.5 -21q-17 -4 -27.5 -14t-16.5 -21q-7 -13 -10 -28q-11 -6 -29 -23.5t-40.5 -42.5t-48 -54.5t-50.5 -59.5q16 -72 30.5 -141t24.5 -125.5t14.5 -95.5t1.5 -51
q-12 53 -28 115q-14 52 -33 119.5t-43 139.5q-23 -28 -42 -52t-34 -43q-18 -22 -32 -41q10 25 24.5 48t27.5 41.5t20.5 30.5t3.5 15z" />
    <glyph glyph-name="y" unicode="y" horiz-adv-x="426" 
d="M22 341l200 83q-4 -11 2 -15q5 -4 20 -3t49 15q-29 -36 -43 -56.5t-19.5 -33.5t-5 -23.5t0.5 -26.5q-8 -15 -18 -33.5t-20.5 -37.5t-20.5 -36.5t-17 -29.5l225 216q18 23 23.5 40.5t-14.5 25.5q34 7 66 14q27 6 54.5 14t44.5 16q0 -16 5 -24t14 -13q-16 -16 -46.5 -57
t-67.5 -87q-18 -23 -27 -39.5t-11.5 -27.5t0 -18.5t7.5 -11.5q-15 -20 -35 -52.5t-42 -72.5t-45.5 -84.5t-45.5 -87.5q-52 -101 -108 -217q-13 -9 -25 -18q-11 -8 -23 -17.5t-23 -17.5q7 10 22 39.5t33.5 68.5t37 81.5t32.5 78.5t21.5 60t3.5 26q-7 2 -21.5 -7t-28.5 -21
q-17 -14 -36 -34q15 31 33 64q15 29 35 64t41 70q26 45 39.5 73t15.5 44q-16 -20 -32.5 -40.5t-27.5 -28.5q-5 7 -17 0.5t-27 -20t-31.5 -31.5t-31 -34.5t-24.5 -29t-12 -14.5v-1q-5 1 -12 0q-6 -2 -14.5 -5.5t-18.5 -12.5q-2 9 -9 19t-15 18q-10 10 -21 19q6 10 9 19
q2 8 0 15t-13 10q34 60 58 101t29.5 65t-10.5 32t-61 2z" />
    <glyph glyph-name="z" unicode="z" horiz-adv-x="433" 
d="M69 274q17 21 32 46q13 20 25.5 46.5t18.5 53.5q28 13 61.5 23t62.5 16.5t50 10t23 3.5q-1 -1 -12 -3.5t-25 -7t-29.5 -9.5t-25.5 -10t-13.5 -9t6.5 -6q15 -3 45.5 8t73 23.5t95.5 21t112 0.5q-17 -19 -27.5 -40.5t-15 -41.5t-4.5 -37.5t5 -28.5q-34 -3 -72 -14.5
t-77 -28t-77 -36.5t-73 -40q-82 -48 -163 -106q62 22 123 38q52 14 109.5 24t101.5 6q-8 -5 -10.5 -14.5t-2 -20t4.5 -18t10 -7.5q-2 -8 1.5 -16.5t8.5 -18t10.5 -19.5t9.5 -20q-48 20 -83 26.5t-57.5 5.5t-33 -6.5t-10.5 -9.5q-38 2 -84 -8t-85 -23q-47 -16 -92 -36
q-4 18 -12 32q-7 12 -19 22.5t-32 10.5q40 37 75.5 62t61.5 41.5t40.5 25.5t14.5 13q0 3 -10.5 0t-24 -9t-28.5 -13.5t-24 -13.5q49 35 88 59.5t81.5 45.5t94.5 41t127 46q-15 5 -48 4t-68.5 -6t-65.5 -13t-40 -17q-15 9 -35 0.5t-38 -22.5q-21 -17 -43 -40z" />
    <glyph glyph-name="braceleft" unicode="{" horiz-adv-x="383" 
d="M87 -168q-94 32 -126 112q6 4 9.5 12t2.5 16t-6.5 12.5t-17.5 1.5q-7 63 4.5 123.5t37.5 117.5q-38 -5 -72 -12t-54 -15q26 14 33.5 23t5.5 15q-3 7 -14 11l46 73q29 -5 52 -11t42 -11q39 63 89.5 116.5t106 95t111.5 69.5t105 39q-3 -1 -17.5 -8.5t-35 -18.5t-43 -24
t-41 -25t-29 -21.5t-6.5 -14.5t29 9.5t64 36.5t88 46t100.5 38.5t102.5 14.5t94 -27l-258 -279q-20 2 -44 1t-54 -7q-41 -8 -72.5 -27.5t-57 -45t-47 -55t-40.5 -56.5q-23 8 -31.5 4.5t-10.5 -10.5q-2 -8 4 -21q-6 -7 -10 -14q-3 -6 -3 -13.5t8 -15.5q-14 -42 -14 -77
q0 -15 3 -30t10.5 -28t20.5 -22.5t33 -13.5z" />
    <glyph glyph-name="bar" unicode="|" horiz-adv-x="325" 
d="M157 420q13 16 32 51.5t34 83t22 101t-5 105.5q1 -4 6.5 -20.5t13.5 -36t18 -36.5t20 -20q-1 -40 2 -73t8 -56q-6 -9 -14.5 -30t-19 -49.5t-23.5 -61.5t-26 -65q-14 -33 -21 -60t-5 -37t13.5 4t34.5 63q-23 -61 -52.5 -132t-55.5 -134q-31 -73 -63 -145q-9 -5 -17 -16
q-7 -10 -14 -27t-12 -46q4 29 5 57t-1 43q-2 11 -5.5 8.5t-7.5 -11t-7 -17.5t-4 -11q0 3 6 30t16 70.5t23.5 99t28.5 114.5q6 2 16.5 21.5t22 48t22 61.5t16 60.5t5 45.5t-11.5 17zM240 761v3v-3z" />
    <glyph glyph-name="braceright" unicode="}" horiz-adv-x="474" 
d="M412 99q-5 1 -20.5 1t-38 -1.5t-50.5 -4t-57 -6.5q-27 -30 -51.5 -55t-43.5 -42q-22 -20 -41 -36q-7 4 -12 5t-9.5 -0.5t-6.5 -6.5q-18 8 -29.5 -6t-7.5 -34q-54 -31 -106 -49.5t-100.5 -25.5t-92 -3.5t-80.5 16.5l98 84q19 -4 44 -2t58 10q59 15 104 47.5t76 72.5t50 84
t26 83t3 69t-17 42q27 -16 34 -42.5t5 -52t-7.5 -44t-2.5 -18.5q6 0 13.5 12t12 31t4.5 41.5t-9.5 42.5t-30.5 35t-58 20l258 279q4 -2 7.5 -4.5t7.5 -5.5q44 -34 66 -72.5t27 -79.5t-4.5 -84t-28.5 -86t-46 -84t-56 -78q24 -5 25 8l102 -8q4 -3 10 -6q9 -6 27 -11
q-13 -4 -22 -9.5t-16 -11.5q-8 -7 -14 -14z" />
    <glyph glyph-name="asciitilde" unicode="~" horiz-adv-x="503" 
d="M50 297q7 6 20 12.5t29.5 12.5t35.5 9.5t37 3.5q46 0 57.5 2t3 4.5t-29.5 4.5t-39 1q47 11 83 6t71 -34q16 -13 26.5 -23t18.5 -13t16 2t18 22q2 -7 10.5 -8t26.5 16q-5 -16 3 -23t43 -14q-14 -2 -28 -12.5t-20.5 -21.5t-1.5 -18.5t29 -4.5q-63 -38 -118 -34t-97 57
q-22 27 -39 30.5t-31 -6.5t-26 -28.5t-24 -35.5q-2 8 -10 16.5t-19 16t-23.5 13.5t-21.5 9q9 3 13 10t3 13.5t-5 11t-11 3.5z" />
    <glyph glyph-name="exclamdown" unicode="&#xa1;" horiz-adv-x="424" 
d="M283 386q2 -4 6 -2q3 2 7.5 8.5t12.5 23.5q4 -4 9 -0.5t10.5 10t12 16t13.5 17.5q-3 -9 -5.5 -20.5t-2.5 -22t3 -18.5t10 -9q-9 -8 -20 -31t-22 -55.5t-21.5 -70.5t-20.5 -77q-24 -91 -47 -201q-15 -3 -27.5 -15.5t-20.5 -29.5q-6 12 -14 14.5t-19 -11.5t-15.5 -30
t-6.5 -32q-23 -3 -53 -14t-57.5 -23.5t-47.5 -23t-24 -11.5q28 21 48.5 47t34 53.5t21 53.5t9.5 46q31 28 35.5 52.5t-13.5 41.5l110 191q-15 -33 -20.5 -54t-3.5 -29t9 -2t17 27q5 11 2 26q20 31 37 58.5t29 49.5q14 25 25 47zM519 371q-19 9 -31 12t-18.5 3t-9.5 -1.5
t-3 -2.5q-2 2 -10 14t-19.5 29.5t-25 38t-25.5 38.5q-44 -14 -87 -30.5t-69 -33.5q8 9 5.5 13.5t-10.5 4.5t-17.5 -3t-14.5 -9q1 10 -6 14t-20 3t-30.5 -5t-36.5 -10q7 5 22 16t32 24.5t33 28t25 26.5t9 20.5t-15 10.5q26 5 59.5 11t68.5 12q-8 15 -18.5 33.5t-21.5 37.5
t-22 37.5t-20 33.5q25 -32 43 -55.5t31 -40t21.5 -26.5t15.5 -14q35 7 63.5 13t42.5 11q1 -11 10.5 -18t20.5 -11t20.5 -6t11.5 -2l-5 -2t-11 -6t-11 -9t-5 -12q1 -12 8 -14.5t8 -2.5q-3 -1 -30 -8.5t-65 -19.5q9 -6 18.5 -12.5t16.5 -14.5q0 -7 1.5 -17.5t8.5 -25t21.5 -33
t40.5 -40.5z" />
    <glyph glyph-name="cent" unicode="&#xa2;" horiz-adv-x="450" 
d="M484 399q-5 -12 -21 -37.5t-37.5 -57.5t-45 -66.5t-44 -63.5t-35 -49t-16.5 -23q1 2 10.5 18.5t21.5 38t22.5 43.5t13.5 34q4 15 -0.5 17t-12.5 -2t-16.5 -11t-13.5 -11q-6 18 -22 20l-13 -21q-15 -25 -22.5 -45.5t-6 -28t14 3t38.5 48.5q-22 -42 -50 -89.5t-54 -91.5
q16 -2 32.5 -3.5t33.5 -3.5q-44 -8 -76 -9q-16 -25 -29 -45.5t-23 -36.5q-11 -18 -21 -34q-10 -3 -19 -12q-8 -8 -15.5 -21.5t-12.5 -35.5q4 22 5.5 44t-1.5 34q-2 8 -5.5 6t-8 -8t-8 -13l-4.5 -9q1 3 12.5 40t29.5 91q-35 4 -55 13t-31 17t-16.5 14t-10.5 4q-8 -3 2 -12
t24 -19q17 -11 41 -25q-33 6 -59 20q-22 12 -40 34t-18 57q0 34 17 65t42.5 57.5t56.5 47.5t59 36t49 22.5t28 6.5q10 -2 18.5 -0.5t13 5.5t4.5 8.5t-7 8.5l54 12q12 19 21.5 42t15.5 47t6 49.5t-8 49.5q1 -3 7 -15.5t14.5 -27.5t19.5 -28t22 -15q-1 -26 0.5 -47t6.5 -38
q30 3 61 4t61 -3zM8 112q1 -26 25.5 -42.5t63.5 -27.5q6 19 12.5 37t14.5 38q5 1 13 10t17 23.5t19 32.5t18 37q-29 -8 -61.5 -19t-60 -24.5t-45 -30t-16.5 -34.5zM292 569v2v-2z" />
    <glyph glyph-name="sterling" unicode="&#xa3;" horiz-adv-x="607" 
d="M-15 182q7 -1 30.5 3.5t58.5 12.5l68 148q-1 -4 -4.5 -16.5t-6.5 -27t-5.5 -26.5t-1.5 -15t6.5 7.5t18.5 41.5q7 17 14.5 41t15 49.5t14 50t11.5 42.5q12 -7 23 0.5t20 18.5q10 13 19 32l127 39q-4 -31 9 -43q5 -5 14.5 -7t25 3t37 17.5t51.5 35.5q-23 -31 -60.5 -85.5
t-82.5 -120.5q7 17 12 32.5t2 17t-18 -18.5t-48 -74q-13 -21 -25.5 -42t-24.5 -42q55 17 102.5 34.5t74.5 34.5q-39 -28 -48.5 -43t-4.5 -23q5 -9 25 -11l-55 -117q-49 -2 -89 0.5t-71 4.5q-26 -48 -45.5 -86.5t-33.5 -66.5q14 -1 37 4t63 21q39 15 44 19t-5 2.5t-26 -6
t-20 -5.5q5 2 30.5 13t61.5 26.5t78 34t81 36.5q0 -6 7.5 -9.5t16.5 -5.5q11 -3 25 -4l-14 -72q-16 -6 -24 -12q-7 -5 -7 -10.5t18 -10.5q-45 -4 -80.5 -10.5t-57.5 -13.5t-28 -12.5t8 -6.5l-348 -95l-18 -19q4 21 4.5 39t-0.5 32q-1 16 -3 30l58 162l-67 -6q-8 3 -18 6
q-8 2 -19 4t-25 3q19 8 32.5 19.5t22.5 21.5q11 11 18 24zM233 18h-1h1z" />
    <glyph glyph-name="currency" unicode="&#xa4;" horiz-adv-x="565" 
d="M123 63q-19 8 -28 17l-13 -10q-4 8 -5 9t-5.5 -5t-14 -18.5t-29.5 -31.5l-56 51q6 8 5 15q-1 6 -9 12t-31 9q27 0 65.5 9t68.5 20q0 18 6 37.5t15 37.5t19.5 34.5t19.5 29.5q-12 10 -29 21t-35.5 21t-37.5 16.5t-34 6.5q24 2 36.5 8.5t17.5 12.5q6 7 6 15l93 51
q7 -19 9.5 -37t4.5 -30.5t5.5 -17t12.5 3.5l7 -12q25 18 52.5 27.5t52.5 10t46 -7t33 -23.5q11 4 31.5 26t51.5 51l57 -51q-6 -8 -5 -15q1 -6 9 -12.5t31 -8.5q-13 0 -32.5 -4t-41 -10.5t-44 -15t-42.5 -16.5q-1 -38 -21 -79t-49 -73q13 -10 29.5 -20.5t34.5 -19.5t35.5 -15
t31.5 -6q-24 -3 -36.5 -9t-17.5 -12q-6 -7 -6 -15l-93 -51q-7 19 -9.5 37t-4.5 30.5t-5.5 17t-12.5 -3.5l-10 15l-6 -3l6 4l-5 8q-13 -9 -28.5 -18t-31.5 -14t-32.5 -5.5t-31.5 6.5zM259 198q-2 -1 0.5 5.5t5.5 15.5t4 18.5t-4 15.5t-17.5 6t-36.5 -9q-15 -5 -26 -16.5
t-18.5 -24t-11.5 -23.5t-5 -16t0.5 -13.5t8 -15.5t18 -9t31.5 7q17 8 28 17.5t16 24.5q5 1 8.5 6.5t-1.5 10.5z" />
    <glyph glyph-name="yen" unicode="&#xa5;" horiz-adv-x="617" 
d="M154 235q7 -3 37 -1l-38 175q1 -4 5.5 -18t10.5 -32.5t12.5 -39t13 -38t12 -28.5t8.5 -10q2 0 -1.5 17t-11 42.5t-16.5 57t-18 60.5t-16 53t-9 35q10 4 30 13.5t39 19t33 18t13 10.5q-2 2 -20 -4.5t-38 -15.5q16 9 37.5 20t45.5 22.5t48.5 22.5t47.5 20
q-23 -15 -35.5 -28.5t-18.5 -24.5t-7 -20.5t1 -16.5q-11 -3 -13.5 -15.5t8.5 -18.5q-6 -8 -3 -17.5t14 -9.5q-2 -18 -3.5 -44t-3.5 -50q-2 -28 -4 -58l122 219q-12 -29 -21 -52q-4 -10 -7 -19t-5.5 -16t-2.5 -11t2 -4q5 1 19 27t29 57q18 36 39 82q20 -1 38 3q16 3 33 9.5
t31 18.5q-13 -29 -17 -47t7 -29q5 -6 18.5 3t27.5 23q16 16 35 38q2 -6 6 -11q3 -5 9 -8.5t16 -2.5q-26 -26 -57 -57.5t-57 -60.5q-31 -33 -62 -67q-10 -5 -17 -10q-6 -5 -10.5 -12t-2.5 -16q-9 -10 -23 -26t-29.5 -35t-32 -38.5t-30.5 -37.5q45 6 84 14t62 17
q-6 -35 -20.5 -56t-29.5 -33q-18 -14 -37 -20l13 -22q-38 5 -70 12t-64 12l-50 -55q51 -5 96.5 -6t72.5 4q-35 -8 -45 -15.5t-9 -14.5q1 -8 14 -15l-69 -64q-36 13 -65.5 25.5t-51.5 22.5l-189 -210q17 29 28 53q9 20 12 37.5t-10 20.5q21 11 18.5 18.5t-9.5 14.5
q14 16 30.5 38t31.5 45l-85 23q-6 5 -12 9q-5 4 -12.5 8.5t-16.5 9.5q15 0 27.5 3.5t21.5 8.5q11 5 19 12q6 -3 31.5 -7t62.5 -9q2 5 4.5 8.5t4.5 6.5l3 6q12 3 21 7q8 4 14 9.5t6 14.5q-29 -2 -62 -6q-6 10 -13 18q-6 7 -14 13.5t-18 9.5q14 4 25 7t18 5q8 3 14 4zM153 409
v2v-2z" />
    <glyph glyph-name="brokenbar" unicode="&#xa6;" horiz-adv-x="366" 
d="M207 265q-7 -23 -8.5 -37.5t3 -15.5t15.5 15.5t30 55.5q-23 -61 -52.5 -132t-55.5 -134q-31 -73 -63 -145q-9 -5 -17 -16q-7 -10 -14 -27t-12 -46q4 29 5 57t-1 43q-2 11 -5.5 8.5t-7.5 -11t-7 -17.5t-4 -11q0 3 6 30t16 70.5t23.5 99t28.5 114.5q4 1 10.5 11.5t14.5 27
t16 37.5t16 44zM173 359q8 25 14.5 49.5t9 43.5t0.5 30.5t-11 10.5q13 16 32 51.5t34 83t22 101t-5 105.5q1 -4 6.5 -20.5t13.5 -36t18 -36.5t20 -20q-1 -40 2 -73t8 -56q-6 -9 -14.5 -30t-19 -49.5t-23.5 -61.5t-26 -65q-5 -13 -10 -25t-8 -23zM269 834v3v-3z" />
    <glyph glyph-name="section" unicode="&#xa7;" horiz-adv-x="606" 
d="M-9 263q32 32 63 56l-4 30q8 7 9.5 17.5t-3.5 15.5q62 63 138.5 108.5t154.5 70.5q-17 -8 -42 -21.5t-48 -26.5t-38.5 -23.5t-13.5 -13.5t17.5 5.5t42 23t64 32t84.5 31.5q13 4 32.5 7t37 6.5t28.5 7.5t8 10q20 5 37 8.5t31 5.5q16 3 29 5l-160 -270q-2 2 -5 6
q-6 7 -8 17q6 21 -6.5 31t-32.5 8q1 6 -1.5 11t-6.5 8t-9 2t-8 -8q-24 -2 -54 -10.5t-60.5 -20t-59 -25.5t-50.5 -28q40 3 84 -1t87.5 -15.5t83.5 -30t72 -43.5q-3 -11 0.5 -21.5t16.5 -17.5q-17 -10 -28 -29.5t-13 -34.5q-4 2 -17.5 -0.5t-32.5 -8.5l9 -7q-3 -11 0.5 -21.5
t16.5 -17.5q-17 -10 -28 -29.5t-13 -34.5q-6 3 -34 -5t-61.5 -20.5t-64 -26t-41.5 -21.5q-3 3 -6.5 4t-6 -1.5t-2.5 -8.5t5 -17q-8 -5 -19 -11t-22 -17q-3 6 -23.5 12t-58 2t-92.5 -23t-128 -63q52 36 71.5 56.5t22 30t-5 9.5t-9.5 -6q-7 8 -17 7t-31 -14q31 31 63.5 53
t68 40t76 33t88.5 32q-21 -11 -38 -21t-28 -18t-14.5 -12t3.5 -1q12 4 35 17.5t54.5 28.5t71 29.5t85.5 21.5q-8 7 -29 13.5t-47.5 12t-55.5 9.5t-53.5 5t-40.5 -1.5t-16 -8.5q-10 1 -24 0t-29 -4t-29.5 -7t-26.5 -7q8 21 5.5 49.5t-6.5 51.5q8 7 9.5 17.5t-3.5 15.5z
M92 220q43 4 90.5 -1.5t94.5 -19.5q27 12 58.5 22t66.5 15q-8 7 -30.5 14t-50.5 12.5t-58 9.5t-54 4q-32 -12 -63 -26.5t-54 -29.5z" />
    <glyph glyph-name="dieresis" unicode="&#xa8;" horiz-adv-x="444" 
d="M405 672l-88 -91q6 20 -3 19q-4 0 -11 -5t-19 -17t-29 -33t-41 -52q4 25 0 36t-13.5 13t-24 -2.5t-30.5 -10.5q28 34 45.5 61.5t29.5 52.5l-153 -154q-6 8 -12 12q-5 4 -12 6t-14 -3q3 17 10 38t12.5 38t5.5 27.5t-11 6.5q44 52 52.5 91.5t-10.5 81.5l149 -107
q8 20 15.5 39t17.5 39z" />
    <glyph glyph-name="copyright" unicode="&#xa9;" horiz-adv-x="833" 
d="M213 -143q-37 11 -63 28.5t-45 39.5q7 12 5 27t-20 17q0 3 -0.5 7.5t-2 8.5t-6 6.5t-11.5 0.5q-11 36 -10 76.5t9.5 81.5t23.5 82t32 78q40 87 99 175q7 -1 12 0t9 3t4 7q10 -1 16 3t9 10.5t2 14.5t-5 16q64 66 139 103.5t145.5 46.5t128.5 -12.5t88 -74.5
q28 -50 32 -112t-11 -128t-44.5 -131t-68 -122t-82.5 -101t-87 -67q2 2 13.5 12.5t27 25t32 31t29.5 31.5t19.5 26t1.5 14t-24.5 -17t-50 -50t-70 -64.5t-84.5 -60t-94 -37t-98 4.5zM474 121q15 31 26 59q10 24 19 48.5t12 38.5q3 16 -0.5 18.5t-10 -2t-14 -12.5t-11.5 -12
q-6 24 -21 22t-26 -18q-15 -2 -49 -13t-69 -28.5t-61 -40.5t-25 -49q1 -27 19 -44.5t47.5 -28.5t66.5 -17.5t77 -11.5q-55 -11 -92.5 -12t-63 4.5t-40.5 14.5t-23.5 17.5t-12.5 14t-8 3.5q-6 -3 2 -13t20 -21q14 -12 34 -27q-28 6 -49 22q-18 13 -33 37t-15 62q0 37 14 70.5
t35.5 62.5t47 52t48.5 39t40.5 24t23.5 7q17 -4 26 5.5t-2 18.5q15 4 37.5 10.5t48.5 12.5t55 10t58 3q-9 29 -23 48.5t-30 26.5q35 -7 55 -29t29 -49h3q-1 -1 -1 -4q6 -17 8.5 -34t4 -30t2.5 -20.5t4 -7.5q8 3 12.5 26.5t-1 53.5t-23.5 59.5t-53 44.5t-89.5 8.5
t-134.5 -48.5q-43 -22 -76.5 -56t-58.5 -73.5t-43 -81t-29.5 -78.5t-17.5 -66t-7 -44t3.5 -38t16.5 -46t32.5 -42t51.5 -25.5t73.5 2.5t98.5 42q76 46 119.5 93.5t64.5 113.5q10 6 20 16.5t14.5 23t2.5 24t-15 19.5q4 32 3.5 61.5t-4.5 56.5q-17 -36 -41 -83t-47 -89
q-26 -49 -55 -101zM510 -60q0 1 1 1z" />
    <glyph glyph-name="ordfeminine" unicode="&#xaa;" horiz-adv-x="394" 
d="M410 667q9 -8 20 -12q9 -4 21.5 -6.5t28.5 0.5q-20 -14 -39 -33q19 3 40 7t32 6q-5 -17 -2 -25.5t11 -9.5t19.5 5.5t23.5 20.5q-7 -22 -17.5 -57t-22 -75.5t-22.5 -82.5t-19 -78t-12 -63.5t-1 -37.5q-9 10 -20 5t-23 -19t-23.5 -33.5t-21 -39t-16.5 -36.5t-10 -25
q16 95 7 128t-33 -1q-8 8 -24 9t-32 -2q-18 -4 -40 -11q48 35 75 75t45 92q-15 7 -37.5 6.5t-42.5 -11.5q-27 -30 -58.5 -66t-58 -67t-45 -52.5t-20.5 -24.5q0 1 1.5 10.5t0.5 17.5t-6.5 8.5t-18.5 -15.5q-14 -17 -38.5 -47t-48.5 -59q-28 -34 -60 -71q-2 11 -14 6
q-5 -2 -13 -8t-19.5 -18t-27 -30t-36.5 -45q2 11 31 52t74 100.5t101.5 130.5t113.5 143q-25 -5 -58 -15t-71 -27q29 17 47.5 32.5t30.5 27.5q13 13 22 25q10 1 21 3q10 2 23 4t29 4q47 57 89 109t74 91q38 46 70 85zM291 401q26 5 47 8.5t31 5.5q9 34 17 73t18 86
q-19 -23 -37 -47.5t-33 -47.5t-26 -43.5t-17 -34.5z" />
    <glyph glyph-name="guillemotleft" unicode="&#xab;" horiz-adv-x="752" 
d="M-120 264q41 3 84 20.5t84 43.5t80 58t73 63t61 58.5t45 45.5q14 20 12.5 32t-3.5 16l150 -143l-313 -212q33 -16 69.5 -33.5t81.5 -40.5q-23 9 -27.5 5.5t1.5 -14t18.5 -25.5t23.5 -29q-11 2 -19.5 -0.5t-13.5 -7.5q-6 -5 -11 -14l-216 96l9 40q-14 -2 -28 -5
q-12 -2 -25.5 -6t-25.5 -8q2 3 4 9zM180 254q41 3 84 20.5t84 43.5t80 58t73 63t61 58.5t45 45.5q14 20 12.5 32t-3.5 16l150 -143l-313 -212q33 -16 69.5 -33.5t81.5 -40.5q-23 9 -27.5 5.5t1.5 -14t18.5 -25.5t23.5 -29q-11 2 -19.5 -0.5t-13.5 -7.5q-6 -5 -11 -14
l-216 96l9 40q-14 -2 -28 -5q-12 -2 -25.5 -6t-25.5 -8q2 3 4 9z" />
    <glyph glyph-name="logicalnot" unicode="&#xac;" horiz-adv-x="404" 
d="M133 132q13 21 28 37.5t25.5 28.5t11.5 19t-15 9l2 6q-32 -4 -69.5 -10.5t-73 -15t-66 -19t-48.5 -22.5q30 24 38 40t6 26q-3 11 -16 19l52 128q38 -10 69.5 -23t53.5 -21t34.5 -8.5t12.5 15.5l116 -14q6 -6 12 -11q5 -5 12.5 -9.5t17.5 -8.5q-14 -7 -25.5 -17.5
t-19.5 -21.5q-2 -14 0 -41t8 -57.5t15.5 -59t23.5 -44.5q-22 20 -37 27.5t-25 7.5q-11 0 -20 -7l-123 47v0z" />
    <glyph glyph-name="uni00AD" unicode="&#xad;" horiz-adv-x="404" 
d="M352 205q-5 2 -25.5 1t-49.5 -4t-63.5 -8.5t-67 -13t-61 -16.5t-45.5 -19q27 20 34.5 34t5.5 22q-3 10 -14 16l46 108q34 -8 62 -19t48 -18t31 -7t11 13l103 -12q5 -5 10 -9t11.5 -8.5t15.5 -8.5q-13 -5 -22.5 -13.5t-16.5 -16.5q-8 -10 -13 -21z" />
    <glyph glyph-name="registered" unicode="&#xae;" horiz-adv-x="833" 
d="M213 -143q-37 11 -63 28.5t-45 39.5q7 12 5 27t-20 17q0 3 -0.5 7.5t-2 8.5t-6 6.5t-11.5 0.5q-11 36 -10 76.5t9.5 81.5t23.5 82t32 78q40 87 99 175q7 -1 12 0t9 3t4 7q10 -1 16 3t9 10.5t2 14.5t-5 16q64 66 139 103.5t145.5 46.5t128.5 -12.5t88 -74.5
q28 -50 32 -112t-11 -128t-44.5 -131t-68 -122t-82.5 -101t-87 -67q2 2 13.5 12.5t27 25t32 31t29.5 31.5t19.5 26t1.5 14t-24.5 -17t-50 -50t-70 -64.5t-84.5 -60t-94 -37t-98 4.5zM657 348q8 3 12.5 26.5t-1 53.5t-23.5 59.5t-53 44.5t-89.5 8.5t-134.5 -48.5
q-42 -22 -75 -55t-58.5 -72t-43 -79.5t-29.5 -77.5q17 1 35 2t36 3q14 29 21 53.5t0 32.5q5 -1 14.5 11t17 29.5t8.5 37t-11 32.5q1 2 2 5t1 5v6q5 -6 11 -11l11 -11t14 -12l18 49q30 6 67.5 4.5t72 -9.5t60.5 -22t33 -32q-17 14 -30 20t-15 3q-1 -2 6 -6.5t16 -13t17 -21.5
t10 -31q1 -15 -6 -31t-21.5 -31t-34.5 -28t-45 -22q0 11 -13.5 9t-35.5 -20l-15 -4q4 -9 12 -21.5t17.5 -23t17.5 -15.5t12 2q1 -3 6.5 -12.5t16.5 -18t28 -11.5t41 8v-1q13 18 22 38t17 43q10 6 20 16.5t14.5 23t2.5 24t-15 19.5q6 45 3 86.5t-12.5 74.5t-24 55.5
t-32.5 29.5q28 -5 45.5 -20t28.5 -34.5t16 -41t7.5 -39t3.5 -29t4 -10.5zM223 57q-4 8 -10 6t-12 -10.5t-10.5 -21.5t-5.5 -26q-5 9 -11.5 7.5t-14.5 -9.5q13 -22 33.5 -39t51.5 -23t72.5 3.5t95.5 41.5q74 44 117 91q-14 -10 -29.5 -21t-29 -21.5t-24.5 -18.5t-15 -12
q-33 29 -48.5 55t-26.5 43q9 11 1.5 12.5t-16.5 -9.5q-2 1 -5 8.5t-5.5 19t-4.5 25.5t0 29q-23 -31 -52.5 -67.5t-50.5 -62.5zM492 304q-1 12 -13 21t-30 14.5t-40 7.5t-43 1q2 -5 5.5 -9.5t9.5 -3.5q-18 -38 -35 -66t-24 -44q35 6 66.5 14t54.5 17.5t36.5 21.5t12.5 26z
M136 93q-1 -14 2.5 -35t14.5 -43q13 30 17.5 47.5t5.5 25.5q1 10 -3 12q7 13 16 28q8 13 17 30t18 35q-34 2 -65 6q-11 -36 -16.5 -64t-6.5 -42zM510 -60q0 1 1 1z" />
    <glyph glyph-name="macron" unicode="&#xaf;" horiz-adv-x="426" 
d="M366 539q-6 2 -31 0t-60 -6t-76.5 -9.5t-81.5 -13t-74 -16t-54 -16.5q32 17 40.5 27t5.5 17q-4 7 -18 12l52 83q42 -5 76.5 -11.5t58.5 -11t37.5 -4t13.5 10.5l126 -4q6 -3 13 -6q13 -7 34 -11q-15 -5 -26.5 -11.5t-19.5 -13.5q-10 -8 -16 -16z" />
    <glyph glyph-name="degree" unicode="&#xb0;" horiz-adv-x="436" 
d="M92 363q-17 8 -28 17.5t-19 20.5q5 5 5 11.5t-8 8.5q0 3 -0.5 8t-8.5 4q-6 35 8.5 73.5t34.5 71.5q23 39 55 76q3 -1 6 -1q6 0 7 4q9 -2 12.5 5t-0.5 16q33 27 70.5 40t70.5 13t59 -13.5t37 -39.5q16 -37 5 -83t-36.5 -88.5t-60 -75.5t-66.5 -45q20 14 35 26q13 11 23 20
t7 12q-2 2 -12.5 -6.5t-26 -21t-36 -26t-42.5 -23t-45.5 -12t-45.5 7.5zM252 522q-2 -1 0.5 6.5l6 18t4.5 22t-4.5 18.5t-20.5 7t-43 -11q-18 -6 -31 -19.5t-21.5 -28t-13 -27.5t-5.5 -19q-2 -6 0 -16t9.5 -18t21.5 -10t37 8q20 9 32.5 20t18.5 29q7 1 11 8t-2 12z" />
    <glyph glyph-name="plusminus" unicode="&#xb1;" horiz-adv-x="401" 
d="M316 243q-7 2 -41 1t-80 -5q-25 -36 -47 -68.5t-39 -58.5q-20 -30 -37 -56q12 24 19.5 47.5t6.5 36.5t-11 9.5t-33 -33.5q5 20 3.5 27.5t-5.5 9.5t-11 -2q0 5 5 14t12 19.5t15.5 21.5t16.5 22q-42 -5 -76.5 -11.5t-52.5 -14.5q26 14 33.5 23t5.5 15q-3 7 -14 11l46 73
q26 -5 48.5 -10.5t40.5 -10.5q10 15 18.5 27.5t10 22t-4.5 16t-24 9.5q35 9 67 20q27 9 54.5 19.5t43.5 19.5q3 -12 10 -18.5t16 -8.5q-8 -5 -21 -16.5t-28 -26.5t-29.5 -32.5t-26.5 -33.5l124 -6q4 -3 10 -6q9 -6 27 -11q-13 -4 -22 -9.5t-16 -11.5q-8 -7 -14 -14zM175 -66
q-5 1 -28.5 0.5t-57.5 -2.5t-74 -6t-77.5 -9t-69 -11t-48.5 -13q26 14 33.5 23t5.5 15q-3 7 -14 11l46 73q34 -6 61.5 -13t47 -12t30.5 -5t11 9l149 -8q4 -3 10 -6q9 -6 27 -11q-13 -4 -22 -9.5t-16 -11.5q-8 -7 -14 -14z" />
    <glyph glyph-name="twosuperior" unicode="&#xb2;" horiz-adv-x="593" 
d="M809 623q-35 -42 -92.5 -78.5t-123.5 -68t-134.5 -59.5t-126 -53t-98.5 -47.5t-51 -42.5q81 28 158 48q33 9 68.5 17t71 13.5t68.5 8t61 0.5q-9 -6 -13 -19t-3 -26t6 -23t13 -10q-2 -9 2 -20.5t10.5 -23.5t13.5 -24.5t12 -25.5q-61 26 -105.5 34.5t-73 7t-42.5 -9
t-14 -12.5q-50 3 -108 -9.5t-109 -29.5q-59 -19 -118 -46q-4 23 -15 41q-9 16 -24.5 29t-40.5 13q52 47 95.5 76.5t75 47.5t48.5 27t17 14q0 4 -11.5 2.5t-27.5 -6t-33 -11.5t-29 -14q41 30 100 56.5t122 50.5t124.5 46t108.5 43t73.5 41.5t19.5 41.5q-5 15 -29 17.5
t-58.5 -3.5t-73.5 -17.5t-74.5 -24.5t-62 -26t-34.5 -20q-20 11 -45 0t-48 -29q-27 -21 -55 -51l-16 18q22 28 41 59q17 26 32.5 59.5t23.5 68.5q21 17 49 33t58 31t59 28t53 23t39.5 16t17.5 7q-2 -1 -18 -8.5t-37.5 -18.5t-45 -23.5t-41.5 -23.5t-27.5 -19t-1.5 -10
q4 -1 35 11.5t76 30.5t98.5 35.5t102.5 26t87 3t52 -33.5q14 -35 9 -68q-3 -4 -7.5 -13t-1.5 -26q-2 -5 -4 -8.5t-5 -8.5q-10 -5 -17.5 -12.5t-5.5 -21.5z" />
    <glyph glyph-name="threesuperior" unicode="&#xb3;" horiz-adv-x="625" 
d="M383 494q12 0 27 -1q12 -1 28.5 -2t35.5 -4q-23 -14 -39 -24t-17 -11l-104 4l-28 1q40 26 79 46.5t84.5 40.5t101 40.5t129.5 46.5q-13 4 -36.5 5t-52 -1t-59 -6.5t-57.5 -10.5t-47.5 -13.5t-28.5 -14.5q-20 11 -47.5 3t-53.5 -22q-30 -17 -62 -42q22 27 41 58
q17 26 32.5 59.5t23.5 68.5q35 16 77.5 28.5t80 21t63.5 13t29 4.5q-2 -1 -15.5 -5t-32 -9.5t-37.5 -12t-32.5 -12.5t-17.5 -11t9 -7q19 -4 58 10t93 30t121 26t142 0q-3 -3 -8.5 -16t-10.5 -28q-6 -18 -12 -38q-15 -4 -27 -8q-11 -4 -19.5 -9t-9.5 -11q0 -5 14 -5.5t33.5 1
t39 4t30.5 4.5q-9 -2 -28.5 -7t-39 -11.5t-34.5 -14t-16 -14.5q-1 -3 4 -5.5t12.5 -4t15 -2.5t11.5 -3q-22 -6 -51 -16t-59.5 -22.5t-61.5 -26t-56.5 -25.5t-44.5 -21.5t-26 -13.5q20 17 38 28t31 18l19.5 10.5t4.5 5.5q-3 3 -18.5 -3t-36.5 -17.5t-45.5 -25.5t-45.5 -27
q38 -6 79.5 -19t70.5 -38t37 -65t-20 -99q-20 -41 -53.5 -70t-74.5 -46q-7 2 -12.5 1t-10.5 -3q-5 -3 -11 -7l-10 6q-9 5 -25 3q-9 -2 -16 -11t-12 -14q-49 -6 -98.5 -0.5t-90 21t-70 40t-39 57.5t4 73t58.5 86q-2 -11 4.5 -28.5t16 -33t19 -26t14.5 -7.5q2 1 -0.5 5
t-7.5 11t-11 18.5t-10 27.5q13 -22 42 -41.5t65.5 -33.5t77 -21t76.5 -4t64.5 17t40.5 43q9 20 3 37.5t-17 26.5q2 15 -0.5 20.5t-7 7t-10 -0.5t-8.5 -2q-1 5 -7 7.5t-13.5 3.5t-14.5 1h-11q-32 9 -67.5 14.5t-64.5 8.5q-34 4 -68 4zM909 687q-1 -1 -2 -1t-2.5 -0.5
t-3.5 -0.5q1 0 2 0.5t3 0.5t3 1z" />
    <glyph glyph-name="acute" unicode="&#xb4;" horiz-adv-x="553" 
d="M286 709q46 -10 87 -17q35 -7 72 -12t60 -6q-11 -21 9 -34q-14 1 -43 -2.5t-62.5 -10.5t-66 -15.5t-52.5 -17t-22.5 -15.5t23.5 -10q-50 -16 -96 -31t-83.5 -27.5t-62 -20.5t-30.5 -10q19 9 42.5 20t44 21.5t36 19.5t20 14t-5.5 4.5t-39 -8.5q17 13 21 20t1 10
q-4 4 -14 4q7 8 24.5 14t32 11.5t20 11t-12.5 11.5q30 12 57 20t43.5 16t17.5 17t-21 23z" />
    <glyph glyph-name="mu" unicode="&#xb5;" 
d="M93 504q13 -28 27 -52q12 -20 26.5 -38t30.5 -22q-2 -39 2 -70.5t12 -54.5q-8 -8 -19 -26.5t-25 -44t-30.5 -55t-34.5 -58.5q19 15 46.5 35.5t52 42t41 40t15.5 28.5q10 1 28.5 21t37 44t34 46t20.5 29q3 3 2 3q13 2 20 8.5t10 14.5q4 9 4 20q10 -6 21 -5q10 0 23 6.5
t27 24.5q6 8 9.5 9.5t5.5 0.5t3 -5l33 -2q-42 -78 -64.5 -125t-32 -72.5t-9 -32.5t5 -5.5t11 8l8.5 8.5l-100 -193l-36 -76q2 8 6.5 22t8 28t4 25.5t-4.5 14.5q-4 1 -15 -7.5t-27.5 -32t-38.5 -62.5t-47 -97q41 115 49 179t-3 85q14 1 24 8.5t16 17t7.5 18.5t-2.5 14
q6 11 12.5 25.5t14.5 31.5l-227 -238q-33 -57 -71 -118.5t-70 -112.5q-38 -60 -76 -116q-14 -6 -25 -17q-10 -10 -20.5 -28.5t-16.5 -48.5q6 29 8.5 59t-1.5 46q-2 11 -7 8.5t-11 -10.5t-11 -17t-6 -11q1 3 9.5 29.5t22.5 68.5t33.5 95.5t41.5 110.5q8 1 23 20.5t31 47
t31 59t23.5 58.5t7.5 44t-16 16q19 16 46.5 51t49 81t31 98.5t-8.5 102.5z" />
    <glyph glyph-name="paragraph" unicode="&#xb6;" horiz-adv-x="550" 
d="M247 677q1 21 -0.5 42.5t-6.5 41.5q1 -3 4.5 -14t9 -26t12.5 -31t15 -27q45 -16 86.5 -17.5t94.5 12.5q10 18 17 59q-2 -14 -3 -28l-2 -28q1 0 1 0.5t1 0.5q8 -21 10 -47q5 8 9 19.5t5 13.5l-15 -67q-3 -28 -12 -54q-9 -42 -21 -91t-26 -102q-6 -2 -16.5 -21.5t-22 -48
t-22 -61.5t-16 -60.5t-5 -45.5t11.5 -17q-13 -16 -32 -52t-34.5 -83t-22 -100.5t4.5 -105.5q-1 4 -6.5 20.5t-13.5 36t-17.5 36.5t-19.5 20q1 40 -2 73t-8 56q6 9 14.5 30t19 49.5t23 61.5t26.5 65q14 33 21 60t5 36.5t-13.5 -4t-34.5 -62.5q15 42 34.5 91t39.5 96.5
t38.5 90.5t32.5 74q-3 0 -9 0.5t-17 -1t-28.5 -6.5t-43.5 -15q-2 -1 -5 -1.5t-5 -2.5q2 -7 2.5 -13t2.5 -11q-6 -9 -14.5 -30t-19 -49.5t-23.5 -61.5t-26 -65q-14 -33 -21 -60t-5 -37t13.5 4t34.5 63q-23 -61 -52.5 -132t-55.5 -134q-31 -73 -63 -145q-9 -5 -17 -16
q-7 -10 -14 -27t-12 -46q4 29 5 57t-1 43q-2 11 -5.5 8.5t-7.5 -11t-7 -17.5t-4 -11q0 3 6 30t16 70.5t23.5 99t28.5 114.5q8 2 22 32t28 70q-14 3 -28 9q-20 10 -33.5 21.5t-24.5 25.5q6 5 6.5 13.5t-9.5 10.5q0 4 -1 10t-10 5q-4 21 -0.5 44t11 46.5t18.5 45.5t23 42
q28 47 67 92q4 -1 8 -1q7 0 8 5q6 -1 11.5 7t9.5 19t5.5 22t-0.5 16q13 -7 25 -13t24 -11zM240 761v3v-3zM273 -264q-1 0 -1 1v2q0 -1 0.5 -1.5t0.5 -1.5z" />
    <glyph glyph-name="periodcentered" unicode="&#xb7;" horiz-adv-x="447" 
d="M161 383q9 24 3 36t-8 14l183 -98l-215 -257q-9 11 -18 18q-8 6 -17.5 8.5t-20.5 -4.5q4 25 10.5 52.5t8 46t-4.5 22.5t-26 -16q25 34 38 52t20.5 28t10.5 15.5t6.5 14t9.5 24t20 44.5zM156 433l-1 1z" />
    <glyph glyph-name="cedilla" unicode="&#xb8;" horiz-adv-x="411" 
d="M164 -44q18 25 29 45.5t9 28.5q9 -3 19.5 6t16.5 18q0 -5 6.5 -8t15.5 -4t18 -1h14q-15 -17 -20 -27t-4 -15q1 -6 7 -8q-2 -6 -5 -12l-4.5 -13.5l-5.5 -16.5q16 -8 32.5 -16t27.5 -15q-9 2 -6.5 -7.5t10 -22.5t17 -24.5t16.5 -12.5q11 -36 -2.5 -64t-35.5 -48.5
t-44.5 -31.5t-28.5 -12q6 5 9 8.5t0 4t-13 -3.5t-29 -13q-9 -5 -29.5 -3.5t-52.5 12.5q3 3 -4 8t-16.5 8.5t-17.5 4.5t-7 -4q-17 8 -29.5 14.5t-32.5 19.5q12 16 21 29q8 11 14 21t5 12q-1 0 -6.5 -5.5l-12.5 -12.5l-18 -18l94 133l-4 -18q-2 -8 -2.5 -14.5t1.5 -9.5
q2 -6 3.5 -1.5t2.5 6.5q0 -1 0.5 -7.5t4.5 -14.5q-9 0 -9.5 -4t3.5 -8.5t10 -7t9 -0.5l11 -12q19 -13 37.5 -15.5t32 3t20 18t1.5 29.5q3 0 -1 9t-10 19t-11.5 16t-5.5 0q-14 15 -33 28.5t-36 18.5z" />
    <glyph glyph-name="onesuperior" unicode="&#xb9;" horiz-adv-x="371" 
d="M285 599q19 33 38 60t28.5 47.5t3.5 33t-38 17.5q3 1 32.5 9.5t67.5 21.5t76 27.5t60 26.5q4 -17 13.5 -26.5t23.5 -12.5q-10 -11 -24.5 -31t-32.5 -45.5t-39.5 -55t-44.5 -59.5q-23 -31 -33 -52t-11.5 -35t4 -21.5t13.5 -10.5q-37 -54 -68.5 -104t-54.5 -90
q-27 -47 -49 -88q-24 -10 -46 -21q-19 -9 -40 -21t-35 -23q5 18 5 33t-8 18q-5 2 -12.5 -3.5t-14.5 -13.5t-13 -16t-7 -10q1 3 9.5 21t22.5 48t33.5 69t43.5 83q24 45 47.5 84t39.5 68.5t20 48t-10 23.5zM79 153v1v-1z" />
    <glyph glyph-name="ordmasculine" unicode="&#xba;" 
d="M534 567q-12 -67 -49 -130t-96 -108q-2 7 -13.5 1t-27 -16.5t-33.5 -22t-33 -15.5l16 -9l-4 -20q-30 4 -56 4q-22 0 -42.5 -4t-27.5 -16q-26 14 -43.5 34t-23.5 46q-10 44 1.5 85t29 73t33 52t13.5 23q-3 4 -16.5 -10.5t-30 -39.5t-32.5 -56t-23 -60q10 57 34.5 107.5
t62 92t87.5 72t112 45.5q-7 -13 -1.5 -12.5t27 8t61 18.5t100.5 19q-33 -12 -50 -23t-23.5 -20t-6 -16t3.5 -11q-9 0 -16.5 -4t-13.5 -9q-7 -5 -13 -12q20 -8 37 -14q14 -6 27 -11.5t18 -8.5q-10 -17 -2.5 -23.5t14.5 -8.5zM251 302q19 15 44 45t49.5 65.5t44.5 72t30 63.5
q14 12 17.5 26.5t0.5 24.5t-11 13t-17 -8q-20 12 -50 -2.5t-59 -45t-51 -72t-27 -84.5q-20 -6 -19.5 -19.5t17.5 -17.5q-8 -4 -7 -10t16 -7q5 -12 11 -26t11 -18z" />
    <glyph glyph-name="guillemotright" unicode="&#xbb;" horiz-adv-x="771" 
d="M602 193q-3 -5 -3 -9q-9 4 -20.5 8t-21.5 6q-11 3 -23 5l-21 -40l-288 -96q1 9 -1 14t-7.5 7.5t-19.5 0.5q21 14 40 29t29.5 28.5t8.5 25t-21 17.5q16 6 32 10.5t33 8.5q-9 3 -19 6t-18 5q-10 3 -18 4l-21 -40l-288 -96q1 9 -1 14t-7.5 7.5t-19.5 0.5q21 14 40 29
t29.5 28.5t8.5 25t-21 17.5q31 12 63 19t63 11t59 5.5t51 2.5l-101 241l188 114q2 1 -2 -8t-9 -22t-10 -28t-5 -25q6 -26 16.5 -66.5t31 -80t55 -70t90.5 -37.5l-85 203l188 114q2 1 -2 -8t-9 -22t-10 -28t-5 -25q7 -27 17.5 -68.5t32.5 -81.5t58.5 -70.5t95.5 -34.5z
M330 210q45 9 86.5 12t73.5 5l-14 34l-144 -48z" />
    <glyph glyph-name="onequarter" unicode="&#xbc;" horiz-adv-x="925" 
d="M720 323q27 10 53 21q22 10 44 22t36 24q-11 -20 -17.5 -35.5t1.5 -18.5q5 -2 20.5 6.5t32.5 20.5t31.5 23t17.5 13q-36 -35 -58.5 -63t-38.5 -55t-29.5 -56t-32.5 -66q-20 -41 -39.5 -75.5t-34.5 -62.5q51 8 88 21q-26 -15 -30 -21t5.5 -6t28.5 3.5t40 6.5
q-27 -8 -46 -22t-30.5 -29t-16 -29t-2.5 -22q-9 0 -25.5 -1.5t-37.5 -5.5q-17 -29 -32 -52.5t-21.5 -41t0 -29t34.5 -16.5q-2 -1 -15.5 -5t-33.5 -10.5t-44.5 -14.5t-48 -17t-45 -18.5t-34.5 -17.5q-2 17 -11.5 26.5t-22.5 13.5q16 18 44 60.5t63 94.5q-5 -1 -9.5 -1h-7.5
q-2 6 -9.5 10.5t-15.5 5t-14.5 -2.5t-6.5 -11q-9 0 -34.5 -3t-52.5 -7q-32 -4 -68 -9q2 14 -1 25q-2 9 -9.5 16t-21.5 5q17 13 18.5 20t-2.5 12q-5 4 -16 7q78 51 140 92q26 17 51 34t44 30.5t30.5 22.5t11.5 11q-2 4 -17.5 -4t-36 -20.5t-41.5 -25.5t-34 -17
q54 35 108.5 77.5t99.5 79.5q52 43 101 87zM189 542q19 33 38 60t28.5 47.5t3.5 33t-38 17.5q3 1 32.5 9.5t67.5 21.5t76 27.5t60 26.5q4 -17 13.5 -26.5t23.5 -12.5q-10 -11 -24.5 -31t-32.5 -45.5t-39.5 -55t-44.5 -59.5q-23 -31 -33 -52t-11.5 -35t4 -21.5t13.5 -10.5
q-37 -54 -68.5 -104t-54.5 -90q-27 -47 -49 -88q-24 -10 -46 -21q-19 -9 -40 -21t-35 -23q5 18 5 33t-8 18q-5 2 -12.5 -3.5t-14.5 -13.5t-12.5 -16t-6.5 -10q1 3 9 21t22.5 48t33.5 69t43 83q24 45 47.5 84t39.5 68.5t20 48t-10 23.5zM492 466q28 30 50.5 49.5t39.5 41
t29 50t18 76.5q0 -2 6 -24.5t15 -49.5t19.5 -51.5t19.5 -31.5q-15 -32 -24 -60.5t-12 -50.5q-9 -5 -25.5 -18.5t-38 -32.5t-46 -40.5t-49.5 -41.5q-26 -21 -43 -40.5t-18.5 -28t15 -2t57.5 36.5q-22 -20 -49.5 -46t-57.5 -55t-61 -59.5t-60 -58.5q-69 -67 -141 -138
q-2 9 -6 16q-4 6 -10 11t-16 4q16 23 29 48.5t16 39.5q2 11 -3 9.5t-13 -6.5q-9 -6 -20 -18q26 33 56 70q26 32 60 72.5t72 83.5q25 29 55 61t58.5 61.5t52 55.5t36 43.5t11.5 24.5t-22 -1zM608 81q24 37 41.5 70t30.5 61q-16 -10 -34.5 -24.5t-37.5 -31t-38 -34t-37 -33.5
q-41 -40 -83 -82q19 -1 42 -1q40 0 99 3q16 29 21 48t-4 24zM-16 97l-1 -1z" />
    <glyph glyph-name="onehalf" unicode="&#xbd;" horiz-adv-x="1046" 
d="M983 123q-36 -42 -93 -78.5t-123 -68t-134.5 -59.5t-126 -53t-98.5 -47.5t-51 -42.5q81 28 158 48q33 9 68.5 17t71 13.5t68.5 8t61 0.5q-9 -6 -13 -19t-3 -26t6 -23t13 -10q-2 -9 2 -20.5t10.5 -23.5t13.5 -24.5t12 -25.5q-61 26 -105.5 34.5t-73 7t-42.5 -9t-14 -12.5
q-50 3 -108 -9.5t-109 -29.5q-59 -19 -118 -46q-4 23 -15 41q-9 16 -24.5 29t-40.5 13q52 47 95.5 76.5t75 47.5t48.5 27t17 14q0 4 -11.5 2.5t-27.5 -6t-33 -11.5t-29 -14q41 30 100 56.5t122 50.5t124.5 46t108.5 43t73.5 41.5t19.5 41.5q-5 15 -29 17.5t-58.5 -3.5
t-73.5 -17.5t-74.5 -24.5t-62 -26t-34.5 -20q-20 11 -45 0t-48 -29q-27 -21 -55 -51l-16 18q22 28 41 59q17 26 32.5 59.5t23.5 68.5q21 16 49 32.5t58 31.5t59 28t53 23t39.5 16t17.5 7q-2 -1 -18 -8.5t-37.5 -18.5t-45 -23.5t-41.5 -23.5t-27.5 -19t-1.5 -10q4 -1 35 11.5
t76 30.5t98.5 35.5t102.5 26t87 3t52 -33.5q14 -35 9 -68q-3 -4 -7.5 -13t-1.5 -26q-2 -5 -4 -8.5t-5 -8.5q-10 -5 -17.5 -12.5t-5.5 -21.5zM230 608q19 33 38 60t28.5 47.5t3.5 33t-38 17.5q3 1 32.5 9.5t67.5 21.5t76 27.5t60 26.5q4 -17 13.5 -26.5t23.5 -12.5
q-10 -11 -24.5 -31t-32.5 -45.5t-39.5 -55t-44.5 -59.5q-23 -31 -33 -52t-11.5 -35t4 -21.5t13.5 -10.5q-37 -54 -68.5 -104t-54.5 -90q-27 -47 -49 -88q-24 -10 -46 -21q-19 -9 -40 -21t-35 -23q5 18 5 33t-8 18q-5 2 -12.5 -3.5t-14.5 -13.5t-13 -16t-7 -10q1 3 9.5 21
t22.5 48t33.5 69t43.5 83q24 45 47.5 84t39.5 68.5t20 48t-10 23.5zM464 466q28 30 50.5 49.5t39.5 41t29 50t18 76.5q0 -2 6 -24.5t15 -49.5t19.5 -51.5t19.5 -31.5q-15 -32 -24 -60.5t-12 -50.5q-9 -5 -25.5 -18.5t-38 -32.5t-46 -40.5t-49.5 -41.5q-26 -21 -43 -40.5
t-18.5 -28t15 -2t57.5 36.5q-22 -20 -49.5 -46t-57.5 -55t-61 -59.5t-60 -58.5q-69 -67 -141 -138q-2 9 -6 16q-4 6 -10 11t-16 4q16 23 29 48.5t16 39.5q2 11 -3 9.5t-13 -6.5q-9 -6 -20 -18q26 33 56 70q26 32 60 72.5t72 83.5q26 29 55.5 61t58 61.5t52 55.5t36 43.5
t11.5 24.5t-22 -1zM24 162v1v-1z" />
    <glyph glyph-name="threequarters" unicode="&#xbe;" horiz-adv-x="1142" 
d="M265 534q12 0 27 -1q12 -1 28.5 -2t35.5 -4q-23 -14 -39 -24t-17 -11l-104 4l-28 1q40 26 79 46.5t84.5 40.5t101 40.5t129.5 46.5q-13 4 -36.5 5t-52 -1t-59 -6.5t-57.5 -10.5t-47.5 -13.5t-28.5 -14.5q-20 11 -47.5 3t-53.5 -22q-30 -17 -62 -42q22 27 41 58
q17 26 32.5 59.5t23.5 68.5q35 16 77.5 28.5t80 21t63.5 13t29 4.5q-2 -1 -15.5 -5t-32 -9.5t-37.5 -12t-32.5 -12.5t-17.5 -11t9 -7q19 -4 58 10t93 30t121 26t142 0q-3 -3 -8.5 -16t-10.5 -28q-6 -18 -12 -38q-15 -4 -27 -8q-11 -4 -19.5 -9t-9.5 -11q0 -5 14 -5.5t33.5 1
t39 4t30.5 4.5q-9 -2 -28.5 -7t-39 -11.5t-34.5 -14t-16 -14.5q-1 -3 4 -5.5t12.5 -4t15 -2.5t11.5 -3q-22 -6 -51 -16t-59.5 -22.5t-61.5 -26t-56.5 -25.5t-44.5 -21.5t-26 -13.5q20 17 38 28t31 18l19.5 10.5t4.5 5.5q-3 3 -18.5 -3t-36.5 -17.5t-45.5 -25.5t-45.5 -27
q38 -6 79.5 -19t70.5 -38t37 -65t-20 -99q-20 -41 -53.5 -70t-74.5 -46q-7 2 -12.5 1t-10.5 -3q-5 -3 -11 -7l-10 6q-9 5 -25 3q-9 -2 -16 -11t-12 -14q-49 -6 -98.5 -0.5t-90 21t-70 40t-39 57.5t4 73t58.5 86q-2 -11 4.5 -28.5t16 -33t19 -26t14.5 -7.5q2 1 -0.5 5
t-7.5 11t-11 18.5t-10 27.5q13 -22 42 -41.5t65.5 -33.5t77 -21t76.5 -4t64.5 17t40.5 43q9 20 3 37.5t-17 26.5q2 15 -0.5 20.5t-7 7t-10 -0.5t-8.5 -2q-1 5 -7 7.5t-13.5 3.5t-14.5 1h-11q-32 9 -67.5 14.5t-64.5 8.5q-34 4 -68 4zM939 354q27 10 53 21q22 10 44 22t36 24
q-11 -20 -17.5 -35.5t1.5 -18.5q5 -2 20.5 6.5t32.5 20.5t31.5 23t17.5 13q-36 -35 -58.5 -63t-38.5 -55t-29.5 -56t-32.5 -66q-20 -41 -39.5 -75.5t-34.5 -62.5q51 8 88 21q-26 -15 -30 -21t5.5 -6t28.5 3.5t40 6.5q-27 -8 -46 -22t-30.5 -29t-16 -29t-2.5 -22
q-9 0 -25.5 -1.5t-37.5 -5.5q-17 -29 -32 -52.5t-21.5 -41t0 -29t34.5 -16.5q-2 -1 -15.5 -5t-33.5 -10.5t-44.5 -14.5t-48 -17t-45 -18.5t-34.5 -17.5q-2 17 -11.5 26.5t-22.5 13.5q16 18 44 60.5t63 94.5q-5 -1 -9.5 -1h-7.5q-2 6 -9.5 10.5t-15.5 5t-14.5 -2.5t-6.5 -11
q-9 0 -34.5 -3t-52.5 -7q-32 -4 -68 -9q2 14 -1 25q-2 9 -9.5 16t-21.5 5q17 13 18.5 20t-2.5 12q-5 4 -16 7q78 51 140 92q26 17 51 34t44 30.5t30.5 22.5t11.5 11q-2 4 -17.5 -4t-36 -20.5t-41.5 -25.5t-34 -17q54 35 108.5 77.5t99.5 79.5q52 43 101 87zM833 684
q10 -39 21 -72q9 -28 19 -53t20 -33q-15 -32 -24 -60.5t-12 -50.5q-9 -5 -25.5 -18.5t-38 -32.5t-46 -40.5t-49.5 -41.5q-26 -21 -43 -40.5t-18.5 -28t15 -2t57.5 36.5q-22 -20 -49.5 -46t-57.5 -55t-61 -59.5t-60 -58.5q-69 -67 -141 -138q-2 9 -6 16q-4 6 -10 11t-16 4
q16 23 29 48.5t16 39.5q2 11 -3 9.5t-13 -6.5q-9 -6 -20 -18q26 33 56 70q26 32 60 72.5t72 83.5q26 29 55.5 61t58 61.5t52 55.5t36 43.5t11.5 24.5t-22 -1q28 30 50.5 49.5t39.5 41t29 50.5t18 77zM827 112q24 37 41.5 70t30.5 61q-16 -10 -34.5 -24.5t-37.5 -31t-38 -34
t-37 -33.5q-41 -40 -83 -82q19 -1 42 -1q40 0 99 3q16 29 21 48t-4 24zM791 727q-1 -1 -2 -1t-2.5 -0.5t-3.5 -0.5q1 0 2 0.5t3 0.5t3 1z" />
    <glyph glyph-name="questiondown" unicode="&#xbf;" horiz-adv-x="653" 
d="M612 422q-10 -8 -21.5 -32.5t-22.5 -57.5l-9 -94q-32 8 -78 5.5t-91 -14.5q6 7 0 7t-19 -4.5t-29.5 -12t-30.5 -15.5t-23 -15t-6 -10q-36 -27 -49 -58t-5 -56.5t35.5 -41.5t73.5 -13q16 0 37 8q0 -9 12.5 -10.5t24.5 2.5t18 12t-7 19q20 12 31.5 23t12.5 12l-3 -5
t-5 -9.5t-1 -7t8 2.5t17.5 19t21.5 29q12 18 25 38l-101 -357l8 56q3 21 4.5 37.5t-0.5 15.5q-5 -2 -13 -27t-17 -55q-11 -35 -22 -79q-24 -1 -41.5 -0.5t-32.5 2t-29.5 3.5t-31.5 4q10 8 -2 15t-31 11t-37.5 2.5t-19.5 -10.5q-57 16 -86.5 38t-32.5 42q-9 40 -15.5 58
t-11 20t-7 -8.5t-3.5 -26.5q-3 7 -6.5 25.5t-2.5 46t9 61.5t26.5 70.5t51 75t82.5 74.5q8 -4 25 0t38.5 11.5t43 18.5t37 21.5t21.5 20t-3 14.5q28 -1 67.5 -7t77.5 -8q26 45 43 75.5t19 34.5q2 -3 6 -1q3 2 7.5 8.5t12.5 23.5q4 -4 9 -0.5t10.5 10t12 16t13.5 17.5
q-3 -9 -5.5 -20.5t-2.5 -22t3 -18.5t10 -9zM772 404q-19 9 -31 12t-18.5 3t-9.5 -1.5t-3 -2.5q-2 2 -10 14t-19.5 29.5t-25 38t-25.5 38.5q-44 -14 -87 -30.5t-69 -33.5q8 9 5.5 13.5t-10.5 4.5t-17.5 -3t-14.5 -9q1 10 -6 14t-20 3t-30.5 -5t-36.5 -10q7 5 22 16t32 24.5
t33 28t25 26.5t9 20.5t-15 10.5q26 5 59.5 11t68.5 12q-8 15 -18.5 33.5t-21.5 37.5t-22 37.5t-20 33.5q25 -32 43 -55.5t31 -40t21.5 -26.5t15.5 -14q35 7 63.5 13t42.5 11q1 -11 10.5 -18t20.5 -11t20.5 -6t11.5 -2l-5 -2t-11 -6t-11 -9t-5 -12q1 -12 8 -14.5t8 -2.5
q-3 -1 -30 -8.5t-65 -19.5q9 -6 18.5 -12.5t16.5 -14.5q0 -7 1.5 -17.5t8.5 -25t21.5 -33t40.5 -40.5z" />
    <glyph glyph-name="Agrave" unicode="&#xc0;" horiz-adv-x="783" 
d="M722 881q-21 -17 -22 -28t11 -20t32.5 -19t42.5 -23q-15 -7 -12 -13.5t13.5 -13t23.5 -14t17 -16.5q-8 -1 -12 -5q-3 -4 -1.5 -12t13.5 -23l-15 6q0 -2 -1 -7.5t-3 -13.5q16 -16 40.5 -35t44.5 -34q-4 2 -28.5 14.5t-60.5 31.5q-4 -18 -5.5 -35.5t3.5 -22.5
q5 -7 10.5 -8.5t10.5 -0.5t11 4q-39 -190 -71 -342q-14 -65 -27 -128t-23.5 -114l-17.5 -85t-8 -41q-10 7 -25.5 6.5t-31 -8t-29 -21.5t-20.5 -34q1 6 1 19t-4 26.5t-11 23.5t-19 8q-13 -2 -22 -13t-15 -24q-7 -15 -13 -34q-22 -8 -42 -14q-17 -6 -36.5 -11.5t-33.5 -9.5
q0 10 -11 13t-28 0.5t-37 -8t-39 -11.5t-33.5 -12t-19.5 -8q7 3 35 20t61.5 51t64.5 86.5t44 127.5q9 -6 22.5 17t29.5 64l-186 -42q-35 -49 -66 -92.5t-53.5 -76.5t-34.5 -53t-10 -20q3 0 12 8.5t22 22.5t28.5 32.5t31.5 38.5q37 45 83 103q-63 -94 -118 -176
q-24 -35 -48 -71t-46 -68.5t-40 -59.5t-30 -44q-15 1 -36.5 -10t-44.5 -28.5t-46 -39.5t-43 -42t-34 -35.5t-19 -21.5q6 8 23.5 33t34.5 52.5t28.5 50.5t5.5 26q-6 4 -18.5 -6.5t-28 -27t-31 -36t-27.5 -32.5q-14 11 -41.5 7.5t-54.5 -11.5q-32 -11 -68 -27l306 357
q8 -2 17.5 3t16.5 13t10.5 17t-0.5 17q11 6 15 13.5t4 15.5t-3 17l82 99q-36 -9 -58 -16t-24 -9q-2 -3 2.5 -4.5t10.5 -1.5t13 1t10 1l-183 -43q32 31 60 60q24 24 48.5 49.5t37.5 39.5q24 1 41.5 9t28.5 18q13 11 22 25l107 11l361 435q6 -2 13 0q6 2 14.5 7.5t18.5 19.5
q-1 -17 5.5 -19.5t17 3t22 15.5t19.5 18q26 -7 47 -12.5t47 -16.5l-0.5 -4.5t-0.5 -9t2.5 -8t8.5 -1.5q8 2 17.5 18t17.5 33l-105 54q22 4 21.5 12t-15.5 18t-39.5 20t-50.5 18t-49 12.5t-34 3.5q18 17 14 40q18 1 49.5 7.5t61.5 14.5q35 9 74 20zM591 514q-33 -46 -70 -97
q-32 -44 -72.5 -100t-83.5 -116l139 14q17 50 32.5 102.5t27.5 96.5q14 51 27 100zM805 683q7 17 8 17q-21 8 -20.5 2t12.5 -19zM-204 -541q1 1 1 1.5t1 1.5q-1 -1 -1 -1.5t-1 -1.5l-1 -1zM216 -231q0 1 1 1t2 1q-1 -1 -2 -1t-1 -1zM582 -174v-2v2zM26 15l-1 -1h-2zM896 609
l-2 1q1 -1 2 -1z" />
    <glyph glyph-name="Aacute" unicode="&#xc1;" horiz-adv-x="783" 
d="M185 183l361 435q6 -2 13 0q6 2 14.5 7.5t18.5 19.5q-1 -17 5.5 -19.5t17 3t22 15.5t19.5 18q26 -7 47 -12.5t47 -16.5l-0.5 -4.5t-0.5 -9t2.5 -8t8.5 -1.5q8 2 17 16.5t16.5 31t13 30t6.5 12.5q0 -4 -3 -18.5t-6 -31.5t-4 -32t3 -20q5 -7 10.5 -8.5t10.5 -0.5t11 4
q-39 -190 -71 -342q-14 -65 -27 -128t-23.5 -114l-17.5 -85t-8 -41q-10 7 -25.5 6.5t-31 -8t-29 -21.5t-20.5 -34q1 6 1 19t-4 26.5t-11 23.5t-19 8q-13 -2 -22 -13t-15 -24q-7 -15 -13 -34q-22 -8 -42 -14q-17 -6 -36.5 -11.5t-33.5 -9.5q0 10 -11 13t-28 0.5t-37 -8
t-39 -11.5t-33.5 -12t-19.5 -8q7 3 35 20t61.5 51t64.5 86.5t44 127.5q9 -6 22.5 17t29.5 64l-186 -42q-35 -49 -66 -92.5t-53.5 -76.5t-34.5 -53t-10 -20q3 0 12 8.5t22 22.5t28.5 32.5t31.5 38.5q37 45 83 103q-63 -94 -118 -176q-24 -35 -48 -71t-46 -68.5t-40 -59.5
t-30 -44q-15 1 -36.5 -10t-44.5 -28.5t-46 -39.5t-43 -42t-34 -35.5t-19 -21.5q6 8 23.5 33t34.5 52.5t28.5 50.5t5.5 26q-6 4 -18.5 -6.5t-28 -27t-31 -36t-27.5 -32.5q-14 11 -41.5 7.5t-54.5 -11.5q-32 -11 -68 -27l306 357q8 -2 17.5 3t16.5 13t10.5 17t-0.5 17
q11 6 15 13.5t4 15.5t-3 17l82 99q-36 -9 -58 -16t-24 -9q-2 -3 2.5 -4.5t10.5 -1.5t13 1t10 1l-183 -43q32 31 60 60q24 24 48.5 49.5t37.5 39.5q24 1 41.5 9t28.5 18q13 11 22 25zM751 869q46 -10 87 -17q35 -7 72 -12t60 -6q-11 -21 9 -34q-14 1 -43 -2.5t-62.5 -10.5
t-66 -15.5t-52.5 -17t-22.5 -15.5t23.5 -10q-50 -16 -96 -31t-83.5 -27.5t-62 -20.5t-30.5 -10q20 9 43 20t43.5 21.5t36 19.5t20 14t-5.5 4.5t-39 -8.5q17 13 21 20t1 10q-4 4 -14 4q7 8 24.5 14t32 11.5t20 11t-12.5 11.5q30 12 57 20t43.5 16t17.5 17t-21 23zM591 514
q-33 -46 -70 -97q-32 -44 -72.5 -100t-83.5 -116l139 14q17 50 32.5 102.5t27.5 96.5q14 51 27 100zM-204 -541q1 1 1 1.5t1 1.5q-1 -1 -1 -1.5t-1 -1.5l-1 -1zM216 -231q0 1 1 1t2 1q-1 -1 -2 -1t-1 -1zM26 15l-1 -1h-2zM582 -174v-2v2z" />
    <glyph glyph-name="Acircumflex" unicode="&#xc2;" horiz-adv-x="783" 
d="M185 183l361 435q6 -2 13 0q6 2 14.5 7.5t18.5 19.5q-1 -17 5.5 -19.5t17 3t22 15.5t19.5 18q-16 3 -37 7t-42 7.5t-39 6t-28 3.5q7 18 -5 30q8 -1 26 2.5t38.5 10t40 14t32 15t14 14t-14.5 9.5q23 13 47.5 22.5t44 18t30.5 16.5t5 17q4 -1 19 3.5t30 13t23.5 19.5
t0.5 23q9 -4 22 -15q11 -9 27.5 -24.5t39.5 -40.5q-18 -5 -21.5 -21t2 -33t16 -30.5t20.5 -11.5q-12 -11 -14 -30q-9 -1 -28.5 -8t-40.5 -15t-38 -15.5t-20 -8.5q-4 -20 -6 -39t3 -24q5 -7 10.5 -8.5t10.5 -0.5t11 4q-39 -190 -71 -342q-14 -65 -27 -128t-23.5 -114
l-17.5 -85t-8 -41q-10 7 -25.5 6.5t-31 -8t-29 -21.5t-20.5 -34q1 6 1 19t-4 26.5t-11 23.5t-19 8q-13 -2 -22 -13t-15 -24q-7 -15 -13 -34q-22 -8 -42 -14q-17 -6 -36.5 -11.5t-33.5 -9.5q0 10 -11 13t-28 0.5t-37 -8t-39 -11.5t-33.5 -12t-19.5 -8q7 3 35 20t61.5 51
t64.5 86.5t44 127.5q9 -6 22.5 17t29.5 64l-186 -42q-35 -49 -66 -92.5t-53.5 -76.5t-34.5 -53t-10 -20q3 0 12 8.5t22 22.5t28.5 32.5t31.5 38.5q37 45 83 103q-63 -94 -118 -176q-24 -35 -48 -71t-46 -68.5t-40 -59.5t-30 -44q-15 1 -36.5 -10t-44.5 -28.5t-46 -39.5
t-43 -42t-34 -35.5t-19 -21.5q6 8 23.5 33t34.5 52.5t28.5 50.5t5.5 26q-6 4 -18.5 -6.5t-28 -27t-31 -36t-27.5 -32.5q-14 11 -41.5 7.5t-54.5 -11.5q-32 -11 -68 -27l306 357q8 -2 17.5 3t16.5 13t10.5 17t-0.5 17q11 6 15 13.5t4 15.5t-3 17l82 99q-36 -9 -58 -16t-24 -9
q-2 -3 2.5 -4.5t10.5 -1.5t13 1t10 1l-183 -43q32 31 60 60q24 24 48.5 49.5t37.5 39.5q24 1 41.5 9t28.5 18q13 11 22 25zM591 514q-33 -46 -70 -97q-32 -44 -72.5 -100t-83.5 -116l139 14q17 50 32.5 102.5t27.5 96.5q14 51 27 100zM685 656q-4 0 -8 1t-9.5 2t-11.5 3
q26 -7 47 -12.5t47 -16.5l-0.5 -4.5t-0.5 -9t2.5 -8t8.5 -1.5q8 2 17 16.5t16.5 31t13 30t6.5 12.5q0 -3 -2.5 -14t-4.5 -25q9 10 10.5 19t-3.5 22t-15.5 32t-24.5 50q-20 -15 -31.5 -33.5t2.5 -25.5q-18 -11 -34.5 -18t-26.5 -14.5t-11 -16t13 -20.5zM-204 -541q1 1 1 1.5
t1 1.5q-1 -1 -1 -1.5t-1 -1.5l-1 -1zM216 -231q0 1 1 1t2 1q-1 -1 -2 -1t-1 -1zM26 15l-1 -1h-2zM582 -174v-2v2z" />
    <glyph glyph-name="Atilde" unicode="&#xc3;" horiz-adv-x="783" 
d="M529 760q7 6 20 12.5t29.5 12.5t35.5 9.5t37 3.5q46 0 57.5 2t3 4.5t-29.5 4.5t-39 1q47 11 83 6t71 -34q16 -13 26.5 -23t18.5 -13t16 2t18 22q2 -7 10.5 -8t26.5 16q-5 -16 3 -23t43 -14q-14 -2 -28 -12.5t-20.5 -21.5t-1.5 -18.5t29 -4.5q-73 -44 -134 -31
q-3 -18 -4 -34t3 -21q5 -7 10.5 -8.5t10.5 -0.5t11 4q-39 -190 -71 -342q-14 -65 -27 -128t-23.5 -114l-17.5 -85t-8 -41q-10 7 -25.5 6.5t-31 -8t-29 -21.5t-20.5 -34q1 6 1 19t-4 26.5t-11 23.5t-19 8q-13 -2 -22 -13t-15 -24q-7 -15 -13 -34q-22 -8 -42 -14
q-17 -6 -36.5 -11.5t-33.5 -9.5q0 10 -11 13t-28 0.5t-37 -8t-39 -11.5t-33.5 -12t-19.5 -8q7 3 35 20t61.5 51t64.5 86.5t44 127.5q9 -6 22.5 17t29.5 64l-186 -42q-35 -49 -66 -92.5t-53.5 -76.5t-34.5 -53t-10 -20q3 0 12 8.5t22 22.5t28.5 32.5t31.5 38.5q37 45 83 103
q-63 -94 -118 -176q-24 -35 -48 -71t-46 -68.5t-40 -59.5t-30 -44q-15 1 -36.5 -10t-44.5 -28.5t-46 -39.5t-43 -42t-34 -35.5t-19 -21.5q6 8 23.5 33t34.5 52.5t28.5 50.5t5.5 26q-6 4 -18.5 -6.5t-28 -27t-31 -36t-27.5 -32.5q-14 11 -41.5 7.5t-54.5 -11.5
q-32 -11 -68 -27l306 357q8 -2 17.5 3t16.5 13t10.5 17t-0.5 17q11 6 15 13.5t4 15.5t-3 17l82 99q-36 -9 -58 -16t-24 -9q-2 -3 2.5 -4.5t10.5 -1.5t13 1t10 1l-183 -43q32 31 60 60q24 24 48.5 49.5t37.5 39.5q24 1 41.5 9t28.5 18q13 11 22 25l107 11l361 435q6 -2 13 0
q6 2 14.5 7.5t18.5 19.5q-1 -17 5.5 -19.5t17 3t22 15.5t19.5 18q26 -7 47 -12.5t47 -16.5l-0.5 -4.5t-0.5 -9t2.5 -8t8.5 -1.5q8 2 16 15.5t16 30.5q-39 13 -69 51q-22 27 -39 30.5t-31 -6.5t-26 -28.5t-24 -35.5q-2 8 -10 16.5t-19 16t-23.5 13.5t-21.5 9q9 3 13 10
t3 13.5t-5 11t-11 3.5zM591 514q-33 -46 -70 -97q-32 -44 -72.5 -100t-83.5 -116l139 14q17 50 32.5 102.5t27.5 96.5q14 51 27 100zM-204 -541q1 1 1 1.5t1 1.5q-1 -1 -1 -1.5t-1 -1.5l-1 -1zM216 -231q0 1 1 1t2 1q-1 -1 -2 -1t-1 -1zM582 -174v-2v2zM26 15l-1 -1h-2z" />
    <glyph glyph-name="Adieresis" unicode="&#xc4;" horiz-adv-x="783" 
d="M983 836l-88 -91q4 18 -3 19q-6 1 -24.5 -16t-58.5 -68q-2 -10 -4 -23t-3.5 -25t-1.5 -21.5t3 -12.5q5 -7 10.5 -8.5t10.5 -0.5t11 4q-39 -190 -71 -342q-14 -65 -27 -128t-23.5 -114l-17.5 -85t-8 -41q-10 7 -25.5 6.5t-31 -8t-29 -21.5t-20.5 -34q1 6 1 19t-4 26.5
t-11 23.5t-19 8q-13 -2 -22 -13t-15 -24q-7 -15 -13 -34q-22 -8 -42 -14q-17 -6 -36.5 -11.5t-33.5 -9.5q0 10 -11 13t-28 0.5t-37 -8t-39 -11.5t-33.5 -12t-19.5 -8q7 3 35 20t61.5 51t64.5 86.5t44 127.5q9 -6 22.5 17t29.5 64l-186 -42q-35 -49 -66 -92.5t-53.5 -76.5
t-34.5 -53t-10 -20q3 0 12 8.5t22 22.5t28.5 32.5t31.5 38.5q37 45 83 103q-63 -94 -118 -176q-24 -35 -48 -71t-46 -68.5t-40 -59.5t-30 -44q-15 1 -36.5 -10t-44.5 -28.5t-46 -39.5t-43 -42t-34 -35.5t-19 -21.5q6 8 23.5 33t34.5 52.5t28.5 50.5t5.5 26q-6 4 -18.5 -6.5
t-28 -27t-31 -36t-27.5 -32.5q-14 11 -41.5 7.5t-54.5 -11.5q-32 -11 -68 -27l306 357q8 -2 17.5 3t16.5 13t10.5 17t-0.5 17q11 6 15 13.5t4 15.5t-3 17l82 99q-36 -9 -58 -16t-24 -9q-2 -3 2.5 -4.5t10.5 -1.5t13 1t10 1l-183 -43q32 31 60 60q24 24 48.5 49.5t37.5 39.5
q24 1 41.5 9t28.5 18q13 11 22 25l107 11l361 435q6 -2 13 0q6 2 14.5 7.5t18.5 19.5q-1 -17 5.5 -19.5t17 3t22 15.5t19.5 18q26 -7 47 -12.5t47 -16.5l-0.5 -4.5t-0.5 -9t2.5 -8t8.5 -1.5q8 2 17 17.5t17 32.5l-2 -3q4 25 0 36t-13.5 13t-24 -2.5t-30.5 -10.5
q28 34 45.5 61.5t29.5 52.5l-153 -154q-6 8 -12 12q-5 4 -12 6t-14 -3q3 17 10 38t12.5 38t5.5 27.5t-11 6.5q44 52 52.5 91.5t-10.5 81.5l149 -107q8 20 15.5 39t17.5 39zM591 514q-33 -46 -70 -97q-32 -44 -72.5 -100t-83.5 -116l139 14q17 50 32.5 102.5t27.5 96.5
q14 51 27 100zM-204 -541q1 1 1 1.5t1 1.5q-1 -1 -1 -1.5t-1 -1.5l-1 -1zM216 -231q0 1 1 1t2 1q-1 -1 -2 -1t-1 -1zM582 -174v-2v2zM26 15l-1 -1h-2z" />
    <glyph glyph-name="Aring" unicode="&#xc5;" horiz-adv-x="783" 
d="M185 183l361 435q6 -2 13 0q6 2 14.5 7.5t18.5 19.5q-2 -18 6.5 -20t19.5 5q0 10 -8 11q0 3 -0.5 8t-8.5 4q-6 35 8.5 73.5t34.5 71.5q23 39 55 76q3 -1 6 -1q6 0 7 4q9 -2 12.5 5t-0.5 16q33 27 70.5 40t70.5 13t59 -13.5t37 -39.5q16 -37 5 -83t-36.5 -88.5t-60 -75.5
t-66.5 -45q20 14 35 26q13 11 23 20t7 12q-4 2 -22.5 -14t-45.5 -35q0 -13 3 -17q5 -7 10.5 -8.5t10.5 -0.5t11 4q-39 -190 -71 -342q-14 -65 -27 -128t-23.5 -114l-17.5 -85t-8 -41q-10 7 -25.5 6.5t-31 -8t-29 -21.5t-20.5 -34q1 6 1 19t-4 26.5t-11 23.5t-19 8
q-13 -2 -22 -13t-15 -24q-7 -15 -13 -34q-22 -8 -42 -14q-17 -6 -36.5 -11.5t-33.5 -9.5q0 10 -11 13t-28 0.5t-37 -8t-39 -11.5t-33.5 -12t-19.5 -8q7 3 35 20t61.5 51t64.5 86.5t44 127.5q9 -6 22.5 17t29.5 64l-186 -42q-35 -49 -66 -92.5t-53.5 -76.5t-34.5 -53t-10 -20
q3 0 12 8.5t22 22.5t28.5 32.5t31.5 38.5q37 45 83 103q-63 -94 -118 -176q-24 -35 -48 -71t-46 -68.5t-40 -59.5t-30 -44q-15 1 -36.5 -10t-44.5 -28.5t-46 -39.5t-43 -42t-34 -35.5t-19 -21.5q6 8 23.5 33t34.5 52.5t28.5 50.5t5.5 26q-6 4 -18.5 -6.5t-28 -27t-31 -36
t-27.5 -32.5q-14 11 -41.5 7.5t-54.5 -11.5q-32 -11 -68 -27l306 357q8 -2 17.5 3t16.5 13t10.5 17t-0.5 17q11 6 15 13.5t4 15.5t-3 17l82 99q-36 -9 -58 -16t-24 -9q-2 -3 2.5 -4.5t10.5 -1.5t13 1t10 1l-183 -43q32 31 60 60q24 24 48.5 49.5t37.5 39.5q24 1 41.5 9
t28.5 18q13 11 22 25zM591 514q-33 -46 -70 -97q-32 -44 -72.5 -100t-83.5 -116l139 14q17 50 32.5 102.5t27.5 96.5q14 51 27 100zM820 742q-2 -1 0.5 6.5l6 18t4.5 22t-4.5 18.5t-20.5 7t-43 -11q-18 -6 -31 -19.5t-21.5 -28t-13 -27.5t-5.5 -19q-2 -6 0 -16t9.5 -18
t21.5 -10t37 8q20 9 32.5 20t18.5 29q7 1 11 8t-2 12zM-204 -541q1 1 1 1.5t1 1.5q-1 -1 -1 -1.5t-1 -1.5l-1 -1zM216 -231q0 1 1 1t2 1q-1 -1 -2 -1t-1 -1zM582 -174v-2v2zM26 15l-1 -1h-2z" />
    <glyph glyph-name="AE" unicode="&#xc6;" horiz-adv-x="1190" 
d="M185 183l361 435q6 -2 13 0q6 2 14.5 7.5t18.5 19.5q-1 -17 5.5 -19.5t17 3t22 15.5t19.5 18q26 -7 47 -12.5t47 -16.5q-1 -2 -1 -4v-8l27 4q6 10 12.5 23t11.5 25t8.5 19.5t4.5 7.5q0 -5 -5 -27.5t-7 -43.5q72 11 151.5 23t154.5 23q-3 -13 12 -17.5t28 6.5q6 -2 16 -1
t19.5 4.5t17 9.5t10.5 13q40 5 73 9.5t58 7.5q28 4 52 7l-188 -425l4 16t4.5 27.5t-0.5 33t-10 31.5t-24 22.5t-43 7.5q-44 -2 -88.5 -9t-84.5 -15.5t-73 -15.5t-54 -10q22 8 58.5 17.5t70.5 18t58 16t21 10.5q-2 2 -24 -2.5t-57.5 -13t-80.5 -19.5t-91 -23l-42 -198
q26 2 47 3.5t34 3.5q24 3 32 7.5t8 9.5t-8 11l184 37l-3.5 -2.5t-6.5 -6.5t-4 -9.5t3 -11.5t13 -8.5t21.5 -3t29.5 -1t38 -2.5q-17 -4 -29 -11.5t-21 -18t-17 -24t-18 -28.5q-32 1 -71 -0.5t-81.5 -6t-85.5 -10.5t-82 -12q-8 -39 -15.5 -73.5t-12.5 -63.5q32 10 46.5 16
t19 9t3 4t-2.5 1q3 1 29 7t65.5 16.5t87 24t94.5 28.5q0 -12 15 -15t33 -1q21 2 48 8l8 -10q3 -5 7 -9.5t7 -8.5q-29 -5 -52.5 -21t-37.5 -35.5t-17.5 -38.5t8.5 -28q-20 -2 -31 -8t-16 -14q-6 -9 -8 -19q-12 -4 -31 -8q-33 -7 -107 -22q8 7 11 12t-3 7t-23 0.5t-50 -7.5
q-13 -2 -38 -7t-54.5 -10.5t-60.5 -12t-56.5 -12.5t-41.5 -10t-16 -6t21 1t53.5 8.5t70.5 11t71 9.5q-60 -13 -123.5 -28t-117.5 -29q-62 -16 -123 -32l36 68v3q0 4 1 6l-22.5 -7.5t-19.5 -5.5q0 10 -11 13t-28 0.5t-37 -8t-39 -11.5t-33.5 -12t-19.5 -8q7 3 35 20t61.5 51
t64.5 86.5t44 127.5q6 -5 14 5t18 30q-14 2 -27.5 2.5t-27.5 -0.5q14 5 24 9t17.5 9t14.5 11t15 14q-39 -8 -86 -19t-96 -22q-35 -49 -66 -92.5t-53.5 -76.5t-34.5 -53t-10 -20q3 0 12 8.5t22 22.5t28.5 32.5t31.5 38.5q37 45 83 103q-63 -94 -118 -176q-24 -35 -48 -71
t-46 -68.5t-40 -59.5t-30 -44q-15 1 -36.5 -10t-44.5 -28.5t-46 -39.5t-43 -42t-34 -35.5t-19 -21.5q6 8 23.5 33t34.5 52.5t28.5 50.5t5.5 26q-6 4 -18.5 -6.5t-28 -27t-31 -36t-27.5 -32.5q-14 11 -41.5 7.5t-54.5 -11.5q-32 -11 -68 -27l306 357q8 -2 17.5 3t16.5 13
t10.5 17t-0.5 17q11 6 15 13.5t4 15.5t-3 17l82 99q-36 -9 -58 -16t-24 -9q-2 -3 2.5 -4.5t10.5 -1.5t13 1t10 1l-183 -43q32 31 60 60q24 24 48.5 49.5t37.5 39.5q24 1 41.5 9t28.5 18q13 11 22 25zM578 497q-12 -17 -33.5 -47t-50 -69.5t-62 -85.5t-67.5 -94l139 14
q13 40 25.5 81.5t23.5 79.5q-18 5 -38 2q12 6 23.5 12t22.5 13l25 92zM-204 -541q1 1 1 1.5t1 1.5q-1 -1 -1 -1.5t-1 -1.5l-1 -1zM216 -231q0 1 1 1t2 1q-1 -1 -2 -1t-1 -1zM1205 289v-1v1zM582 -176v2v-2zM26 15l-1 -1h-2z" />
    <glyph glyph-name="Ccedilla" unicode="&#xc7;" horiz-adv-x="786" 
d="M162 -218q5 6 8.5 12t7.5 12q-17 2 -32 0q-8 18 -21 41t-28 44t-30.5 36.5t-27.5 18.5q-29 55 -31.5 109t12 104t40.5 94.5t54.5 80t55 60t40.5 34.5q-20 -25 -29.5 -41t0 -12.5t43 30.5t98.5 88q32 32 105.5 65t181.5 57q-7 -9 3.5 -13t30 -3.5t43 4.5t43.5 10t32.5 14
t8.5 16q29 3 53.5 6t49.5 5.5t52 3t62 -0.5q-40 -66 -71 -120q-13 -23 -25.5 -45t-21.5 -39.5t-13.5 -29t-2.5 -12.5q1 -1 10 10t22.5 28t28.5 37.5t28.5 39t23.5 32.5t13 18l-316 -541q8 31 12 57q4 23 6 44t-3 29q-4 7 -8 4t-7 -9.5t-5 -14t-2 -9.5q-1 2 -4.5 18t-17.5 35
q34 17 36 29.5t-11.5 18.5t-34 3.5t-31.5 -15.5q-11 5 -22 8.5t-25 3.5q-44 3 -87 -7.5t-81.5 -30t-69.5 -46t-50 -56t-25 -60t7 -57.5q-9 -6 -5 -16.5t15 -22t26.5 -23t30 -18t24 -6.5t8.5 10q41 -14 91 -19.5t99.5 -2t94 17.5t74.5 39q-35 -42 -83.5 -72t-103.5 -48
q-54 -18 -118.5 -19t-125.5 2l-9 -27q16 -8 32.5 -16t27.5 -15q-9 2 -6.5 -7.5t10 -22.5t17 -24.5t16.5 -12.5q11 -36 -2.5 -64t-35.5 -48.5t-44.5 -31.5t-28.5 -12q6 5 9 8.5t0 4t-13 -3.5t-29 -13q-9 -5 -29.5 -3.5t-52.5 12.5q3 3 -4 8t-16.5 8.5t-17.5 4.5t-7 -4
q-17 8 -29.5 14.5t-32.5 19.5q12 16 21 29q8 11 14 21t5 12q-1 0 -6.5 -5.5l-12.5 -12.5l-18 -18l94 133l-4 -18q-2 -8 -2.5 -14.5t1.5 -9.5q2 -6 3.5 -1.5t2.5 6.5q0 -1 0.5 -7.5t4.5 -14.5q-9 0 -9.5 -4t3.5 -8.5t10 -7t9 -0.5l11 -12q19 -13 37.5 -15.5t32 3t20 18
t1.5 29.5q3 0 -1 9t-10 19t-11.5 16t-5.5 0q-14 15 -33 28.5t-36 18.5zM979 576q0 1 1 2z" />
    <glyph glyph-name="Egrave" unicode="&#xc8;" horiz-adv-x="768" 
d="M596 869q-21 -17 -22 -28t11 -20t32.5 -19t42.5 -23q-15 -7 -12 -13.5t13.5 -13t23.5 -14t17 -16.5q-8 -1 -12 -5q-3 -4 -1.5 -12t13.5 -23q-32 13 -35 8.5t10 -17.5l8 2q-3 -13 12 -17.5t28 6.5q6 -2 16 -1t19.5 4.5t17 9.5t10.5 13q40 5 73 9.5t58 7.5q28 4 52 7
l-188 -425l4 16t4.5 27.5t-0.5 33t-10 31.5t-24 22.5t-43 7.5q-44 -2 -88.5 -9t-84.5 -15.5t-73 -15.5t-54 -10q22 8 58.5 17.5t70.5 18t58 16t21 10.5q-2 2 -23.5 -2.5t-56 -12.5t-78 -19t-88.5 -22q1 -11 5 -28t15 -30.5t30 -20.5t50 2q-20 -22 -44 -52.5t-50 -66.5l26 3
q24 3 32 7.5t8 9.5t-8 11l184 37l-3.5 -2.5t-6.5 -6.5t-4 -9.5t3 -11.5t13 -8.5t21.5 -3t29.5 -1t38 -2.5q-17 -4 -29 -11.5t-21 -18t-17 -24t-18 -28.5q-31 1 -68.5 -0.5t-78 -5.5t-82 -9.5t-80.5 -11.5q-29 -42 -57 -82.5t-52 -76.5q61 17 90.5 27t40 15t8.5 6.5t-3 1.5
q3 1 29 7t65.5 16.5t87 24t94.5 28.5q0 -12 15 -15t33 -1q21 2 48 8l8 -10q3 -5 7 -9.5t7 -8.5q-29 -5 -52.5 -21t-37.5 -35.5t-17.5 -38.5t8.5 -28q-20 -2 -31 -8t-16 -14q-6 -9 -8 -19q-12 -4 -31 -8q-33 -7 -107 -22q8 7 11 12t-3 7t-23 0.5t-50 -7.5q-13 -2 -38 -7
t-54.5 -10.5t-60.5 -12t-56.5 -12.5t-41.5 -10t-16 -6t21 1t53.5 8.5t70.5 11t71 9.5q-60 -13 -123.5 -28t-117.5 -29q-62 -16 -123 -32q5 19 3.5 37t-5.5 33q-4 17 -12 33l139 245q-23 5 -53.5 9.5t-62.5 2.5q19 7 31.5 12.5t22.5 14t20.5 20.5t27.5 31q8 1 18 1h19.5
t25.5 1q8 7 20.5 26t36.5 64q25 49 48 90q-32 -8 -57.5 -13t-40.5 -7q9 11 7 20.5t-10.5 15.5t-23 9t-31.5 0q29 15 52 29t37 27t17 23t-9 16q13 7 -2 14t-42 12t-58 7t-51 -1q43 11 65 21.5t31 18.5q11 10 10 19q42 2 72 7q13 2 24 5.5t18.5 8.5t9 11t-4.5 14q36 6 80 13
t92.5 14.5t99.5 14.5t101 15l-71 36q22 4 21.5 12t-15.5 18t-39.5 20t-50.5 18t-49 12.5t-34 3.5q18 17 14 40q18 1 49.5 7.5t61.5 14.5q35 9 74 20zM770 597q-1 0 -2 1zM783 289v-1v1z" />
    <glyph glyph-name="Eacute" unicode="&#xc9;" horiz-adv-x="768" 
d="M584 840q46 -10 87 -17q35 -7 72 -12t60 -6q-11 -21 9 -34q-14 1 -43 -2.5t-62.5 -10.5t-66 -15.5t-52.5 -17t-22.5 -15.5t23.5 -10q-66 -21 -125 -40.5t-97 -32.5q73 12 156.5 24t161.5 24q-3 -13 12 -17.5t28 6.5q6 -2 16 -1t19.5 4.5t17 9.5t10.5 13q40 5 73 9.5
t58 7.5q28 4 52 7l-188 -425l4 16t4.5 27.5t-0.5 33t-10 31.5t-24 22.5t-43 7.5q-44 -2 -88.5 -9t-84.5 -15.5t-73 -15.5t-54 -10q22 8 58.5 17.5t70.5 18t58 16t21 10.5q-2 2 -23.5 -2.5t-56 -12.5t-78 -19t-88.5 -22q1 -11 5 -28t15 -30.5t30 -20.5t50 2
q-20 -22 -44 -52.5t-50 -66.5l26 3q24 3 32 7.5t8 9.5t-8 11l184 37l-3.5 -2.5t-6.5 -6.5t-4 -9.5t3 -11.5t13 -8.5t21.5 -3t29.5 -1t38 -2.5q-17 -4 -29 -11.5t-21 -18t-17 -24t-18 -28.5q-31 1 -68.5 -0.5t-78 -5.5t-82 -9.5t-80.5 -11.5q-29 -42 -57 -82.5t-52 -76.5
q61 17 90.5 27t40 15t8.5 6.5t-3 1.5q3 1 29 7t65.5 16.5t87 24t94.5 28.5q0 -12 15 -15t33 -1q21 2 48 8l8 -10q3 -5 7 -9.5t7 -8.5q-29 -5 -52.5 -21t-37.5 -35.5t-17.5 -38.5t8.5 -28q-20 -2 -31 -8t-16 -14q-6 -9 -8 -19q-12 -4 -31 -8q-33 -7 -107 -22q8 7 11 12t-3 7
t-23 0.5t-50 -7.5q-13 -2 -38 -7t-54.5 -10.5t-60.5 -12t-56.5 -12.5t-41.5 -10t-16 -6t21 1t53.5 8.5t70.5 11t71 9.5q-60 -13 -123.5 -28t-117.5 -29q-62 -16 -123 -32q5 19 3.5 37t-5.5 33q-4 17 -12 33l139 245q-23 5 -53.5 9.5t-62.5 2.5q19 7 31.5 12.5t22.5 14
t20.5 20.5t27.5 31q8 1 18 1h19.5t25.5 1q8 7 20.5 26t36.5 64q25 49 48 90q-32 -8 -57.5 -13t-40.5 -7q9 11 7 20.5t-10.5 15.5t-23 9t-31.5 0q29 15 52 29t37 27t17 23t-9 16q13 7 -2 14t-42 12t-58 7t-51 -1q43 11 65 21.5t31 18.5q11 10 10 19q42 2 72 7q13 2 24 5.5
t18.5 8.5t9 11t-4.5 14l84 14q29 13 58 28t44.5 25.5t10.5 13t-44 -8.5q17 13 21 20t1 10q-4 4 -14 4q7 8 24.5 14t32 11.5t20 11t-12.5 11.5q30 12 57 20t43.5 16t17.5 17t-21 23zM783 289v-1v1z" />
    <glyph glyph-name="Ecircumflex" unicode="&#xca;" horiz-adv-x="768" 
d="M81 171q8 1 18 1h19.5t25.5 1q8 7 20.5 26t36.5 64q25 49 48 90q-32 -8 -57.5 -13t-40.5 -7q9 11 7 20.5t-10.5 15.5t-23 9t-31.5 0q29 15 52 29t37 27t17 23t-9 16q13 7 -2 14t-42 12t-58 7t-51 -1q43 11 65 21.5t31 18.5q11 10 10 19q42 2 72 7q13 2 24 5.5t18.5 8.5
t9 11t-4.5 14q41 7 91.5 15t106 16.5t113.5 17t112 16.5q-3 -13 12 -17.5t28 6.5q6 -2 16 -1t19.5 4.5t17 9.5t10.5 13q40 5 73 9.5t58 7.5q28 4 52 7l-188 -425l4 16t4.5 27.5t-0.5 33t-10 31.5t-24 22.5t-43 7.5q-44 -2 -88.5 -9t-84.5 -15.5t-73 -15.5t-54 -10
q22 8 58.5 17.5t70.5 18t58 16t21 10.5q-2 2 -23.5 -2.5t-56 -12.5t-78 -19t-88.5 -22q1 -11 5 -28t15 -30.5t30 -20.5t50 2q-20 -22 -44 -52.5t-50 -66.5l26 3q24 3 32 7.5t8 9.5t-8 11l184 37l-3.5 -2.5t-6.5 -6.5t-4 -9.5t3 -11.5t13 -8.5t21.5 -3t29.5 -1t38 -2.5
q-17 -4 -29 -11.5t-21 -18t-17 -24t-18 -28.5q-31 1 -68.5 -0.5t-78 -5.5t-82 -9.5t-80.5 -11.5q-29 -42 -57 -82.5t-52 -76.5q61 17 90.5 27t40 15t8.5 6.5t-3 1.5q3 1 29 7t65.5 16.5t87 24t94.5 28.5q0 -12 15 -15t33 -1q21 2 48 8l8 -10q3 -5 7 -9.5t7 -8.5
q-29 -5 -52.5 -21t-37.5 -35.5t-17.5 -38.5t8.5 -28q-20 -2 -31 -8t-16 -14q-6 -9 -8 -19q-12 -4 -31 -8q-33 -7 -107 -22q8 7 11 12t-3 7t-23 0.5t-50 -7.5q-13 -2 -38 -7t-54.5 -10.5t-60.5 -12t-56.5 -12.5t-41.5 -10t-16 -6t21 1t53.5 8.5t70.5 11t71 9.5
q-60 -13 -123.5 -28t-117.5 -29q-62 -16 -123 -32q5 19 3.5 37t-5.5 33q-4 17 -12 33l139 245q-23 5 -53.5 9.5t-62.5 2.5q19 7 31.5 12.5t22.5 14t20.5 20.5t27.5 31zM514 684q-40 8 -74 14l-58 10t-43 6q7 18 -5 30q8 -1 26 2.5t38.5 10t40 14t32 15t14 14t-14.5 9.5
q23 13 47.5 22.5t44 18t30.5 16.5t5 17q4 -1 19 3.5t30 13t23.5 19.5t0.5 23q9 -4 22 -15q11 -9 27.5 -24.5t39.5 -40.5q-18 -5 -21.5 -21t2 -33t16 -30.5t20.5 -11.5q-12 -11 -14 -30q-9 -1 -28.5 -8t-40.5 -15t-38 -15.5t-20 -8.5q9 10 10.5 19t-3.5 22t-15.5 32t-24.5 50
q-20 -15 -31.5 -33.5t2.5 -25.5q-18 -11 -34.5 -18t-26.5 -14.5t-11 -16t13 -20.5zM783 289v-1v1z" />
    <glyph glyph-name="Edieresis" unicode="&#xcb;" horiz-adv-x="768" 
d="M81 171q8 1 18 1h19.5t25.5 1q8 7 20.5 26t36.5 64q25 49 48 90q-32 -8 -57.5 -13t-40.5 -7q9 11 7 20.5t-10.5 15.5t-23 9t-31.5 0q29 15 52 29t37 27t17 23t-9 16q13 7 -2 14t-42 12t-58 7t-51 -1q43 11 65 21.5t31 18.5q11 10 10 19q42 2 72 7q13 2 24 5.5t18.5 8.5
t9 11t-4.5 14q41 7 91.5 15t106 16.5t113.5 17t112 16.5q-3 -13 12 -17.5t28 6.5q6 -2 16 -1t19.5 4.5t17 9.5t10.5 13q40 5 73 9.5t58 7.5q28 4 52 7l-188 -425l4 16t4.5 27.5t-0.5 33t-10 31.5t-24 22.5t-43 7.5q-44 -2 -88.5 -9t-84.5 -15.5t-73 -15.5t-54 -10
q22 8 58.5 17.5t70.5 18t58 16t21 10.5q-2 2 -23.5 -2.5t-56 -12.5t-78 -19t-88.5 -22q1 -11 5 -28t15 -30.5t30 -20.5t50 2q-20 -22 -44 -52.5t-50 -66.5l26 3q24 3 32 7.5t8 9.5t-8 11l184 37l-3.5 -2.5t-6.5 -6.5t-4 -9.5t3 -11.5t13 -8.5t21.5 -3t29.5 -1t38 -2.5
q-17 -4 -29 -11.5t-21 -18t-17 -24t-18 -28.5q-31 1 -68.5 -0.5t-78 -5.5t-82 -9.5t-80.5 -11.5q-29 -42 -57 -82.5t-52 -76.5q61 17 90.5 27t40 15t8.5 6.5t-3 1.5q3 1 29 7t65.5 16.5t87 24t94.5 28.5q0 -12 15 -15t33 -1q21 2 48 8l8 -10q3 -5 7 -9.5t7 -8.5
q-29 -5 -52.5 -21t-37.5 -35.5t-17.5 -38.5t8.5 -28q-20 -2 -31 -8t-16 -14q-6 -9 -8 -19q-12 -4 -31 -8q-33 -7 -107 -22q8 7 11 12t-3 7t-23 0.5t-50 -7.5q-13 -2 -38 -7t-54.5 -10.5t-60.5 -12t-56.5 -12.5t-41.5 -10t-16 -6t21 1t53.5 8.5t70.5 11t71 9.5
q-60 -13 -123.5 -28t-117.5 -29q-62 -16 -123 -32q5 19 3.5 37t-5.5 33q-4 17 -12 33l139 245q-23 5 -53.5 9.5t-62.5 2.5q19 7 31.5 12.5t22.5 14t20.5 20.5t27.5 31zM726 844l-88 -91q6 20 -3 19q-4 0 -11 -5t-19 -17t-29 -33t-41 -52q4 25 0 36t-13.5 13t-24 -2.5
t-30.5 -10.5q28 34 45.5 61.5t29.5 52.5l-153 -154q-6 8 -12 12q-5 4 -12 6t-14 -3q3 17 10 38t12.5 38t5.5 27.5t-11 6.5q44 52 52.5 91.5t-10.5 81.5l149 -107q8 20 15.5 39t17.5 39zM783 289v-1v1z" />
    <glyph glyph-name="Igrave" unicode="&#xcc;" horiz-adv-x="407" 
d="M552 561q-35 -26 -61 -48q-11 -9 -21.5 -19t-18 -18t-11.5 -14t-2 -9q3 -6 15 -4t25 6.5t24.5 10t13.5 6.5l-372 -551q-5 8 -12 7q-6 -1 -16 -9.5t-25 -34.5q8 45 -5.5 35t-59.5 -76q-12 -2 -25.5 -6t-24.5 -8q-13 -4 -27 -10q37 58 63 105q11 20 21 39t16.5 34.5
t8.5 25.5t-2 12q-7 1 -15.5 -5.5t-16.5 -18t-16 -24.5t-13 -23q10 20 29 59t42.5 87t49 100.5t47.5 98.5t38 81.5t22 50.5q-8 -39 -6.5 -46.5t8.5 3.5t17 34t19 46q9 22 16.5 52.5t7 59.5t-12 52t-39.5 30l25 20zM390 882q-21 -17 -22 -28t11 -20t32.5 -19t42.5 -23
q-15 -7 -12 -13.5t13.5 -13t23.5 -14t17 -16.5q-8 -1 -12 -5q-3 -4 -1.5 -12t13.5 -23q-22 9 -30 9.5t-5.5 -5.5t13.5 -16.5t25.5 -23t31.5 -25.5t31 -23q-3 1 -21 10.5t-46 24t-63.5 33t-73.5 37.5q22 4 21.5 12t-15.5 18t-39.5 20t-50.5 18t-49 12.5t-34 3.5q18 17 14 40
q18 1 49.5 7.5t61.5 14.5q35 9 74 20zM-12 -50l7 14l-7 -14l-3 -6zM564 610l-2 1q1 -1 2 -1z" />
    <glyph glyph-name="Iacute" unicode="&#xcd;" horiz-adv-x="407" 
d="M507 862q46 -10 87 -17q35 -7 72 -12t60 -6q-11 -21 9 -34q-14 1 -43 -2.5t-62.5 -10.5t-66 -15.5t-52.5 -17t-22.5 -15.5t23.5 -10q-52 -17 -100 -32.5t-86 -28.5l226 -100q-35 -26 -61 -48q-11 -9 -21.5 -19t-18 -18t-11.5 -14t-2 -9q3 -6 15 -4t25 6.5t24.5 10
t13.5 6.5l-372 -551q-5 8 -12 7q-6 -1 -16 -9.5t-25 -34.5q8 45 -5.5 35t-59.5 -76q-12 -2 -25.5 -6t-24.5 -8q-13 -4 -27 -10q37 58 63 105q11 20 21 39t16.5 34.5t8.5 25.5t-2 12q-7 1 -15.5 -5.5t-16.5 -18t-16 -24.5t-13 -23q10 20 29 59t42.5 87t49 100.5t47.5 98.5
t38 81.5t22 50.5q-8 -39 -6.5 -46.5t8.5 3.5t17 34t19 46q7 17 13 39t8.5 44.5t0.5 44t-12 37.5l-31 -10l30 13q-11 18 -37 26l25 20l55 -25q23 12 41.5 22.5t25.5 16.5t-2 6.5t-40 -8.5q17 13 21 20t1 10q-4 4 -14 4q7 8 24.5 14t32 11.5t20 11t-12.5 11.5q30 12 57 20
t43.5 16t17.5 17t-21 23zM-12 -50l7 14l-7 -14l-3 -6z" />
    <glyph glyph-name="Icircumflex" unicode="&#xce;" horiz-adv-x="407" 
d="M382 658q-12 2 -26 5q-12 2 -27 5t-32 6l255 -113q-35 -26 -61 -48q-11 -9 -21.5 -19t-18 -18t-11.5 -14t-2 -9q3 -6 15 -4t25 6.5t24.5 10t13.5 6.5l-372 -551q-5 8 -12 7q-6 -1 -16 -9.5t-25 -34.5q8 45 -5.5 35t-59.5 -76q-12 -2 -25.5 -6t-24.5 -8q-13 -4 -27 -10
q37 58 63 105q11 20 21 39t16.5 34.5t8.5 25.5t-2 12q-7 1 -15.5 -5.5t-16.5 -18t-16 -24.5t-13 -23q10 20 29 59t42.5 87t49 100.5t47.5 98.5t38 81.5t22 50.5q-8 -39 -6.5 -46.5t8.5 3.5t17 34t19 46q9 22 16.5 52.5t7 59.5t-12 52t-39.5 30l14 11l-40 5q7 18 -5 30
q8 -1 26 2.5t38.5 10t40 14t32 15t14 14t-14.5 9.5q23 13 47.5 22.5t44 18t30.5 16.5t5 17q4 -1 19 3.5t30 13t23.5 19.5t0.5 23q9 -4 22 -15q11 -9 27.5 -24.5t39.5 -40.5q-18 -5 -21.5 -21t2 -33t16 -30.5t20.5 -11.5q-12 -11 -14 -30q-9 -1 -28.5 -8t-40.5 -15t-38 -15.5
t-20 -8.5q9 10 10.5 19t-3.5 22t-15.5 32t-24.5 50q-20 -15 -31.5 -33.5t2.5 -25.5q-18 -11 -34.5 -18t-26.5 -14.5t-11 -16t13 -20.5zM-12 -50l7 14l-7 -14l-3 -6z" />
    <glyph glyph-name="Idieresis" unicode="&#xcf;" horiz-adv-x="407" 
d="M716 787l-88 -91q6 20 -3 19q-4 0 -11 -5t-19 -17t-29 -33t-41 -52q4 25 0 36t-13.5 13t-24 -2.5t-30.5 -10.5q28 34 45.5 61.5t29.5 52.5l-130 -131l150 -66q-35 -26 -61 -48q-11 -9 -21.5 -19t-18 -18t-11.5 -14t-2 -9q3 -6 15 -4t25 6.5t24.5 10t13.5 6.5l-372 -551
q-5 8 -12 7q-6 -1 -16 -9.5t-25 -34.5q8 45 -5.5 35t-59.5 -76q-12 -2 -25.5 -6t-24.5 -8q-13 -4 -27 -10q37 58 63 105q11 20 21 39t16.5 34.5t8.5 25.5t-2 12q-7 1 -15.5 -5.5t-16.5 -18t-16 -24.5t-13 -23q10 20 29 59t42.5 87t49 100.5t47.5 98.5t38 81.5t22 50.5
q-8 -39 -6.5 -46.5t8.5 3.5t17 34t19 46q9 22 16.5 52.5t7 59.5t-12 52t-39.5 30l25 20l91 -41q5 16 10 31t8 26.5t1.5 17.5t-10.5 3q44 52 52.5 91.5t-10.5 81.5l149 -107q8 20 15.5 39t17.5 39zM-12 -50l7 14l-7 -14l-3 -6z" />
    </font>
</defs>
</svg>
