<svg width="219" height="60" viewBox="0 0 219 60" fill="none" xmlns="http://www.w3.org/2000/svg">
<path fill-rule="evenodd" clip-rule="evenodd" d="M211 4H8V8H4V52H8V56H211V52H215V8H211V4Z" fill="#31354C"/>
<rect x="12" width="195" height="4" fill="white"/>
<rect x="12" y="56" width="195" height="4" fill="white"/>
<rect x="4" y="48" width="4" height="4" fill="white"/>
<rect x="8" y="52" width="4" height="4" fill="white"/>
<rect x="8" y="4" width="4" height="4" fill="white"/>
<rect y="12" width="4" height="36" fill="white"/>
<rect x="215" y="12" width="4" height="36" fill="white"/>
<rect x="4" y="8" width="4" height="4" fill="white"/>
<rect x="207" y="4" width="4" height="4" fill="white"/>
<rect x="211" y="8" width="4" height="4" fill="white"/>
<rect x="211" y="48" width="4" height="4" fill="white"/>
<rect x="207" y="52" width="4" height="4" fill="white"/>
</svg>
