<svg width="208" height="60" viewBox="0 0 208 60" fill="none" xmlns="http://www.w3.org/2000/svg">
<path fill-rule="evenodd" clip-rule="evenodd" d="M200.402 4H7.59817V8H3.79907V52H7.59817V56H200.402V52H204.201V8H200.402V4Z" fill="#31354C"/>
<rect x="11.3972" width="185.205" height="4" fill="#8085A0"/>
<rect x="11.3972" y="56" width="185.205" height="4" fill="#8085A0"/>
<rect x="3.79907" y="48" width="3.79909" height="4" fill="#8085A0"/>
<rect x="7.59818" y="52" width="3.79909" height="4" fill="#8085A0"/>
<rect x="7.59818" y="4" width="3.79909" height="4" fill="#8085A0"/>
<rect y="12" width="3.79909" height="36" fill="#8085A0"/>
<rect x="204.201" y="12" width="3.79909" height="36" fill="#8085A0"/>
<rect x="3.79907" y="8" width="3.79909" height="4" fill="#8085A0"/>
<rect x="196.603" y="4" width="3.79909" height="4" fill="#8085A0"/>
<rect x="200.402" y="8" width="3.79909" height="4" fill="#8085A0"/>
<rect x="200.402" y="48" width="3.79909" height="4" fill="#8085A0"/>
<rect x="196.603" y="52" width="3.79909" height="4" fill="#8085A0"/>
</svg>
