<svg width="343" height="76" viewBox="0 0 343 76" fill="none" xmlns="http://www.w3.org/2000/svg">
<rect x="4" y="64" width="4" height="4" fill="white"/>
<rect x="8" y="68" width="4" height="4" fill="white"/>
<rect x="4" y="12" width="4" height="4" fill="white"/>
<rect x="8" y="8" width="4" height="4" fill="white"/>
<rect x="335" y="12" width="4" height="4" fill="white"/>
<rect x="331" y="8" width="4" height="4" fill="white"/>
<rect y="16" width="4" height="48" fill="white"/>
<rect x="12" y="72" width="319" height="4" fill="white"/>
<rect x="12" y="4" width="319" height="4" fill="white"/>
<rect x="339" y="68" width="4" height="4" transform="rotate(-180 339 68)" fill="white"/>
<rect x="343" y="64" width="4" height="48" transform="rotate(-180 343 64)" fill="white"/>
<rect x="335" y="72" width="4" height="4" transform="rotate(-180 335 72)" fill="white"/>
<path d="M331 12.0084L12 12V16.0082H8L8.03638 64.0082H11.9999V68.0082L331 68.0084V64.0084H335V16.0084H331V12.0084Z" fill="#F7D108"/>
<rect x="8" y="12" width="4" height="4" fill="black"/>
<rect x="8" y="64" width="4" height="4" fill="black"/>
<rect x="4" y="16" width="4" height="48" fill="black"/>
<rect x="12" y="8" width="319" height="4" fill="black"/>
<rect x="12" y="68" width="319" height="4" fill="black"/>
<rect x="335" y="16" width="4" height="4" transform="rotate(-180 335 16)" fill="black"/>
<rect x="335" y="68" width="4" height="4" transform="rotate(-180 335 68)" fill="black"/>
<rect x="339" y="64" width="4" height="48" transform="rotate(-180 339 64)" fill="black"/>
</svg>
