<svg width="272" height="381" viewBox="0 0 272 381" fill="none" xmlns="http://www.w3.org/2000/svg">
<path fill-rule="evenodd" clip-rule="evenodd" d="M196.847 64.2899L179.796 91.4237L170.893 85.8292L168.999 88.8431L164.548 86.046L160.759 92.0756L120.698 66.9011L124.487 60.8715L120.036 58.0743L121.93 55.0604L113.028 49.4662L130.079 22.3324L138.981 27.9266L140.877 24.9107L145.328 27.7079L149.117 21.6781L189.178 46.8526L185.388 52.8824L189.84 55.6796L187.944 58.6954L196.847 64.2899Z" fill="#DFA30A"/>
<rect x="183.587" y="85.3914" width="3.56073" height="5.25711" transform="rotate(122.146 183.587 85.3914)" fill="black"/>
<rect x="181.692" y="88.4072" width="3.56073" height="5.25711" transform="rotate(122.146 181.692 88.4072)" fill="black"/>
<rect x="187.284" y="49.8671" width="5.25711" height="3.56073" transform="rotate(-147.854 187.284 49.8671)" fill="black"/>
<rect x="182.834" y="47.0701" width="5.25711" height="3.56073" transform="rotate(-147.854 182.834 47.0701)" fill="black"/>
<rect x="191.736" y="52.6643" width="3.56073" height="5.25711" transform="rotate(122.146 191.736 52.6643)" fill="black"/>
<rect x="189.932" y="85.1763" width="3.56073" height="5.25711" transform="rotate(122.146 189.932 85.1763)" fill="black"/>
<rect x="194.292" y="58.4766" width="3.56073" height="5.25711" transform="rotate(122.146 194.292 58.4766)" fill="black"/>
<rect x="196.849" y="64.2882" width="3.56073" height="5.25711" transform="rotate(122.146 196.849 64.2882)" fill="black"/>
<rect x="194.954" y="67.3036" width="3.56073" height="5.25711" transform="rotate(122.146 194.954 67.3036)" fill="black"/>
<rect x="197.51" y="73.1163" width="3.56073" height="5.25711" transform="rotate(122.146 197.51 73.1163)" fill="black"/>
<rect x="195.617" y="76.1299" width="3.56073" height="5.25711" transform="rotate(122.146 195.617 76.1299)" fill="black"/>
<rect x="193.721" y="79.1461" width="3.56073" height="5.25711" transform="rotate(122.146 193.721 79.1461)" fill="black"/>
<rect x="191.827" y="82.1605" width="3.56073" height="5.25711" transform="rotate(122.146 191.827 82.1605)" fill="black"/>
<rect x="122.594" y="63.8859" width="5.25711" height="3.56073" transform="rotate(32.1456 122.594 63.8859)" fill="black"/>
<rect x="127.045" y="66.6827" width="5.25711" height="3.56073" transform="rotate(32.1456 127.045 66.6827)" fill="black"/>
<rect x="118.142" y="61.0886" width="3.56073" height="5.25711" transform="rotate(-57.8544 118.142 61.0886)" fill="black"/>
<rect x="119.946" y="28.5765" width="3.56073" height="5.25711" transform="rotate(-57.8544 119.946 28.5765)" fill="black"/>
<rect x="115.586" y="55.276" width="3.56073" height="5.25711" transform="rotate(-57.8544 115.586 55.276)" fill="black"/>
<rect x="113.029" y="49.464" width="3.56073" height="5.25711" transform="rotate(-57.8544 113.029 49.464)" fill="black"/>
<rect x="114.924" y="46.4485" width="3.56073" height="5.25711" transform="rotate(-57.8544 114.924 46.4485)" fill="black"/>
<rect x="112.368" y="40.6359" width="3.56073" height="5.25711" transform="rotate(-57.8544 112.368 40.6359)" fill="black"/>
<rect x="114.261" y="37.6229" width="3.56073" height="5.25711" transform="rotate(-57.8544 114.261 37.6229)" fill="black"/>
<rect x="116.157" y="34.6067" width="3.56073" height="5.25711" transform="rotate(-57.8544 116.157 34.6067)" fill="black"/>
<rect x="118.051" y="31.592" width="3.56073" height="5.25711" transform="rotate(-57.8544 118.051 31.592)" fill="black"/>
<rect x="134.533" y="25.1277" width="3.56073" height="5.25711" transform="rotate(122.146 134.533 25.1277)" fill="black"/>
<rect x="132.638" y="28.1421" width="3.56073" height="5.25711" transform="rotate(122.146 132.638 28.1421)" fill="black"/>
<rect x="136.427" y="22.1133" width="5.25711" height="3.56073" transform="rotate(32.1456 136.427 22.1133)" fill="black"/>
<rect x="177.721" y="35.4453" width="5.25711" height="3.56073" transform="rotate(32.1456 177.721 35.4453)" fill="black"/>
<rect x="142.773" y="21.895" width="5.25711" height="3.56073" transform="rotate(32.1456 142.773 21.895)" fill="black"/>
<rect x="149.119" y="21.6764" width="5.25711" height="3.56073" transform="rotate(32.1456 149.119 21.6764)" fill="black"/>
<rect x="153.571" y="24.4741" width="5.25711" height="3.56073" transform="rotate(32.1456 153.571 24.4741)" fill="black"/>
<rect x="159.916" y="24.2568" width="5.25711" height="3.56073" transform="rotate(32.1456 159.916 24.2568)" fill="black"/>
<rect x="164.367" y="27.0536" width="5.25711" height="3.56073" transform="rotate(32.1456 164.367 27.0536)" fill="black"/>
<rect x="168.818" y="29.8508" width="5.25711" height="3.56073" transform="rotate(32.1456 168.818 29.8508)" fill="black"/>
<rect x="173.269" y="32.6482" width="5.25711" height="3.56073" transform="rotate(32.1456 173.269 32.6482)" fill="black"/>
<rect x="173.452" y="91.6386" width="5.25711" height="3.56073" transform="rotate(-147.854 173.452 91.6386)" fill="black"/>
<rect x="132.158" y="78.3066" width="5.25711" height="3.56073" transform="rotate(-147.854 132.158 78.3066)" fill="black"/>
<rect x="167.106" y="91.8569" width="5.25711" height="3.56073" transform="rotate(-147.854 167.106 91.8569)" fill="black"/>
<rect x="160.76" y="92.0751" width="5.25711" height="3.56073" transform="rotate(-147.854 160.76 92.0751)" fill="black"/>
<rect x="156.308" y="89.278" width="5.25711" height="3.56073" transform="rotate(-147.854 156.308 89.278)" fill="black"/>
<rect x="149.963" y="89.4951" width="5.25711" height="3.56073" transform="rotate(-147.854 149.963 89.4951)" fill="black"/>
<rect x="145.512" y="86.6982" width="5.25711" height="3.56073" transform="rotate(-147.854 145.512 86.6982)" fill="black"/>
<rect x="141.061" y="83.9011" width="5.25711" height="3.56073" transform="rotate(-147.854 141.061 83.9011)" fill="black"/>
<rect x="136.61" y="81.1038" width="5.25711" height="3.56073" transform="rotate(-147.854 136.61 81.1038)" fill="black"/>
<rect x="176.596" y="78.9801" width="2.75782" height="4.07168" transform="rotate(122.146 176.596 78.9801)" fill="#DD9914"/>
<rect x="175.129" y="81.3141" width="2.75782" height="4.07168" transform="rotate(122.146 175.129 81.3141)" fill="#DD9914"/>
<rect x="179.459" y="51.465" width="4.07168" height="2.75782" transform="rotate(-147.854 179.459 51.465)" fill="#DD9914"/>
<rect x="176.012" y="49.2989" width="4.07168" height="2.75782" transform="rotate(-147.854 176.012 49.2989)" fill="#DD9914"/>
<rect x="182.907" y="53.6315" width="2.75782" height="4.07168" transform="rotate(122.146 182.907 53.6315)" fill="#DD9914"/>
<rect x="181.511" y="78.812" width="2.75782" height="4.07168" transform="rotate(122.146 181.511 78.812)" fill="#DD9914"/>
<rect x="184.888" y="58.133" width="2.75782" height="4.07168" transform="rotate(122.146 184.888 58.133)" fill="#DD9914"/>
<rect x="186.868" y="62.6339" width="2.75782" height="4.07168" transform="rotate(122.146 186.868 62.6339)" fill="#DD9914"/>
<rect x="185.4" y="64.97" width="2.75782" height="4.07168" transform="rotate(122.146 185.4 64.97)" fill="#DD9914"/>
<rect x="187.381" y="69.4714" width="2.75782" height="4.07168" transform="rotate(122.146 187.381 69.4714)" fill="#DD9914"/>
<rect x="185.913" y="71.8072" width="2.75782" height="4.07168" transform="rotate(122.146 185.913 71.8072)" fill="#DD9914"/>
<rect x="184.445" y="74.1422" width="2.75782" height="4.07168" transform="rotate(122.146 184.445 74.1422)" fill="#DD9914"/>
<rect x="182.978" y="76.4773" width="2.75782" height="4.07168" transform="rotate(122.146 182.978 76.4773)" fill="#DD9914"/>
<rect x="129.359" y="62.3241" width="4.07168" height="2.75782" transform="rotate(32.1456 129.359 62.3241)" fill="#DD9914"/>
<rect x="132.806" y="64.4902" width="4.07168" height="2.75782" transform="rotate(32.1456 132.806 64.4902)" fill="#DD9914"/>
<rect x="125.911" y="60.1577" width="2.75782" height="4.07168" transform="rotate(-57.8544 125.911 60.1577)" fill="#DD9914"/>
<rect x="127.307" y="34.9777" width="2.75782" height="4.07168" transform="rotate(-57.8544 127.307 34.9777)" fill="#DD9914"/>
<rect x="123.93" y="55.6562" width="2.75782" height="4.07168" transform="rotate(-57.8544 123.93 55.6562)" fill="#DD9914"/>
<rect x="121.95" y="51.1551" width="2.75782" height="4.07168" transform="rotate(-57.8544 121.95 51.1551)" fill="#DD9914"/>
<rect x="123.418" y="48.819" width="2.75782" height="4.07168" transform="rotate(-57.8544 123.418 48.819)" fill="#DD9914"/>
<rect x="121.437" y="44.3179" width="2.75782" height="4.07168" transform="rotate(-57.8544 121.437 44.3179)" fill="#DD9914"/>
<rect x="122.905" y="41.9821" width="2.75782" height="4.07168" transform="rotate(-57.8544 122.905 41.9821)" fill="#DD9914"/>
<rect x="124.373" y="39.647" width="2.75782" height="4.07168" transform="rotate(-57.8544 124.373 39.647)" fill="#DD9914"/>
<rect x="125.84" y="37.3124" width="2.75782" height="4.07168" transform="rotate(-57.8544 125.84 37.3124)" fill="#DD9914"/>
<rect x="138.604" y="32.3053" width="2.75782" height="4.07168" transform="rotate(122.146 138.604 32.3053)" fill="#DD9914"/>
<rect x="137.137" y="34.64" width="2.75782" height="4.07168" transform="rotate(122.146 137.137 34.64)" fill="#DD9914"/>
<rect x="140.072" y="29.9696" width="4.07168" height="2.75782" transform="rotate(32.1456 140.072 29.9696)" fill="#DD9914"/>
<rect x="172.053" y="40.2958" width="4.07168" height="2.75782" transform="rotate(32.1456 172.053 40.2958)" fill="#DD9914"/>
<rect x="144.986" y="29.8009" width="4.07168" height="2.75782" transform="rotate(32.1456 144.986 29.8009)" fill="#DD9914"/>
<rect x="149.901" y="29.632" width="4.07168" height="2.75782" transform="rotate(32.1456 149.901 29.632)" fill="#DD9914"/>
<rect x="153.348" y="31.7981" width="4.07168" height="2.75782" transform="rotate(32.1456 153.348 31.7981)" fill="#DD9914"/>
<rect x="158.263" y="31.6304" width="4.07168" height="2.75782" transform="rotate(32.1456 158.263 31.6304)" fill="#DD9914"/>
<rect x="161.71" y="33.7966" width="4.07168" height="2.75782" transform="rotate(32.1456 161.71 33.7966)" fill="#DD9914"/>
<rect x="165.158" y="35.963" width="4.07168" height="2.75782" transform="rotate(32.1456 165.158 35.963)" fill="#DD9914"/>
<rect x="168.605" y="38.1294" width="4.07168" height="2.75782" transform="rotate(32.1456 168.605 38.1294)" fill="#DD9914"/>
<rect x="168.747" y="83.8195" width="4.07168" height="2.75782" transform="rotate(-147.854 168.747 83.8195)" fill="#DD9914"/>
<rect x="136.765" y="73.4926" width="4.07168" height="2.75782" transform="rotate(-147.854 136.765 73.4926)" fill="#DD9914"/>
<rect x="163.832" y="83.9877" width="4.07168" height="2.75782" transform="rotate(-147.854 163.832 83.9877)" fill="#DD9914"/>
<rect x="158.917" y="84.1564" width="4.07168" height="2.75782" transform="rotate(-147.854 158.917 84.1564)" fill="#DD9914"/>
<rect x="155.469" y="81.9896" width="4.07168" height="2.75782" transform="rotate(-147.854 155.469 81.9896)" fill="#DD9914"/>
<rect x="150.555" y="82.1578" width="4.07168" height="2.75782" transform="rotate(-147.854 150.555 82.1578)" fill="#DD9914"/>
<rect x="147.108" y="79.9918" width="4.07168" height="2.75782" transform="rotate(-147.854 147.108 79.9918)" fill="#DD9914"/>
<rect x="143.66" y="77.8254" width="4.07168" height="2.75782" transform="rotate(-147.854 143.66 77.8254)" fill="#DD9914"/>
<rect x="140.213" y="75.6591" width="4.07168" height="2.75782" transform="rotate(-147.854 140.213 75.6591)" fill="#DD9914"/>
<path d="M153.486 45.8649L153.447 45.926L151.925 44.9691L151.059 44.4252L150.515 45.2908L149.517 46.8793L148.973 47.7448L149.839 48.2887L151.361 49.2456L150.898 49.983L150.354 50.8486L151.22 51.3924L152.721 52.3359L152.249 53.0878L151.785 53.8253L150.284 52.8818L149.418 52.3379L148.874 53.2034L147.876 54.792L147.404 55.5439L143.514 53.0996L142.648 52.5557L142.105 53.4212L141.106 55.0097L140.562 55.8753L141.428 56.4192L142.929 57.3626L142.466 58.1001L141.922 58.9656L142.787 59.5095L144.31 60.4664L144.174 60.6827L143.711 61.4202L142.188 60.4633L141.323 59.9194L140.779 60.7849L139.78 62.3735L139.237 63.239L140.102 63.7829L143.992 66.2271L142.521 68.5676L141.977 69.4331L142.843 69.977L147.555 72.9383L148.421 73.4822L148.964 72.6167L150.435 70.2763L151.092 70.6893L148.614 74.6327L148.07 75.4982L148.936 76.0421L151.282 77.5161L152.147 78.06L152.691 77.1945L157.718 69.194L158.262 68.3285L157.397 67.7846L155.895 66.8411L156.031 66.6248L156.495 65.8873L157.996 66.8308L158.862 67.3747L159.406 66.5092L161.411 63.3177L161.955 62.4522L161.09 61.9083L159.588 60.9648L160.052 60.2273L160.524 59.4754L160.596 59.3618L161.068 58.6099L161.531 57.8725L163.033 58.816L163.898 59.3598L164.442 58.4943L165.44 56.9058L165.984 56.0403L165.119 55.4964L163.617 54.5529L164.081 53.8155L164.625 52.9499L163.759 52.406L162.258 51.4626L162.296 51.4015L164.774 47.4581L165.432 47.871L163.961 50.2115L163.417 51.077L164.282 51.6209L166.628 53.0949L167.494 53.6388L168.037 52.7733L171.05 47.9788L171.594 47.1133L170.729 46.5694L169.227 45.6259L169.691 44.8884L170.235 44.0229L169.369 43.479L162.29 39.0303L161.424 38.4864L160.88 39.3519L158.402 43.2953L157.724 42.8689L159.195 40.5269L159.739 39.6614L158.874 39.1175L156.528 37.6435L155.663 37.0996L155.119 37.9651L152.105 42.7612L151.561 43.6267L152.427 44.1706L153.949 45.1275L153.486 45.8649Z" fill="#8A6300" stroke="#FFEB82" stroke-width="2.04443"/>
<path fill-rule="evenodd" clip-rule="evenodd" d="M201.545 56.8141L184.494 83.9479L175.591 78.3534L173.697 81.3677L169.246 78.5706L165.457 84.6002L125.396 59.4257L129.185 53.3961L124.734 50.5989L126.628 47.5846L117.726 41.9905L134.777 14.8566L143.679 20.4508L145.574 17.4353L150.025 20.2325L153.815 14.2027L193.875 39.3771L190.086 45.407L194.537 48.2042L192.642 51.2196L201.545 56.8141Z" fill="#F7D108"/>
<rect x="188.283" y="77.9185" width="3.56073" height="5.25711" transform="rotate(122.146 188.283 77.9185)" fill="black"/>
<rect x="186.388" y="80.9332" width="3.56073" height="5.25711" transform="rotate(122.146 186.388 80.9332)" fill="black"/>
<rect x="191.981" y="42.3929" width="5.25711" height="3.56073" transform="rotate(-147.854 191.981 42.3929)" fill="black"/>
<rect x="187.531" y="39.5959" width="5.25711" height="3.56073" transform="rotate(-147.854 187.531 39.5959)" fill="black"/>
<rect x="196.433" y="45.1902" width="3.56073" height="5.25711" transform="rotate(122.146 196.433 45.1902)" fill="black"/>
<rect x="194.629" y="77.7022" width="3.56073" height="5.25711" transform="rotate(122.146 194.629 77.7022)" fill="black"/>
<rect x="198.989" y="51.0027" width="3.56073" height="5.25711" transform="rotate(122.146 198.989 51.0027)" fill="black"/>
<rect x="201.546" y="56.8148" width="3.56073" height="5.25711" transform="rotate(122.146 201.546 56.8148)" fill="black"/>
<rect x="199.651" y="59.8295" width="3.56073" height="5.25711" transform="rotate(122.146 199.651 59.8295)" fill="black"/>
<rect x="202.207" y="65.6422" width="3.56073" height="5.25711" transform="rotate(122.146 202.207 65.6422)" fill="black"/>
<rect x="200.314" y="68.6555" width="3.56073" height="5.25711" transform="rotate(122.146 200.314 68.6555)" fill="black"/>
<rect x="198.418" y="71.672" width="3.56073" height="5.25711" transform="rotate(122.146 198.418 71.672)" fill="black"/>
<rect x="196.524" y="74.6868" width="3.56073" height="5.25711" transform="rotate(122.146 196.524 74.6868)" fill="black"/>
<rect x="127.291" y="56.412" width="5.25711" height="3.56073" transform="rotate(32.1456 127.291 56.412)" fill="black"/>
<rect x="131.742" y="59.2088" width="5.25711" height="3.56073" transform="rotate(32.1456 131.742 59.2088)" fill="black"/>
<rect x="122.84" y="53.6147" width="3.56073" height="5.25711" transform="rotate(-57.8544 122.84 53.6147)" fill="black"/>
<rect x="124.643" y="21.1029" width="3.56073" height="5.25711" transform="rotate(-57.8544 124.643 21.1029)" fill="black"/>
<rect x="120.283" y="47.8024" width="3.56073" height="5.25711" transform="rotate(-57.8544 120.283 47.8024)" fill="black"/>
<rect x="117.726" y="41.9907" width="3.56073" height="5.25711" transform="rotate(-57.8544 117.726 41.9907)" fill="black"/>
<rect x="119.621" y="38.9753" width="3.56073" height="5.25711" transform="rotate(-57.8544 119.621 38.9753)" fill="black"/>
<rect x="117.065" y="33.1627" width="3.56073" height="5.25711" transform="rotate(-57.8544 117.065 33.1627)" fill="black"/>
<rect x="118.959" y="30.1493" width="3.56073" height="5.25711" transform="rotate(-57.8544 118.959 30.1493)" fill="black"/>
<rect x="120.854" y="27.1328" width="3.56073" height="5.25711" transform="rotate(-57.8544 120.854 27.1328)" fill="black"/>
<rect x="122.748" y="24.1184" width="3.56073" height="5.25711" transform="rotate(-57.8544 122.748 24.1184)" fill="black"/>
<rect x="139.229" y="17.6547" width="3.56073" height="5.25711" transform="rotate(122.146 139.229 17.6547)" fill="black"/>
<rect x="137.334" y="20.6691" width="3.56073" height="5.25711" transform="rotate(122.146 137.334 20.6691)" fill="black"/>
<rect x="141.123" y="14.6403" width="5.25711" height="3.56073" transform="rotate(32.1456 141.123 14.6403)" fill="black"/>
<rect x="182.417" y="27.9723" width="5.25711" height="3.56073" transform="rotate(32.1456 182.417 27.9723)" fill="black"/>
<rect x="147.469" y="14.422" width="5.25711" height="3.56073" transform="rotate(32.1456 147.469 14.422)" fill="black"/>
<rect x="153.815" y="14.2034" width="5.25711" height="3.56073" transform="rotate(32.1456 153.815 14.2034)" fill="black"/>
<rect x="158.267" y="17.0011" width="5.25711" height="3.56073" transform="rotate(32.1456 158.267 17.0011)" fill="black"/>
<rect x="164.612" y="16.7838" width="5.25711" height="3.56073" transform="rotate(32.1456 164.612 16.7838)" fill="black"/>
<rect x="169.063" y="19.5806" width="5.25711" height="3.56073" transform="rotate(32.1456 169.063 19.5806)" fill="black"/>
<rect x="173.514" y="22.3778" width="5.25711" height="3.56073" transform="rotate(32.1456 173.514 22.3778)" fill="black"/>
<rect x="177.966" y="25.1752" width="5.25711" height="3.56073" transform="rotate(32.1456 177.966 25.1752)" fill="black"/>
<rect x="178.148" y="84.1655" width="5.25711" height="3.56073" transform="rotate(-147.854 178.148 84.1655)" fill="black"/>
<rect x="136.854" y="70.8335" width="5.25711" height="3.56073" transform="rotate(-147.854 136.854 70.8335)" fill="black"/>
<rect x="171.802" y="84.3839" width="5.25711" height="3.56073" transform="rotate(-147.854 171.802 84.3839)" fill="black"/>
<rect x="165.456" y="84.6021" width="5.25711" height="3.56073" transform="rotate(-147.854 165.456 84.6021)" fill="black"/>
<rect x="161.005" y="81.8049" width="5.25711" height="3.56073" transform="rotate(-147.854 161.005 81.8049)" fill="black"/>
<rect x="154.659" y="82.022" width="5.25711" height="3.56073" transform="rotate(-147.854 154.659 82.022)" fill="black"/>
<rect x="150.208" y="79.2252" width="5.25711" height="3.56073" transform="rotate(-147.854 150.208 79.2252)" fill="black"/>
<rect x="145.757" y="76.428" width="5.25711" height="3.56073" transform="rotate(-147.854 145.757 76.428)" fill="black"/>
<rect x="141.306" y="73.6307" width="5.25711" height="3.56073" transform="rotate(-147.854 141.306 73.6307)" fill="black"/>
<rect x="181.294" y="71.5057" width="2.75782" height="4.07168" transform="rotate(122.146 181.294 71.5057)" fill="#DD9914"/>
<rect x="179.826" y="73.8404" width="2.75782" height="4.07168" transform="rotate(122.146 179.826 73.8404)" fill="#DD9914"/>
<rect x="184.156" y="43.9932" width="4.07168" height="2.75782" transform="rotate(-147.854 184.156 43.9932)" fill="#DD9914"/>
<rect x="180.709" y="41.827" width="4.07168" height="2.75782" transform="rotate(-147.854 180.709 41.827)" fill="#DD9914"/>
<rect x="187.603" y="46.1597" width="2.75782" height="4.07168" transform="rotate(122.146 187.603 46.1597)" fill="#DD9914"/>
<rect x="186.207" y="71.3397" width="2.75782" height="4.07168" transform="rotate(122.146 186.207 71.3397)" fill="#DD9914"/>
<rect x="189.584" y="50.661" width="2.75782" height="4.07168" transform="rotate(122.146 189.584 50.661)" fill="#DD9914"/>
<rect x="191.565" y="55.1622" width="2.75782" height="4.07168" transform="rotate(122.146 191.565 55.1622)" fill="#DD9914"/>
<rect x="190.097" y="57.4983" width="2.75782" height="4.07168" transform="rotate(122.146 190.097 57.4983)" fill="#DD9914"/>
<rect x="192.077" y="61.9995" width="2.75782" height="4.07168" transform="rotate(122.146 192.077 61.9995)" fill="#DD9914"/>
<rect x="190.609" y="64.3352" width="2.75782" height="4.07168" transform="rotate(122.146 190.609 64.3352)" fill="#DD9914"/>
<rect x="189.142" y="66.6703" width="2.75782" height="4.07168" transform="rotate(122.146 189.142 66.6703)" fill="#DD9914"/>
<rect x="187.675" y="69.0039" width="2.75782" height="4.07168" transform="rotate(122.146 187.675 69.0039)" fill="#DD9914"/>
<rect x="134.056" y="54.8507" width="4.07168" height="2.75782" transform="rotate(32.1456 134.056 54.8507)" fill="#DD9914"/>
<rect x="137.503" y="57.0168" width="4.07168" height="2.75782" transform="rotate(32.1456 137.503 57.0168)" fill="#DD9914"/>
<rect x="130.608" y="52.6843" width="2.75782" height="4.07168" transform="rotate(-57.8544 130.608 52.6843)" fill="#DD9914"/>
<rect x="132.004" y="27.5037" width="2.75782" height="4.07168" transform="rotate(-57.8544 132.004 27.5037)" fill="#DD9914"/>
<rect x="128.627" y="48.1826" width="2.75782" height="4.07168" transform="rotate(-57.8544 128.627 48.1826)" fill="#DD9914"/>
<rect x="126.647" y="43.6816" width="2.75782" height="4.07168" transform="rotate(-57.8544 126.647 43.6816)" fill="#DD9914"/>
<rect x="128.115" y="41.3455" width="2.75782" height="4.07168" transform="rotate(-57.8544 128.115 41.3455)" fill="#DD9914"/>
<rect x="126.134" y="36.8442" width="2.75782" height="4.07168" transform="rotate(-57.8544 126.134 36.8442)" fill="#DD9914"/>
<rect x="127.602" y="34.5084" width="2.75782" height="4.07168" transform="rotate(-57.8544 127.602 34.5084)" fill="#DD9914"/>
<rect x="129.069" y="32.1737" width="2.75782" height="4.07168" transform="rotate(-57.8544 129.069 32.1737)" fill="#DD9914"/>
<rect x="130.536" y="29.8387" width="2.75782" height="4.07168" transform="rotate(-57.8544 130.536 29.8387)" fill="#DD9914"/>
<rect x="143.301" y="24.8315" width="2.75782" height="4.07168" transform="rotate(122.146 143.301 24.8315)" fill="#DD9914"/>
<rect x="141.834" y="27.1663" width="2.75782" height="4.07168" transform="rotate(122.146 141.834 27.1663)" fill="#DD9914"/>
<rect x="144.769" y="22.4958" width="4.07168" height="2.75782" transform="rotate(32.1456 144.769 22.4958)" fill="#DD9914"/>
<rect x="176.75" y="32.8224" width="4.07168" height="2.75782" transform="rotate(32.1456 176.75 32.8224)" fill="#DD9914"/>
<rect x="149.683" y="22.3271" width="4.07168" height="2.75782" transform="rotate(32.1456 149.683 22.3271)" fill="#DD9914"/>
<rect x="154.597" y="22.1589" width="4.07168" height="2.75782" transform="rotate(32.1456 154.597 22.1589)" fill="#DD9914"/>
<rect x="158.044" y="24.3251" width="4.07168" height="2.75782" transform="rotate(32.1456 158.044 24.3251)" fill="#DD9914"/>
<rect x="162.96" y="24.157" width="4.07168" height="2.75782" transform="rotate(32.1456 162.96 24.157)" fill="#DD9914"/>
<rect x="166.407" y="26.3232" width="4.07168" height="2.75782" transform="rotate(32.1456 166.407 26.3232)" fill="#DD9914"/>
<rect x="169.855" y="28.4896" width="4.07168" height="2.75782" transform="rotate(32.1456 169.855 28.4896)" fill="#DD9914"/>
<rect x="173.302" y="30.656" width="4.07168" height="2.75782" transform="rotate(32.1456 173.302 30.656)" fill="#DD9914"/>
<rect x="173.444" y="76.3452" width="4.07168" height="2.75782" transform="rotate(-147.854 173.444 76.3452)" fill="#DD9914"/>
<rect x="141.463" y="66.0182" width="4.07168" height="2.75782" transform="rotate(-147.854 141.463 66.0182)" fill="#DD9914"/>
<rect x="168.53" y="76.5135" width="4.07168" height="2.75782" transform="rotate(-147.854 168.53 76.5135)" fill="#DD9914"/>
<rect x="163.615" y="76.6821" width="4.07168" height="2.75782" transform="rotate(-147.854 163.615 76.6821)" fill="#DD9914"/>
<rect x="160.167" y="74.5153" width="4.07168" height="2.75782" transform="rotate(-147.854 160.167 74.5153)" fill="#DD9914"/>
<rect x="155.252" y="74.6837" width="4.07168" height="2.75782" transform="rotate(-147.854 155.252 74.6837)" fill="#DD9914"/>
<rect x="151.805" y="72.5176" width="4.07168" height="2.75782" transform="rotate(-147.854 151.805 72.5176)" fill="#DD9914"/>
<rect x="148.358" y="70.351" width="4.07168" height="2.75782" transform="rotate(-147.854 148.358 70.351)" fill="#DD9914"/>
<rect x="144.91" y="68.1847" width="4.07168" height="2.75782" transform="rotate(-147.854 144.91 68.1847)" fill="#DD9914"/>
<path fill-rule="evenodd" clip-rule="evenodd" d="M68.28 87.9583L21.659 93.701L23.5432 108.997L18.3646 109.635L19.3066 117.283L8.94693 118.559L17.4256 187.391L27.7853 186.115L28.7273 193.763L33.906 193.125L35.7901 208.421L82.4111 202.678L80.527 187.383L85.7086 186.744L84.7665 179.096L95.1272 177.82L86.6486 108.988L76.2878 110.264L75.3458 102.616L70.1642 103.255L68.28 87.9583Z" fill="#DFA30A"/>
<rect width="5.21926" height="7.70578" transform="matrix(-0.992499 0.122255 0.122255 0.992499 32.0235 92.4244)" fill="black"/>
<rect width="5.21926" height="7.70578" transform="matrix(-0.992499 0.122255 0.122255 0.992499 26.8419 93.0626)" fill="black"/>
<rect width="7.70578" height="5.21926" transform="matrix(0.122255 0.992499 0.992499 -0.122255 81.4698 109.624)" fill="black"/>
<rect width="7.70578" height="5.21926" transform="matrix(0.122255 0.992499 0.992499 -0.122255 82.4118 117.272)" fill="black"/>
<rect width="5.21926" height="7.70578" transform="matrix(-0.992499 0.122255 0.122255 0.992499 80.5277 101.976)" fill="black"/>
<rect width="5.21926" height="7.70578" transform="matrix(-0.992499 0.122255 0.122255 0.992499 36.2579 84.1372)" fill="black"/>
<rect width="5.21926" height="7.70578" transform="matrix(-0.992499 0.122255 0.122255 0.992499 74.4053 94.9666)" fill="black"/>
<rect width="5.21926" height="7.70578" transform="matrix(-0.992499 0.122255 0.122255 0.992499 68.2834 87.9562)" fill="black"/>
<rect width="5.21926" height="7.70578" transform="matrix(-0.992499 0.122255 0.122255 0.992499 63.1021 88.5944)" fill="black"/>
<rect width="5.21926" height="7.70578" transform="matrix(-0.992499 0.122255 0.122255 0.992499 56.9794 81.5848)" fill="black"/>
<rect width="5.21926" height="7.70578" transform="matrix(-0.992499 0.122255 0.122255 0.992499 51.8015 82.2226)" fill="black"/>
<rect width="5.21926" height="7.70578" transform="matrix(-0.992499 0.122255 0.122255 0.992499 46.619 82.861)" fill="black"/>
<rect width="5.21926" height="7.70578" transform="matrix(-0.992499 0.122255 0.122255 0.992499 41.4395 83.499)" fill="black"/>
<rect width="7.70578" height="5.21926" transform="matrix(-0.122255 -0.992499 -0.992499 0.122255 22.6058 186.753)" fill="black"/>
<rect width="7.70578" height="5.21926" transform="matrix(-0.122255 -0.992499 -0.992499 0.122255 21.6638 179.105)" fill="black"/>
<rect width="5.21926" height="7.70578" transform="matrix(0.992499 -0.122255 -0.122255 -0.992499 23.5479 194.401)" fill="black"/>
<rect width="5.21926" height="7.70578" transform="matrix(0.992499 -0.122255 -0.122255 -0.992499 67.818 212.24)" fill="black"/>
<rect width="5.21926" height="7.70578" transform="matrix(0.992499 -0.122255 -0.122255 -0.992499 29.6715 201.41)" fill="black"/>
<rect width="5.21926" height="7.70578" transform="matrix(0.992499 -0.122255 -0.122255 -0.992499 35.7931 208.421)" fill="black"/>
<rect width="5.21926" height="7.70578" transform="matrix(0.992499 -0.122255 -0.122255 -0.992499 40.9744 207.782)" fill="black"/>
<rect width="5.21926" height="7.70578" transform="matrix(0.992499 -0.122255 -0.122255 -0.992499 47.0974 214.792)" fill="black"/>
<rect width="5.21926" height="7.70578" transform="matrix(0.992499 -0.122255 -0.122255 -0.992499 52.2747 214.154)" fill="black"/>
<rect width="5.21926" height="7.70578" transform="matrix(0.992499 -0.122255 -0.122255 -0.992499 57.4572 213.516)" fill="black"/>
<rect width="5.21926" height="7.70578" transform="matrix(0.992499 -0.122255 -0.122255 -0.992499 62.637 212.878)" fill="black"/>
<rect width="5.21926" height="7.70578" transform="matrix(-0.992499 0.122255 0.122255 0.992499 81.4736 195.028)" fill="black"/>
<rect width="5.21926" height="7.70578" transform="matrix(-0.992499 0.122255 0.122255 0.992499 76.2941 195.666)" fill="black"/>
<rect width="7.70578" height="5.21926" transform="matrix(-0.122255 -0.992499 -0.992499 0.122255 86.6524 194.39)" fill="black"/>
<rect width="7.70578" height="5.21926" transform="matrix(-0.122255 -0.992499 -0.992499 0.122255 94.6576 131.292)" fill="black"/>
<rect width="7.70578" height="5.21926" transform="matrix(-0.122255 -0.992499 -0.992499 0.122255 90.8916 186.104)" fill="black"/>
<rect width="7.70578" height="5.21926" transform="matrix(-0.122255 -0.992499 -0.992499 0.122255 95.1306 177.819)" fill="black"/>
<rect width="7.70578" height="5.21926" transform="matrix(-0.122255 -0.992499 -0.992499 0.122255 94.1884 170.169)" fill="black"/>
<rect width="7.70578" height="5.21926" transform="matrix(-0.122255 -0.992499 -0.992499 0.122255 98.4258 161.883)" fill="black"/>
<rect width="7.70578" height="5.21926" transform="matrix(-0.122255 -0.992499 -0.992499 0.122255 97.4838 154.236)" fill="black"/>
<rect width="7.70578" height="5.21926" transform="matrix(-0.122255 -0.992499 -0.992499 0.122255 96.5418 146.588)" fill="black"/>
<rect width="7.70578" height="5.21926" transform="matrix(-0.122255 -0.992499 -0.992499 0.122255 95.5996 138.94)" fill="black"/>
<rect width="7.70578" height="5.21926" transform="matrix(0.122255 0.992499 0.992499 -0.122255 17.4262 101.986)" fill="black"/>
<rect width="7.70578" height="5.21926" transform="matrix(0.122255 0.992499 0.992499 -0.122255 9.42101 165.085)" fill="black"/>
<rect width="7.70578" height="5.21926" transform="matrix(0.122255 0.992499 0.992499 -0.122255 13.187 110.272)" fill="black"/>
<rect width="7.70578" height="5.21926" transform="matrix(0.122255 0.992499 0.992499 -0.122255 8.94809 118.559)" fill="black"/>
<rect width="7.70578" height="5.21926" transform="matrix(0.122255 0.992499 0.992499 -0.122255 9.89014 126.207)" fill="black"/>
<rect width="7.70578" height="5.21926" transform="matrix(0.122255 0.992499 0.992499 -0.122255 5.6528 134.493)" fill="black"/>
<rect width="7.70578" height="5.21926" transform="matrix(0.122255 0.992499 0.992499 -0.122255 6.59474 142.14)" fill="black"/>
<rect width="7.70578" height="5.21926" transform="matrix(0.122255 0.992499 0.992499 -0.122255 7.53683 149.788)" fill="black"/>
<rect width="7.70578" height="5.21926" transform="matrix(0.122255 0.992499 0.992499 -0.122255 8.47893 157.437)" fill="black"/>
<rect width="4.04237" height="5.96821" transform="matrix(-0.992499 0.122255 0.122255 0.992499 36.1818 105.692)" fill="#DD9914"/>
<rect width="4.04237" height="5.96821" transform="matrix(-0.992499 0.122255 0.122255 0.992499 32.172 106.185)" fill="#DD9914"/>
<rect width="5.96821" height="4.04237" transform="matrix(0.122255 0.992499 0.992499 -0.122255 74.4796 119.014)" fill="#DD9914"/>
<rect width="5.96821" height="4.04237" transform="matrix(0.122255 0.992499 0.992499 -0.122255 75.2092 124.937)" fill="#DD9914"/>
<rect width="4.04237" height="5.96821" transform="matrix(-0.992499 0.122255 0.122255 0.992499 73.75 113.091)" fill="#DD9914"/>
<rect width="4.04237" height="5.96821" transform="matrix(-0.992499 0.122255 0.122255 0.992499 39.4638 99.2731)" fill="#DD9914"/>
<rect width="4.04237" height="5.96821" transform="matrix(-0.992499 0.122255 0.122255 0.992499 69.0086 107.66)" fill="#DD9914"/>
<rect width="4.04237" height="5.96821" transform="matrix(-0.992499 0.122255 0.122255 0.992499 64.2676 102.232)" fill="#DD9914"/>
<rect width="4.04237" height="5.96821" transform="matrix(-0.992499 0.122255 0.122255 0.992499 60.2536 102.726)" fill="#DD9914"/>
<rect width="4.04237" height="5.96821" transform="matrix(-0.992499 0.122255 0.122255 0.992499 55.5125 97.2962)" fill="#DD9914"/>
<rect width="4.04237" height="5.96821" transform="matrix(-0.992499 0.122255 0.122255 0.992499 51.4991 97.7906)" fill="#DD9914"/>
<rect width="4.04237" height="5.96821" transform="matrix(-0.992499 0.122255 0.122255 0.992499 47.4874 98.2847)" fill="#DD9914"/>
<rect width="4.04237" height="5.96821" transform="matrix(-0.992499 0.122255 0.122255 0.992499 43.4749 98.779)" fill="#DD9914"/>
<rect width="5.96821" height="4.04237" transform="matrix(-0.122255 -0.992499 -0.992499 0.122255 28.8889 178.746)" fill="#DD9914"/>
<rect width="5.96821" height="4.04237" transform="matrix(-0.122255 -0.992499 -0.992499 0.122255 28.1593 172.824)" fill="#DD9914"/>
<rect width="4.04237" height="5.96821" transform="matrix(0.992499 -0.122255 -0.122255 -0.992499 29.6185 184.67)" fill="#DD9914"/>
<rect width="4.04237" height="5.96821" transform="matrix(0.992499 -0.122255 -0.122255 -0.992499 63.904 198.487)" fill="#DD9914"/>
<rect width="4.04237" height="5.96821" transform="matrix(0.992499 -0.122255 -0.122255 -0.992499 34.3599 190.1)" fill="#DD9914"/>
<rect width="4.04237" height="5.96821" transform="matrix(0.992499 -0.122255 -0.122255 -0.992499 39.1009 195.529)" fill="#DD9914"/>
<rect width="4.04237" height="5.96821" transform="matrix(0.992499 -0.122255 -0.122255 -0.992499 43.1147 195.035)" fill="#DD9914"/>
<rect width="4.04237" height="5.96821" transform="matrix(0.992499 -0.122255 -0.122255 -0.992499 47.8556 200.464)" fill="#DD9914"/>
<rect width="4.04237" height="5.96821" transform="matrix(0.992499 -0.122255 -0.122255 -0.992499 51.8688 199.97)" fill="#DD9914"/>
<rect width="4.04237" height="5.96821" transform="matrix(0.992499 -0.122255 -0.122255 -0.992499 55.8811 199.476)" fill="#DD9914"/>
<rect width="4.04237" height="5.96821" transform="matrix(0.992499 -0.122255 -0.122255 -0.992499 59.8927 198.982)" fill="#DD9914"/>
<rect width="4.04237" height="5.96821" transform="matrix(-0.992499 0.122255 0.122255 0.992499 74.4819 185.158)" fill="#DD9914"/>
<rect width="4.04237" height="5.96821" transform="matrix(-0.992499 0.122255 0.122255 0.992499 70.4705 185.652)" fill="#DD9914"/>
<rect width="5.96821" height="4.04237" transform="matrix(-0.122255 -0.992499 -0.992499 0.122255 78.495 184.664)" fill="#DD9914"/>
<rect width="5.96821" height="4.04237" transform="matrix(-0.122255 -0.992499 -0.992499 0.122255 84.6936 135.795)" fill="#DD9914"/>
<rect width="5.96821" height="4.04237" transform="matrix(-0.122255 -0.992499 -0.992499 0.122255 81.7769 178.247)" fill="#DD9914"/>
<rect width="5.96821" height="4.04237" transform="matrix(-0.122255 -0.992499 -0.992499 0.122255 85.0597 171.83)" fill="#DD9914"/>
<rect width="5.96821" height="4.04237" transform="matrix(-0.122255 -0.992499 -0.992499 0.122255 84.3302 165.907)" fill="#DD9914"/>
<rect width="5.96821" height="4.04237" transform="matrix(-0.122255 -0.992499 -0.992499 0.122255 87.612 159.488)" fill="#DD9914"/>
<rect width="5.96821" height="4.04237" transform="matrix(-0.122255 -0.992499 -0.992499 0.122255 86.8824 153.565)" fill="#DD9914"/>
<rect width="5.96821" height="4.04237" transform="matrix(-0.122255 -0.992499 -0.992499 0.122255 86.1528 147.642)" fill="#DD9914"/>
<rect width="5.96821" height="4.04237" transform="matrix(-0.122255 -0.992499 -0.992499 0.122255 85.4232 141.718)" fill="#DD9914"/>
<rect width="5.96821" height="4.04237" transform="matrix(0.122255 0.992499 0.992499 -0.122255 24.875 113.096)" fill="#DD9914"/>
<rect width="5.96821" height="4.04237" transform="matrix(0.122255 0.992499 0.992499 -0.122255 18.6772 161.966)" fill="#DD9914"/>
<rect width="5.96821" height="4.04237" transform="matrix(0.122255 0.992499 0.992499 -0.122255 21.5933 119.514)" fill="#DD9914"/>
<rect width="5.96821" height="4.04237" transform="matrix(0.122255 0.992499 0.992499 -0.122255 18.311 125.931)" fill="#DD9914"/>
<rect width="5.96821" height="4.04237" transform="matrix(0.122255 0.992499 0.992499 -0.122255 19.0407 131.856)" fill="#DD9914"/>
<rect width="5.96821" height="4.04237" transform="matrix(0.122255 0.992499 0.992499 -0.122255 15.7587 138.273)" fill="#DD9914"/>
<rect width="5.96821" height="4.04237" transform="matrix(0.122255 0.992499 0.992499 -0.122255 16.4883 144.196)" fill="#DD9914"/>
<rect width="5.96821" height="4.04237" transform="matrix(0.122255 0.992499 0.992499 -0.122255 17.2179 150.119)" fill="#DD9914"/>
<rect width="5.96821" height="4.04237" transform="matrix(0.122255 0.992499 0.992499 -0.122255 17.9476 156.043)" fill="#DD9914"/>
<path d="M65.7476 156.97L65.6426 156.983L65.9649 159.599L66.1481 161.086L64.661 161.269L61.9316 161.606L60.4445 161.789L60.2613 160.302L59.939 157.685L58.6719 157.841L57.1848 158.025L57.0016 156.537L56.6839 153.958L55.3919 154.117L54.1248 154.273L54.4426 156.853L54.6258 158.34L53.1387 158.523L50.4093 158.859L49.1174 159.018L49.9406 165.701L50.1238 167.188L48.6367 167.372L45.9073 167.708L44.4201 167.891L44.237 166.404L43.9192 163.824L42.6521 163.98L41.165 164.164L40.9818 162.676L40.6595 160.06L40.2878 160.106L39.0207 160.262L39.343 162.878L39.5262 164.365L38.0391 164.549L35.3097 164.885L33.8226 165.068L33.6394 163.581L32.8162 156.898L28.7949 157.393L27.3078 157.576L27.1246 156.089L26.1272 147.992L25.944 146.505L27.4311 146.322L31.4524 145.827L31.3133 144.697L24.5378 145.532L23.0507 145.715L22.8675 144.228L22.3711 140.198L22.1879 138.711L23.675 138.528L37.4213 136.834L38.9084 136.651L39.0916 138.138L39.4093 140.718L39.781 140.672L41.0481 140.516L40.7304 137.936L40.5472 136.449L42.0343 136.266L47.5179 135.591L49.005 135.407L49.1882 136.895L49.506 139.474L50.7731 139.318L52.065 139.159L52.2602 139.135L53.5521 138.976L54.8192 138.82L54.5014 136.24L54.3182 134.753L55.8054 134.57L58.5347 134.234L60.0219 134.05L60.205 135.538L60.5228 138.117L61.7899 137.961L63.277 137.778L63.4602 139.265L63.7779 141.845L63.8829 141.832L70.6584 140.997L70.5193 139.868L66.498 140.363L65.0109 140.547L64.8277 139.059L64.3313 135.029L64.1481 133.542L65.6352 133.359L73.8731 132.344L75.3602 132.161L75.5434 133.648L75.8611 136.228L77.1282 136.072L78.6153 135.889L78.7985 137.376L80.2968 149.539L80.48 151.027L78.9929 151.21L72.2174 152.044L72.361 153.21L76.385 152.714L77.8722 152.531L78.0553 154.018L78.5518 158.049L78.7349 159.536L77.2478 159.719L69.0073 160.734L67.5202 160.917L67.337 159.43L67.0147 156.814L65.7476 156.97Z" fill="#8A6300" stroke="#FFEB82" stroke-width="2.99669"/>
<path fill-rule="evenodd" clip-rule="evenodd" d="M35.9177 91.9447L82.5387 86.2019L84.4229 101.498L89.6021 100.86L90.5442 108.508L100.904 107.232L109.383 176.064L99.0228 177.34L99.9649 184.988L94.7857 185.626L96.6698 200.922L50.0488 206.664L48.1647 191.369L42.9837 192.007L42.0416 184.359L31.6809 185.635L23.2022 116.803L33.563 115.527L32.6209 107.879L37.8019 107.241L35.9177 91.9447Z" fill="#F7D108"/>
<rect x="72.1791" y="87.478" width="5.21926" height="7.70578" transform="rotate(-7.02226 72.1791 87.478)" fill="black"/>
<rect x="77.3589" y="86.84" width="5.21926" height="7.70578" transform="rotate(-7.02226 77.3589 86.84)" fill="black"/>
<rect x="28.3826" y="116.164" width="7.70578" height="5.21926" transform="rotate(82.9777 28.3826 116.164)" fill="black"/>
<rect x="29.3246" y="123.811" width="7.70578" height="5.21926" transform="rotate(82.9777 29.3246 123.811)" fill="black"/>
<rect x="27.4405" y="108.516" width="5.21926" height="7.70578" transform="rotate(-7.02226 27.4405 108.516)" fill="black"/>
<rect x="66.0582" y="80.4665" width="5.21926" height="7.70578" transform="rotate(-7.02226 66.0582 80.4665)" fill="black"/>
<rect x="31.6797" y="100.229" width="5.21926" height="7.70578" transform="rotate(-7.02226 31.6797 100.229)" fill="black"/>
<rect x="35.9174" y="91.9431" width="5.21926" height="7.70578" transform="rotate(-7.02226 35.9174 91.9431)" fill="black"/>
<rect x="41.0978" y="91.3049" width="5.21926" height="7.70578" transform="rotate(-7.02226 41.0978 91.3049)" fill="black"/>
<rect x="45.3367" y="83.0189" width="5.21926" height="7.70578" transform="rotate(-7.02226 45.3367 83.0189)" fill="black"/>
<rect x="50.5143" y="82.3812" width="5.21926" height="7.70578" transform="rotate(-7.02226 50.5143 82.3812)" fill="black"/>
<rect x="55.6974" y="81.7427" width="5.21926" height="7.70578" transform="rotate(-7.02226 55.6974 81.7427)" fill="black"/>
<rect x="60.8766" y="81.1047" width="5.21926" height="7.70578" transform="rotate(-7.02226 60.8766 81.1047)" fill="black"/>
<rect x="104.204" y="176.7" width="7.70578" height="5.21926" transform="rotate(-97.0223 104.204 176.7)" fill="black"/>
<rect x="103.262" y="169.053" width="7.70578" height="5.21926" transform="rotate(-97.0223 103.262 169.053)" fill="black"/>
<rect x="105.146" y="184.349" width="5.21926" height="7.70578" transform="rotate(172.978 105.146 184.349)" fill="black"/>
<rect x="66.5287" y="212.398" width="5.21926" height="7.70578" transform="rotate(172.978 66.5287 212.398)" fill="black"/>
<rect x="100.908" y="192.635" width="5.21926" height="7.70578" transform="rotate(172.978 100.908 192.635)" fill="black"/>
<rect x="96.6701" y="200.921" width="5.21926" height="7.70578" transform="rotate(172.978 96.6701 200.921)" fill="black"/>
<rect x="91.4891" y="201.559" width="5.21926" height="7.70578" transform="rotate(172.978 91.4891 201.559)" fill="black"/>
<rect x="87.2502" y="209.845" width="5.21926" height="7.70578" transform="rotate(172.978 87.2502 209.845)" fill="black"/>
<rect x="82.0725" y="210.483" width="5.21926" height="7.70578" transform="rotate(172.978 82.0725 210.483)" fill="black"/>
<rect x="76.8897" y="211.122" width="5.21926" height="7.70578" transform="rotate(172.978 76.8897 211.122)" fill="black"/>
<rect x="71.7103" y="211.76" width="5.21926" height="7.70578" transform="rotate(172.978 71.7103 211.76)" fill="black"/>
<rect x="49.1073" y="199.015" width="5.21926" height="7.70578" transform="rotate(-7.02226 49.1073 199.015)" fill="black"/>
<rect x="54.2861" y="198.377" width="5.21926" height="7.70578" transform="rotate(-7.02226 54.2861 198.377)" fill="black"/>
<rect x="43.9278" y="199.653" width="7.70578" height="5.21926" transform="rotate(-97.0223 43.9278 199.653)" fill="black"/>
<rect x="20.8495" y="140.383" width="7.70578" height="5.21926" transform="rotate(-97.0223 20.8495 140.383)" fill="black"/>
<rect x="37.8047" y="192.643" width="7.70578" height="5.21926" transform="rotate(-97.0223 37.8047 192.643)" fill="black"/>
<rect x="31.6815" y="185.634" width="7.70578" height="5.21926" transform="rotate(-97.0223 31.6815 185.634)" fill="black"/>
<rect x="30.7393" y="177.985" width="7.70578" height="5.21926" transform="rotate(-97.0223 30.7393 177.985)" fill="black"/>
<rect x="24.6177" y="170.975" width="7.70578" height="5.21926" transform="rotate(-97.0223 24.6177 170.975)" fill="black"/>
<rect x="23.6758" y="163.328" width="7.70578" height="5.21926" transform="rotate(-97.0223 23.6758 163.328)" fill="black"/>
<rect x="22.7337" y="155.68" width="7.70578" height="5.21926" transform="rotate(-97.0223 22.7337 155.68)" fill="black"/>
<rect x="21.7916" y="148.031" width="7.70578" height="5.21926" transform="rotate(-97.0223 21.7916 148.031)" fill="black"/>
<rect x="88.6607" y="93.2118" width="7.70578" height="5.21926" transform="rotate(82.9777 88.6607 93.2118)" fill="black"/>
<rect x="111.739" y="152.481" width="7.70578" height="5.21926" transform="rotate(82.9777 111.739 152.481)" fill="black"/>
<rect x="94.7837" y="100.221" width="7.70578" height="5.21926" transform="rotate(82.9777 94.7837 100.221)" fill="black"/>
<rect x="100.907" y="107.232" width="7.70578" height="5.21926" transform="rotate(82.9777 100.907 107.232)" fill="black"/>
<rect x="101.849" y="114.879" width="7.70578" height="5.21926" transform="rotate(82.9777 101.849 114.879)" fill="black"/>
<rect x="107.971" y="121.89" width="7.70578" height="5.21926" transform="rotate(82.9777 107.971 121.89)" fill="black"/>
<rect x="108.913" y="129.537" width="7.70578" height="5.21926" transform="rotate(82.9777 108.913 129.537)" fill="black"/>
<rect x="109.855" y="137.185" width="7.70578" height="5.21926" transform="rotate(82.9777 109.855 137.185)" fill="black"/>
<rect x="110.797" y="144.833" width="7.70578" height="5.21926" transform="rotate(82.9777 110.797 144.833)" fill="black"/>
<rect x="71.3623" y="101.357" width="4.04237" height="5.96821" transform="rotate(-7.02226 71.3623 101.357)" fill="#DD9914"/>
<rect x="75.3736" y="100.863" width="4.04237" height="5.96821" transform="rotate(-7.02226 75.3736 100.863)" fill="#DD9914"/>
<rect x="37.446" y="123.576" width="5.96821" height="4.04237" transform="rotate(82.9777 37.446 123.576)" fill="#DD9914"/>
<rect x="38.1755" y="129.498" width="5.96821" height="4.04237" transform="rotate(82.9777 38.1755 129.498)" fill="#DD9914"/>
<rect x="36.7164" y="117.652" width="4.04237" height="5.96821" transform="rotate(-7.02226 36.7164 117.652)" fill="#DD9914"/>
<rect x="66.6238" y="95.9271" width="4.04237" height="5.96821" transform="rotate(-7.02226 66.6238 95.9271)" fill="#DD9914"/>
<rect x="39.9983" y="111.234" width="4.04237" height="5.96821" transform="rotate(-7.02226 39.9983 111.234)" fill="#DD9914"/>
<rect x="43.28" y="104.816" width="4.04237" height="5.96821" transform="rotate(-7.02226 43.28 104.816)" fill="#DD9914"/>
<rect x="47.2937" y="104.322" width="4.04237" height="5.96821" transform="rotate(-7.02226 47.2937 104.322)" fill="#DD9914"/>
<rect x="50.5754" y="97.9039" width="4.04237" height="5.96821" transform="rotate(-7.02226 50.5754 97.9039)" fill="#DD9914"/>
<rect x="54.5885" y="97.4096" width="4.04237" height="5.96821" transform="rotate(-7.02226 54.5885 97.4096)" fill="#DD9914"/>
<rect x="58.6008" y="96.9154" width="4.04237" height="5.96821" transform="rotate(-7.02226 58.6008 96.9154)" fill="#DD9914"/>
<rect x="62.6106" y="96.4214" width="4.04237" height="5.96821" transform="rotate(-7.02226 62.6106 96.4214)" fill="#DD9914"/>
<rect x="96.1678" y="170.459" width="5.96821" height="4.04237" transform="rotate(-97.0223 96.1678 170.459)" fill="#DD9914"/>
<rect x="95.4383" y="164.536" width="5.96821" height="4.04237" transform="rotate(-97.0223 95.4383 164.536)" fill="#DD9914"/>
<rect x="96.8974" y="176.382" width="4.04237" height="5.96821" transform="rotate(172.978 96.8974 176.382)" fill="#DD9914"/>
<rect x="66.9894" y="198.107" width="4.04237" height="5.96821" transform="rotate(172.978 66.9894 198.107)" fill="#DD9914"/>
<rect x="93.6156" y="182.801" width="4.04237" height="5.96821" transform="rotate(172.978 93.6156 182.801)" fill="#DD9914"/>
<rect x="90.3338" y="189.218" width="4.04237" height="5.96821" transform="rotate(172.978 90.3338 189.218)" fill="#DD9914"/>
<rect x="86.3201" y="189.713" width="4.04237" height="5.96821" transform="rotate(172.978 86.3201 189.713)" fill="#DD9914"/>
<rect x="83.0384" y="196.13" width="4.04237" height="5.96821" transform="rotate(172.978 83.0384 196.13)" fill="#DD9914"/>
<rect x="79.0253" y="196.625" width="4.04237" height="5.96821" transform="rotate(172.978 79.0253 196.625)" fill="#DD9914"/>
<rect x="75.0136" y="197.119" width="4.04237" height="5.96821" transform="rotate(172.978 75.0136 197.119)" fill="#DD9914"/>
<rect x="71.0014" y="197.613" width="4.04237" height="5.96821" transform="rotate(172.978 71.0014 197.613)" fill="#DD9914"/>
<rect x="53.494" y="187.743" width="4.04237" height="5.96821" transform="rotate(-7.02226 53.494 187.743)" fill="#DD9914"/>
<rect x="57.5056" y="187.249" width="4.04237" height="5.96821" transform="rotate(-7.02226 57.5056 187.249)" fill="#DD9914"/>
<rect x="49.4808" y="188.237" width="5.96821" height="4.04237" transform="rotate(-97.0223 49.4808 188.237)" fill="#DD9914"/>
<rect x="31.6086" y="142.333" width="5.96821" height="4.04237" transform="rotate(-97.0223 31.6086 142.333)" fill="#DD9914"/>
<rect x="44.74" y="182.809" width="5.96821" height="4.04237" transform="rotate(-97.0223 44.74 182.809)" fill="#DD9914"/>
<rect x="39.9987" y="177.38" width="5.96821" height="4.04237" transform="rotate(-97.0223 39.9987 177.38)" fill="#DD9914"/>
<rect x="39.2691" y="171.457" width="5.96821" height="4.04237" transform="rotate(-97.0223 39.2691 171.457)" fill="#DD9914"/>
<rect x="34.527" y="166.026" width="5.96821" height="4.04237" transform="rotate(-97.0223 34.527 166.026)" fill="#DD9914"/>
<rect x="33.7975" y="160.104" width="5.96821" height="4.04237" transform="rotate(-97.0223 33.7975 160.104)" fill="#DD9914"/>
<rect x="33.0679" y="154.18" width="5.96821" height="4.04237" transform="rotate(-97.0223 33.0679 154.18)" fill="#DD9914"/>
<rect x="32.3382" y="148.257" width="5.96821" height="4.04237" transform="rotate(-97.0223 32.3382 148.257)" fill="#DD9914"/>
<rect x="84.1282" y="105.797" width="5.96821" height="4.04237" transform="rotate(82.9777 84.1282 105.797)" fill="#DD9914"/>
<rect x="102.001" y="151.703" width="5.96821" height="4.04237" transform="rotate(82.9777 102.001 151.703)" fill="#DD9914"/>
<rect x="88.8694" y="111.227" width="5.96821" height="4.04237" transform="rotate(82.9777 88.8694 111.227)" fill="#DD9914"/>
<rect x="93.6113" y="116.656" width="5.96821" height="4.04237" transform="rotate(82.9777 93.6113 116.656)" fill="#DD9914"/>
<rect x="94.3411" y="122.58" width="5.96821" height="4.04237" transform="rotate(82.9777 94.3411 122.58)" fill="#DD9914"/>
<rect x="99.082" y="128.009" width="5.96821" height="4.04237" transform="rotate(82.9777 99.082 128.009)" fill="#DD9914"/>
<rect x="99.8116" y="133.932" width="5.96821" height="4.04237" transform="rotate(82.9777 99.8116 133.932)" fill="#DD9914"/>
<rect x="100.541" y="139.856" width="5.96821" height="4.04237" transform="rotate(82.9777 100.541 139.856)" fill="#DD9914"/>
<rect x="101.271" y="145.779" width="5.96821" height="4.04237" transform="rotate(82.9777 101.271 145.779)" fill="#DD9914"/>
<path fill-rule="evenodd" clip-rule="evenodd" d="M187.117 163.325L238.78 220.063L220.165 237.014L225.903 243.316L216.596 251.791L228.076 264.399L144.308 340.676L132.828 328.068L123.52 336.543L117.781 330.241L99.1669 347.191L47.5032 290.453L66.1177 273.504L60.3757 267.198L69.6834 258.722L58.2022 246.114L141.97 169.837L153.451 182.445L162.759 173.97L168.501 180.276L187.117 163.325Z" fill="#DFA30A"/>
<rect x="227.295" y="207.449" width="8.52613" height="12.5881" transform="rotate(47.6798 227.295 207.449)" fill="black"/>
<rect x="233.037" y="213.755" width="8.52613" height="12.5881" transform="rotate(47.6798 233.037 213.755)" fill="black"/>
<rect x="147.711" y="176.137" width="12.5881" height="8.52613" transform="rotate(137.68 147.711 176.137)" fill="black"/>
<rect x="138.404" y="184.612" width="12.5881" height="8.52613" transform="rotate(137.68 138.404 184.612)" fill="black"/>
<rect x="157.019" y="167.662" width="8.52613" height="12.5881" transform="rotate(47.6798 157.019 167.662)" fill="black"/>
<rect x="230.868" y="192.672" width="8.52613" height="12.5881" transform="rotate(47.6798 230.868 192.672)" fill="black"/>
<rect x="172.067" y="165.491" width="8.52613" height="12.5881" transform="rotate(47.6798 172.067 165.491)" fill="black"/>
<rect x="187.115" y="163.319" width="8.52613" height="12.5881" transform="rotate(47.6798 187.115 163.319)" fill="black"/>
<rect x="192.856" y="169.625" width="8.52613" height="12.5881" transform="rotate(47.6798 192.856 169.625)" fill="black"/>
<rect x="207.905" y="167.455" width="8.52613" height="12.5881" transform="rotate(47.6798 207.905 167.455)" fill="black"/>
<rect x="213.643" y="173.756" width="8.52613" height="12.5881" transform="rotate(47.6798 213.643 173.756)" fill="black"/>
<rect x="219.386" y="180.063" width="8.52613" height="12.5881" transform="rotate(47.6798 219.386 180.063)" fill="black"/>
<rect x="225.126" y="186.367" width="8.52613" height="12.5881" transform="rotate(47.6798 225.126 186.367)" fill="black"/>
<rect x="138.567" y="334.37" width="12.5881" height="8.52613" transform="rotate(-42.3202 138.567 334.37)" fill="black"/>
<rect x="147.874" y="325.895" width="12.5881" height="8.52613" transform="rotate(-42.3202 147.874 325.895)" fill="black"/>
<rect x="129.259" y="342.845" width="8.52613" height="12.5881" transform="rotate(-132.32 129.259 342.845)" fill="black"/>
<rect x="55.4099" y="317.834" width="8.52613" height="12.5881" transform="rotate(-132.32 55.4099 317.834)" fill="black"/>
<rect x="114.21" y="345.015" width="8.52613" height="12.5881" transform="rotate(-132.32 114.21 345.015)" fill="black"/>
<rect x="99.1623" y="347.187" width="8.52613" height="12.5881" transform="rotate(-132.32 99.1623 347.187)" fill="black"/>
<rect x="93.4207" y="340.881" width="8.52613" height="12.5881" transform="rotate(-132.32 93.4207 340.881)" fill="black"/>
<rect x="78.3717" y="343.051" width="8.52613" height="12.5881" transform="rotate(-132.32 78.3717 343.051)" fill="black"/>
<rect x="72.6345" y="336.75" width="8.52613" height="12.5881" transform="rotate(-132.32 72.6345 336.75)" fill="black"/>
<rect x="66.8915" y="330.443" width="8.52613" height="12.5881" transform="rotate(-132.32 66.8915 330.443)" fill="black"/>
<rect x="61.1514" y="324.14" width="8.52613" height="12.5881" transform="rotate(-132.32 61.1514 324.14)" fill="black"/>
<rect x="56.8077" y="281.971" width="8.52613" height="12.5881" transform="rotate(47.6798 56.8077 281.971)" fill="black"/>
<rect x="62.5473" y="288.275" width="8.52613" height="12.5881" transform="rotate(47.6798 62.5473 288.275)" fill="black"/>
<rect x="51.0686" y="275.669" width="12.5881" height="8.52613" transform="rotate(-42.3202 51.0686 275.669)" fill="black"/>
<rect x="108.306" y="188.953" width="12.5881" height="8.52613" transform="rotate(-42.3202 108.306 188.953)" fill="black"/>
<rect x="54.6347" y="260.888" width="12.5881" height="8.52613" transform="rotate(-42.3202 54.6347 260.888)" fill="black"/>
<rect x="58.1998" y="246.108" width="12.5881" height="8.52613" transform="rotate(-42.3202 58.1998 246.108)" fill="black"/>
<rect x="67.5088" y="237.632" width="12.5881" height="8.52613" transform="rotate(-42.3202 67.5088 237.632)" fill="black"/>
<rect x="71.0769" y="222.853" width="12.5881" height="8.52613" transform="rotate(-42.3202 71.0769 222.853)" fill="black"/>
<rect x="80.3833" y="214.379" width="12.5881" height="8.52613" transform="rotate(-42.3202 80.3833 214.379)" fill="black"/>
<rect x="89.6908" y="205.904" width="12.5881" height="8.52613" transform="rotate(-42.3202 89.6908 205.904)" fill="black"/>
<rect x="98.9987" y="197.428" width="12.5881" height="8.52613" transform="rotate(-42.3202 98.9987 197.428)" fill="black"/>
<rect x="235.208" y="234.836" width="12.5881" height="8.52613" transform="rotate(137.68 235.208 234.836)" fill="black"/>
<rect x="177.97" y="321.552" width="12.5881" height="8.52613" transform="rotate(137.68 177.97 321.552)" fill="black"/>
<rect x="231.642" y="249.616" width="12.5881" height="8.52613" transform="rotate(137.68 231.642 249.616)" fill="black"/>
<rect x="228.076" y="264.397" width="12.5881" height="8.52613" transform="rotate(137.68 228.076 264.397)" fill="black"/>
<rect x="218.768" y="272.873" width="12.5881" height="8.52613" transform="rotate(137.68 218.768 272.873)" fill="black"/>
<rect x="215.2" y="287.651" width="12.5881" height="8.52613" transform="rotate(137.68 215.2 287.651)" fill="black"/>
<rect x="205.893" y="296.126" width="12.5881" height="8.52613" transform="rotate(137.68 205.893 296.126)" fill="black"/>
<rect x="196.586" y="304.601" width="12.5881" height="8.52613" transform="rotate(137.68 196.586 304.601)" fill="black"/>
<rect x="187.278" y="313.077" width="12.5881" height="8.52613" transform="rotate(137.68 187.278 313.077)" fill="black"/>
<rect x="208.021" y="219.466" width="6.60357" height="9.7496" transform="rotate(47.6798 208.021 219.466)" fill="#DD9914"/>
<rect x="212.464" y="224.345" width="6.60357" height="9.7496" transform="rotate(47.6798 212.464 224.345)" fill="#DD9914"/>
<rect x="146.38" y="195.214" width="9.7496" height="6.60357" transform="rotate(137.68 146.38 195.214)" fill="#DD9914"/>
<rect x="139.172" y="201.778" width="9.7496" height="6.60357" transform="rotate(137.68 139.172 201.778)" fill="#DD9914"/>
<rect x="153.588" y="188.65" width="6.60357" height="9.7496" transform="rotate(47.6798 153.588 188.65)" fill="#DD9914"/>
<rect x="210.785" y="208.018" width="6.60357" height="9.7496" transform="rotate(47.6798 210.785 208.018)" fill="#DD9914"/>
<rect x="165.244" y="186.967" width="6.60357" height="9.7496" transform="rotate(47.6798 165.244 186.967)" fill="#DD9914"/>
<rect x="176.898" y="185.285" width="6.60357" height="9.7496" transform="rotate(47.6798 176.898 185.285)" fill="#DD9914"/>
<rect x="181.346" y="190.17" width="6.60357" height="9.7496" transform="rotate(47.6798 181.346 190.17)" fill="#DD9914"/>
<rect x="193.001" y="188.487" width="6.60357" height="9.7496" transform="rotate(47.6798 193.001 188.487)" fill="#DD9914"/>
<rect x="197.448" y="193.371" width="6.60357" height="9.7496" transform="rotate(47.6798 197.448 193.371)" fill="#DD9914"/>
<rect x="201.894" y="198.254" width="6.60357" height="9.7496" transform="rotate(47.6798 201.894 198.254)" fill="#DD9914"/>
<rect x="206.34" y="203.137" width="6.60357" height="9.7496" transform="rotate(47.6798 206.34 203.137)" fill="#DD9914"/>
<rect x="139.303" y="317.762" width="9.7496" height="6.60357" transform="rotate(-42.3202 139.303 317.762)" fill="#DD9914"/>
<rect x="146.511" y="311.199" width="9.7496" height="6.60357" transform="rotate(-42.3202 146.511 311.199)" fill="#DD9914"/>
<rect x="132.094" y="324.326" width="6.60357" height="9.7496" transform="rotate(-132.32 132.094 324.326)" fill="#DD9914"/>
<rect x="74.8987" y="304.958" width="6.60357" height="9.7496" transform="rotate(-132.32 74.8987 304.958)" fill="#DD9914"/>
<rect x="120.439" y="326.01" width="6.60357" height="9.7496" transform="rotate(-132.32 120.439 326.01)" fill="#DD9914"/>
<rect x="108.785" y="327.692" width="6.60357" height="9.7496" transform="rotate(-132.32 108.785 327.692)" fill="#DD9914"/>
<rect x="104.337" y="322.807" width="6.60357" height="9.7496" transform="rotate(-132.32 104.337 322.807)" fill="#DD9914"/>
<rect x="92.683" y="324.489" width="6.60357" height="9.7496" transform="rotate(-132.32 92.683 324.489)" fill="#DD9914"/>
<rect x="88.2357" y="319.605" width="6.60357" height="9.7496" transform="rotate(-132.32 88.2357 319.605)" fill="#DD9914"/>
<rect x="83.7894" y="314.722" width="6.60357" height="9.7496" transform="rotate(-132.32 83.7894 314.722)" fill="#DD9914"/>
<rect x="79.344" y="309.84" width="6.60357" height="9.7496" transform="rotate(-132.32 79.344 309.84)" fill="#DD9914"/>
<rect x="75.9777" y="277.182" width="6.60357" height="9.7496" transform="rotate(47.6798 75.9777 277.182)" fill="#DD9914"/>
<rect x="80.4231" y="282.064" width="6.60357" height="9.7496" transform="rotate(47.6798 80.4231 282.064)" fill="#DD9914"/>
<rect x="71.5304" y="272.298" width="9.7496" height="6.60357" transform="rotate(-42.3202 71.5304 272.298)" fill="#DD9914"/>
<rect x="115.862" y="205.139" width="9.7496" height="6.60357" transform="rotate(-42.3202 115.862 205.139)" fill="#DD9914"/>
<rect x="74.2923" y="260.853" width="9.7496" height="6.60357" transform="rotate(-42.3202 74.2923 260.853)" fill="#DD9914"/>
<rect x="77.0551" y="249.406" width="9.7496" height="6.60357" transform="rotate(-42.3202 77.0551 249.406)" fill="#DD9914"/>
<rect x="84.2629" y="242.843" width="9.7496" height="6.60357" transform="rotate(-42.3202 84.2629 242.843)" fill="#DD9914"/>
<rect x="87.0278" y="231.394" width="9.7496" height="6.60357" transform="rotate(-42.3202 87.0278 231.394)" fill="#DD9914"/>
<rect x="94.2358" y="224.831" width="9.7496" height="6.60357" transform="rotate(-42.3202 94.2358 224.831)" fill="#DD9914"/>
<rect x="101.444" y="218.267" width="9.7496" height="6.60357" transform="rotate(-42.3202 101.444 218.267)" fill="#DD9914"/>
<rect x="108.653" y="211.703" width="9.7496" height="6.60357" transform="rotate(-42.3202 108.653 211.703)" fill="#DD9914"/>
<rect x="214.152" y="240.677" width="9.7496" height="6.60357" transform="rotate(137.68 214.152 240.677)" fill="#DD9914"/>
<rect x="169.819" y="307.836" width="9.7496" height="6.60357" transform="rotate(137.68 169.819 307.836)" fill="#DD9914"/>
<rect x="211.389" y="252.123" width="9.7496" height="6.60357" transform="rotate(137.68 211.389 252.123)" fill="#DD9914"/>
<rect x="208.626" y="263.569" width="9.7496" height="6.60357" transform="rotate(137.68 208.626 263.569)" fill="#DD9914"/>
<rect x="201.416" y="270.135" width="9.7496" height="6.60357" transform="rotate(137.68 201.416 270.135)" fill="#DD9914"/>
<rect x="198.653" y="281.581" width="9.7496" height="6.60357" transform="rotate(137.68 198.653 281.581)" fill="#DD9914"/>
<rect x="191.445" y="288.144" width="9.7496" height="6.60357" transform="rotate(137.68 191.445 288.144)" fill="#DD9914"/>
<rect x="184.236" y="294.708" width="9.7496" height="6.60357" transform="rotate(137.68 184.236 294.708)" fill="#DD9914"/>
<rect x="177.028" y="301.272" width="9.7496" height="6.60357" transform="rotate(137.68 177.028 301.272)" fill="#DD9914"/>
<path d="M116.803 251.545L116.919 251.672L113.735 254.572L111.926 256.22L113.574 258.029L116.598 261.351L118.246 263.161L120.056 261.513L123.24 258.614L124.644 260.156L126.292 261.965L128.102 260.317L131.241 257.459L132.673 259.031L134.077 260.573L130.938 263.432L129.128 265.08L130.776 266.89L133.8 270.211L135.232 271.783L127.099 279.189L125.289 280.837L126.937 282.647L129.962 285.969L131.61 287.779L133.419 286.131L136.559 283.272L137.963 284.814L139.611 286.624L141.421 284.976L144.605 282.077L145.017 282.529L146.421 284.071L143.237 286.97L141.427 288.618L143.075 290.428L146.1 293.75L147.748 295.56L149.557 293.912L157.691 286.506L162.147 291.4L163.795 293.209L165.605 291.561L175.459 282.589L177.268 280.941L175.62 279.131L171.164 274.237L172.538 272.986L180.047 281.231L181.695 283.041L183.505 281.393L188.409 276.927L190.219 275.279L188.571 273.469L173.338 256.74L171.69 254.931L169.88 256.578L166.741 259.437L166.329 258.985L164.925 257.443L168.064 254.584L169.874 252.936L168.226 251.126L162.149 244.453L160.501 242.643L158.692 244.291L155.552 247.15L154.148 245.608L152.716 244.035L152.5 243.798L151.068 242.226L149.664 240.683L152.804 237.825L154.613 236.177L152.965 234.367L149.941 231.045L148.293 229.236L146.483 230.883L143.344 233.742L141.939 232.2L140.291 230.39L138.482 232.038L135.342 234.897L135.226 234.769L127.718 226.523L129.092 225.272L133.548 230.166L135.196 231.976L137.006 230.328L141.91 225.862L143.72 224.214L142.072 222.404L132.943 212.379L131.295 210.569L129.486 212.217L126.346 215.076L124.942 213.533L123.294 211.724L121.484 213.372L106.681 226.851L104.871 228.499L106.519 230.309L114.028 238.555L112.609 239.846L108.15 234.949L106.502 233.139L104.692 234.787L99.7871 239.253L97.9773 240.901L99.6252 242.711L108.757 252.74L110.405 254.55L112.215 252.902L115.399 250.002L116.803 251.545Z" fill="#8A6300" stroke="#FFEB82" stroke-width="4.89537"/>
<path fill-rule="evenodd" clip-rule="evenodd" d="M172.883 147.693L224.546 204.431L205.931 221.382L211.67 227.685L202.362 236.16L213.843 248.768L130.075 325.045L118.594 312.437L109.287 320.912L103.547 314.609L84.9328 331.559L33.2691 274.821L51.8836 257.872L46.1421 251.566L55.4498 243.091L43.9686 230.482L127.737 154.205L139.218 166.814L148.525 158.339L154.267 164.644L172.883 147.693Z" fill="#F7D108"/>
<rect x="213.066" y="191.823" width="8.52613" height="12.5881" transform="rotate(47.6798 213.066 191.823)" fill="black"/>
<rect x="218.806" y="198.127" width="8.52613" height="12.5881" transform="rotate(47.6798 218.806 198.127)" fill="black"/>
<rect x="133.479" y="160.508" width="12.5881" height="8.52613" transform="rotate(137.68 133.479 160.508)" fill="black"/>
<rect x="124.173" y="168.983" width="12.5881" height="8.52613" transform="rotate(137.68 124.173 168.983)" fill="black"/>
<rect x="142.787" y="152.033" width="8.52613" height="12.5881" transform="rotate(47.6798 142.787 152.033)" fill="black"/>
<rect x="216.637" y="177.044" width="8.52613" height="12.5881" transform="rotate(47.6798 216.637 177.044)" fill="black"/>
<rect x="157.836" y="149.863" width="8.52613" height="12.5881" transform="rotate(47.6798 157.836 149.863)" fill="black"/>
<rect x="172.884" y="147.691" width="8.52613" height="12.5881" transform="rotate(47.6798 172.884 147.691)" fill="black"/>
<rect x="178.625" y="153.996" width="8.52613" height="12.5881" transform="rotate(47.6798 178.625 153.996)" fill="black"/>
<rect x="193.674" y="151.826" width="8.52613" height="12.5881" transform="rotate(47.6798 193.674 151.826)" fill="black"/>
<rect x="199.411" y="158.127" width="8.52613" height="12.5881" transform="rotate(47.6798 199.411 158.127)" fill="black"/>
<rect x="205.155" y="164.435" width="8.52613" height="12.5881" transform="rotate(47.6798 205.155 164.435)" fill="black"/>
<rect x="210.895" y="170.738" width="8.52613" height="12.5881" transform="rotate(47.6798 210.895 170.738)" fill="black"/>
<rect x="124.338" y="318.74" width="12.5881" height="8.52613" transform="rotate(-42.3202 124.338 318.74)" fill="black"/>
<rect x="133.644" y="310.266" width="12.5881" height="8.52613" transform="rotate(-42.3202 133.644 310.266)" fill="black"/>
<rect x="115.03" y="327.216" width="8.52613" height="12.5881" transform="rotate(-132.32 115.03 327.216)" fill="black"/>
<rect x="41.1805" y="302.205" width="8.52613" height="12.5881" transform="rotate(-132.32 41.1805 302.205)" fill="black"/>
<rect x="99.9815" y="329.387" width="8.52613" height="12.5881" transform="rotate(-132.32 99.9815 329.387)" fill="black"/>
<rect x="84.9334" y="331.558" width="8.52613" height="12.5881" transform="rotate(-132.32 84.9334 331.558)" fill="black"/>
<rect x="79.1924" y="325.253" width="8.52613" height="12.5881" transform="rotate(-132.32 79.1924 325.253)" fill="black"/>
<rect x="64.1434" y="327.423" width="8.52613" height="12.5881" transform="rotate(-132.32 64.1434 327.423)" fill="black"/>
<rect x="58.4057" y="321.122" width="8.52613" height="12.5881" transform="rotate(-132.32 58.4057 321.122)" fill="black"/>
<rect x="52.6622" y="314.814" width="8.52613" height="12.5881" transform="rotate(-132.32 52.6622 314.814)" fill="black"/>
<rect x="46.9226" y="308.511" width="8.52613" height="12.5881" transform="rotate(-132.32 46.9226 308.511)" fill="black"/>
<rect x="42.5793" y="266.346" width="8.52613" height="12.5881" transform="rotate(47.6798 42.5793 266.346)" fill="black"/>
<rect x="48.3184" y="272.649" width="8.52613" height="12.5881" transform="rotate(47.6798 48.3184 272.649)" fill="black"/>
<rect x="36.8396" y="260.042" width="12.5881" height="8.52613" transform="rotate(-42.3202 36.8396 260.042)" fill="black"/>
<rect x="94.0775" y="173.326" width="12.5881" height="8.52613" transform="rotate(-42.3202 94.0775 173.326)" fill="black"/>
<rect x="40.4058" y="245.262" width="12.5881" height="8.52613" transform="rotate(-42.3202 40.4058 245.262)" fill="black"/>
<rect x="43.9709" y="230.482" width="12.5881" height="8.52613" transform="rotate(-42.3202 43.9709 230.482)" fill="black"/>
<rect x="53.2799" y="222.005" width="12.5881" height="8.52613" transform="rotate(-42.3202 53.2799 222.005)" fill="black"/>
<rect x="56.848" y="207.227" width="12.5881" height="8.52613" transform="rotate(-42.3202 56.848 207.227)" fill="black"/>
<rect x="66.1544" y="198.753" width="12.5881" height="8.52613" transform="rotate(-42.3202 66.1544 198.753)" fill="black"/>
<rect x="75.4619" y="190.277" width="12.5881" height="8.52613" transform="rotate(-42.3202 75.4619 190.277)" fill="black"/>
<rect x="84.7698" y="181.802" width="12.5881" height="8.52613" transform="rotate(-42.3202 84.7698 181.802)" fill="black"/>
<rect x="220.979" y="219.21" width="12.5881" height="8.52613" transform="rotate(137.68 220.979 219.21)" fill="black"/>
<rect x="163.741" y="305.925" width="12.5881" height="8.52613" transform="rotate(137.68 163.741 305.925)" fill="black"/>
<rect x="217.413" y="233.99" width="12.5881" height="8.52613" transform="rotate(137.68 217.413 233.99)" fill="black"/>
<rect x="213.847" y="248.771" width="12.5881" height="8.52613" transform="rotate(137.68 213.847 248.771)" fill="black"/>
<rect x="204.539" y="257.246" width="12.5881" height="8.52613" transform="rotate(137.68 204.539 257.246)" fill="black"/>
<rect x="200.971" y="272.025" width="12.5881" height="8.52613" transform="rotate(137.68 200.971 272.025)" fill="black"/>
<rect x="191.664" y="280.499" width="12.5881" height="8.52613" transform="rotate(137.68 191.664 280.499)" fill="black"/>
<rect x="182.357" y="288.975" width="12.5881" height="8.52613" transform="rotate(137.68 182.357 288.975)" fill="black"/>
<rect x="173.049" y="297.45" width="12.5881" height="8.52613" transform="rotate(137.68 173.049 297.45)" fill="black"/>
<rect x="193.79" y="203.835" width="6.60357" height="9.7496" transform="rotate(47.6798 193.79 203.835)" fill="#DD9914"/>
<rect x="198.235" y="208.717" width="6.60357" height="9.7496" transform="rotate(47.6798 198.235 208.717)" fill="#DD9914"/>
<rect x="132.153" y="179.588" width="9.7496" height="6.60357" transform="rotate(137.68 132.153 179.588)" fill="#DD9914"/>
<rect x="124.945" y="186.151" width="9.7496" height="6.60357" transform="rotate(137.68 124.945 186.151)" fill="#DD9914"/>
<rect x="139.362" y="173.024" width="6.60357" height="9.7496" transform="rotate(47.6798 139.362 173.024)" fill="#DD9914"/>
<rect x="196.557" y="192.392" width="6.60357" height="9.7496" transform="rotate(47.6798 196.557 192.392)" fill="#DD9914"/>
<rect x="151.017" y="171.341" width="6.60357" height="9.7496" transform="rotate(47.6798 151.017 171.341)" fill="#DD9914"/>
<rect x="162.671" y="169.659" width="6.60357" height="9.7496" transform="rotate(47.6798 162.671 169.659)" fill="#DD9914"/>
<rect x="167.119" y="174.543" width="6.60357" height="9.7496" transform="rotate(47.6798 167.119 174.543)" fill="#DD9914"/>
<rect x="178.773" y="172.861" width="6.60357" height="9.7496" transform="rotate(47.6798 178.773 172.861)" fill="#DD9914"/>
<rect x="183.22" y="177.745" width="6.60357" height="9.7496" transform="rotate(47.6798 183.22 177.745)" fill="#DD9914"/>
<rect x="187.667" y="182.628" width="6.60357" height="9.7496" transform="rotate(47.6798 187.667 182.628)" fill="#DD9914"/>
<rect x="192.11" y="187.508" width="6.60357" height="9.7496" transform="rotate(47.6798 192.11 187.508)" fill="#DD9914"/>
<rect x="125.073" y="302.134" width="9.7496" height="6.60357" transform="rotate(-42.3202 125.073 302.134)" fill="#DD9914"/>
<rect x="132.281" y="295.57" width="9.7496" height="6.60357" transform="rotate(-42.3202 132.281 295.57)" fill="#DD9914"/>
<rect x="117.865" y="308.698" width="6.60357" height="9.7496" transform="rotate(-132.32 117.865 308.698)" fill="#DD9914"/>
<rect x="60.6681" y="289.33" width="6.60357" height="9.7496" transform="rotate(-132.32 60.6681 289.33)" fill="#DD9914"/>
<rect x="106.209" y="310.381" width="6.60357" height="9.7496" transform="rotate(-132.32 106.209 310.381)" fill="#DD9914"/>
<rect x="94.5552" y="312.063" width="6.60357" height="9.7496" transform="rotate(-132.32 94.5552 312.063)" fill="#DD9914"/>
<rect x="90.1074" y="307.179" width="6.60357" height="9.7496" transform="rotate(-132.32 90.1074 307.179)" fill="#DD9914"/>
<rect x="78.4529" y="308.861" width="6.60357" height="9.7496" transform="rotate(-132.32 78.4529 308.861)" fill="#DD9914"/>
<rect x="74.0056" y="303.977" width="6.60357" height="9.7496" transform="rotate(-132.32 74.0056 303.977)" fill="#DD9914"/>
<rect x="69.5603" y="299.095" width="6.60357" height="9.7496" transform="rotate(-132.32 69.5603 299.095)" fill="#DD9914"/>
<rect x="65.114" y="294.212" width="6.60357" height="9.7496" transform="rotate(-132.32 65.114 294.212)" fill="#DD9914"/>
<rect x="61.7475" y="261.554" width="6.60357" height="9.7496" transform="rotate(47.6798 61.7475 261.554)" fill="#DD9914"/>
<rect x="66.1928" y="266.436" width="6.60357" height="9.7496" transform="rotate(47.6798 66.1928 266.436)" fill="#DD9914"/>
<rect x="57.3002" y="256.67" width="9.7496" height="6.60357" transform="rotate(-42.3202 57.3002 256.67)" fill="#DD9914"/>
<rect x="101.632" y="189.511" width="9.7496" height="6.60357" transform="rotate(-42.3202 101.632 189.511)" fill="#DD9914"/>
<rect x="60.0624" y="245.225" width="9.7496" height="6.60357" transform="rotate(-42.3202 60.0624 245.225)" fill="#DD9914"/>
<rect x="62.8259" y="233.779" width="9.7496" height="6.60357" transform="rotate(-42.3202 62.8259 233.779)" fill="#DD9914"/>
<rect x="70.0336" y="227.215" width="9.7496" height="6.60357" transform="rotate(-42.3202 70.0336 227.215)" fill="#DD9914"/>
<rect x="72.7983" y="215.766" width="9.7496" height="6.60357" transform="rotate(-42.3202 72.7983 215.766)" fill="#DD9914"/>
<rect x="80.0061" y="209.203" width="9.7496" height="6.60357" transform="rotate(-42.3202 80.0061 209.203)" fill="#DD9914"/>
<rect x="87.2149" y="202.639" width="9.7496" height="6.60357" transform="rotate(-42.3202 87.2149 202.639)" fill="#DD9914"/>
<rect x="94.4238" y="196.075" width="9.7496" height="6.60357" transform="rotate(-42.3202 94.4238 196.075)" fill="#DD9914"/>
<rect x="199.92" y="225.047" width="9.7496" height="6.60357" transform="rotate(137.68 199.92 225.047)" fill="#DD9914"/>
<rect x="155.587" y="292.207" width="9.7496" height="6.60357" transform="rotate(137.68 155.587 292.207)" fill="#DD9914"/>
<rect x="197.157" y="236.492" width="9.7496" height="6.60357" transform="rotate(137.68 197.157 236.492)" fill="#DD9914"/>
<rect x="194.395" y="247.939" width="9.7496" height="6.60357" transform="rotate(137.68 194.395 247.939)" fill="#DD9914"/>
<rect x="187.184" y="254.505" width="9.7496" height="6.60357" transform="rotate(137.68 187.184 254.505)" fill="#DD9914"/>
<rect x="184.421" y="265.951" width="9.7496" height="6.60357" transform="rotate(137.68 184.421 265.951)" fill="#DD9914"/>
<rect x="177.214" y="272.514" width="9.7496" height="6.60357" transform="rotate(137.68 177.214 272.514)" fill="#DD9914"/>
<rect x="170.005" y="279.078" width="9.7496" height="6.60357" transform="rotate(137.68 170.005 279.078)" fill="#DD9914"/>
<rect x="162.796" y="285.642" width="9.7496" height="6.60357" transform="rotate(137.68 162.796 285.642)" fill="#DD9914"/>
</svg>
